<svg width="159" height="29" viewBox="0 0 159 29" fill="none" xmlns="http://www.w3.org/2000/svg">
<circle cx="14.5" cy="14.5" r="13.5" fill="white" stroke="#E0E0E0" stroke-width="2"/>
<path d="M15.7832 20H13.6709V14.2168L13.6914 13.2666L13.7256 12.2275C13.3747 12.5785 13.1309 12.8086 12.9941 12.918L11.8457 13.8408L10.8271 12.5693L14.0469 10.0059H15.7832V20Z" fill="#767B7F"/>
<path d="M45.377 14.709H46.0742C46.7259 14.709 47.2135 14.5814 47.5371 14.3262C47.8607 14.0664 48.0225 13.6904 48.0225 13.1982C48.0225 12.7015 47.8857 12.3346 47.6123 12.0977C47.3434 11.8607 46.9196 11.7422 46.3408 11.7422H45.377V14.709ZM50.1621 13.123C50.1621 14.1986 49.8249 15.0212 49.1504 15.5908C48.4805 16.1605 47.5257 16.4453 46.2861 16.4453H45.377V20H43.2578V10.0059H46.4502C47.6624 10.0059 48.583 10.2679 49.2119 10.792C49.8454 11.3115 50.1621 12.0885 50.1621 13.123ZM54.168 14.4424H54.8516C55.5215 14.4424 56.016 14.3307 56.335 14.1074C56.654 13.8841 56.8135 13.5332 56.8135 13.0547C56.8135 12.5807 56.6494 12.2435 56.3213 12.043C55.9977 11.8424 55.4941 11.7422 54.8105 11.7422H54.168V14.4424ZM54.168 16.165V20H52.0488V10.0059H54.9609C56.319 10.0059 57.3239 10.2542 57.9756 10.751C58.6273 11.2432 58.9531 11.9928 58.9531 13C58.9531 13.5879 58.7913 14.112 58.4678 14.5723C58.1442 15.028 57.6862 15.3857 57.0938 15.6455C58.5977 17.8923 59.5775 19.3438 60.0332 20H57.6816L55.2959 16.165H54.168ZM67.0469 20H61.291V10.0059H67.0469V11.7422H63.4102V13.9365H66.7939V15.6729H63.4102V18.25H67.0469V20ZM68.2979 17.1016V15.3926H71.9688V17.1016H68.2979ZM75.7695 14.709H76.4668C77.1185 14.709 77.6061 14.5814 77.9297 14.3262C78.2533 14.0664 78.415 13.6904 78.415 13.1982C78.415 12.7015 78.2783 12.3346 78.0049 12.0977C77.736 11.8607 77.3122 11.7422 76.7334 11.7422H75.7695V14.709ZM80.5547 13.123C80.5547 14.1986 80.2174 15.0212 79.543 15.5908C78.873 16.1605 77.9183 16.4453 76.6787 16.4453H75.7695V20H73.6504V10.0059H76.8428C78.055 10.0059 78.9756 10.2679 79.6045 10.792C80.238 11.3115 80.5547 12.0885 80.5547 13.123ZM84.5605 14.4424H85.2441C85.9141 14.4424 86.4085 14.3307 86.7275 14.1074C87.0465 13.8841 87.2061 13.5332 87.2061 13.0547C87.2061 12.5807 87.042 12.2435 86.7139 12.043C86.3903 11.8424 85.8867 11.7422 85.2031 11.7422H84.5605V14.4424ZM84.5605 16.165V20H82.4414V10.0059H85.3535C86.7116 10.0059 87.7165 10.2542 88.3682 10.751C89.0199 11.2432 89.3457 11.9928 89.3457 13C89.3457 13.5879 89.1839 14.112 88.8604 14.5723C88.5368 15.028 88.0788 15.3857 87.4863 15.6455C88.9902 17.8923 89.9701 19.3438 90.4258 20H88.0742L85.6885 16.165H84.5605ZM100.755 14.9893C100.755 16.6436 100.345 17.915 99.5244 18.8037C98.7041 19.6924 97.5283 20.1367 95.9971 20.1367C94.4658 20.1367 93.29 19.6924 92.4697 18.8037C91.6494 17.915 91.2393 16.639 91.2393 14.9756C91.2393 13.3122 91.6494 12.043 92.4697 11.168C93.2946 10.2884 94.4749 9.84863 96.0107 9.84863C97.5465 9.84863 98.7201 10.2907 99.5312 11.1748C100.347 12.0589 100.755 13.3304 100.755 14.9893ZM93.4609 14.9893C93.4609 16.1058 93.6729 16.9466 94.0967 17.5117C94.5205 18.0768 95.154 18.3594 95.9971 18.3594C97.6878 18.3594 98.5332 17.236 98.5332 14.9893C98.5332 12.738 97.6924 11.6123 96.0107 11.6123C95.1676 11.6123 94.5319 11.8971 94.1035 12.4668C93.6751 13.0319 93.4609 13.8727 93.4609 14.9893ZM107.071 11.626C106.274 11.626 105.656 11.9268 105.219 12.5283C104.781 13.1253 104.562 13.9593 104.562 15.0303C104.562 17.2588 105.399 18.373 107.071 18.373C107.773 18.373 108.623 18.1976 109.621 17.8467V19.624C108.801 19.9658 107.885 20.1367 106.873 20.1367C105.419 20.1367 104.307 19.6969 103.537 18.8174C102.767 17.9333 102.382 16.6663 102.382 15.0166C102.382 13.9775 102.571 13.0684 102.949 12.2891C103.327 11.5052 103.87 10.9059 104.576 10.4912C105.287 10.0719 106.119 9.8623 107.071 9.8623C108.042 9.8623 109.017 10.097 109.997 10.5664L109.313 12.2891C108.94 12.1113 108.564 11.9564 108.186 11.8242C107.807 11.6921 107.436 11.626 107.071 11.626ZM117.51 20H111.754V10.0059H117.51V11.7422H113.873V13.9365H117.257V15.6729H113.873V18.25H117.51V20ZM125.501 17.2246C125.501 18.127 125.175 18.8379 124.523 19.3574C123.876 19.877 122.974 20.1367 121.816 20.1367C120.75 20.1367 119.807 19.9362 118.986 19.5352V17.5664C119.661 17.8672 120.23 18.0791 120.695 18.2021C121.165 18.3252 121.593 18.3867 121.98 18.3867C122.445 18.3867 122.801 18.2979 123.047 18.1201C123.298 17.9424 123.423 17.6781 123.423 17.3271C123.423 17.1312 123.368 16.958 123.259 16.8076C123.149 16.6527 122.988 16.5046 122.773 16.3633C122.564 16.222 122.133 15.9964 121.481 15.6865C120.871 15.3994 120.413 15.1237 120.107 14.8594C119.802 14.5951 119.558 14.2874 119.376 13.9365C119.194 13.5856 119.103 13.1755 119.103 12.7061C119.103 11.8219 119.401 11.127 119.998 10.6211C120.6 10.1152 121.429 9.8623 122.486 9.8623C123.006 9.8623 123.5 9.92383 123.97 10.0469C124.444 10.1699 124.938 10.3431 125.453 10.5664L124.77 12.2139C124.236 11.9951 123.794 11.8424 123.443 11.7559C123.097 11.6693 122.755 11.626 122.418 11.626C122.017 11.626 121.709 11.7194 121.495 11.9062C121.281 12.0931 121.174 12.3369 121.174 12.6377C121.174 12.8245 121.217 12.9886 121.304 13.1299C121.39 13.2666 121.527 13.401 121.714 13.5332C121.905 13.6608 122.354 13.8932 123.061 14.2305C123.995 14.6771 124.635 15.126 124.981 15.5771C125.328 16.0238 125.501 16.5729 125.501 17.2246ZM133.212 17.2246C133.212 18.127 132.886 18.8379 132.234 19.3574C131.587 19.877 130.685 20.1367 129.527 20.1367C128.461 20.1367 127.518 19.9362 126.697 19.5352V17.5664C127.372 17.8672 127.941 18.0791 128.406 18.2021C128.876 18.3252 129.304 18.3867 129.691 18.3867C130.156 18.3867 130.512 18.2979 130.758 18.1201C131.008 17.9424 131.134 17.6781 131.134 17.3271C131.134 17.1312 131.079 16.958 130.97 16.8076C130.86 16.6527 130.699 16.5046 130.484 16.3633C130.275 16.222 129.844 15.9964 129.192 15.6865C128.582 15.3994 128.124 15.1237 127.818 14.8594C127.513 14.5951 127.269 14.2874 127.087 13.9365C126.905 13.5856 126.813 13.1755 126.813 12.7061C126.813 11.8219 127.112 11.127 127.709 10.6211C128.311 10.1152 129.14 9.8623 130.197 9.8623C130.717 9.8623 131.211 9.92383 131.681 10.0469C132.155 10.1699 132.649 10.3431 133.164 10.5664L132.48 12.2139C131.947 11.9951 131.505 11.8424 131.154 11.7559C130.808 11.6693 130.466 11.626 130.129 11.626C129.728 11.626 129.42 11.7194 129.206 11.9062C128.992 12.0931 128.885 12.3369 128.885 12.6377C128.885 12.8245 128.928 12.9886 129.015 13.1299C129.101 13.2666 129.238 13.401 129.425 13.5332C129.616 13.6608 130.065 13.8932 130.771 14.2305C131.706 14.6771 132.346 15.126 132.692 15.5771C133.039 16.0238 133.212 16.5729 133.212 17.2246ZM135.023 20V10.0059H137.143V20H135.023ZM148.524 20H145.831L141.483 12.4395H141.422C141.508 13.7747 141.552 14.7272 141.552 15.2969V20H139.658V10.0059H142.331L146.672 17.4912H146.72C146.651 16.1924 146.617 15.2741 146.617 14.7363V10.0059H148.524V20ZM154.841 14.3877H158.806V19.5693C158.163 19.779 157.557 19.9248 156.987 20.0068C156.422 20.0934 155.843 20.1367 155.251 20.1367C153.743 20.1367 152.59 19.6947 151.792 18.8105C150.999 17.9219 150.603 16.6481 150.603 14.9893C150.603 13.376 151.063 12.1182 151.983 11.2158C152.909 10.3135 154.189 9.8623 155.825 9.8623C156.851 9.8623 157.84 10.0674 158.792 10.4775L158.088 12.1729C157.359 11.8083 156.6 11.626 155.812 11.626C154.896 11.626 154.162 11.9336 153.61 12.5488C153.059 13.1641 152.783 13.9912 152.783 15.0303C152.783 16.1149 153.004 16.9443 153.446 17.5186C153.893 18.0882 154.54 18.373 155.388 18.373C155.83 18.373 156.279 18.3275 156.734 18.2363V16.1514H154.841V14.3877Z" fill="#333333"/>
</svg>
