<svg width="72" height="29" viewBox="0 0 72 29" fill="none" xmlns="http://www.w3.org/2000/svg">
<circle cx="14.5" cy="14.5" r="13.5" fill="white" stroke="#E0E0E0" stroke-width="2"/>
<path d="M14.1973 13.6152C15.1634 13.6152 15.9313 13.8864 16.501 14.4287C17.0752 14.971 17.3623 15.7139 17.3623 16.6572C17.3623 17.7738 17.0182 18.6328 16.3301 19.2344C15.6419 19.8359 14.6576 20.1367 13.377 20.1367C12.265 20.1367 11.3672 19.9567 10.6836 19.5967V17.7715C11.0436 17.9629 11.4629 18.1201 11.9414 18.2432C12.4199 18.3617 12.8734 18.4209 13.3018 18.4209C14.5915 18.4209 15.2363 17.8923 15.2363 16.835C15.2363 15.8278 14.5687 15.3242 13.2334 15.3242C12.9919 15.3242 12.7253 15.3493 12.4336 15.3994C12.1419 15.445 11.9049 15.4951 11.7227 15.5498L10.8818 15.0986L11.2578 10.0059H16.6787V11.7969H13.1104L12.9258 13.7588L13.165 13.7109C13.443 13.6471 13.7871 13.6152 14.1973 13.6152Z" fill="#767B7F"/>
<path fill-rule="evenodd" clip-rule="evenodd" d="M57.5472 24C57.4471 24 57.3497 23.9682 57.2689 23.9091C51.4825 19.6772 48.404 15.685 48.1192 12.0447C48.0358 11.3254 48.098 10.5966 48.302 9.90198C48.506 9.20733 48.8476 8.56105 49.3064 8.0018C49.7725 7.37946 50.3768 6.87455 51.0714 6.52708C51.766 6.17962 52.5317 5.99916 53.308 6C54.8678 6.06116 56.3615 6.64831 57.5472 7.66643C58.7328 6.64831 60.2265 6.06116 61.7864 6C62.5625 5.99912 63.3281 6.17957 64.0225 6.52705C64.717 6.87452 65.3211 7.37945 65.787 8.0018C66.246 8.56093 66.5878 9.20718 66.7919 9.90186C66.996 10.5965 67.0581 11.3254 66.9747 12.0447C66.9435 12.4017 66.8875 12.7561 66.807 13.1053H68.9726C69.0841 12.7892 69.3034 12.5229 69.5918 12.3533C69.8801 12.1836 70.219 12.1217 70.5486 12.1784C70.8781 12.2351 71.177 12.4067 71.3925 12.663C71.608 12.9193 71.7262 13.2438 71.7262 13.579C71.7262 13.9142 71.608 14.2386 71.3925 14.4949C71.177 14.7512 70.8781 14.9229 70.5486 14.9796C70.219 15.0363 69.8801 14.9743 69.5918 14.8047C69.3034 14.6351 69.0841 14.3687 68.9726 14.0527H66.5443C65.4841 17.1364 62.5659 20.4422 57.8254 23.9091C57.7446 23.9682 57.6472 24 57.5472 24ZM70.5655 13.1851C70.4878 13.1331 70.3965 13.1053 70.303 13.1053C70.1777 13.1053 70.0576 13.1552 69.969 13.244C69.8804 13.3329 69.8306 13.4533 69.8306 13.579C69.8306 13.6727 69.8583 13.7642 69.9102 13.8421C69.9621 13.92 70.0359 13.9808 70.1222 14.0166C70.2086 14.0525 70.3035 14.0618 70.3952 14.0436C70.4868 14.0253 70.571 13.9802 70.6371 13.9139C70.7032 13.8477 70.7482 13.7633 70.7664 13.6714C70.7846 13.5795 70.7753 13.4843 70.7395 13.3977C70.7037 13.3111 70.6432 13.2372 70.5655 13.1851ZM50.068 8.56312C50.0508 8.58908 50.031 8.6132 50.0089 8.63512C49.6299 9.10243 49.3505 9.6427 49.188 10.2225C49.0255 10.8024 48.9833 11.4095 49.064 12.0063C49.2554 14.2743 50.89 18.0008 57.5472 22.9385C62.4818 19.2784 64.6569 16.2847 65.5314 14.0527H61.7991C61.7155 14.0523 61.6334 14.0296 61.5614 13.987C61.4893 13.9444 61.4299 13.8833 61.389 13.8101L59.9845 11.347L57.5136 17.5414C57.4786 17.6293 57.418 17.7047 57.3398 17.7579C57.2615 17.811 57.1692 17.8393 57.0747 17.8393H57.0539C56.9566 17.8355 56.8628 17.8016 56.7854 17.7422C56.708 17.6828 56.6508 17.6009 56.6217 17.5077L55.0432 12.3654L54.1725 13.8229C54.1305 13.893 54.0712 13.951 54.0002 13.9912C53.9293 14.0315 53.8492 14.0526 53.7676 14.0527H50.4606V13.1053H53.4998L54.7796 10.9666C54.8266 10.8882 54.8953 10.825 54.9773 10.7849C55.0593 10.7447 55.1512 10.7293 55.2417 10.7403C55.3323 10.7514 55.4178 10.7886 55.4878 10.8473C55.5578 10.906 55.6093 10.9838 55.6361 11.0713L57.1328 15.9474L59.469 10.0855C59.5018 10.0024 59.5574 9.9303 59.6294 9.87752C59.7013 9.82473 59.7867 9.79343 59.8756 9.78724C59.9646 9.78105 60.0534 9.80021 60.132 9.84252C60.2105 9.88483 60.2755 9.94855 60.3194 10.0263L62.0731 13.1053H65.8394C65.9369 12.7327 66.0017 12.3523 66.0331 11.9684C66.1082 11.3775 66.0629 10.7773 65.9 10.2044C65.7371 9.63146 65.46 9.0976 65.0854 8.63512C65.0633 8.6132 65.0435 8.58908 65.0264 8.56312C64.6492 8.05934 64.1598 7.6509 63.5973 7.37037C63.0347 7.08985 62.4146 6.945 61.7864 6.94737C59.5853 6.94737 57.8987 8.61806 57.8816 8.63559C57.8378 8.67963 57.7857 8.71457 57.7283 8.73841C57.671 8.76225 57.6095 8.77452 57.5474 8.77452C57.4853 8.77452 57.4238 8.76225 57.3665 8.73841C57.3091 8.71457 57.257 8.67963 57.2131 8.63559L57.2128 8.63523C57.1796 8.60278 55.4866 6.94737 53.308 6.94737C52.6801 6.94739 52.0608 7.09329 51.4987 7.37362C50.9365 7.65396 50.4468 8.06111 50.068 8.56312ZM43 13.1055H46.7795V14.0528H43V13.1055Z" fill="#828282"/>
</svg>
