<svg width="164" height="29" viewBox="0 0 164 29" fill="none" xmlns="http://www.w3.org/2000/svg">
<circle cx="14.5" cy="14.5" r="13.5" fill="white" stroke="#E0E0E0" stroke-width="2"/>
<path d="M17.5469 20H10.5605V18.5303L13.0693 15.9941C13.8122 15.2331 14.2975 14.7067 14.5254 14.415C14.7533 14.1188 14.9173 13.8454 15.0176 13.5947C15.1178 13.3441 15.168 13.0843 15.168 12.8154C15.168 12.4144 15.0563 12.1159 14.833 11.9199C14.6143 11.724 14.3203 11.626 13.9512 11.626C13.5638 11.626 13.1878 11.7148 12.8232 11.8926C12.4587 12.0703 12.0781 12.3232 11.6816 12.6514L10.5332 11.291C11.0254 10.8717 11.4333 10.5755 11.7568 10.4023C12.0804 10.2292 12.4336 10.097 12.8164 10.0059C13.1992 9.91016 13.6276 9.8623 14.1016 9.8623C14.7259 9.8623 15.2773 9.97624 15.7559 10.2041C16.2344 10.432 16.6058 10.751 16.8701 11.1611C17.1344 11.5713 17.2666 12.0407 17.2666 12.5693C17.2666 13.0296 17.1846 13.4626 17.0205 13.8682C16.861 14.2692 16.6104 14.6816 16.2686 15.1055C15.9313 15.5293 15.3343 16.1331 14.4775 16.917L13.1924 18.127V18.2227H17.5469V20Z" fill="#767B7F"/>
<path d="M159.45 13.4802C160.232 12.9293 160.75 12.0128 160.75 10.9797C160.75 9.28981 159.387 7.92303 157.701 7.92303C156.016 7.92303 154.653 9.28981 154.653 10.9797C154.653 12.0128 155.165 12.9293 155.953 13.4802C155.282 13.7133 154.669 14.0735 154.151 14.5397C153.438 13.9305 152.597 13.4643 151.678 13.1888C152.793 12.5108 153.543 11.2764 153.543 9.87255C153.543 7.73232 151.815 6 149.681 6C147.546 6 145.819 7.73761 145.819 9.87255C145.819 11.2764 146.564 12.5108 147.684 13.1888C146.775 13.4643 145.945 13.9252 145.237 14.5238C144.72 14.0682 144.117 13.7133 143.457 13.4855C144.239 12.9346 144.756 12.0181 144.756 10.985C144.756 9.29511 143.393 7.92833 141.708 7.92833C140.022 7.92833 138.659 9.29511 138.659 10.985C138.659 12.0181 139.172 12.9346 139.959 13.4855C137.861 14.2113 136.355 16.2085 136.355 18.5553V18.905C136.355 18.9156 136.366 18.9261 136.377 18.9261H142.839C142.802 19.2175 142.78 19.5195 142.78 19.8214V20.1817C142.78 21.7392 144.038 23 145.591 23H153.781C155.334 23 156.592 21.7392 156.592 20.1817V19.8214C156.592 19.5195 156.571 19.2175 156.534 18.9261H163.038C163.049 18.9261 163.059 18.9156 163.059 18.905V18.5553C163.049 16.2032 161.548 14.206 159.45 13.4802ZM155.498 10.9744C155.498 9.756 156.486 8.76535 157.701 8.76535C158.917 8.76535 159.905 9.756 159.905 10.9744C159.905 12.177 158.938 13.1571 157.744 13.1835C157.728 13.1835 157.717 13.1835 157.701 13.1835C157.686 13.1835 157.675 13.1835 157.659 13.1835C156.46 13.1624 155.498 12.1823 155.498 10.9744ZM146.653 9.87255C146.653 8.2038 148.006 6.84762 149.67 6.84762C151.335 6.84762 152.687 8.2038 152.687 9.87255C152.687 11.483 151.424 12.8021 149.845 12.8922C149.787 12.8922 149.728 12.8922 149.67 12.8922C149.612 12.8922 149.554 12.8922 149.496 12.8922C147.916 12.8021 146.653 11.483 146.653 9.87255ZM139.489 10.9744C139.489 9.756 140.477 8.76535 141.692 8.76535C142.907 8.76535 143.895 9.756 143.895 10.9744C143.895 12.177 142.928 13.1571 141.734 13.1835C141.718 13.1835 141.708 13.1835 141.692 13.1835C141.676 13.1835 141.666 13.1835 141.65 13.1835C140.456 13.1624 139.489 12.1823 139.489 10.9744ZM142.986 18.0732H137.211C137.449 15.8165 139.351 14.0471 141.66 14.0312C141.671 14.0312 141.681 14.0312 141.692 14.0312C141.703 14.0312 141.713 14.0312 141.724 14.0312C142.823 14.0365 143.827 14.4444 144.603 15.1066C143.842 15.933 143.277 16.9501 142.986 18.0732ZM155.736 20.1817C155.736 21.2677 154.854 22.1524 153.77 22.1524H145.581C144.498 22.1524 143.615 21.2677 143.615 20.1817V19.8214C143.615 16.5316 146.236 13.8404 149.496 13.7451C149.554 13.7504 149.617 13.7504 149.676 13.7504C149.734 13.7504 149.797 13.7504 149.855 13.7451C153.115 13.8404 155.736 16.5316 155.736 19.8214V20.1817ZM156.365 18.0732C156.074 16.9554 155.519 15.9542 154.764 15.1278C155.546 14.4497 156.56 14.0418 157.67 14.0312C157.68 14.0312 157.691 14.0312 157.701 14.0312C157.712 14.0312 157.723 14.0312 157.733 14.0312C160.042 14.0471 161.944 15.8165 162.182 18.0732H156.365Z" fill="#828282"/>
<path d="M99.4464 20H92.4078V18.9526L95.2276 16.1182C96.087 15.249 96.6534 14.6289 96.9268 14.2578C97.2003 13.8867 97.4054 13.5254 97.5421 13.1738C97.6788 12.8223 97.7472 12.4438 97.7472 12.0386C97.7472 11.4673 97.5738 11.0156 97.2271 10.6836C96.8805 10.3467 96.3995 10.1782 95.7843 10.1782C95.3399 10.1782 94.9176 10.2515 94.5172 10.3979C94.1217 10.5444 93.6798 10.8105 93.1915 11.1963L92.547 10.3687C93.5333 9.54834 94.6075 9.13818 95.7696 9.13818C96.7755 9.13818 97.5641 9.39697 98.1353 9.91455C98.7066 10.4272 98.9923 11.1182 98.9923 11.9873C98.9923 12.666 98.8018 13.3374 98.421 14.0015C98.0401 14.6655 97.3272 15.5054 96.2823 16.521L93.9386 18.8135V18.8721H99.4464V20ZM108.089 14.6313C108.089 16.4819 107.796 17.8638 107.21 18.7769C106.629 19.6899 105.738 20.1465 104.537 20.1465C103.384 20.1465 102.508 19.6802 101.907 18.7476C101.307 17.8101 101.006 16.438 101.006 14.6313C101.006 12.7661 101.297 11.3818 101.878 10.4785C102.459 9.5752 103.345 9.12354 104.537 9.12354C105.699 9.12354 106.58 9.59473 107.181 10.5371C107.786 11.4795 108.089 12.8442 108.089 14.6313ZM102.237 14.6313C102.237 16.189 102.42 17.3242 102.786 18.0371C103.152 18.7451 103.736 19.0991 104.537 19.0991C105.347 19.0991 105.933 18.7402 106.295 18.0225C106.661 17.2998 106.844 16.1694 106.844 14.6313C106.844 13.0933 106.661 11.9678 106.295 11.2549C105.933 10.5371 105.347 10.1782 104.537 10.1782C103.736 10.1782 103.152 10.5322 102.786 11.2402C102.42 11.9434 102.237 13.0737 102.237 14.6313ZM110.616 12.4854C110.616 13.3154 110.706 13.938 110.887 14.353C111.067 14.7681 111.36 14.9756 111.766 14.9756C112.566 14.9756 112.967 14.1455 112.967 12.4854C112.967 10.835 112.566 10.0098 111.766 10.0098C111.36 10.0098 111.067 10.2148 110.887 10.625C110.706 11.0352 110.616 11.6553 110.616 12.4854ZM113.97 12.4854C113.97 13.5986 113.782 14.4409 113.406 15.0122C113.035 15.5786 112.488 15.8618 111.766 15.8618C111.082 15.8618 110.55 15.5713 110.169 14.9902C109.793 14.4092 109.605 13.5742 109.605 12.4854C109.605 11.377 109.786 10.542 110.147 9.98047C110.513 9.41895 111.053 9.13818 111.766 9.13818C112.474 9.13818 113.018 9.42871 113.399 10.0098C113.78 10.5908 113.97 11.416 113.97 12.4854ZM117.061 16.7773C117.061 17.6123 117.151 18.2373 117.332 18.6523C117.513 19.0625 117.808 19.2676 118.218 19.2676C118.629 19.2676 118.931 19.0649 119.127 18.6597C119.322 18.2495 119.42 17.6221 119.42 16.7773C119.42 15.9424 119.322 15.3247 119.127 14.9243C118.931 14.519 118.629 14.3164 118.218 14.3164C117.808 14.3164 117.513 14.519 117.332 14.9243C117.151 15.3247 117.061 15.9424 117.061 16.7773ZM120.423 16.7773C120.423 17.8857 120.235 18.7256 119.859 19.2969C119.488 19.8633 118.941 20.1465 118.218 20.1465C117.525 20.1465 116.99 19.856 116.614 19.2749C116.243 18.6938 116.058 17.8613 116.058 16.7773C116.058 15.6689 116.238 14.834 116.6 14.2725C116.966 13.7109 117.505 13.4302 118.218 13.4302C118.912 13.4302 119.451 13.7183 119.837 14.2944C120.228 14.8657 120.423 15.6934 120.423 16.7773ZM118.533 9.29199L112.593 20H111.517L117.457 9.29199H118.533Z" fill="#333333"/>
<path d="M43.989 20.5H42.8024V12.8682C42.8024 12.2334 42.822 11.6328 42.861 11.0664C42.7585 11.1689 42.6437 11.2764 42.5168 11.3887C42.3898 11.501 41.8088 11.9771 40.7736 12.8169L40.1291 11.9819L42.9636 9.79199H43.989V20.5ZM54.7043 12.3115C54.7043 12.9951 54.5114 13.5542 54.1257 13.9888C53.7448 14.4233 53.2028 14.7139 52.4997 14.8604V14.9189C53.3591 15.0264 53.9963 15.2998 54.4113 15.7393C54.8264 16.1787 55.0339 16.7549 55.0339 17.4678C55.0339 18.4883 54.6799 19.2744 53.9719 19.8262C53.2639 20.373 52.258 20.6465 50.9543 20.6465C50.3879 20.6465 49.8679 20.6025 49.3942 20.5146C48.9255 20.4316 48.4689 20.2827 48.0246 20.0679V18.9106C48.4885 19.1401 48.9816 19.3159 49.5041 19.438C50.0314 19.5552 50.5295 19.6138 50.9982 19.6138C52.8488 19.6138 53.7741 18.8887 53.7741 17.4385C53.7741 16.1396 52.7536 15.4902 50.7126 15.4902H49.6579V14.4429H50.7272C51.5622 14.4429 52.2238 14.2598 52.7121 13.8936C53.2004 13.5225 53.4445 13.0098 53.4445 12.3555C53.4445 11.833 53.2639 11.4229 52.9025 11.125C52.5461 10.8271 52.0603 10.6782 51.445 10.6782C50.9763 10.6782 50.5344 10.7417 50.1193 10.8687C49.7043 10.9956 49.2307 11.23 48.6984 11.5718L48.0832 10.7515C48.5227 10.4048 49.028 10.1338 49.5993 9.93848C50.1755 9.73828 50.781 9.63818 51.4157 9.63818C52.4558 9.63818 53.2639 9.87744 53.84 10.356C54.4162 10.8296 54.7043 11.4814 54.7043 12.3115ZM59.9997 13.9595C61.1276 13.9595 62.0139 14.2402 62.6584 14.8018C63.3078 15.3584 63.6325 16.1226 63.6325 17.0942C63.6325 18.2026 63.2785 19.0718 62.5705 19.7017C61.8674 20.3315 60.8957 20.6465 59.6555 20.6465C58.4494 20.6465 57.529 20.4536 56.8942 20.0679V18.896C57.236 19.1157 57.6608 19.2891 58.1687 19.416C58.6765 19.5381 59.177 19.5991 59.6701 19.5991C60.5295 19.5991 61.196 19.3965 61.6696 18.9912C62.1481 18.5859 62.3874 18 62.3874 17.2334C62.3874 15.7393 61.4719 14.9922 59.6408 14.9922C59.177 14.9922 58.5568 15.063 57.7805 15.2046L57.1506 14.8018L57.5534 9.79199H62.8781V10.9126H58.5935L58.3225 14.1279C58.884 14.0156 59.4431 13.9595 59.9997 13.9595ZM66.9943 16.3911C67.2043 16.0933 67.5241 15.7026 67.9538 15.2192L70.5466 12.4727H71.9895L68.7375 15.8931L72.2165 20.5H70.7443L67.9099 16.7061L66.9943 17.4971V20.5H65.7932V9.10352H66.9943V15.146C66.9943 15.4146 66.9748 15.8296 66.9357 16.3911H66.9943Z" fill="#333333"/>
<rect x="81.4995" y="4" width="0.997369" height="21" fill="#C4C4C4"/>
</svg>
