<svg width="252" height="32" viewBox="0 0 252 32" fill="none" xmlns="http://www.w3.org/2000/svg">
<circle cx="14.5" cy="16.5" r="13.5" fill="white" stroke="#E0E0E0" stroke-width="2"/>
<path d="M17.7725 19.9287H16.5693V22H14.5049V19.9287H10.2393V18.459L14.6211 12.0059H16.5693V18.2881H17.7725V19.9287ZM14.5049 18.2881V16.5928C14.5049 16.3102 14.5163 15.9001 14.5391 15.3623C14.5618 14.8245 14.5801 14.5124 14.5938 14.4258H14.5391C14.3704 14.7995 14.1676 15.1641 13.9307 15.5195L12.0986 18.2881H14.5049Z" fill="#767B7F"/>
<path d="M49.3721 20.8613V25.4805C49.3721 26.2943 49.1263 26.9339 48.6348 27.3994C48.1432 27.8649 47.4678 28.0977 46.6084 28.0977C45.749 28.0977 45.0833 27.8633 44.6113 27.3945C44.1426 26.9258 43.9082 26.2812 43.9082 25.4609V20.8613H44.7383V25.5195C44.7383 26.1152 44.901 26.5726 45.2266 26.8916C45.5521 27.2106 46.0306 27.3701 46.6621 27.3701C47.2643 27.3701 47.7282 27.2106 48.0537 26.8916C48.3792 26.5693 48.542 26.1087 48.542 25.5098V20.8613H49.3721ZM52.873 27.4287C53.0163 27.4287 53.1546 27.4189 53.2881 27.3994C53.4215 27.3766 53.5273 27.3538 53.6055 27.3311V27.9512C53.5176 27.9935 53.3874 28.0277 53.2148 28.0537C53.0456 28.083 52.8926 28.0977 52.7559 28.0977C51.7207 28.0977 51.2031 27.5524 51.2031 26.4619V23.2783H50.4365V22.8877L51.2031 22.5508L51.5449 21.4082H52.0137V22.6484H53.5664V23.2783H52.0137V26.4277C52.0137 26.75 52.0902 26.9974 52.2432 27.1699C52.3962 27.3424 52.6061 27.4287 52.873 27.4287ZM55.4902 28H54.6797V22.6484H55.4902V28ZM54.6113 21.1982C54.6113 21.0127 54.6569 20.8776 54.748 20.793C54.8392 20.7051 54.9531 20.6611 55.0898 20.6611C55.2201 20.6611 55.3324 20.7051 55.4268 20.793C55.5212 20.8809 55.5684 21.016 55.5684 21.1982C55.5684 21.3805 55.5212 21.5173 55.4268 21.6084C55.3324 21.6963 55.2201 21.7402 55.0898 21.7402C54.9531 21.7402 54.8392 21.6963 54.748 21.6084C54.6569 21.5173 54.6113 21.3805 54.6113 21.1982ZM58.0195 28H57.209V20.4023H58.0195V28ZM60.5488 28H59.7383V22.6484H60.5488V28ZM59.6699 21.1982C59.6699 21.0127 59.7155 20.8776 59.8066 20.793C59.8978 20.7051 60.0117 20.6611 60.1484 20.6611C60.2786 20.6611 60.391 20.7051 60.4854 20.793C60.5798 20.8809 60.627 21.016 60.627 21.1982C60.627 21.3805 60.5798 21.5173 60.4854 21.6084C60.391 21.6963 60.2786 21.7402 60.1484 21.7402C60.0117 21.7402 59.8978 21.6963 59.8066 21.6084C59.7155 21.5173 59.6699 21.3805 59.6699 21.1982ZM65.6904 28H61.8086V27.4482L64.7285 23.2783H61.9893V22.6484H65.6172V23.2783L62.7363 27.3701H65.6904V28ZM70.2363 28L70.0752 27.2383H70.0361C69.7692 27.5736 69.5023 27.8014 69.2354 27.9219C68.9717 28.0391 68.6413 28.0977 68.2441 28.0977C67.7135 28.0977 67.2969 27.9609 66.9941 27.6875C66.6947 27.4141 66.5449 27.0251 66.5449 26.5205C66.5449 25.4398 67.4092 24.8734 69.1377 24.8213L70.0459 24.792V24.46C70.0459 24.04 69.9548 23.7308 69.7725 23.5322C69.5934 23.3304 69.3053 23.2295 68.9082 23.2295C68.4622 23.2295 67.9577 23.3662 67.3945 23.6396L67.1455 23.0195C67.4092 22.8763 67.6973 22.764 68.0098 22.6826C68.3255 22.6012 68.6413 22.5605 68.957 22.5605C69.5951 22.5605 70.0671 22.7021 70.373 22.9854C70.6823 23.2686 70.8369 23.7227 70.8369 24.3477V28H70.2363ZM68.4053 27.4287C68.9098 27.4287 69.3053 27.2904 69.5918 27.0137C69.8815 26.737 70.0264 26.3496 70.0264 25.8516V25.3682L69.2158 25.4023C68.5713 25.4251 68.1058 25.526 67.8193 25.7051C67.5361 25.8809 67.3945 26.1559 67.3945 26.5303C67.3945 26.8232 67.4824 27.0462 67.6582 27.1992C67.8372 27.3522 68.0863 27.4287 68.4053 27.4287ZM74.2402 27.4287C74.3835 27.4287 74.5218 27.4189 74.6553 27.3994C74.7887 27.3766 74.8945 27.3538 74.9727 27.3311V27.9512C74.8848 27.9935 74.7546 28.0277 74.582 28.0537C74.4128 28.083 74.2598 28.0977 74.123 28.0977C73.0879 28.0977 72.5703 27.5524 72.5703 26.4619V23.2783H71.8037V22.8877L72.5703 22.5508L72.9121 21.4082H73.3809V22.6484H74.9336V23.2783H73.3809V26.4277C73.3809 26.75 73.4574 26.9974 73.6104 27.1699C73.7633 27.3424 73.9733 27.4287 74.2402 27.4287ZM76.8574 28H76.0469V22.6484H76.8574V28ZM75.9785 21.1982C75.9785 21.0127 76.0241 20.8776 76.1152 20.793C76.2064 20.7051 76.3203 20.6611 76.457 20.6611C76.5872 20.6611 76.6995 20.7051 76.7939 20.793C76.8883 20.8809 76.9355 21.016 76.9355 21.1982C76.9355 21.3805 76.8883 21.5173 76.7939 21.6084C76.6995 21.6963 76.5872 21.7402 76.457 21.7402C76.3203 21.7402 76.2064 21.6963 76.1152 21.6084C76.0241 21.5173 75.9785 21.3805 75.9785 21.1982ZM83.1953 25.3193C83.1953 26.1917 82.9756 26.8737 82.5361 27.3652C82.0967 27.8535 81.4896 28.0977 80.7148 28.0977C80.2363 28.0977 79.8115 27.9854 79.4404 27.7607C79.0693 27.5361 78.7829 27.2139 78.5811 26.7939C78.3792 26.374 78.2783 25.8825 78.2783 25.3193C78.2783 24.4469 78.4964 23.7682 78.9326 23.2832C79.3688 22.7949 79.9743 22.5508 80.749 22.5508C81.4977 22.5508 82.0918 22.7998 82.5312 23.2979C82.974 23.7959 83.1953 24.4697 83.1953 25.3193ZM79.1182 25.3193C79.1182 26.0029 79.2549 26.5238 79.5283 26.8818C79.8018 27.2399 80.2038 27.4189 80.7344 27.4189C81.265 27.4189 81.667 27.2415 81.9404 26.8867C82.2171 26.5286 82.3555 26.0062 82.3555 25.3193C82.3555 24.639 82.2171 24.123 81.9404 23.7715C81.667 23.4167 81.2617 23.2393 80.7246 23.2393C80.194 23.2393 79.7936 23.4134 79.5234 23.7617C79.2533 24.11 79.1182 24.6292 79.1182 25.3193ZM88.2832 28V24.5381C88.2832 24.1019 88.1839 23.7764 87.9854 23.5615C87.7868 23.3467 87.4759 23.2393 87.0527 23.2393C86.4928 23.2393 86.0827 23.3906 85.8223 23.6934C85.5618 23.9961 85.4316 24.4958 85.4316 25.1924V28H84.6211V22.6484H85.2803L85.4121 23.3809H85.4512C85.6172 23.1172 85.8499 22.9137 86.1494 22.7705C86.4489 22.624 86.7826 22.5508 87.1504 22.5508C87.7949 22.5508 88.2799 22.707 88.6055 23.0195C88.931 23.3288 89.0938 23.8252 89.0938 24.5088V28H88.2832ZM90.6465 27.4824C90.6465 27.2643 90.6953 27.0999 90.793 26.9893C90.8939 26.8753 91.0371 26.8184 91.2227 26.8184C91.4115 26.8184 91.5579 26.8753 91.6621 26.9893C91.7695 27.0999 91.8232 27.2643 91.8232 27.4824C91.8232 27.694 91.7695 27.8568 91.6621 27.9707C91.5547 28.0846 91.4082 28.1416 91.2227 28.1416C91.0566 28.1416 90.9183 28.0911 90.8076 27.9902C90.7002 27.8861 90.6465 27.7168 90.6465 27.4824ZM90.6465 23.1709C90.6465 22.7314 90.8385 22.5117 91.2227 22.5117C91.623 22.5117 91.8232 22.7314 91.8232 23.1709C91.8232 23.3825 91.7695 23.5452 91.6621 23.6592C91.5547 23.7731 91.4082 23.8301 91.2227 23.8301C91.0566 23.8301 90.9183 23.7796 90.8076 23.6787C90.7002 23.5745 90.6465 23.4053 90.6465 23.1709ZM97.8877 23.6396C98.6396 23.6396 99.2305 23.8268 99.6602 24.2012C100.093 24.5723 100.31 25.0817 100.31 25.7295C100.31 26.4684 100.074 27.0479 99.6016 27.4678C99.1328 27.8877 98.485 28.0977 97.6582 28.0977C96.8542 28.0977 96.2406 27.9691 95.8174 27.7119V26.9307C96.0452 27.0771 96.3285 27.1927 96.667 27.2773C97.0055 27.3587 97.3392 27.3994 97.668 27.3994C98.2409 27.3994 98.6852 27.2643 99.001 26.9941C99.32 26.724 99.4795 26.3333 99.4795 25.8223C99.4795 24.8262 98.8691 24.3281 97.6484 24.3281C97.3392 24.3281 96.9258 24.3753 96.4082 24.4697L95.9883 24.2012L96.2568 20.8613H99.8066V21.6084H96.9502L96.7695 23.752C97.1439 23.6771 97.5166 23.6396 97.8877 23.6396ZM106.11 24.4209C106.11 25.6546 105.915 26.5758 105.524 27.1846C105.137 27.7933 104.543 28.0977 103.742 28.0977C102.974 28.0977 102.39 27.7868 101.989 27.165C101.589 26.54 101.389 25.6253 101.389 24.4209C101.389 23.1774 101.582 22.2546 101.97 21.6523C102.357 21.0501 102.948 20.749 103.742 20.749C104.517 20.749 105.104 21.0632 105.505 21.6914C105.909 22.3197 106.11 23.2295 106.11 24.4209ZM102.209 24.4209C102.209 25.4593 102.331 26.2161 102.575 26.6914C102.819 27.1634 103.208 27.3994 103.742 27.3994C104.283 27.3994 104.673 27.1602 104.914 26.6816C105.158 26.1999 105.28 25.4463 105.28 24.4209C105.28 23.3955 105.158 22.6452 104.914 22.1699C104.673 21.6914 104.283 21.4521 103.742 21.4521C103.208 21.4521 102.819 21.6882 102.575 22.1602C102.331 22.6289 102.209 23.3825 102.209 24.4209ZM107.795 22.9902C107.795 23.5436 107.855 23.9587 107.976 24.2354C108.096 24.512 108.291 24.6504 108.562 24.6504C109.095 24.6504 109.362 24.097 109.362 22.9902C109.362 21.89 109.095 21.3398 108.562 21.3398C108.291 21.3398 108.096 21.4766 107.976 21.75C107.855 22.0234 107.795 22.4368 107.795 22.9902ZM110.031 22.9902C110.031 23.7324 109.906 24.2939 109.655 24.6748C109.408 25.0524 109.043 25.2412 108.562 25.2412C108.106 25.2412 107.751 25.0475 107.497 24.6602C107.246 24.2728 107.121 23.7161 107.121 22.9902C107.121 22.2513 107.242 21.6947 107.482 21.3203C107.727 20.946 108.086 20.7588 108.562 20.7588C109.034 20.7588 109.396 20.9525 109.65 21.3398C109.904 21.7272 110.031 22.2773 110.031 22.9902ZM112.092 25.8516C112.092 26.4082 112.152 26.8249 112.272 27.1016C112.393 27.375 112.59 27.5117 112.863 27.5117C113.137 27.5117 113.339 27.3766 113.469 27.1064C113.599 26.833 113.664 26.4147 113.664 25.8516C113.664 25.2949 113.599 24.8831 113.469 24.6162C113.339 24.346 113.137 24.2109 112.863 24.2109C112.59 24.2109 112.393 24.346 112.272 24.6162C112.152 24.8831 112.092 25.2949 112.092 25.8516ZM114.333 25.8516C114.333 26.5905 114.208 27.1504 113.957 27.5312C113.71 27.9089 113.345 28.0977 112.863 28.0977C112.401 28.0977 112.045 27.904 111.794 27.5166C111.547 27.1292 111.423 26.5742 111.423 25.8516C111.423 25.1126 111.543 24.556 111.784 24.1816C112.028 23.8073 112.388 23.6201 112.863 23.6201C113.326 23.6201 113.685 23.8122 113.942 24.1963C114.203 24.5771 114.333 25.1289 114.333 25.8516ZM113.073 20.8613L109.113 28H108.396L112.355 20.8613H113.073Z" fill="#333333"/>
<path fill-rule="evenodd" clip-rule="evenodd" d="M48.4013 1L43 12H53.7041L59.1054 1H48.4013Z" fill="#12A7FF"/>
<path fill-rule="evenodd" clip-rule="evenodd" d="M60.7968 1L55.3955 12H66.0997L71.501 1H60.7968Z" fill="#12A7FF"/>
<path fill-rule="evenodd" clip-rule="evenodd" d="M73.1923 1L67.791 12H78.4951L83.8964 1H73.1923Z" fill="#12A7FF"/>
<path fill-rule="evenodd" clip-rule="evenodd" d="M85.5878 1L80.1865 12H90.8907L96.2919 1H85.5878Z" fill="#12A7FF"/>
<path fill-rule="evenodd" clip-rule="evenodd" d="M97.9833 1L92.582 12H103.286L108.687 1H97.9833Z" fill="#12A7FF"/>
<path fill-rule="evenodd" clip-rule="evenodd" d="M110.379 1L104.978 12H115.682L121.083 1H110.379Z" fill="#12A7FF"/>
<path fill-rule="evenodd" clip-rule="evenodd" d="M122.774 1L117.373 12H128.077L133.478 1H122.774Z" fill="#12A7FF"/>
<path fill-rule="evenodd" clip-rule="evenodd" d="M135.17 1L129.769 12H140.473L145.874 1H135.17Z" fill="#12A7FF"/>
<path fill-rule="evenodd" clip-rule="evenodd" d="M147.565 1L142.164 12H152.868L158.269 1H147.565Z" fill="white"/>
<path d="M147.565 1V0.75H147.41L147.341 0.889811L147.565 1ZM142.164 12L141.94 11.8898L141.763 12.25H142.164V12ZM152.868 12V12.25H153.024L153.093 12.1102L152.868 12ZM158.269 1L158.494 1.11019L158.671 0.75H158.269V1ZM147.341 0.889811L141.94 11.8898L142.388 12.1102L147.79 1.11019L147.341 0.889811ZM142.164 12.25H152.868V11.75H142.164V12.25ZM153.093 12.1102L158.494 1.11019L158.045 0.889811L152.644 11.8898L153.093 12.1102ZM158.269 0.75H147.565V1.25H158.269V0.75Z" fill="#BDBDBD"/>
<path fill-rule="evenodd" clip-rule="evenodd" d="M159.961 1L154.56 12H165.264L170.665 1H159.961Z" fill="white"/>
<path d="M159.961 1V0.75H159.805L159.736 0.889811L159.961 1ZM154.56 12L154.335 11.8898L154.158 12.25H154.56V12ZM165.264 12V12.25H165.419L165.488 12.1102L165.264 12ZM170.665 1L170.889 1.11019L171.066 0.75H170.665V1ZM159.736 0.889811L154.335 11.8898L154.784 12.1102L160.185 1.11019L159.736 0.889811ZM154.56 12.25H165.264V11.75H154.56V12.25ZM165.488 12.1102L170.889 1.11019L170.441 0.889811L165.039 11.8898L165.488 12.1102ZM170.665 0.75H159.961V1.25H170.665V0.75Z" fill="#BDBDBD"/>
<path fill-rule="evenodd" clip-rule="evenodd" d="M172.356 1L166.955 12H177.659L183.06 1H172.356Z" fill="white"/>
<path d="M172.356 1V0.75H172.201L172.132 0.889811L172.356 1ZM166.955 12L166.731 11.8898L166.554 12.25H166.955V12ZM177.659 12V12.25H177.815L177.884 12.1102L177.659 12ZM183.06 1L183.285 1.11019L183.462 0.75H183.06V1ZM172.132 0.889811L166.731 11.8898L167.179 12.1102L172.581 1.11019L172.132 0.889811ZM166.955 12.25H177.659V11.75H166.955V12.25ZM177.884 12.1102L183.285 1.11019L182.836 0.889811L177.435 11.8898L177.884 12.1102ZM183.06 0.75H172.356V1.25H183.06V0.75Z" fill="#BDBDBD"/>
<path fill-rule="evenodd" clip-rule="evenodd" d="M184.752 1L179.351 12H190.055L195.456 1H184.752Z" fill="white"/>
<path d="M184.752 1V0.75H184.596L184.527 0.889811L184.752 1ZM179.351 12L179.126 11.8898L178.949 12.25H179.351V12ZM190.055 12V12.25H190.211L190.279 12.1102L190.055 12ZM195.456 1L195.68 1.11019L195.857 0.75H195.456V1ZM184.527 0.889811L179.126 11.8898L179.575 12.1102L184.976 1.11019L184.527 0.889811ZM179.351 12.25H190.055V11.75H179.351V12.25ZM190.279 12.1102L195.68 1.11019L195.232 0.889811L189.83 11.8898L190.279 12.1102ZM195.456 0.75H184.752V1.25H195.456V0.75Z" fill="#BDBDBD"/>
<path fill-rule="evenodd" clip-rule="evenodd" d="M197.147 1L191.746 12H202.45L207.851 1H197.147Z" fill="white"/>
<path d="M197.147 1V0.75H196.991L196.922 0.889811L197.147 1ZM191.746 12L191.521 11.8898L191.344 12.25H191.746V12ZM202.45 12V12.25H202.606L202.674 12.1102L202.45 12ZM207.851 1L208.075 1.11019L208.252 0.75H207.851V1ZM196.922 0.889811L191.521 11.8898L191.97 12.1102L197.371 1.11019L196.922 0.889811ZM191.746 12.25H202.45V11.75H191.746V12.25ZM202.674 12.1102L208.075 1.11019L207.627 0.889811L202.225 11.8898L202.674 12.1102ZM207.851 0.75H197.147V1.25H207.851V0.75Z" fill="#BDBDBD"/>
<path fill-rule="evenodd" clip-rule="evenodd" d="M209.542 1L204.141 12H214.845L220.247 1H209.542Z" fill="white"/>
<path d="M209.542 1V0.75H209.387L209.318 0.889811L209.542 1ZM204.141 12L203.917 11.8898L203.74 12.25H204.141V12ZM214.845 12V12.25H215.001L215.07 12.1102L214.845 12ZM220.247 1L220.471 1.11019L220.648 0.75H220.247V1ZM209.318 0.889811L203.917 11.8898L204.366 12.1102L209.767 1.11019L209.318 0.889811ZM204.141 12.25H214.845V11.75H204.141V12.25ZM215.07 12.1102L220.471 1.11019L220.022 0.889811L214.621 11.8898L215.07 12.1102ZM220.247 0.75H209.542V1.25H220.247V0.75Z" fill="#BDBDBD"/>
<path fill-rule="evenodd" clip-rule="evenodd" d="M221.938 1L216.537 12H227.241L232.643 1H221.938Z" fill="white"/>
<path d="M221.938 1V0.75H221.783L221.714 0.889811L221.938 1ZM216.537 12L216.313 11.8898L216.136 12.25H216.537V12ZM227.241 12V12.25H227.397L227.466 12.1102L227.241 12ZM232.643 1L232.867 1.11019L233.044 0.75H232.643V1ZM221.714 0.889811L216.313 11.8898L216.762 12.1102L222.163 1.11019L221.714 0.889811ZM216.537 12.25H227.241V11.75H216.537V12.25ZM227.466 12.1102L232.867 1.11019L232.418 0.889811L227.017 11.8898L227.466 12.1102ZM232.643 0.75H221.938V1.25H232.643V0.75Z" fill="#BDBDBD"/>
<path fill-rule="evenodd" clip-rule="evenodd" d="M234.334 1L228.933 12H239.637L245.038 1H234.334Z" fill="white"/>
<path d="M234.334 1V0.75H234.178L234.109 0.889811L234.334 1ZM228.933 12L228.708 11.8898L228.531 12.25H228.933V12ZM239.637 12V12.25H239.793L239.861 12.1102L239.637 12ZM245.038 1L245.263 1.11019L245.439 0.75H245.038V1ZM234.109 0.889811L228.708 11.8898L229.157 12.1102L234.558 1.11019L234.109 0.889811ZM228.933 12.25H239.637V11.75H228.933V12.25ZM239.861 12.1102L245.263 1.11019L244.814 0.889811L239.412 11.8898L239.861 12.1102ZM245.038 0.75H234.334V1.25H245.038V0.75Z" fill="#BDBDBD"/>
</svg>
