<svg width="277" height="69" viewBox="0 0 277 69" fill="none" xmlns="http://www.w3.org/2000/svg">
<circle cx="14.5" cy="33.5" r="13.5" fill="white" stroke="#E0E0E0" stroke-width="2"/>
<path d="M17.1572 31.2412C17.1572 31.8656 16.9681 32.3965 16.5898 32.834C16.2116 33.2715 15.6807 33.5723 14.9971 33.7363V33.7773C15.8037 33.8776 16.4144 34.1237 16.8291 34.5156C17.2438 34.903 17.4512 35.4271 17.4512 36.0879C17.4512 37.0495 17.1025 37.7992 16.4053 38.3369C15.708 38.8701 14.7122 39.1367 13.418 39.1367C12.3333 39.1367 11.3717 38.9567 10.5332 38.5967V36.7988C10.9206 36.9948 11.3467 37.1543 11.8115 37.2773C12.2764 37.4004 12.7367 37.4619 13.1924 37.4619C13.8896 37.4619 14.4046 37.3434 14.7373 37.1064C15.07 36.8695 15.2363 36.4889 15.2363 35.9648C15.2363 35.4954 15.0449 35.1628 14.6621 34.9668C14.2793 34.7708 13.6686 34.6729 12.8301 34.6729H12.0713V33.0527H12.8438C13.6185 33.0527 14.1836 32.9525 14.5391 32.752C14.8991 32.5469 15.0791 32.1982 15.0791 31.7061C15.0791 30.9495 14.6051 30.5713 13.6572 30.5713C13.3291 30.5713 12.9941 30.626 12.6523 30.7354C12.3151 30.8447 11.9391 31.0339 11.5244 31.3027L10.5469 29.8467C11.4583 29.1904 12.5452 28.8623 13.8076 28.8623C14.8421 28.8623 15.6579 29.0719 16.2549 29.4912C16.8564 29.9105 17.1572 30.4938 17.1572 31.2412Z" fill="#767B7F"/>
<path fill-rule="evenodd" clip-rule="evenodd" d="M43 67.6758H240.478L275.387 34.1015L240.478 1H43L66.5808 34.1015L43 67.6758Z" fill="white"/>
<path d="M43 67.6758L42.5908 67.3884L42.0378 68.1758H43V67.6758ZM240.478 67.6758V68.1758H240.68L240.825 68.0362L240.478 67.6758ZM275.387 34.1015L275.733 34.4618L276.11 34.0989L275.731 33.7386L275.387 34.1015ZM240.478 1L240.822 0.637183L240.678 0.5H240.478V1ZM43 1V0.5H42.0299L42.5928 1.2901L43 1ZM66.5808 34.1015L66.9899 34.3888L67.1932 34.0994L66.988 33.8113L66.5808 34.1015ZM43 68.1758H240.478V67.1758H43V68.1758ZM240.825 68.0362L275.733 34.4618L275.04 33.7411L240.132 67.3154L240.825 68.0362ZM275.731 33.7386L240.822 0.637183L240.134 1.36282L275.042 34.4643L275.731 33.7386ZM240.478 0.5H43V1.5H240.478V0.5ZM66.988 33.8113L43.4072 0.709895L42.5928 1.2901L66.1735 34.3916L66.988 33.8113ZM43.4092 67.9632L66.9899 34.3888L66.1716 33.8141L42.5908 67.3884L43.4092 67.9632Z" fill="#828282"/>
<mask id="mask0" mask-type="alpha" maskUnits="userSpaceOnUse" x="42" y="0" width="235" height="69">
<path fill-rule="evenodd" clip-rule="evenodd" d="M43 67.6758H239.98L275.387 34.1015L239.98 1H43L66.5808 34.1015L43 67.6758Z" fill="white"/>
<path d="M43 67.6758L42.5908 67.3884L42.0378 68.1758H43V67.6758ZM239.98 67.6758V68.1758H240.179L240.324 68.0386L239.98 67.6758ZM275.387 34.1015L275.731 34.4643L276.116 34.0989L275.728 33.7362L275.387 34.1015ZM239.98 1L240.321 0.634756L240.177 0.5H239.98V1ZM43 1V0.5H42.0299L42.5928 1.2901L43 1ZM66.5808 34.1015L66.9899 34.3888L67.1932 34.0994L66.988 33.8113L66.5808 34.1015ZM43 68.1758H239.98V67.1758H43V68.1758ZM240.324 68.0386L275.731 34.4643L275.042 33.7386L239.636 67.313L240.324 68.0386ZM275.728 33.7362L240.321 0.634756L239.638 1.36524L275.045 34.4667L275.728 33.7362ZM239.98 0.5H43V1.5H239.98V0.5ZM66.988 33.8113L43.4072 0.709895L42.5928 1.2901L66.1735 34.3916L66.988 33.8113ZM43.4092 67.9632L66.9899 34.3888L66.1716 33.8141L42.5908 67.3884L43.4092 67.9632Z" fill="#828282"/>
</mask>
<g mask="url(#mask0)">
<path d="M43 7.81934H270.65L276.384 32.1553L269.503 61.6146H43V7.81934Z" fill="#134868"/>
</g>
<path d="M71.9218 34C71.9218 37.8685 68.7947 41 64.9428 41C61.0909 41 57.9639 37.8685 57.9639 34C57.9639 30.1315 61.0909 27 64.9428 27C68.7947 27 71.9218 30.1315 71.9218 34Z" fill="#27AE60" stroke="white" stroke-width="2"/>
<path d="M181.395 38L180.878 36.3008H178.275L177.757 38H176.127L178.646 30.832H180.497L183.026 38H181.395ZM180.516 35.0312C180.038 33.4915 179.768 32.6208 179.706 32.4189C179.647 32.2171 179.605 32.0576 179.579 31.9404C179.471 32.3571 179.164 33.3874 178.656 35.0312H180.516ZM185.443 34.2207H185.941C186.407 34.2207 186.755 34.1296 186.986 33.9473C187.217 33.7617 187.333 33.4932 187.333 33.1416C187.333 32.7868 187.235 32.5247 187.04 32.3555C186.848 32.1862 186.545 32.1016 186.131 32.1016H185.443V34.2207ZM188.861 33.0879C188.861 33.8561 188.62 34.4437 188.138 34.8506C187.66 35.2575 186.978 35.4609 186.092 35.4609H185.443V38H183.929V30.8613H186.21C187.075 30.8613 187.733 31.0485 188.182 31.4229C188.635 31.7939 188.861 32.349 188.861 33.0879ZM196.131 34.3623C196.131 35.5374 195.796 36.4375 195.126 37.0625C194.458 37.6875 193.493 38 192.23 38H190.209V30.8613H192.45C193.615 30.8613 194.52 31.1689 195.165 31.7842C195.809 32.3994 196.131 33.2588 196.131 34.3623ZM194.559 34.4014C194.559 32.8682 193.882 32.1016 192.528 32.1016H191.722V36.75H192.372C193.83 36.75 194.559 35.9671 194.559 34.4014ZM201.722 38H197.611V30.8613H201.722V32.1016H199.125V33.6689H201.542V34.9092H199.125V36.75H201.722V38ZM208.988 38H207.259L205.599 35.2998L203.939 38H202.318L204.686 34.3184L202.469 30.8613H204.139L205.677 33.4297L207.186 30.8613H208.817L206.576 34.4014L208.988 38Z" fill="#F7F7F8"/>
</svg>
