<svg width="229" height="35" viewBox="0 0 229 35" fill="none" xmlns="http://www.w3.org/2000/svg">
<circle cx="14.5" cy="17.5" r="13.5" fill="white" stroke="#E0E0E0" stroke-width="2"/>
<path d="M17.5469 23H10.5605V21.5303L13.0693 18.9941C13.8122 18.2331 14.2975 17.7067 14.5254 17.415C14.7533 17.1188 14.9173 16.8454 15.0176 16.5947C15.1178 16.3441 15.168 16.0843 15.168 15.8154C15.168 15.4144 15.0563 15.1159 14.833 14.9199C14.6143 14.724 14.3203 14.626 13.9512 14.626C13.5638 14.626 13.1878 14.7148 12.8232 14.8926C12.4587 15.0703 12.0781 15.3232 11.6816 15.6514L10.5332 14.291C11.0254 13.8717 11.4333 13.5755 11.7568 13.4023C12.0804 13.2292 12.4336 13.097 12.8164 13.0059C13.1992 12.9102 13.6276 12.8623 14.1016 12.8623C14.7259 12.8623 15.2773 12.9762 15.7559 13.2041C16.2344 13.432 16.6058 13.751 16.8701 14.1611C17.1344 14.5713 17.2666 15.0407 17.2666 15.5693C17.2666 16.0296 17.1846 16.4626 17.0205 16.8682C16.861 17.2692 16.6104 17.6816 16.2686 18.1055C15.9313 18.5293 15.3343 19.1331 14.4775 19.917L13.1924 21.127V21.2227H17.5469V23Z" fill="#767B7F"/>
<rect x="44" y="1" width="55.0557" height="33" fill="white"/>
<rect x="44" y="1" width="55.0557" height="33" fill="url(#paint0_linear)"/>
<rect x="44" y="1" width="55.0557" height="33" stroke="#12A7FF" stroke-width="2"/>
<rect x="107.184" y="0.5" width="56.0557" height="34" fill="white" stroke="#BDBDBD"/>
<rect x="172.21" y="0.5" width="56.0557" height="34" fill="white" stroke="#BDBDBD"/>
<path d="M60.0907 14.8008C59.4631 14.8008 58.967 15.0104 58.6024 15.4297C58.2404 15.8464 58.0594 16.418 58.0594 17.1445C58.0594 17.8919 58.2339 18.4701 58.5829 18.8789C58.9344 19.2852 59.4344 19.4883 60.0829 19.4883C60.4813 19.4883 60.9357 19.4167 61.4461 19.2734V19.8555C61.0503 20.0039 60.562 20.0781 59.9813 20.0781C59.1401 20.0781 58.4904 19.8229 58.0321 19.3125C57.5763 18.8021 57.3485 18.0768 57.3485 17.1367C57.3485 16.5482 57.4579 16.0326 57.6766 15.5898C57.898 15.1471 58.2157 14.806 58.6297 14.5664C59.0464 14.3268 59.536 14.207 60.0985 14.207C60.6974 14.207 61.2209 14.3164 61.6688 14.5352L61.3875 15.1055C60.9552 14.9023 60.523 14.8008 60.0907 14.8008ZM65.2274 20L65.0985 19.3906H65.0672C64.8537 19.6589 64.6401 19.8411 64.4266 19.9375C64.2157 20.0312 63.9513 20.0781 63.6336 20.0781C63.2092 20.0781 62.8758 19.9688 62.6336 19.75C62.3941 19.5312 62.2743 19.2201 62.2743 18.8164C62.2743 17.9518 62.9657 17.4987 64.3485 17.457L65.075 17.4336V17.168C65.075 16.832 65.0021 16.5846 64.8563 16.4258C64.7131 16.2643 64.4826 16.1836 64.1649 16.1836C63.8081 16.1836 63.4045 16.293 62.9539 16.5117L62.7547 16.0156C62.9657 15.901 63.1961 15.8112 63.4461 15.7461C63.6987 15.681 63.9513 15.6484 64.2039 15.6484C64.7144 15.6484 65.092 15.7617 65.3368 15.9883C65.5842 16.2148 65.7079 16.5781 65.7079 17.0781V20H65.2274ZM63.7625 19.543C64.1662 19.543 64.4826 19.4323 64.7118 19.2109C64.9435 18.9896 65.0594 18.6797 65.0594 18.2812V17.8945L64.411 17.9219C63.8954 17.9401 63.523 18.0208 63.2938 18.1641C63.0672 18.3047 62.9539 18.5247 62.9539 18.8242C62.9539 19.0586 63.0243 19.237 63.1649 19.3594C63.3081 19.4818 63.5073 19.543 63.7625 19.543ZM68.4305 19.543C68.5451 19.543 68.6558 19.5352 68.7625 19.5195C68.8693 19.5013 68.9539 19.4831 69.0164 19.4648V19.9609C68.9461 19.9948 68.842 20.0221 68.7039 20.043C68.5685 20.0664 68.4461 20.0781 68.3368 20.0781C67.5086 20.0781 67.0946 19.6419 67.0946 18.7695V16.2227H66.4813V15.9102L67.0946 15.6406L67.368 14.7266H67.743V15.7188H68.9852V16.2227H67.743V18.7422C67.743 19 67.8042 19.1979 67.9266 19.3359C68.049 19.474 68.217 19.543 68.4305 19.543ZM72.5086 20L72.3797 19.3906H72.3485C72.1349 19.6589 71.9214 19.8411 71.7079 19.9375C71.4969 20.0312 71.2326 20.0781 70.9149 20.0781C70.4904 20.0781 70.1571 19.9688 69.9149 19.75C69.6753 19.5312 69.5555 19.2201 69.5555 18.8164C69.5555 17.9518 70.2469 17.4987 71.6297 17.457L72.3563 17.4336V17.168C72.3563 16.832 72.2834 16.5846 72.1375 16.4258C71.9943 16.2643 71.7638 16.1836 71.4461 16.1836C71.0894 16.1836 70.6857 16.293 70.2352 16.5117L70.036 16.0156C70.2469 15.901 70.4774 15.8112 70.7274 15.7461C70.98 15.681 71.2326 15.6484 71.4852 15.6484C71.9956 15.6484 72.3732 15.7617 72.618 15.9883C72.8654 16.2148 72.9891 16.5781 72.9891 17.0781V20H72.5086ZM71.0438 19.543C71.4474 19.543 71.7638 19.4323 71.993 19.2109C72.2248 18.9896 72.3407 18.6797 72.3407 18.2812V17.8945L71.6922 17.9219C71.1766 17.9401 70.8042 18.0208 70.575 18.1641C70.3485 18.3047 70.2352 18.5247 70.2352 18.8242C70.2352 19.0586 70.3055 19.237 70.4461 19.3594C70.5894 19.4818 70.7886 19.543 71.0438 19.543ZM74.9774 20H74.3289V13.9219H74.9774V20ZM80.0477 17.8555C80.0477 18.5534 79.8719 19.099 79.5204 19.4922C79.1688 19.8828 78.6831 20.0781 78.0633 20.0781C77.6805 20.0781 77.3407 19.9883 77.0438 19.8086C76.7469 19.6289 76.5177 19.3711 76.3563 19.0352C76.1948 18.6992 76.1141 18.306 76.1141 17.8555C76.1141 17.1576 76.2886 16.6146 76.6375 16.2266C76.9865 15.8359 77.4709 15.6406 78.0907 15.6406C78.6896 15.6406 79.1649 15.8398 79.5164 16.2383C79.8706 16.6367 80.0477 17.1758 80.0477 17.8555ZM76.786 17.8555C76.786 18.4023 76.8954 18.819 77.1141 19.1055C77.3329 19.3919 77.6545 19.5352 78.0789 19.5352C78.5034 19.5352 78.825 19.3932 79.0438 19.1094C79.2651 18.8229 79.3758 18.4049 79.3758 17.8555C79.3758 17.3112 79.2651 16.8984 79.0438 16.6172C78.825 16.3333 78.5008 16.1914 78.0711 16.1914C77.6467 16.1914 77.3263 16.3307 77.1102 16.6094C76.8941 16.888 76.786 17.3034 76.786 17.8555ZM84.6922 15.7188V16.1289L83.8993 16.2227C83.9722 16.3138 84.0373 16.4336 84.0946 16.582C84.1519 16.7279 84.1805 16.8932 84.1805 17.0781C84.1805 17.4974 84.0373 17.832 83.7508 18.082C83.4644 18.332 83.0711 18.457 82.5711 18.457C82.4435 18.457 82.3237 18.4466 82.2118 18.4258C81.9357 18.5716 81.7977 18.7552 81.7977 18.9766C81.7977 19.0938 81.8459 19.181 81.9422 19.2383C82.0386 19.293 82.2039 19.3203 82.4383 19.3203H83.1961C83.6597 19.3203 84.0151 19.418 84.2625 19.6133C84.5125 19.8086 84.6375 20.0924 84.6375 20.4648C84.6375 20.9388 84.4474 21.2995 84.0672 21.5469C83.687 21.7969 83.1323 21.9219 82.4032 21.9219C81.8433 21.9219 81.411 21.8177 81.1063 21.6094C80.8042 21.401 80.6532 21.1068 80.6532 20.7266C80.6532 20.4661 80.7365 20.2409 80.9032 20.0508C81.0698 19.8607 81.3042 19.7318 81.6063 19.6641C81.4969 19.6146 81.4045 19.5378 81.3289 19.4336C81.256 19.3294 81.2196 19.2083 81.2196 19.0703C81.2196 18.9141 81.2612 18.7773 81.3446 18.6602C81.4279 18.543 81.5594 18.4297 81.7391 18.3203C81.5177 18.2292 81.3368 18.0742 81.1961 17.8555C81.0581 17.6367 80.9891 17.3867 80.9891 17.1055C80.9891 16.6367 81.1297 16.276 81.411 16.0234C81.6922 15.7682 82.0907 15.6406 82.6063 15.6406C82.8302 15.6406 83.0321 15.6667 83.2118 15.7188H84.6922ZM81.2782 20.7188C81.2782 20.9505 81.3758 21.1263 81.5711 21.2461C81.7664 21.3659 82.0464 21.4258 82.411 21.4258C82.9552 21.4258 83.3576 21.3438 83.618 21.1797C83.881 21.0182 84.0125 20.7982 84.0125 20.5195C84.0125 20.2878 83.9409 20.1263 83.7977 20.0352C83.6545 19.9466 83.3849 19.9023 82.9891 19.9023H82.2118C81.9175 19.9023 81.6883 19.9727 81.5243 20.1133C81.3602 20.2539 81.2782 20.4557 81.2782 20.7188ZM81.6297 17.0898C81.6297 17.3893 81.7144 17.6159 81.8836 17.7695C82.0529 17.9232 82.2886 18 82.5907 18C83.2235 18 83.5399 17.6927 83.5399 17.0781C83.5399 16.4349 83.2196 16.1133 82.5789 16.1133C82.2743 16.1133 82.0399 16.1953 81.8758 16.3594C81.7118 16.5234 81.6297 16.7669 81.6297 17.0898Z" fill="#333333"/>
<path d="M116.773 20.3311L116.062 18.5146H113.773L113.07 20.3311H112.398L114.655 14.5967H115.214L117.46 20.3311H116.773ZM115.855 17.917L115.191 16.1475C115.105 15.9235 115.016 15.6488 114.925 15.3232C114.868 15.5732 114.786 15.848 114.679 16.1475L114.007 17.917H115.855ZM123.605 20.3311V17.5459C123.605 17.2048 123.532 16.9495 123.386 16.7803C123.24 16.6084 123.014 16.5225 122.706 16.5225C122.303 16.5225 122.004 16.6383 121.812 16.8701C121.619 17.1019 121.523 17.4587 121.523 17.9404V20.3311H120.874V17.5459C120.874 17.2048 120.801 16.9495 120.655 16.7803C120.51 16.6084 120.282 16.5225 119.972 16.5225C119.566 16.5225 119.267 16.6449 119.077 16.8896C118.89 17.1318 118.796 17.5303 118.796 18.085V20.3311H118.148V16.0498H118.675L118.78 16.6357H118.812C118.934 16.4274 119.106 16.2646 119.327 16.1475C119.551 16.0303 119.801 15.9717 120.077 15.9717C120.747 15.9717 121.184 16.2139 121.39 16.6982H121.421C121.549 16.4743 121.734 16.2972 121.976 16.167C122.218 16.0368 122.494 15.9717 122.804 15.9717C123.288 15.9717 123.65 16.0967 123.89 16.3467C124.132 16.5941 124.253 16.9912 124.253 17.5381V20.3311H123.605ZM127.585 15.9795C128.148 15.9795 128.584 16.1722 128.894 16.5576C129.206 16.9404 129.362 17.4834 129.362 18.1865C129.362 18.8896 129.205 19.4365 128.89 19.8271C128.577 20.2152 128.142 20.4092 127.585 20.4092C127.307 20.4092 127.051 20.3584 126.82 20.2568C126.59 20.1527 126.398 19.9938 126.241 19.7803H126.195L126.058 20.3311H125.593V14.2529H126.241V15.7295C126.241 16.0602 126.231 16.3571 126.21 16.6201H126.241C126.543 16.193 126.991 15.9795 127.585 15.9795ZM127.491 16.5225C127.049 16.5225 126.73 16.6501 126.534 16.9053C126.339 17.1579 126.241 17.585 126.241 18.1865C126.241 18.7881 126.342 19.2191 126.542 19.4795C126.743 19.7373 127.064 19.8662 127.507 19.8662C127.905 19.8662 128.202 19.7217 128.398 19.4326C128.593 19.141 128.691 18.723 128.691 18.1787C128.691 17.6214 128.593 17.2061 128.398 16.9326C128.202 16.6592 127.9 16.5225 127.491 16.5225ZM133.132 20.3311L133.003 19.7217H132.972C132.758 19.9899 132.545 20.1722 132.331 20.2686C132.12 20.3623 131.856 20.4092 131.538 20.4092C131.114 20.4092 130.78 20.2998 130.538 20.0811C130.299 19.8623 130.179 19.5511 130.179 19.1475C130.179 18.2829 130.87 17.8298 132.253 17.7881L132.98 17.7646V17.499C132.98 17.1631 132.907 16.9157 132.761 16.7568C132.618 16.5954 132.387 16.5146 132.07 16.5146C131.713 16.5146 131.309 16.624 130.859 16.8428L130.659 16.3467C130.87 16.2321 131.101 16.1423 131.351 16.0771C131.603 16.012 131.856 15.9795 132.109 15.9795C132.619 15.9795 132.997 16.0928 133.241 16.3193C133.489 16.5459 133.612 16.9092 133.612 17.4092V20.3311H133.132ZM131.667 19.874C132.071 19.874 132.387 19.7633 132.616 19.542C132.848 19.3206 132.964 19.0107 132.964 18.6123V18.2256L132.316 18.2529C131.8 18.2712 131.428 18.3519 131.198 18.4951C130.972 18.6357 130.859 18.8558 130.859 19.1553C130.859 19.3896 130.929 19.568 131.07 19.6904C131.213 19.8128 131.412 19.874 131.667 19.874ZM137.714 19.1631C137.714 19.5615 137.566 19.8688 137.269 20.085C136.972 20.3011 136.555 20.4092 136.019 20.4092C135.451 20.4092 135.008 20.3193 134.691 20.1396V19.5381C134.896 19.6423 135.116 19.7243 135.351 19.7842C135.588 19.8441 135.816 19.874 136.034 19.874C136.373 19.874 136.633 19.8206 136.816 19.7139C136.998 19.6045 137.089 19.4391 137.089 19.2178C137.089 19.0511 137.016 18.9092 136.87 18.792C136.727 18.6722 136.446 18.5316 136.027 18.3701C135.628 18.2217 135.344 18.0928 135.175 17.9834C135.008 17.8714 134.883 17.7451 134.8 17.6045C134.719 17.4639 134.679 17.2959 134.679 17.1006C134.679 16.7516 134.821 16.4769 135.105 16.2764C135.389 16.0732 135.778 15.9717 136.273 15.9717C136.734 15.9717 137.184 16.0654 137.624 16.2529L137.394 16.7803C136.964 16.6032 136.575 16.5146 136.226 16.5146C135.918 16.5146 135.687 16.5628 135.53 16.6592C135.374 16.7555 135.296 16.8883 135.296 17.0576C135.296 17.1722 135.325 17.2699 135.382 17.3506C135.442 17.4313 135.537 17.5081 135.667 17.5811C135.797 17.654 136.047 17.7594 136.417 17.8975C136.925 18.0824 137.267 18.2686 137.445 18.4561C137.624 18.6436 137.714 18.8792 137.714 19.1631ZM141.534 19.1631C141.534 19.5615 141.386 19.8688 141.089 20.085C140.792 20.3011 140.376 20.4092 139.839 20.4092C139.271 20.4092 138.829 20.3193 138.511 20.1396V19.5381C138.717 19.6423 138.937 19.7243 139.171 19.7842C139.408 19.8441 139.636 19.874 139.855 19.874C140.193 19.874 140.454 19.8206 140.636 19.7139C140.818 19.6045 140.909 19.4391 140.909 19.2178C140.909 19.0511 140.836 18.9092 140.691 18.792C140.547 18.6722 140.266 18.5316 139.847 18.3701C139.448 18.2217 139.165 18.0928 138.995 17.9834C138.829 17.8714 138.704 17.7451 138.62 17.6045C138.54 17.4639 138.499 17.2959 138.499 17.1006C138.499 16.7516 138.641 16.4769 138.925 16.2764C139.209 16.0732 139.598 15.9717 140.093 15.9717C140.554 15.9717 141.004 16.0654 141.445 16.2529L141.214 16.7803C140.784 16.6032 140.395 16.5146 140.046 16.5146C139.739 16.5146 139.507 16.5628 139.351 16.6592C139.195 16.7555 139.116 16.8883 139.116 17.0576C139.116 17.1722 139.145 17.2699 139.202 17.3506C139.262 17.4313 139.357 17.5081 139.487 17.5811C139.618 17.654 139.868 17.7594 140.237 17.8975C140.745 18.0824 141.088 18.2686 141.265 18.4561C141.445 18.6436 141.534 18.8792 141.534 19.1631ZM145.226 20.3311L145.097 19.7217H145.066C144.852 19.9899 144.639 20.1722 144.425 20.2686C144.214 20.3623 143.95 20.4092 143.632 20.4092C143.208 20.4092 142.874 20.2998 142.632 20.0811C142.392 19.8623 142.273 19.5511 142.273 19.1475C142.273 18.2829 142.964 17.8298 144.347 17.7881L145.073 17.7646V17.499C145.073 17.1631 145.001 16.9157 144.855 16.7568C144.711 16.5954 144.481 16.5146 144.163 16.5146C143.807 16.5146 143.403 16.624 142.952 16.8428L142.753 16.3467C142.964 16.2321 143.195 16.1423 143.445 16.0771C143.697 16.012 143.95 15.9795 144.202 15.9795C144.713 15.9795 145.09 16.0928 145.335 16.3193C145.583 16.5459 145.706 16.9092 145.706 17.4092V20.3311H145.226ZM143.761 19.874C144.165 19.874 144.481 19.7633 144.71 19.542C144.942 19.3206 145.058 19.0107 145.058 18.6123V18.2256L144.409 18.2529C143.894 18.2712 143.521 18.3519 143.292 18.4951C143.066 18.6357 142.952 18.8558 142.952 19.1553C142.952 19.3896 143.023 19.568 143.163 19.6904C143.307 19.8128 143.506 19.874 143.761 19.874ZM149.96 19.7568H149.925C149.626 20.1917 149.178 20.4092 148.581 20.4092C148.021 20.4092 147.585 20.2178 147.273 19.835C146.963 19.4521 146.808 18.9079 146.808 18.2021C146.808 17.4964 146.964 16.9482 147.277 16.5576C147.589 16.167 148.024 15.9717 148.581 15.9717C149.162 15.9717 149.607 16.1826 149.917 16.6045H149.968L149.941 16.2959L149.925 15.9951V14.2529H150.573V20.3311H150.046L149.96 19.7568ZM148.663 19.8662C149.106 19.8662 149.426 19.7464 149.624 19.5068C149.825 19.2646 149.925 18.8753 149.925 18.3389V18.2021C149.925 17.5954 149.823 17.1631 149.62 16.9053C149.42 16.6449 149.098 16.5146 148.655 16.5146C148.275 16.5146 147.984 16.6631 147.78 16.96C147.58 17.2542 147.48 17.6709 147.48 18.21C147.48 18.7568 147.58 19.1696 147.78 19.4482C147.981 19.7269 148.275 19.8662 148.663 19.8662ZM155.648 18.1865C155.648 18.8844 155.472 19.43 155.12 19.8232C154.769 20.2139 154.283 20.4092 153.663 20.4092C153.28 20.4092 152.941 20.3193 152.644 20.1396C152.347 19.96 152.118 19.7021 151.956 19.3662C151.795 19.0303 151.714 18.637 151.714 18.1865C151.714 17.4886 151.889 16.9456 152.237 16.5576C152.586 16.167 153.071 15.9717 153.691 15.9717C154.29 15.9717 154.765 16.1709 155.116 16.5693C155.471 16.9678 155.648 17.5068 155.648 18.1865ZM152.386 18.1865C152.386 18.7334 152.495 19.1501 152.714 19.4365C152.933 19.723 153.254 19.8662 153.679 19.8662C154.103 19.8662 154.425 19.7243 154.644 19.4404C154.865 19.154 154.976 18.736 154.976 18.1865C154.976 17.6423 154.865 17.2295 154.644 16.9482C154.425 16.6644 154.101 16.5225 153.671 16.5225C153.247 16.5225 152.926 16.6618 152.71 16.9404C152.494 17.2191 152.386 17.6344 152.386 18.1865ZM158.741 15.9717C158.932 15.9717 159.102 15.9873 159.253 16.0186L159.163 16.6201C158.986 16.5811 158.83 16.5615 158.695 16.5615C158.348 16.5615 158.051 16.7021 157.804 16.9834C157.559 17.2646 157.437 17.6149 157.437 18.0342V20.3311H156.788V16.0498H157.323L157.398 16.8428H157.429C157.588 16.5641 157.779 16.3493 158.003 16.1982C158.227 16.0472 158.473 15.9717 158.741 15.9717Z" fill="#333333"/>
<path d="M178.3 20V14.2891H178.964V19.3984H181.484V20H178.3ZM186.054 17.8555C186.054 18.5534 185.878 19.099 185.527 19.4922C185.175 19.8828 184.689 20.0781 184.069 20.0781C183.687 20.0781 183.347 19.9883 183.05 19.8086C182.753 19.6289 182.524 19.3711 182.362 19.0352C182.201 18.6992 182.12 18.306 182.12 17.8555C182.12 17.1576 182.295 16.6146 182.644 16.2266C182.993 15.8359 183.477 15.6406 184.097 15.6406C184.696 15.6406 185.171 15.8398 185.523 16.2383C185.877 16.6367 186.054 17.1758 186.054 17.8555ZM182.792 17.8555C182.792 18.4023 182.902 18.819 183.12 19.1055C183.339 19.3919 183.661 19.5352 184.085 19.5352C184.51 19.5352 184.831 19.3932 185.05 19.1094C185.271 18.8229 185.382 18.4049 185.382 17.8555C185.382 17.3112 185.271 16.8984 185.05 16.6172C184.831 16.3333 184.507 16.1914 184.077 16.1914C183.653 16.1914 183.333 16.3307 183.116 16.6094C182.9 16.888 182.792 17.3034 182.792 17.8555ZM188.905 20.0781C188.286 20.0781 187.805 19.888 187.464 19.5078C187.125 19.125 186.956 18.5846 186.956 17.8867C186.956 17.1706 187.128 16.6172 187.472 16.2266C187.818 15.8359 188.31 15.6406 188.948 15.6406C189.154 15.6406 189.36 15.6628 189.566 15.707C189.771 15.7513 189.933 15.8034 190.05 15.8633L189.851 16.4141C189.708 16.3568 189.551 16.3099 189.382 16.2734C189.213 16.2344 189.063 16.2148 188.933 16.2148C188.063 16.2148 187.628 16.7695 187.628 17.8789C187.628 18.4049 187.734 18.8086 187.944 19.0898C188.158 19.3711 188.473 19.5117 188.89 19.5117C189.247 19.5117 189.612 19.4349 189.987 19.2812V19.8555C189.701 20.0039 189.34 20.0781 188.905 20.0781ZM193.64 20L193.511 19.3906H193.48C193.266 19.6589 193.053 19.8411 192.839 19.9375C192.628 20.0312 192.364 20.0781 192.046 20.0781C191.622 20.0781 191.288 19.9688 191.046 19.75C190.806 19.5312 190.687 19.2201 190.687 18.8164C190.687 17.9518 191.378 17.4987 192.761 17.457L193.487 17.4336V17.168C193.487 16.832 193.415 16.5846 193.269 16.4258C193.125 16.2643 192.895 16.1836 192.577 16.1836C192.221 16.1836 191.817 16.293 191.366 16.5117L191.167 16.0156C191.378 15.901 191.609 15.8112 191.859 15.7461C192.111 15.681 192.364 15.6484 192.616 15.6484C193.127 15.6484 193.504 15.7617 193.749 15.9883C193.997 16.2148 194.12 16.5781 194.12 17.0781V20H193.64ZM192.175 19.543C192.579 19.543 192.895 19.4323 193.124 19.2109C193.356 18.9896 193.472 18.6797 193.472 18.2812V17.8945L192.823 17.9219C192.308 17.9401 191.935 18.0208 191.706 18.1641C191.48 18.3047 191.366 18.5247 191.366 18.8242C191.366 19.0586 191.437 19.237 191.577 19.3594C191.721 19.4818 191.92 19.543 192.175 19.543ZM196.109 20H195.46V13.9219H196.109V20ZM198.132 20H197.484V15.7188H198.132V20ZM197.429 14.5586C197.429 14.4102 197.465 14.3021 197.538 14.2344C197.611 14.1641 197.702 14.1289 197.812 14.1289C197.916 14.1289 198.006 14.1641 198.081 14.2344C198.157 14.3047 198.194 14.4128 198.194 14.5586C198.194 14.7044 198.157 14.8138 198.081 14.8867C198.006 14.957 197.916 14.9922 197.812 14.9922C197.702 14.9922 197.611 14.957 197.538 14.8867C197.465 14.8138 197.429 14.7044 197.429 14.5586ZM202.245 20H199.14V19.5586L201.476 16.2227H199.284V15.7188H202.187V16.2227L199.882 19.4961H202.245V20ZM205.882 20L205.753 19.3906H205.722C205.508 19.6589 205.295 19.8411 205.081 19.9375C204.87 20.0312 204.606 20.0781 204.288 20.0781C203.864 20.0781 203.53 19.9688 203.288 19.75C203.049 19.5312 202.929 19.2201 202.929 18.8164C202.929 17.9518 203.62 17.4987 205.003 17.457L205.73 17.4336V17.168C205.73 16.832 205.657 16.5846 205.511 16.4258C205.368 16.2643 205.137 16.1836 204.819 16.1836C204.463 16.1836 204.059 16.293 203.609 16.5117L203.409 16.0156C203.62 15.901 203.851 15.8112 204.101 15.7461C204.353 15.681 204.606 15.6484 204.859 15.6484C205.369 15.6484 205.747 15.7617 205.991 15.9883C206.239 16.2148 206.362 16.5781 206.362 17.0781V20H205.882ZM204.417 19.543C204.821 19.543 205.137 19.4323 205.366 19.2109C205.598 18.9896 205.714 18.6797 205.714 18.2812V17.8945L205.066 17.9219C204.55 17.9401 204.178 18.0208 203.948 18.1641C203.722 18.3047 203.609 18.5247 203.609 18.8242C203.609 19.0586 203.679 19.237 203.819 19.3594C203.963 19.4818 204.162 19.543 204.417 19.543ZM209.085 19.543C209.2 19.543 209.31 19.5352 209.417 19.5195C209.524 19.5013 209.609 19.4831 209.671 19.4648V19.9609C209.601 19.9948 209.497 20.0221 209.359 20.043C209.223 20.0664 209.101 20.0781 208.991 20.0781C208.163 20.0781 207.749 19.6419 207.749 18.7695V16.2227H207.136V15.9102L207.749 15.6406L208.023 14.7266H208.398V15.7188H209.64V16.2227H208.398V18.7422C208.398 19 208.459 19.1979 208.581 19.3359C208.704 19.474 208.872 19.543 209.085 19.543ZM211.179 20H210.53V15.7188H211.179V20ZM210.476 14.5586C210.476 14.4102 210.512 14.3021 210.585 14.2344C210.658 14.1641 210.749 14.1289 210.859 14.1289C210.963 14.1289 211.053 14.1641 211.128 14.2344C211.204 14.3047 211.241 14.4128 211.241 14.5586C211.241 14.7044 211.204 14.8138 211.128 14.8867C211.053 14.957 210.963 14.9922 210.859 14.9922C210.749 14.9922 210.658 14.957 210.585 14.8867C210.512 14.8138 210.476 14.7044 210.476 14.5586ZM216.249 17.8555C216.249 18.5534 216.073 19.099 215.722 19.4922C215.37 19.8828 214.885 20.0781 214.265 20.0781C213.882 20.0781 213.542 19.9883 213.245 19.8086C212.948 19.6289 212.719 19.3711 212.558 19.0352C212.396 18.6992 212.316 18.306 212.316 17.8555C212.316 17.1576 212.49 16.6146 212.839 16.2266C213.188 15.8359 213.672 15.6406 214.292 15.6406C214.891 15.6406 215.366 15.8398 215.718 16.2383C216.072 16.6367 216.249 17.1758 216.249 17.8555ZM212.987 17.8555C212.987 18.4023 213.097 18.819 213.316 19.1055C213.534 19.3919 213.856 19.5352 214.28 19.5352C214.705 19.5352 215.027 19.3932 215.245 19.1094C215.467 18.8229 215.577 18.4049 215.577 17.8555C215.577 17.3112 215.467 16.8984 215.245 16.6172C215.027 16.3333 214.702 16.1914 214.273 16.1914C213.848 16.1914 213.528 16.3307 213.312 16.6094C213.096 16.888 212.987 17.3034 212.987 17.8555ZM220.319 20V17.2305C220.319 16.8815 220.24 16.6211 220.081 16.4492C219.922 16.2773 219.674 16.1914 219.335 16.1914C218.887 16.1914 218.559 16.3125 218.351 16.5547C218.142 16.7969 218.038 17.1966 218.038 17.7539V20H217.39V15.7188H217.917L218.023 16.3047H218.054C218.187 16.0938 218.373 15.931 218.612 15.8164C218.852 15.6992 219.119 15.6406 219.413 15.6406C219.929 15.6406 220.317 15.7656 220.577 16.0156C220.838 16.263 220.968 16.6602 220.968 17.207V20H220.319Z" fill="#333333"/>
<defs>
<linearGradient id="paint0_linear" x1="71.5279" y1="0" x2="71.5279" y2="35" gradientUnits="userSpaceOnUse">
<stop stop-color="white"/>
<stop offset="1" stop-color="white" stop-opacity="0"/>
</linearGradient>
</defs>
</svg>
