<svg width="121" height="29" viewBox="0 0 121 29" fill="none" xmlns="http://www.w3.org/2000/svg">
<circle cx="14.5" cy="14.5" r="13.5" fill="white" stroke="#E0E0E0" stroke-width="2"/>
<path d="M15.7832 20H13.6709V14.2168L13.6914 13.2666L13.7256 12.2275C13.3747 12.5785 13.1309 12.8086 12.9941 12.918L11.8457 13.8408L10.8271 12.5693L14.0469 10.0059H15.7832V20Z" fill="#767B7F"/>
<ellipse cx="51.8929" cy="15" rx="8.89291" ry="9" fill="#828282"/>
<path d="M52.8461 19H51.6987V14.3906C51.6987 13.8405 51.7117 13.4043 51.7377 13.082C51.6629 13.1602 51.5701 13.2464 51.4594 13.3408C51.352 13.4352 50.9874 13.7347 50.3657 14.2393L49.7895 13.5117L51.8891 11.8613H52.8461V19Z" fill="white"/>
<ellipse cx="81.8929" cy="15" rx="8.89291" ry="9" fill="#828282"/>
<path d="M84.3159 19H79.477V18.1309L81.3178 16.2803C81.8614 15.7236 82.2211 15.3298 82.3969 15.0986C82.576 14.8643 82.7062 14.6445 82.7875 14.4395C82.8689 14.2344 82.9096 14.0146 82.9096 13.7803C82.9096 13.458 82.812 13.2041 82.6166 13.0186C82.4246 12.833 82.1577 12.7402 81.8159 12.7402C81.5424 12.7402 81.2771 12.7907 81.02 12.8916C80.7661 12.9925 80.4715 13.1748 80.1362 13.4385L79.5161 12.6816C79.9132 12.3464 80.2989 12.1087 80.6733 11.9688C81.0476 11.8288 81.4464 11.7588 81.8696 11.7588C82.5336 11.7588 83.0659 11.9329 83.4663 12.2812C83.8666 12.6263 84.0668 13.0918 84.0668 13.6777C84.0668 14 84.0082 14.306 83.8911 14.5957C83.7771 14.8854 83.5997 15.1849 83.3588 15.4941C83.1212 15.8001 82.7241 16.2152 82.1674 16.7393L80.9272 17.9404V17.9893H84.3159V19Z" fill="white"/>
<ellipse cx="111.893" cy="15" rx="8.89291" ry="9" fill="#828282"/>
<path d="M114.047 13.502C114.047 13.9544 113.915 14.332 113.652 14.6348C113.388 14.9342 113.017 15.1361 112.539 15.2402V15.2793C113.111 15.3509 113.541 15.5299 113.828 15.8164C114.114 16.0996 114.257 16.4772 114.257 16.9492C114.257 17.6361 114.015 18.1667 113.53 18.541C113.045 18.9121 112.355 19.0977 111.459 19.0977C110.668 19.0977 110.001 18.9691 109.457 18.7119V17.6914C109.76 17.8411 110.081 17.9567 110.419 18.0381C110.758 18.1195 111.083 18.1602 111.396 18.1602C111.949 18.1602 112.363 18.0576 112.636 17.8525C112.91 17.6475 113.046 17.3301 113.046 16.9004C113.046 16.5195 112.895 16.2396 112.592 16.0605C112.289 15.8815 111.814 15.792 111.166 15.792H110.546V14.8594H111.176C112.316 14.8594 112.885 14.4655 112.885 13.6777C112.885 13.3717 112.786 13.1357 112.587 12.9697C112.389 12.8037 112.096 12.7207 111.708 12.7207C111.438 12.7207 111.178 12.7598 110.927 12.8379C110.677 12.9128 110.38 13.0609 110.039 13.2822L109.477 12.4814C110.131 11.9997 110.891 11.7588 111.757 11.7588C112.477 11.7588 113.038 11.9134 113.442 12.2227C113.845 12.5319 114.047 12.9583 114.047 13.502Z" fill="white"/>
</svg>
