<svg width="257" height="260" viewBox="0 0 257 260" fill="none" xmlns="http://www.w3.org/2000/svg">
<g filter="url(#filter0_d)">
<rect x="40.8945" y="4" width="210" height="250" fill="white"/>
<rect x="41.0445" y="4.15" width="209.7" height="249.7" stroke="#BDBDBD" stroke-width="0.3"/>
</g>
<rect x="57.7012" y="22" width="55.0557" height="33" fill="white"/>
<rect x="57.7012" y="22" width="55.0557" height="33" fill="url(#paint0_linear)"/>
<rect x="57.7012" y="22" width="55.0557" height="33" stroke="#12A7FF" stroke-width="2"/>
<rect x="56.2188" y="111.5" width="185.739" height="34" fill="white" stroke="#BDBDBD"/>
<rect x="56.2188" y="157" width="185.739" height="34" fill="white" stroke="#BDBDBD"/>
<rect x="120.885" y="21.5" width="56.0557" height="34" fill="white" stroke="#BDBDBD"/>
<rect x="185.911" y="21.5" width="56.0557" height="34" fill="white" stroke="#BDBDBD"/>
<path d="M73.7918 35.8008C73.1642 35.8008 72.6681 36.0104 72.3036 36.4297C71.9416 36.8464 71.7606 37.418 71.7606 38.1445C71.7606 38.8919 71.9351 39.4701 72.284 39.8789C72.6356 40.2852 73.1356 40.4883 73.784 40.4883C74.1825 40.4883 74.6369 40.4167 75.1473 40.2734V40.8555C74.7515 41.0039 74.2632 41.0781 73.6825 41.0781C72.8413 41.0781 72.1916 40.8229 71.7332 40.3125C71.2775 39.8021 71.0497 39.0768 71.0497 38.1367C71.0497 37.5482 71.159 37.0326 71.3778 36.5898C71.5991 36.1471 71.9168 35.806 72.3309 35.5664C72.7476 35.3268 73.2372 35.207 73.7997 35.207C74.3986 35.207 74.922 35.3164 75.37 35.5352L75.0887 36.1055C74.6564 35.9023 74.2241 35.8008 73.7918 35.8008ZM78.9286 41L78.7997 40.3906H78.7684C78.5549 40.6589 78.3413 40.8411 78.1278 40.9375C77.9168 41.0312 77.6525 41.0781 77.3348 41.0781C76.9103 41.0781 76.577 40.9688 76.3348 40.75C76.0952 40.5312 75.9754 40.2201 75.9754 39.8164C75.9754 38.9518 76.6668 38.4987 78.0497 38.457L78.7762 38.4336V38.168C78.7762 37.832 78.7033 37.5846 78.5575 37.4258C78.4142 37.2643 78.1838 37.1836 77.8661 37.1836C77.5093 37.1836 77.1056 37.293 76.6551 37.5117L76.4559 37.0156C76.6668 36.901 76.8973 36.8112 77.1473 36.7461C77.3999 36.681 77.6525 36.6484 77.9051 36.6484C78.4155 36.6484 78.7931 36.7617 79.0379 36.9883C79.2853 37.2148 79.409 37.5781 79.409 38.0781V41H78.9286ZM77.4637 40.543C77.8674 40.543 78.1838 40.4323 78.4129 40.2109C78.6447 39.9896 78.7606 39.6797 78.7606 39.2812V38.8945L78.1122 38.9219C77.5965 38.9401 77.2241 39.0208 76.995 39.1641C76.7684 39.3047 76.6551 39.5247 76.6551 39.8242C76.6551 40.0586 76.7254 40.237 76.8661 40.3594C77.0093 40.4818 77.2085 40.543 77.4637 40.543ZM82.1317 40.543C82.2463 40.543 82.3569 40.5352 82.4637 40.5195C82.5705 40.5013 82.6551 40.4831 82.7176 40.4648V40.9609C82.6473 40.9948 82.5431 41.0221 82.4051 41.043C82.2697 41.0664 82.1473 41.0781 82.0379 41.0781C81.2098 41.0781 80.7957 40.6419 80.7957 39.7695V37.2227H80.1825V36.9102L80.7957 36.6406L81.0692 35.7266H81.4442V36.7188H82.6864V37.2227H81.4442V39.7422C81.4442 40 81.5054 40.1979 81.6278 40.3359C81.7502 40.474 81.9181 40.543 82.1317 40.543ZM86.2098 41L86.0809 40.3906H86.0497C85.8361 40.6589 85.6226 40.8411 85.409 40.9375C85.1981 41.0312 84.9338 41.0781 84.6161 41.0781C84.1916 41.0781 83.8582 40.9688 83.6161 40.75C83.3765 40.5312 83.2567 40.2201 83.2567 39.8164C83.2567 38.9518 83.9481 38.4987 85.3309 38.457L86.0575 38.4336V38.168C86.0575 37.832 85.9845 37.5846 85.8387 37.4258C85.6955 37.2643 85.465 37.1836 85.1473 37.1836C84.7905 37.1836 84.3869 37.293 83.9364 37.5117L83.7372 37.0156C83.9481 36.901 84.1786 36.8112 84.4286 36.7461C84.6812 36.681 84.9338 36.6484 85.1864 36.6484C85.6968 36.6484 86.0744 36.7617 86.3192 36.9883C86.5666 37.2148 86.6903 37.5781 86.6903 38.0781V41H86.2098ZM84.745 40.543C85.1486 40.543 85.465 40.4323 85.6942 40.2109C85.926 39.9896 86.0418 39.6797 86.0418 39.2812V38.8945L85.3934 38.9219C84.8778 38.9401 84.5054 39.0208 84.2762 39.1641C84.0497 39.3047 83.9364 39.5247 83.9364 39.8242C83.9364 40.0586 84.0067 40.237 84.1473 40.3594C84.2905 40.4818 84.4898 40.543 84.745 40.543ZM88.6786 41H88.0301V34.9219H88.6786V41ZM93.7489 38.8555C93.7489 39.5534 93.5731 40.099 93.2215 40.4922C92.87 40.8828 92.3843 41.0781 91.7645 41.0781C91.3817 41.0781 91.0418 40.9883 90.745 40.8086C90.4481 40.6289 90.2189 40.3711 90.0575 40.0352C89.896 39.6992 89.8153 39.306 89.8153 38.8555C89.8153 38.1576 89.9898 37.6146 90.3387 37.2266C90.6877 36.8359 91.172 36.6406 91.7918 36.6406C92.3908 36.6406 92.8661 36.8398 93.2176 37.2383C93.5718 37.6367 93.7489 38.1758 93.7489 38.8555ZM90.4872 38.8555C90.4872 39.4023 90.5965 39.819 90.8153 40.1055C91.034 40.3919 91.3556 40.5352 91.7801 40.5352C92.2046 40.5352 92.5262 40.3932 92.745 40.1094C92.9663 39.8229 93.077 39.4049 93.077 38.8555C93.077 38.3112 92.9663 37.8984 92.745 37.6172C92.5262 37.3333 92.202 37.1914 91.7723 37.1914C91.3478 37.1914 91.0275 37.3307 90.8114 37.6094C90.5952 37.888 90.4872 38.3034 90.4872 38.8555ZM98.3934 36.7188V37.1289L97.6004 37.2227C97.6733 37.3138 97.7385 37.4336 97.7957 37.582C97.853 37.7279 97.8817 37.8932 97.8817 38.0781C97.8817 38.4974 97.7385 38.832 97.452 39.082C97.1655 39.332 96.7723 39.457 96.2723 39.457C96.1447 39.457 96.0249 39.4466 95.9129 39.4258C95.6369 39.5716 95.4989 39.7552 95.4989 39.9766C95.4989 40.0938 95.547 40.181 95.6434 40.2383C95.7398 40.293 95.9051 40.3203 96.1395 40.3203H96.8973C97.3608 40.3203 97.7163 40.418 97.9637 40.6133C98.2137 40.8086 98.3387 41.0924 98.3387 41.4648C98.3387 41.9388 98.1486 42.2995 97.7684 42.5469C97.3882 42.7969 96.8335 42.9219 96.1043 42.9219C95.5444 42.9219 95.1122 42.8177 94.8075 42.6094C94.5054 42.401 94.3543 42.1068 94.3543 41.7266C94.3543 41.4661 94.4377 41.2409 94.6043 41.0508C94.771 40.8607 95.0054 40.7318 95.3075 40.6641C95.1981 40.6146 95.1056 40.5378 95.0301 40.4336C94.9572 40.3294 94.9207 40.2083 94.9207 40.0703C94.9207 39.9141 94.9624 39.7773 95.0457 39.6602C95.1291 39.543 95.2606 39.4297 95.4403 39.3203C95.2189 39.2292 95.0379 39.0742 94.8973 38.8555C94.7593 38.6367 94.6903 38.3867 94.6903 38.1055C94.6903 37.6367 94.8309 37.276 95.1122 37.0234C95.3934 36.7682 95.7918 36.6406 96.3075 36.6406C96.5314 36.6406 96.7332 36.6667 96.9129 36.7188H98.3934ZM94.9793 41.7188C94.9793 41.9505 95.077 42.1263 95.2723 42.2461C95.4676 42.3659 95.7476 42.4258 96.1122 42.4258C96.6564 42.4258 97.0588 42.3438 97.3192 42.1797C97.5822 42.0182 97.7137 41.7982 97.7137 41.5195C97.7137 41.2878 97.6421 41.1263 97.4989 41.0352C97.3556 40.9466 97.0861 40.9023 96.6903 40.9023H95.9129C95.6187 40.9023 95.3895 40.9727 95.2254 41.1133C95.0614 41.2539 94.9793 41.4557 94.9793 41.7188ZM95.3309 38.0898C95.3309 38.3893 95.4155 38.6159 95.5848 38.7695C95.7541 38.9232 95.9898 39 96.2918 39C96.9247 39 97.2411 38.6927 97.2411 38.0781C97.2411 37.4349 96.9207 37.1133 96.2801 37.1133C95.9754 37.1133 95.7411 37.1953 95.577 37.3594C95.4129 37.5234 95.3309 37.7669 95.3309 38.0898Z" fill="#333333"/>
<path d="M133.644 126.301C133.016 126.301 132.52 126.51 132.155 126.93C131.793 127.346 131.612 127.918 131.612 128.645C131.612 129.392 131.787 129.97 132.136 130.379C132.487 130.785 132.987 130.988 133.636 130.988C134.034 130.988 134.489 130.917 134.999 130.773V131.355C134.603 131.504 134.115 131.578 133.534 131.578C132.693 131.578 132.043 131.323 131.585 130.812C131.129 130.302 130.902 129.577 130.902 128.637C130.902 128.048 131.011 127.533 131.23 127.09C131.451 126.647 131.769 126.306 132.183 126.066C132.599 125.827 133.089 125.707 133.652 125.707C134.251 125.707 134.774 125.816 135.222 126.035L134.941 126.605C134.508 126.402 134.076 126.301 133.644 126.301ZM139.843 129.355C139.843 130.053 139.667 130.599 139.316 130.992C138.964 131.383 138.478 131.578 137.859 131.578C137.476 131.578 137.136 131.488 136.839 131.309C136.542 131.129 136.313 130.871 136.152 130.535C135.99 130.199 135.909 129.806 135.909 129.355C135.909 128.658 136.084 128.115 136.433 127.727C136.782 127.336 137.266 127.141 137.886 127.141C138.485 127.141 138.96 127.34 139.312 127.738C139.666 128.137 139.843 128.676 139.843 129.355ZM136.581 129.355C136.581 129.902 136.691 130.319 136.909 130.605C137.128 130.892 137.45 131.035 137.874 131.035C138.299 131.035 138.62 130.893 138.839 130.609C139.06 130.323 139.171 129.905 139.171 129.355C139.171 128.811 139.06 128.398 138.839 128.117C138.62 127.833 138.296 127.691 137.866 127.691C137.442 127.691 137.122 127.831 136.905 128.109C136.689 128.388 136.581 128.803 136.581 129.355ZM143.913 131.5V128.73C143.913 128.382 143.834 128.121 143.675 127.949C143.516 127.777 143.267 127.691 142.929 127.691C142.481 127.691 142.153 127.812 141.945 128.055C141.736 128.297 141.632 128.697 141.632 129.254V131.5H140.984V127.219H141.511L141.616 127.805H141.648C141.78 127.594 141.967 127.431 142.206 127.316C142.446 127.199 142.713 127.141 143.007 127.141C143.523 127.141 143.911 127.266 144.171 127.516C144.432 127.763 144.562 128.16 144.562 128.707V131.5H143.913ZM148.659 130.332C148.659 130.73 148.511 131.038 148.214 131.254C147.917 131.47 147.501 131.578 146.964 131.578C146.396 131.578 145.954 131.488 145.636 131.309V130.707C145.842 130.811 146.062 130.893 146.296 130.953C146.533 131.013 146.761 131.043 146.98 131.043C147.318 131.043 147.579 130.99 147.761 130.883C147.943 130.773 148.034 130.608 148.034 130.387C148.034 130.22 147.961 130.078 147.816 129.961C147.672 129.841 147.391 129.701 146.972 129.539C146.573 129.391 146.29 129.262 146.12 129.152C145.954 129.04 145.829 128.914 145.745 128.773C145.665 128.633 145.624 128.465 145.624 128.27C145.624 127.921 145.766 127.646 146.05 127.445C146.334 127.242 146.723 127.141 147.218 127.141C147.679 127.141 148.129 127.234 148.57 127.422L148.339 127.949C147.909 127.772 147.52 127.684 147.171 127.684C146.864 127.684 146.632 127.732 146.476 127.828C146.32 127.924 146.241 128.057 146.241 128.227C146.241 128.341 146.27 128.439 146.327 128.52C146.387 128.6 146.482 128.677 146.612 128.75C146.743 128.823 146.993 128.928 147.362 129.066C147.87 129.251 148.213 129.438 148.39 129.625C148.57 129.812 148.659 130.048 148.659 130.332ZM150.327 127.219V129.996C150.327 130.345 150.407 130.605 150.566 130.777C150.724 130.949 150.973 131.035 151.312 131.035C151.76 131.035 152.086 130.913 152.292 130.668C152.501 130.423 152.605 130.023 152.605 129.469V127.219H153.253V131.5H152.718L152.624 130.926H152.589C152.456 131.137 152.271 131.298 152.034 131.41C151.8 131.522 151.532 131.578 151.23 131.578C150.709 131.578 150.318 131.454 150.058 131.207C149.8 130.96 149.671 130.564 149.671 130.02V127.219H150.327ZM155.28 131.5H154.632V125.422H155.28V131.5ZM159.288 131.5L159.159 130.891H159.128C158.915 131.159 158.701 131.341 158.487 131.438C158.277 131.531 158.012 131.578 157.695 131.578C157.27 131.578 156.937 131.469 156.695 131.25C156.455 131.031 156.335 130.72 156.335 130.316C156.335 129.452 157.027 128.999 158.409 128.957L159.136 128.934V128.668C159.136 128.332 159.063 128.085 158.917 127.926C158.774 127.764 158.543 127.684 158.226 127.684C157.869 127.684 157.465 127.793 157.015 128.012L156.816 127.516C157.027 127.401 157.257 127.311 157.507 127.246C157.76 127.181 158.012 127.148 158.265 127.148C158.775 127.148 159.153 127.262 159.398 127.488C159.645 127.715 159.769 128.078 159.769 128.578V131.5H159.288ZM157.823 131.043C158.227 131.043 158.543 130.932 158.773 130.711C159.004 130.49 159.12 130.18 159.12 129.781V129.395L158.472 129.422C157.956 129.44 157.584 129.521 157.355 129.664C157.128 129.805 157.015 130.025 157.015 130.324C157.015 130.559 157.085 130.737 157.226 130.859C157.369 130.982 157.568 131.043 157.823 131.043ZM162.491 131.043C162.606 131.043 162.717 131.035 162.823 131.02C162.93 131.001 163.015 130.983 163.077 130.965V131.461C163.007 131.495 162.903 131.522 162.765 131.543C162.629 131.566 162.507 131.578 162.398 131.578C161.57 131.578 161.155 131.142 161.155 130.27V127.723H160.542V127.41L161.155 127.141L161.429 126.227H161.804V127.219H163.046V127.723H161.804V130.242C161.804 130.5 161.865 130.698 161.987 130.836C162.11 130.974 162.278 131.043 162.491 131.043ZM165.745 131.578C165.112 131.578 164.612 131.385 164.245 131C163.881 130.615 163.698 130.079 163.698 129.395C163.698 128.704 163.868 128.156 164.206 127.75C164.547 127.344 165.004 127.141 165.577 127.141C166.114 127.141 166.538 127.318 166.851 127.672C167.163 128.023 167.32 128.488 167.32 129.066V129.477H164.37C164.383 129.979 164.51 130.361 164.749 130.621C164.991 130.882 165.331 131.012 165.769 131.012C166.23 131.012 166.685 130.915 167.136 130.723V131.301C166.907 131.4 166.689 131.47 166.484 131.512C166.28 131.556 166.034 131.578 165.745 131.578ZM165.57 127.684C165.226 127.684 164.951 127.796 164.745 128.02C164.542 128.243 164.422 128.553 164.386 128.949H166.624C166.624 128.54 166.533 128.228 166.351 128.012C166.168 127.793 165.908 127.684 165.57 127.684Z" fill="#333333"/>
<path d="M128.732 174.625V177H128.068V171.289H129.635C130.335 171.289 130.852 171.423 131.186 171.691C131.521 171.96 131.689 172.363 131.689 172.902C131.689 173.658 131.307 174.168 130.541 174.434L132.092 177H131.307L129.924 174.625H128.732ZM128.732 174.055H129.643C130.111 174.055 130.455 173.962 130.674 173.777C130.893 173.59 131.002 173.31 131.002 172.938C131.002 172.56 130.89 172.288 130.666 172.121C130.445 171.954 130.088 171.871 129.596 171.871H128.732V174.055ZM134.725 177.078C134.092 177.078 133.592 176.885 133.225 176.5C132.86 176.115 132.678 175.579 132.678 174.895C132.678 174.204 132.847 173.656 133.186 173.25C133.527 172.844 133.984 172.641 134.557 172.641C135.093 172.641 135.518 172.818 135.83 173.172C136.143 173.523 136.299 173.988 136.299 174.566V174.977H133.35C133.363 175.479 133.489 175.861 133.729 176.121C133.971 176.382 134.311 176.512 134.748 176.512C135.209 176.512 135.665 176.415 136.115 176.223V176.801C135.886 176.9 135.669 176.97 135.463 177.012C135.26 177.056 135.014 177.078 134.725 177.078ZM134.549 173.184C134.205 173.184 133.93 173.296 133.725 173.52C133.521 173.743 133.402 174.053 133.365 174.449H135.604C135.604 174.04 135.512 173.728 135.33 173.512C135.148 173.293 134.887 173.184 134.549 173.184ZM140.17 175.832C140.17 176.23 140.021 176.538 139.725 176.754C139.428 176.97 139.011 177.078 138.475 177.078C137.907 177.078 137.464 176.988 137.146 176.809V176.207C137.352 176.311 137.572 176.393 137.807 176.453C138.044 176.513 138.271 176.543 138.49 176.543C138.829 176.543 139.089 176.49 139.271 176.383C139.454 176.273 139.545 176.108 139.545 175.887C139.545 175.72 139.472 175.578 139.326 175.461C139.183 175.341 138.902 175.201 138.482 175.039C138.084 174.891 137.8 174.762 137.631 174.652C137.464 174.54 137.339 174.414 137.256 174.273C137.175 174.133 137.135 173.965 137.135 173.77C137.135 173.421 137.277 173.146 137.561 172.945C137.844 172.742 138.234 172.641 138.729 172.641C139.189 172.641 139.64 172.734 140.08 172.922L139.85 173.449C139.42 173.272 139.031 173.184 138.682 173.184C138.374 173.184 138.143 173.232 137.986 173.328C137.83 173.424 137.752 173.557 137.752 173.727C137.752 173.841 137.781 173.939 137.838 174.02C137.898 174.1 137.993 174.177 138.123 174.25C138.253 174.323 138.503 174.428 138.873 174.566C139.381 174.751 139.723 174.938 139.9 175.125C140.08 175.312 140.17 175.548 140.17 175.832ZM142.611 176.543C142.726 176.543 142.837 176.535 142.943 176.52C143.05 176.501 143.135 176.483 143.197 176.465V176.961C143.127 176.995 143.023 177.022 142.885 177.043C142.749 177.066 142.627 177.078 142.518 177.078C141.689 177.078 141.275 176.642 141.275 175.77V173.223H140.662V172.91L141.275 172.641L141.549 171.727H141.924V172.719H143.166V173.223H141.924V175.742C141.924 176 141.985 176.198 142.107 176.336C142.23 176.474 142.398 176.543 142.611 176.543ZM146.01 172.641C146.2 172.641 146.37 172.656 146.521 172.688L146.432 173.289C146.255 173.25 146.098 173.23 145.963 173.23C145.617 173.23 145.32 173.371 145.072 173.652C144.827 173.934 144.705 174.284 144.705 174.703V177H144.057V172.719H144.592L144.666 173.512H144.697C144.856 173.233 145.048 173.018 145.271 172.867C145.495 172.716 145.742 172.641 146.01 172.641ZM147.971 177H147.322V172.719H147.971V177ZM147.268 171.559C147.268 171.41 147.304 171.302 147.377 171.234C147.45 171.164 147.541 171.129 147.65 171.129C147.755 171.129 147.844 171.164 147.92 171.234C147.995 171.305 148.033 171.413 148.033 171.559C148.033 171.704 147.995 171.814 147.92 171.887C147.844 171.957 147.755 171.992 147.65 171.992C147.541 171.992 147.45 171.957 147.377 171.887C147.304 171.814 147.268 171.704 147.268 171.559ZM151.057 177.078C150.437 177.078 149.956 176.888 149.615 176.508C149.277 176.125 149.107 175.585 149.107 174.887C149.107 174.171 149.279 173.617 149.623 173.227C149.969 172.836 150.462 172.641 151.1 172.641C151.305 172.641 151.511 172.663 151.717 172.707C151.923 172.751 152.084 172.803 152.201 172.863L152.002 173.414C151.859 173.357 151.702 173.31 151.533 173.273C151.364 173.234 151.214 173.215 151.084 173.215C150.214 173.215 149.779 173.77 149.779 174.879C149.779 175.405 149.885 175.809 150.096 176.09C150.309 176.371 150.624 176.512 151.041 176.512C151.398 176.512 151.764 176.435 152.139 176.281V176.855C151.852 177.004 151.492 177.078 151.057 177.078ZM154.541 176.543C154.656 176.543 154.766 176.535 154.873 176.52C154.98 176.501 155.064 176.483 155.127 176.465V176.961C155.057 176.995 154.952 177.022 154.814 177.043C154.679 177.066 154.557 177.078 154.447 177.078C153.619 177.078 153.205 176.642 153.205 175.77V173.223H152.592V172.91L153.205 172.641L153.479 171.727H153.854V172.719H155.096V173.223H153.854V175.742C153.854 176 153.915 176.198 154.037 176.336C154.16 176.474 154.327 176.543 154.541 176.543ZM156.635 177H155.986V172.719H156.635V177ZM155.932 171.559C155.932 171.41 155.968 171.302 156.041 171.234C156.114 171.164 156.205 171.129 156.314 171.129C156.419 171.129 156.508 171.164 156.584 171.234C156.66 171.305 156.697 171.413 156.697 171.559C156.697 171.704 156.66 171.814 156.584 171.887C156.508 171.957 156.419 171.992 156.314 171.992C156.205 171.992 156.114 171.957 156.041 171.887C155.968 171.814 155.932 171.704 155.932 171.559ZM161.705 174.855C161.705 175.553 161.529 176.099 161.178 176.492C160.826 176.883 160.341 177.078 159.721 177.078C159.338 177.078 158.998 176.988 158.701 176.809C158.404 176.629 158.175 176.371 158.014 176.035C157.852 175.699 157.771 175.306 157.771 174.855C157.771 174.158 157.946 173.615 158.295 173.227C158.644 172.836 159.128 172.641 159.748 172.641C160.347 172.641 160.822 172.84 161.174 173.238C161.528 173.637 161.705 174.176 161.705 174.855ZM158.443 174.855C158.443 175.402 158.553 175.819 158.771 176.105C158.99 176.392 159.312 176.535 159.736 176.535C160.161 176.535 160.482 176.393 160.701 176.109C160.923 175.823 161.033 175.405 161.033 174.855C161.033 174.311 160.923 173.898 160.701 173.617C160.482 173.333 160.158 173.191 159.729 173.191C159.304 173.191 158.984 173.331 158.768 173.609C158.551 173.888 158.443 174.303 158.443 174.855ZM165.775 177V174.23C165.775 173.882 165.696 173.621 165.537 173.449C165.378 173.277 165.13 173.191 164.791 173.191C164.343 173.191 164.015 173.312 163.807 173.555C163.598 173.797 163.494 174.197 163.494 174.754V177H162.846V172.719H163.373L163.479 173.305H163.51C163.643 173.094 163.829 172.931 164.068 172.816C164.308 172.699 164.575 172.641 164.869 172.641C165.385 172.641 165.773 172.766 166.033 173.016C166.294 173.263 166.424 173.66 166.424 174.207V177H165.775ZM170.521 175.832C170.521 176.23 170.373 176.538 170.076 176.754C169.779 176.97 169.363 177.078 168.826 177.078C168.258 177.078 167.816 176.988 167.498 176.809V176.207C167.704 176.311 167.924 176.393 168.158 176.453C168.395 176.513 168.623 176.543 168.842 176.543C169.18 176.543 169.441 176.49 169.623 176.383C169.805 176.273 169.896 176.108 169.896 175.887C169.896 175.72 169.824 175.578 169.678 175.461C169.535 175.341 169.253 175.201 168.834 175.039C168.436 174.891 168.152 174.762 167.982 174.652C167.816 174.54 167.691 174.414 167.607 174.273C167.527 174.133 167.486 173.965 167.486 173.77C167.486 173.421 167.628 173.146 167.912 172.945C168.196 172.742 168.585 172.641 169.08 172.641C169.541 172.641 169.992 172.734 170.432 172.922L170.201 173.449C169.771 173.272 169.382 173.184 169.033 173.184C168.726 173.184 168.494 173.232 168.338 173.328C168.182 173.424 168.104 173.557 168.104 173.727C168.104 173.841 168.132 173.939 168.189 174.02C168.249 174.1 168.344 174.177 168.475 174.25C168.605 174.323 168.855 174.428 169.225 174.566C169.732 174.751 170.075 174.938 170.252 175.125C170.432 175.312 170.521 175.548 170.521 175.832Z" fill="#333333"/>
<path d="M130.474 41.3311L129.763 39.5146H127.474L126.771 41.3311H126.099L128.357 35.5967H128.915L131.161 41.3311H130.474ZM129.556 38.917L128.892 37.1475C128.806 36.9235 128.717 36.6488 128.626 36.3232C128.569 36.5732 128.487 36.848 128.38 37.1475L127.708 38.917H129.556ZM137.306 41.3311V38.5459C137.306 38.2048 137.233 37.9495 137.087 37.7803C136.941 37.6084 136.715 37.5225 136.407 37.5225C136.004 37.5225 135.706 37.6383 135.513 37.8701C135.32 38.1019 135.224 38.4587 135.224 38.9404V41.3311H134.575V38.5459C134.575 38.2048 134.502 37.9495 134.357 37.7803C134.211 37.6084 133.983 37.5225 133.673 37.5225C133.267 37.5225 132.969 37.6449 132.779 37.8896C132.591 38.1318 132.497 38.5303 132.497 39.085V41.3311H131.849V37.0498H132.376L132.482 37.6357H132.513C132.635 37.4274 132.807 37.2646 133.029 37.1475C133.252 37.0303 133.502 36.9717 133.779 36.9717C134.448 36.9717 134.885 37.2139 135.091 37.6982H135.122C135.25 37.4743 135.435 37.2972 135.677 37.167C135.919 37.0368 136.195 36.9717 136.505 36.9717C136.989 36.9717 137.351 37.0967 137.591 37.3467C137.833 37.5941 137.954 37.9912 137.954 38.5381V41.3311H137.306ZM141.286 36.9795C141.849 36.9795 142.285 37.1722 142.595 37.5576C142.907 37.9404 143.064 38.4834 143.064 39.1865C143.064 39.8896 142.906 40.4365 142.591 40.8271C142.279 41.2152 141.844 41.4092 141.286 41.4092C141.008 41.4092 140.752 41.3584 140.521 41.2568C140.292 41.1527 140.099 40.9938 139.943 40.7803H139.896L139.759 41.3311H139.294V35.2529H139.943V36.7295C139.943 37.0602 139.932 37.3571 139.911 37.6201H139.943C140.245 37.193 140.693 36.9795 141.286 36.9795ZM141.193 37.5225C140.75 37.5225 140.431 37.6501 140.236 37.9053C140.04 38.1579 139.943 38.585 139.943 39.1865C139.943 39.7881 140.043 40.2191 140.243 40.4795C140.444 40.7373 140.765 40.8662 141.208 40.8662C141.607 40.8662 141.904 40.7217 142.099 40.4326C142.294 40.141 142.392 39.723 142.392 39.1787C142.392 38.6214 142.294 38.2061 142.099 37.9326C141.904 37.6592 141.601 37.5225 141.193 37.5225ZM146.833 41.3311L146.704 40.7217H146.673C146.46 40.9899 146.246 41.1722 146.032 41.2686C145.821 41.3623 145.557 41.4092 145.239 41.4092C144.815 41.4092 144.482 41.2998 144.239 41.0811C144 40.8623 143.88 40.5511 143.88 40.1475C143.88 39.2829 144.571 38.8298 145.954 38.7881L146.681 38.7646V38.499C146.681 38.1631 146.608 37.9157 146.462 37.7568C146.319 37.5954 146.088 37.5146 145.771 37.5146C145.414 37.5146 145.01 37.624 144.56 37.8428L144.361 37.3467C144.571 37.2321 144.802 37.1423 145.052 37.0771C145.305 37.012 145.557 36.9795 145.81 36.9795C146.32 36.9795 146.698 37.0928 146.943 37.3193C147.19 37.5459 147.314 37.9092 147.314 38.4092V41.3311H146.833ZM145.368 40.874C145.772 40.874 146.088 40.7633 146.318 40.542C146.549 40.3206 146.665 40.0107 146.665 39.6123V39.2256L146.017 39.2529C145.501 39.2712 145.129 39.3519 144.9 39.4951C144.673 39.6357 144.56 39.8558 144.56 40.1553C144.56 40.3896 144.63 40.568 144.771 40.6904C144.914 40.8128 145.113 40.874 145.368 40.874ZM151.415 40.1631C151.415 40.5615 151.267 40.8688 150.97 41.085C150.673 41.3011 150.256 41.4092 149.72 41.4092C149.152 41.4092 148.71 41.3193 148.392 41.1396V40.5381C148.598 40.6423 148.818 40.7243 149.052 40.7842C149.289 40.8441 149.517 40.874 149.736 40.874C150.074 40.874 150.335 40.8206 150.517 40.7139C150.699 40.6045 150.79 40.4391 150.79 40.2178C150.79 40.0511 150.717 39.9092 150.571 39.792C150.428 39.6722 150.147 39.5316 149.728 39.3701C149.329 39.2217 149.045 39.0928 148.876 38.9834C148.71 38.8714 148.585 38.7451 148.501 38.6045C148.42 38.4639 148.38 38.2959 148.38 38.1006C148.38 37.7516 148.522 37.4769 148.806 37.2764C149.09 37.0732 149.479 36.9717 149.974 36.9717C150.435 36.9717 150.885 37.0654 151.325 37.2529L151.095 37.7803C150.665 37.6032 150.276 37.5146 149.927 37.5146C149.62 37.5146 149.388 37.5628 149.232 37.6592C149.075 37.7555 148.997 37.8883 148.997 38.0576C148.997 38.1722 149.026 38.2699 149.083 38.3506C149.143 38.4313 149.238 38.5081 149.368 38.5811C149.499 38.654 149.749 38.7594 150.118 38.8975C150.626 39.0824 150.969 39.2686 151.146 39.4561C151.325 39.6436 151.415 39.8792 151.415 40.1631ZM155.236 40.1631C155.236 40.5615 155.087 40.8688 154.79 41.085C154.493 41.3011 154.077 41.4092 153.54 41.4092C152.973 41.4092 152.53 41.3193 152.212 41.1396V40.5381C152.418 40.6423 152.638 40.7243 152.872 40.7842C153.109 40.8441 153.337 40.874 153.556 40.874C153.894 40.874 154.155 40.8206 154.337 40.7139C154.519 40.6045 154.611 40.4391 154.611 40.2178C154.611 40.0511 154.538 39.9092 154.392 39.792C154.249 39.6722 153.967 39.5316 153.548 39.3701C153.15 39.2217 152.866 39.0928 152.696 38.9834C152.53 38.8714 152.405 38.7451 152.321 38.6045C152.241 38.4639 152.2 38.2959 152.2 38.1006C152.2 37.7516 152.342 37.4769 152.626 37.2764C152.91 37.0732 153.299 36.9717 153.794 36.9717C154.255 36.9717 154.706 37.0654 155.146 37.2529L154.915 37.7803C154.486 37.6032 154.096 37.5146 153.747 37.5146C153.44 37.5146 153.208 37.5628 153.052 37.6592C152.896 37.7555 152.818 37.8883 152.818 38.0576C152.818 38.1722 152.846 38.2699 152.904 38.3506C152.963 38.4313 153.058 38.5081 153.189 38.5811C153.319 38.654 153.569 38.7594 153.939 38.8975C154.446 39.0824 154.789 39.2686 154.966 39.4561C155.146 39.6436 155.236 39.8792 155.236 40.1631ZM158.927 41.3311L158.798 40.7217H158.767C158.553 40.9899 158.34 41.1722 158.126 41.2686C157.915 41.3623 157.651 41.4092 157.333 41.4092C156.909 41.4092 156.575 41.2998 156.333 41.0811C156.094 40.8623 155.974 40.5511 155.974 40.1475C155.974 39.2829 156.665 38.8298 158.048 38.7881L158.775 38.7646V38.499C158.775 38.1631 158.702 37.9157 158.556 37.7568C158.413 37.5954 158.182 37.5146 157.864 37.5146C157.508 37.5146 157.104 37.624 156.654 37.8428L156.454 37.3467C156.665 37.2321 156.896 37.1423 157.146 37.0771C157.398 37.012 157.651 36.9795 157.904 36.9795C158.414 36.9795 158.792 37.0928 159.036 37.3193C159.284 37.5459 159.407 37.9092 159.407 38.4092V41.3311H158.927ZM157.462 40.874C157.866 40.874 158.182 40.7633 158.411 40.542C158.643 40.3206 158.759 40.0107 158.759 39.6123V39.2256L158.111 39.2529C157.595 39.2712 157.223 39.3519 156.993 39.4951C156.767 39.6357 156.654 39.8558 156.654 40.1553C156.654 40.3896 156.724 40.568 156.864 40.6904C157.008 40.8128 157.207 40.874 157.462 40.874ZM163.661 40.7568H163.626C163.327 41.1917 162.879 41.4092 162.282 41.4092C161.723 41.4092 161.286 41.2178 160.974 40.835C160.664 40.4521 160.509 39.9079 160.509 39.2021C160.509 38.4964 160.665 37.9482 160.978 37.5576C161.29 37.167 161.725 36.9717 162.282 36.9717C162.863 36.9717 163.308 37.1826 163.618 37.6045H163.669L163.642 37.2959L163.626 36.9951V35.2529H164.275V41.3311H163.747L163.661 40.7568ZM162.364 40.8662C162.807 40.8662 163.127 40.7464 163.325 40.5068C163.526 40.2646 163.626 39.8753 163.626 39.3389V39.2021C163.626 38.5954 163.525 38.1631 163.321 37.9053C163.121 37.6449 162.799 37.5146 162.357 37.5146C161.976 37.5146 161.685 37.6631 161.482 37.96C161.281 38.2542 161.181 38.6709 161.181 39.21C161.181 39.7568 161.281 40.1696 161.482 40.4482C161.682 40.7269 161.976 40.8662 162.364 40.8662ZM169.349 39.1865C169.349 39.8844 169.173 40.43 168.821 40.8232C168.47 41.2139 167.984 41.4092 167.364 41.4092C166.982 41.4092 166.642 41.3193 166.345 41.1396C166.048 40.96 165.819 40.7021 165.657 40.3662C165.496 40.0303 165.415 39.637 165.415 39.1865C165.415 38.4886 165.59 37.9456 165.939 37.5576C166.288 37.167 166.772 36.9717 167.392 36.9717C167.991 36.9717 168.466 37.1709 168.818 37.5693C169.172 37.9678 169.349 38.5068 169.349 39.1865ZM166.087 39.1865C166.087 39.7334 166.196 40.1501 166.415 40.4365C166.634 40.723 166.956 40.8662 167.38 40.8662C167.805 40.8662 168.126 40.7243 168.345 40.4404C168.566 40.154 168.677 39.736 168.677 39.1865C168.677 38.6423 168.566 38.2295 168.345 37.9482C168.126 37.6644 167.802 37.5225 167.372 37.5225C166.948 37.5225 166.627 37.6618 166.411 37.9404C166.195 38.2191 166.087 38.6344 166.087 39.1865ZM172.443 36.9717C172.633 36.9717 172.803 36.9873 172.954 37.0186L172.864 37.6201C172.687 37.5811 172.531 37.5615 172.396 37.5615C172.049 37.5615 171.752 37.7021 171.505 37.9834C171.26 38.2646 171.138 38.6149 171.138 39.0342V41.3311H170.489V37.0498H171.025L171.099 37.8428H171.13C171.289 37.5641 171.48 37.3493 171.704 37.1982C171.928 37.0472 172.174 36.9717 172.443 36.9717Z" fill="#333333"/>
<path d="M192.001 41V35.2891H192.665V40.3984H195.185V41H192.001ZM199.755 38.8555C199.755 39.5534 199.579 40.099 199.228 40.4922C198.876 40.8828 198.39 41.0781 197.771 41.0781C197.388 41.0781 197.048 40.9883 196.751 40.8086C196.454 40.6289 196.225 40.3711 196.064 40.0352C195.902 39.6992 195.821 39.306 195.821 38.8555C195.821 38.1576 195.996 37.6146 196.345 37.2266C196.694 36.8359 197.178 36.6406 197.798 36.6406C198.397 36.6406 198.872 36.8398 199.224 37.2383C199.578 37.6367 199.755 38.1758 199.755 38.8555ZM196.493 38.8555C196.493 39.4023 196.603 39.819 196.821 40.1055C197.04 40.3919 197.362 40.5352 197.786 40.5352C198.211 40.5352 198.532 40.3932 198.751 40.1094C198.972 39.8229 199.083 39.4049 199.083 38.8555C199.083 38.3112 198.972 37.8984 198.751 37.6172C198.532 37.3333 198.208 37.1914 197.778 37.1914C197.354 37.1914 197.034 37.3307 196.818 37.6094C196.601 37.888 196.493 38.3034 196.493 38.8555ZM202.607 41.0781C201.987 41.0781 201.506 40.888 201.165 40.5078C200.827 40.125 200.657 39.5846 200.657 38.8867C200.657 38.1706 200.829 37.6172 201.173 37.2266C201.519 36.8359 202.012 36.6406 202.65 36.6406C202.855 36.6406 203.061 36.6628 203.267 36.707C203.472 36.7513 203.634 36.8034 203.751 36.8633L203.552 37.4141C203.409 37.3568 203.252 37.3099 203.083 37.2734C202.914 37.2344 202.764 37.2148 202.634 37.2148C201.764 37.2148 201.329 37.7695 201.329 38.8789C201.329 39.4049 201.435 39.8086 201.646 40.0898C201.859 40.3711 202.174 40.5117 202.591 40.5117C202.948 40.5117 203.314 40.4349 203.689 40.2812V40.8555C203.402 41.0039 203.041 41.0781 202.607 41.0781ZM207.341 41L207.212 40.3906H207.181C206.967 40.6589 206.754 40.8411 206.54 40.9375C206.329 41.0312 206.065 41.0781 205.747 41.0781C205.323 41.0781 204.989 40.9688 204.747 40.75C204.508 40.5312 204.388 40.2201 204.388 39.8164C204.388 38.9518 205.079 38.4987 206.462 38.457L207.189 38.4336V38.168C207.189 37.832 207.116 37.5846 206.97 37.4258C206.827 37.2643 206.596 37.1836 206.278 37.1836C205.922 37.1836 205.518 37.293 205.068 37.5117L204.868 37.0156C205.079 36.901 205.31 36.8112 205.56 36.7461C205.812 36.681 206.065 36.6484 206.318 36.6484C206.828 36.6484 207.206 36.7617 207.45 36.9883C207.698 37.2148 207.821 37.5781 207.821 38.0781V41H207.341ZM205.876 40.543C206.28 40.543 206.596 40.4323 206.825 40.2109C207.057 39.9896 207.173 39.6797 207.173 39.2812V38.8945L206.525 38.9219C206.009 38.9401 205.637 39.0208 205.407 39.1641C205.181 39.3047 205.068 39.5247 205.068 39.8242C205.068 40.0586 205.138 40.237 205.278 40.3594C205.422 40.4818 205.621 40.543 205.876 40.543ZM209.81 41H209.161V34.9219H209.81V41ZM211.833 41H211.185V36.7188H211.833V41ZM211.13 35.5586C211.13 35.4102 211.166 35.3021 211.239 35.2344C211.312 35.1641 211.403 35.1289 211.513 35.1289C211.617 35.1289 211.707 35.1641 211.782 35.2344C211.858 35.3047 211.896 35.4128 211.896 35.5586C211.896 35.7044 211.858 35.8138 211.782 35.8867C211.707 35.957 211.617 35.9922 211.513 35.9922C211.403 35.9922 211.312 35.957 211.239 35.8867C211.166 35.8138 211.13 35.7044 211.13 35.5586ZM215.946 41H212.841V40.5586L215.177 37.2227H212.986V36.7188H215.888V37.2227L213.583 40.4961H215.946V41ZM219.583 41L219.454 40.3906H219.423C219.209 40.6589 218.996 40.8411 218.782 40.9375C218.571 41.0312 218.307 41.0781 217.989 41.0781C217.565 41.0781 217.232 40.9688 216.989 40.75C216.75 40.5312 216.63 40.2201 216.63 39.8164C216.63 38.9518 217.321 38.4987 218.704 38.457L219.431 38.4336V38.168C219.431 37.832 219.358 37.5846 219.212 37.4258C219.069 37.2643 218.838 37.1836 218.521 37.1836C218.164 37.1836 217.76 37.293 217.31 37.5117L217.111 37.0156C217.321 36.901 217.552 36.8112 217.802 36.7461C218.055 36.681 218.307 36.6484 218.56 36.6484C219.07 36.6484 219.448 36.7617 219.693 36.9883C219.94 37.2148 220.064 37.5781 220.064 38.0781V41H219.583ZM218.118 40.543C218.522 40.543 218.838 40.4323 219.068 40.2109C219.299 39.9896 219.415 39.6797 219.415 39.2812V38.8945L218.767 38.9219C218.251 38.9401 217.879 39.0208 217.65 39.1641C217.423 39.3047 217.31 39.5247 217.31 39.8242C217.31 40.0586 217.38 40.237 217.521 40.3594C217.664 40.4818 217.863 40.543 218.118 40.543ZM222.786 40.543C222.901 40.543 223.012 40.5352 223.118 40.5195C223.225 40.5013 223.31 40.4831 223.372 40.4648V40.9609C223.302 40.9948 223.198 41.0221 223.06 41.043C222.924 41.0664 222.802 41.0781 222.693 41.0781C221.864 41.0781 221.45 40.6419 221.45 39.7695V37.2227H220.837V36.9102L221.45 36.6406L221.724 35.7266H222.099V36.7188H223.341V37.2227H222.099V39.7422C222.099 40 222.16 40.1979 222.282 40.3359C222.405 40.474 222.573 40.543 222.786 40.543ZM224.88 41H224.232V36.7188H224.88V41ZM224.177 35.5586C224.177 35.4102 224.213 35.3021 224.286 35.2344C224.359 35.1641 224.45 35.1289 224.56 35.1289C224.664 35.1289 224.754 35.1641 224.829 35.2344C224.905 35.3047 224.943 35.4128 224.943 35.5586C224.943 35.7044 224.905 35.8138 224.829 35.8867C224.754 35.957 224.664 35.9922 224.56 35.9922C224.45 35.9922 224.359 35.957 224.286 35.8867C224.213 35.8138 224.177 35.7044 224.177 35.5586ZM229.95 38.8555C229.95 39.5534 229.775 40.099 229.423 40.4922C229.071 40.8828 228.586 41.0781 227.966 41.0781C227.583 41.0781 227.243 40.9883 226.946 40.8086C226.65 40.6289 226.42 40.3711 226.259 40.0352C226.097 39.6992 226.017 39.306 226.017 38.8555C226.017 38.1576 226.191 37.6146 226.54 37.2266C226.889 36.8359 227.374 36.6406 227.993 36.6406C228.592 36.6406 229.068 36.8398 229.419 37.2383C229.773 37.6367 229.95 38.1758 229.95 38.8555ZM226.689 38.8555C226.689 39.4023 226.798 39.819 227.017 40.1055C227.236 40.3919 227.557 40.5352 227.982 40.5352C228.406 40.5352 228.728 40.3932 228.946 40.1094C229.168 39.8229 229.278 39.4049 229.278 38.8555C229.278 38.3112 229.168 37.8984 228.946 37.6172C228.728 37.3333 228.403 37.1914 227.974 37.1914C227.549 37.1914 227.229 37.3307 227.013 37.6094C226.797 37.888 226.689 38.3034 226.689 38.8555ZM234.021 41V38.2305C234.021 37.8815 233.941 37.6211 233.782 37.4492C233.624 37.2773 233.375 37.1914 233.036 37.1914C232.588 37.1914 232.26 37.3125 232.052 37.5547C231.844 37.7969 231.739 38.1966 231.739 38.7539V41H231.091V36.7188H231.618L231.724 37.3047H231.755C231.888 37.0938 232.074 36.931 232.314 36.8164C232.553 36.6992 232.82 36.6406 233.114 36.6406C233.63 36.6406 234.018 36.7656 234.278 37.0156C234.539 37.263 234.669 37.6602 234.669 38.207V41H234.021Z" fill="#333333"/>
<rect x="57.2012" y="67.1621" width="184.757" height="34" fill="white" stroke="#BDBDBD"/>
<path d="M132.444 83.752C132.444 84.6947 132.188 85.416 131.675 85.916C131.165 86.4134 130.429 86.6621 129.468 86.6621H127.886V80.9512H129.636C130.524 80.9512 131.214 81.1973 131.706 81.6895C132.198 82.1816 132.444 82.8691 132.444 83.752ZM131.741 83.7754C131.741 83.0306 131.554 82.4694 131.179 82.0918C130.806 81.7142 130.252 81.5254 129.515 81.5254H128.55V86.0879H129.359C130.15 86.0879 130.745 85.8939 131.144 85.5059C131.542 85.1152 131.741 84.5384 131.741 83.7754ZM134.234 82.3809V85.1582C134.234 85.5072 134.313 85.7676 134.472 85.9395C134.631 86.1113 134.879 86.1973 135.218 86.1973C135.666 86.1973 135.993 86.0749 136.198 85.8301C136.407 85.5853 136.511 85.1855 136.511 84.6309V82.3809H137.159V86.6621H136.624L136.53 86.0879H136.495C136.362 86.2988 136.178 86.4603 135.941 86.5723C135.706 86.6842 135.438 86.7402 135.136 86.7402C134.615 86.7402 134.224 86.6165 133.964 86.3691C133.706 86.1217 133.577 85.7259 133.577 85.1816V82.3809H134.234ZM139.921 86.2051C140.036 86.2051 140.146 86.1973 140.253 86.1816C140.36 86.1634 140.444 86.1452 140.507 86.127V86.623C140.437 86.6569 140.332 86.6842 140.194 86.7051C140.059 86.7285 139.937 86.7402 139.827 86.7402C138.999 86.7402 138.585 86.304 138.585 85.4316V82.8848H137.972V82.5723L138.585 82.3027L138.859 81.3887H139.234V82.3809H140.476V82.8848H139.234V85.4043C139.234 85.6621 139.295 85.86 139.417 85.998C139.54 86.1361 139.707 86.2051 139.921 86.2051ZM140.687 82.3809H141.382L142.319 84.8223C142.525 85.3796 142.653 85.7819 142.702 86.0293H142.734C142.767 85.8965 142.838 85.6699 142.944 85.3496C143.054 85.0267 143.408 84.0371 144.007 82.3809H144.702L142.862 87.2559C142.68 87.7376 142.467 88.0788 142.222 88.2793C141.98 88.4824 141.681 88.584 141.327 88.584C141.129 88.584 140.934 88.5618 140.741 88.5176V87.998C140.885 88.0293 141.045 88.0449 141.222 88.0449C141.667 88.0449 141.985 87.7949 142.175 87.2949L142.413 86.6855L140.687 82.3809ZM148.405 82.0879C148.405 82.2676 148.452 82.4395 148.546 82.6035C148.64 82.765 148.8 82.9603 149.027 83.1895C149.362 82.9941 149.596 82.8145 149.726 82.6504C149.859 82.4837 149.925 82.2923 149.925 82.0762C149.925 81.8757 149.857 81.7129 149.722 81.5879C149.589 81.4603 149.411 81.3965 149.187 81.3965C148.955 81.3965 148.766 81.459 148.62 81.584C148.477 81.709 148.405 81.877 148.405 82.0879ZM149.011 86.1582C149.638 86.1582 150.159 85.9577 150.573 85.5566L148.866 83.9004C148.577 84.0775 148.373 84.2246 148.253 84.3418C148.133 84.4564 148.045 84.5801 147.987 84.7129C147.93 84.8457 147.902 84.9967 147.902 85.166C147.902 85.4707 148.002 85.7129 148.202 85.8926C148.405 86.0697 148.675 86.1582 149.011 86.1582ZM147.23 85.1816C147.23 84.8431 147.319 84.5436 147.499 84.2832C147.681 84.0228 148.007 83.7598 148.476 83.4941C148.254 83.2467 148.103 83.0592 148.023 82.9316C147.944 82.804 147.882 82.6712 147.835 82.5332C147.788 82.3952 147.765 82.252 147.765 82.1035C147.765 81.7129 147.892 81.4082 148.148 81.1895C148.403 80.9707 148.758 80.8613 149.214 80.8613C149.636 80.8613 149.968 80.9707 150.21 81.1895C150.452 81.4056 150.573 81.7077 150.573 82.0957C150.573 82.3743 150.485 82.6322 150.308 82.8691C150.131 83.1035 149.838 83.3418 149.429 83.584L151.019 85.1113C151.165 84.9499 151.28 84.7611 151.366 84.5449C151.455 84.3262 151.529 84.0879 151.589 83.8301H152.245C152.068 84.5749 151.801 85.14 151.444 85.5254L152.612 86.6621H151.718L150.995 85.9668C150.688 86.2428 150.375 86.4408 150.058 86.5605C149.74 86.6803 149.386 86.7402 148.995 86.7402C148.435 86.7402 148 86.6022 147.691 86.3262C147.383 86.0501 147.23 85.6686 147.23 85.1816ZM157.253 86.6621H156.589V81.541H154.78V80.9512H159.062V81.541H157.253V86.6621ZM162.46 86.6621L162.331 86.0527H162.3C162.086 86.321 161.873 86.5033 161.659 86.5996C161.448 86.6934 161.184 86.7402 160.866 86.7402C160.442 86.7402 160.109 86.6309 159.866 86.4121C159.627 86.1934 159.507 85.8822 159.507 85.4785C159.507 84.6139 160.198 84.1608 161.581 84.1191L162.308 84.0957V83.8301C162.308 83.4941 162.235 83.2467 162.089 83.0879C161.946 82.9264 161.715 82.8457 161.398 82.8457C161.041 82.8457 160.637 82.9551 160.187 83.1738L159.987 82.6777C160.198 82.5632 160.429 82.4733 160.679 82.4082C160.931 82.3431 161.184 82.3105 161.437 82.3105C161.947 82.3105 162.325 82.4238 162.569 82.6504C162.817 82.877 162.941 83.2402 162.941 83.7402V86.6621H162.46ZM160.995 86.2051C161.399 86.2051 161.715 86.0944 161.944 85.873C162.176 85.6517 162.292 85.3418 162.292 84.9434V84.5566L161.644 84.584C161.128 84.6022 160.756 84.6829 160.527 84.8262C160.3 84.9668 160.187 85.1868 160.187 85.4863C160.187 85.7207 160.257 85.8991 160.398 86.0215C160.541 86.1439 160.74 86.2051 160.995 86.2051ZM165.312 84.4707L163.823 82.3809H164.562L165.691 84.0215L166.816 82.3809H167.546L166.058 84.4707L167.624 86.6621H166.89L165.691 84.9277L164.48 86.6621H163.745L165.312 84.4707Z" fill="#333333"/>
<ellipse cx="40.8929" cy="39" rx="8.89291" ry="9" fill="#828282"/>
<ellipse cx="40.8929" cy="84" rx="8.89291" ry="9" fill="#828282"/>
<ellipse cx="40.8929" cy="129" rx="8.89291" ry="9" fill="#828282"/>
<ellipse cx="40.8929" cy="173.5" rx="8.89291" ry="9" fill="#828282"/>
<path d="M41.8461 43H40.6987V38.3906C40.6987 37.8405 40.7117 37.4043 40.7377 37.082C40.6629 37.1602 40.5701 37.2464 40.4594 37.3408C40.352 37.4352 39.9874 37.7347 39.3657 38.2393L38.7895 37.5117L40.8891 35.8613H41.8461V43Z" fill="white"/>
<path d="M43.3159 88H38.477V87.1309L40.3178 85.2803C40.8614 84.7236 41.2211 84.3298 41.3969 84.0986C41.576 83.8643 41.7062 83.6445 41.7875 83.4395C41.8689 83.2344 41.9096 83.0146 41.9096 82.7803C41.9096 82.458 41.812 82.2041 41.6166 82.0186C41.4246 81.833 41.1577 81.7402 40.8159 81.7402C40.5424 81.7402 40.2771 81.7907 40.02 81.8916C39.7661 81.9925 39.4715 82.1748 39.1362 82.4385L38.5161 81.6816C38.9132 81.3464 39.2989 81.1087 39.6733 80.9688C40.0476 80.8288 40.4464 80.7588 40.8696 80.7588C41.5336 80.7588 42.0659 80.9329 42.4663 81.2812C42.8666 81.6263 43.0668 82.0918 43.0668 82.6777C43.0668 83 43.0082 83.306 42.8911 83.5957C42.7771 83.8854 42.5997 84.1849 42.3588 84.4941C42.1212 84.8001 41.7241 85.2152 41.1674 85.7393L39.9272 86.9404V86.9893H43.3159V88Z" fill="white"/>
<path d="M43.0473 127.502C43.0473 127.954 42.9155 128.332 42.6518 128.635C42.3881 128.934 42.017 129.136 41.5385 129.24V129.279C42.1114 129.351 42.5411 129.53 42.8276 129.816C43.114 130.1 43.2573 130.477 43.2573 130.949C43.2573 131.636 43.0148 132.167 42.5297 132.541C42.0447 132.912 41.3546 133.098 40.4594 133.098C39.6684 133.098 39.0011 132.969 38.4575 132.712V131.691C38.7602 131.841 39.0808 131.957 39.4194 132.038C39.7579 132.119 40.0834 132.16 40.3959 132.16C40.9493 132.16 41.3627 132.058 41.6362 131.853C41.9096 131.647 42.0463 131.33 42.0463 130.9C42.0463 130.52 41.895 130.24 41.5922 130.061C41.2895 129.882 40.8142 129.792 40.1665 129.792H39.5463V128.859H40.1762C41.3155 128.859 41.8852 128.465 41.8852 127.678C41.8852 127.372 41.7859 127.136 41.5873 126.97C41.3888 126.804 41.0958 126.721 40.7084 126.721C40.4383 126.721 40.1778 126.76 39.9272 126.838C39.6765 126.913 39.3803 127.061 39.0385 127.282L38.477 126.481C39.1313 126 39.8914 125.759 40.7573 125.759C41.4767 125.759 42.0382 125.913 42.4418 126.223C42.8455 126.532 43.0473 126.958 43.0473 127.502Z" fill="white"/>
<path d="M43.5698 175.942H42.6079V177.5H41.4897V175.942H38.228V175.059L41.4897 170.342H42.6079V174.99H43.5698V175.942ZM41.4897 174.99V173.198C41.4897 172.56 41.506 172.038 41.5385 171.631H41.4995C41.4083 171.846 41.2651 172.106 41.0698 172.412L39.2973 174.99H41.4897Z" fill="white"/>
<circle cx="118.5" cy="14.5" r="13.5" fill="white" stroke="#E0E0E0" stroke-width="2"/>
<path d="M121.547 20H114.561V18.5303L117.069 15.9941C117.812 15.2331 118.298 14.7067 118.525 14.415C118.753 14.1188 118.917 13.8454 119.018 13.5947C119.118 13.3441 119.168 13.0843 119.168 12.8154C119.168 12.4144 119.056 12.1159 118.833 11.9199C118.614 11.724 118.32 11.626 117.951 11.626C117.564 11.626 117.188 11.7148 116.823 11.8926C116.459 12.0703 116.078 12.3232 115.682 12.6514L114.533 11.291C115.025 10.8717 115.433 10.5755 115.757 10.4023C116.08 10.2292 116.434 10.097 116.816 10.0059C117.199 9.91016 117.628 9.8623 118.102 9.8623C118.726 9.8623 119.277 9.97624 119.756 10.2041C120.234 10.432 120.606 10.751 120.87 11.1611C121.134 11.5713 121.267 12.0407 121.267 12.5693C121.267 13.0296 121.185 13.4626 121.021 13.8682C120.861 14.2692 120.61 14.6816 120.269 15.1055C119.931 15.5293 119.334 16.1331 118.478 16.917L117.192 18.127V18.2227H121.547V20Z" fill="#767B7F"/>
<circle cx="14.5" cy="28.5" r="13.5" fill="white" stroke="#E0E0E0" stroke-width="2"/>
<path d="M15.7832 34H13.6709V28.2168L13.6914 27.2666L13.7256 26.2275C13.3747 26.5785 13.1309 26.8086 12.9941 26.918L11.8457 27.8408L10.8271 26.5693L14.0469 24.0059H15.7832V34Z" fill="#767B7F"/>
<defs>
<filter id="filter0_d" x="40.8945" y="4" width="216" height="256" filterUnits="userSpaceOnUse" color-interpolation-filters="sRGB">
<feFlood flood-opacity="0" result="BackgroundImageFix"/>
<feColorMatrix in="SourceAlpha" type="matrix" values="0 0 0 0 0 0 0 0 0 0 0 0 0 0 0 0 0 0 127 0"/>
<feOffset dx="3" dy="3"/>
<feGaussianBlur stdDeviation="1.5"/>
<feColorMatrix type="matrix" values="0 0 0 0 0 0 0 0 0 0 0 0 0 0 0 0 0 0 0.1 0"/>
<feBlend mode="normal" in2="BackgroundImageFix" result="effect1_dropShadow"/>
<feBlend mode="normal" in="SourceGraphic" in2="effect1_dropShadow" result="shape"/>
</filter>
<linearGradient id="paint0_linear" x1="85.229" y1="21" x2="85.229" y2="56" gradientUnits="userSpaceOnUse">
<stop stop-color="white"/>
<stop offset="1" stop-color="white" stop-opacity="0"/>
</linearGradient>
</defs>
</svg>
