<svg width="253" height="30" viewBox="0 0 253 30" fill="none" xmlns="http://www.w3.org/2000/svg">
<circle cx="14.5" cy="14.5" r="13.5" fill="white" stroke="#E0E0E0" stroke-width="2"/>
<path d="M17.5469 20H10.5605V18.5303L13.0693 15.9941C13.8122 15.2331 14.2975 14.7067 14.5254 14.415C14.7533 14.1188 14.9173 13.8454 15.0176 13.5947C15.1178 13.3441 15.168 13.0843 15.168 12.8154C15.168 12.4144 15.0563 12.1159 14.833 11.9199C14.6143 11.724 14.3203 11.626 13.9512 11.626C13.5638 11.626 13.1878 11.7148 12.8232 11.8926C12.4587 12.0703 12.0781 12.3232 11.6816 12.6514L10.5332 11.291C11.0254 10.8717 11.4333 10.5755 11.7568 10.4023C12.0804 10.2292 12.4336 10.097 12.8164 10.0059C13.1992 9.91016 13.6276 9.8623 14.1016 9.8623C14.7259 9.8623 15.2773 9.97624 15.7559 10.2041C16.2344 10.432 16.6058 10.751 16.8701 11.1611C17.1344 11.5713 17.2666 12.0407 17.2666 12.5693C17.2666 13.0296 17.1846 13.4626 17.0205 13.8682C16.861 14.2692 16.6104 14.6816 16.2686 15.1055C15.9313 15.5293 15.3343 16.1331 14.4775 16.917L13.1924 18.127V18.2227H17.5469V20Z" fill="#767B7F"/>
<rect x="44" y="1" width="208" height="28" fill="white" stroke="#12A7FF" stroke-width="2"/>
<path d="M68.0381 12.501C67.2536 12.501 66.6335 12.763 66.1777 13.2871C65.7253 13.8079 65.499 14.5225 65.499 15.4307C65.499 16.3649 65.7171 17.0876 66.1533 17.5986C66.5928 18.1064 67.2178 18.3604 68.0283 18.3604C68.5264 18.3604 69.0944 18.2708 69.7324 18.0918V18.8193C69.2376 19.0049 68.6273 19.0977 67.9014 19.0977C66.8499 19.0977 66.0378 18.7786 65.4648 18.1406C64.8952 17.5026 64.6104 16.596 64.6104 15.4209C64.6104 14.6852 64.7471 14.0407 65.0205 13.4873C65.2972 12.9339 65.6943 12.5075 66.2119 12.208C66.7327 11.9085 67.3447 11.7588 68.0479 11.7588C68.7965 11.7588 69.4508 11.8955 70.0107 12.1689L69.6592 12.8818C69.1188 12.6279 68.5785 12.501 68.0381 12.501ZM74.459 19L74.2979 18.2383H74.2588C73.9919 18.5736 73.7249 18.8014 73.458 18.9219C73.1943 19.0391 72.8639 19.0977 72.4668 19.0977C71.9362 19.0977 71.5195 18.9609 71.2168 18.6875C70.9173 18.4141 70.7676 18.0251 70.7676 17.5205C70.7676 16.4398 71.6318 15.8734 73.3604 15.8213L74.2686 15.792V15.46C74.2686 15.04 74.1774 14.7308 73.9951 14.5322C73.8161 14.3304 73.528 14.2295 73.1309 14.2295C72.6849 14.2295 72.1803 14.3662 71.6172 14.6396L71.3682 14.0195C71.6318 13.8763 71.9199 13.764 72.2324 13.6826C72.5482 13.6012 72.8639 13.5605 73.1797 13.5605C73.8177 13.5605 74.2897 13.7021 74.5957 13.9854C74.9049 14.2686 75.0596 14.7227 75.0596 15.3477V19H74.459ZM72.6279 18.4287C73.1325 18.4287 73.528 18.2904 73.8145 18.0137C74.1042 17.737 74.249 17.3496 74.249 16.8516V16.3682L73.4385 16.4023C72.7939 16.4251 72.3285 16.526 72.042 16.7051C71.7588 16.8809 71.6172 17.1559 71.6172 17.5303C71.6172 17.8232 71.7051 18.0462 71.8809 18.1992C72.0599 18.3522 72.3089 18.4287 72.6279 18.4287ZM78.4629 18.4287C78.6061 18.4287 78.7445 18.4189 78.8779 18.3994C79.0114 18.3766 79.1172 18.3538 79.1953 18.3311V18.9512C79.1074 18.9935 78.9772 19.0277 78.8047 19.0537C78.6354 19.083 78.4824 19.0977 78.3457 19.0977C77.3105 19.0977 76.793 18.5524 76.793 17.4619V14.2783H76.0264V13.8877L76.793 13.5508L77.1348 12.4082H77.6035V13.6484H79.1562V14.2783H77.6035V17.4277C77.6035 17.75 77.68 17.9974 77.833 18.1699C77.986 18.3424 78.196 18.4287 78.4629 18.4287ZM83.5605 19L83.3994 18.2383H83.3604C83.0934 18.5736 82.8265 18.8014 82.5596 18.9219C82.2959 19.0391 81.9655 19.0977 81.5684 19.0977C81.0378 19.0977 80.6211 18.9609 80.3184 18.6875C80.0189 18.4141 79.8691 18.0251 79.8691 17.5205C79.8691 16.4398 80.7334 15.8734 82.4619 15.8213L83.3701 15.792V15.46C83.3701 15.04 83.279 14.7308 83.0967 14.5322C82.9176 14.3304 82.6296 14.2295 82.2324 14.2295C81.7865 14.2295 81.2819 14.3662 80.7188 14.6396L80.4697 14.0195C80.7334 13.8763 81.0215 13.764 81.334 13.6826C81.6497 13.6012 81.9655 13.5605 82.2812 13.5605C82.9193 13.5605 83.3913 13.7021 83.6973 13.9854C84.0065 14.2686 84.1611 14.7227 84.1611 15.3477V19H83.5605ZM81.7295 18.4287C82.234 18.4287 82.6296 18.2904 82.916 18.0137C83.2057 17.737 83.3506 17.3496 83.3506 16.8516V16.3682L82.54 16.4023C81.8955 16.4251 81.43 16.526 81.1436 16.7051C80.8604 16.8809 80.7188 17.1559 80.7188 17.5303C80.7188 17.8232 80.8066 18.0462 80.9824 18.1992C81.1615 18.3522 81.4105 18.4287 81.7295 18.4287ZM86.6465 19H85.8359V11.4023H86.6465V19ZM92.9844 16.3193C92.9844 17.1917 92.7646 17.8737 92.3252 18.3652C91.8857 18.8535 91.2786 19.0977 90.5039 19.0977C90.0254 19.0977 89.6006 18.9854 89.2295 18.7607C88.8584 18.5361 88.5719 18.2139 88.3701 17.7939C88.1683 17.374 88.0674 16.8825 88.0674 16.3193C88.0674 15.4469 88.2855 14.7682 88.7217 14.2832C89.1579 13.7949 89.7633 13.5508 90.5381 13.5508C91.2868 13.5508 91.8809 13.7998 92.3203 14.2979C92.763 14.7959 92.9844 15.4697 92.9844 16.3193ZM88.9072 16.3193C88.9072 17.0029 89.0439 17.5238 89.3174 17.8818C89.5908 18.2399 89.9928 18.4189 90.5234 18.4189C91.054 18.4189 91.4561 18.2415 91.7295 17.8867C92.0062 17.5286 92.1445 17.0062 92.1445 16.3193C92.1445 15.639 92.0062 15.123 91.7295 14.7715C91.4561 14.4167 91.0508 14.2393 90.5137 14.2393C89.9831 14.2393 89.5827 14.4134 89.3125 14.7617C89.0423 15.11 88.9072 15.6292 88.9072 16.3193ZM98.79 13.6484V14.1611L97.7988 14.2783C97.89 14.3923 97.9714 14.542 98.043 14.7275C98.1146 14.9098 98.1504 15.1165 98.1504 15.3477C98.1504 15.8717 97.9714 16.29 97.6133 16.6025C97.2552 16.915 96.7637 17.0713 96.1387 17.0713C95.9792 17.0713 95.8294 17.0583 95.6895 17.0322C95.3444 17.2145 95.1719 17.444 95.1719 17.7207C95.1719 17.8672 95.2321 17.9762 95.3525 18.0479C95.473 18.1162 95.6797 18.1504 95.9727 18.1504H96.9199C97.4993 18.1504 97.9437 18.2725 98.2529 18.5166C98.5654 18.7607 98.7217 19.1156 98.7217 19.5811C98.7217 20.1735 98.484 20.6243 98.0088 20.9336C97.5335 21.2461 96.8402 21.4023 95.9287 21.4023C95.2288 21.4023 94.6885 21.2721 94.3076 21.0117C93.93 20.7513 93.7412 20.3835 93.7412 19.9082C93.7412 19.5827 93.8454 19.3011 94.0537 19.0635C94.262 18.8258 94.555 18.6647 94.9326 18.5801C94.7959 18.5182 94.6803 18.4222 94.5859 18.292C94.4948 18.1618 94.4492 18.0104 94.4492 17.8379C94.4492 17.6426 94.5013 17.4717 94.6055 17.3252C94.7096 17.1787 94.874 17.0371 95.0986 16.9004C94.8219 16.7865 94.5957 16.5928 94.4199 16.3193C94.2474 16.0459 94.1611 15.7334 94.1611 15.3818C94.1611 14.7959 94.3369 14.3451 94.6885 14.0293C95.04 13.7103 95.5381 13.5508 96.1826 13.5508C96.4626 13.5508 96.7148 13.5833 96.9395 13.6484H98.79ZM94.5225 19.8984C94.5225 20.1882 94.6445 20.4079 94.8887 20.5576C95.1328 20.7074 95.4827 20.7822 95.9385 20.7822C96.6188 20.7822 97.1217 20.6797 97.4473 20.4746C97.776 20.2728 97.9404 19.9977 97.9404 19.6494C97.9404 19.3597 97.8509 19.1579 97.6719 19.0439C97.4928 18.9333 97.1559 18.8779 96.6611 18.8779H95.6895C95.3216 18.8779 95.0352 18.9658 94.8301 19.1416C94.625 19.3174 94.5225 19.5697 94.5225 19.8984ZM94.9619 15.3623C94.9619 15.7367 95.0677 16.0199 95.2793 16.2119C95.4909 16.404 95.7855 16.5 96.1631 16.5C96.9541 16.5 97.3496 16.1159 97.3496 15.3477C97.3496 14.5436 96.9492 14.1416 96.1484 14.1416C95.7676 14.1416 95.4746 14.2441 95.2695 14.4492C95.0645 14.6543 94.9619 14.9587 94.9619 15.3623ZM107.096 19L106.207 16.7295H103.346L102.467 19H101.627L104.449 11.832H105.147L107.955 19H107.096ZM105.948 15.9824L105.118 13.7705C105.011 13.4906 104.9 13.1471 104.786 12.7402C104.715 13.0527 104.612 13.3962 104.479 13.7705L103.639 15.9824H105.948ZM113.463 13.9414C113.463 14.6641 113.215 15.2207 112.721 15.6113C112.229 15.9987 111.524 16.1924 110.606 16.1924H109.767V19H108.937V11.8613H110.787C112.571 11.8613 113.463 12.5547 113.463 13.9414ZM109.767 15.4795H110.514C111.249 15.4795 111.782 15.3607 112.11 15.123C112.439 14.8854 112.604 14.5046 112.604 13.9805C112.604 13.5085 112.449 13.1569 112.14 12.9258C111.83 12.6947 111.349 12.5791 110.694 12.5791H109.767V15.4795ZM114.962 19V11.8613H115.792V19H114.962Z" fill="#333333"/>
<rect x="53" y="12" width="6" height="6" fill="#BDBDBD"/>
</svg>
