<svg width="121" height="29" viewBox="0 0 121 29" fill="none" xmlns="http://www.w3.org/2000/svg">
<circle cx="14.5" cy="14.5" r="13.5" fill="white" stroke="#E0E0E0" stroke-width="2"/>
<path d="M15.7832 20H13.6709V14.2168L13.6914 13.2666L13.7256 12.2275C13.3747 12.5785 13.1309 12.8086 12.9941 12.918L11.8457 13.8408L10.8271 12.5693L14.0469 10.0059H15.7832V20Z" fill="#767B7F"/>
<path d="M82.4453 18L80.0078 11.5781H81.0508L82.4336 15.3867C82.7461 16.2773 82.9297 16.8555 82.9844 17.1211H83.0312C83.0742 16.9141 83.209 16.4863 83.4355 15.8379C83.666 15.1855 84.1797 13.7656 84.9766 11.5781H86.0195L83.582 18H82.4453ZM88.0234 18H87.0508V11.5781H88.0234V18ZM86.9688 9.83789C86.9688 9.61523 87.0234 9.45312 87.1328 9.35156C87.2422 9.24609 87.3789 9.19336 87.543 9.19336C87.6992 9.19336 87.834 9.24609 87.9473 9.35156C88.0605 9.45703 88.1172 9.61914 88.1172 9.83789C88.1172 10.0566 88.0605 10.2207 87.9473 10.3301C87.834 10.4355 87.6992 10.4883 87.543 10.4883C87.3789 10.4883 87.2422 10.4355 87.1328 10.3301C87.0234 10.2207 86.9688 10.0566 86.9688 9.83789ZM92.7988 18.1172C91.8496 18.1172 91.0996 17.8281 90.5488 17.25C90.002 16.6719 89.7285 15.8691 89.7285 14.8418C89.7285 13.8066 89.9824 12.9844 90.4902 12.375C91.002 11.7656 91.6875 11.4609 92.5469 11.4609C93.3516 11.4609 93.9883 11.7266 94.457 12.2578C94.9258 12.7852 95.1602 13.4824 95.1602 14.3496V14.9648H90.7363C90.7559 15.7188 90.9453 16.291 91.3047 16.6816C91.668 17.0723 92.1777 17.2676 92.834 17.2676C93.5254 17.2676 94.209 17.123 94.8848 16.834V17.7012C94.541 17.8496 94.2148 17.9551 93.9062 18.0176C93.6016 18.084 93.2324 18.1172 92.7988 18.1172ZM92.5352 12.2754C92.0195 12.2754 91.6074 12.4434 91.2988 12.7793C90.9941 13.1152 90.8145 13.5801 90.7598 14.1738H94.1172C94.1172 13.5605 93.9805 13.0918 93.707 12.7676C93.4336 12.4395 93.043 12.2754 92.5352 12.2754ZM102.068 18L100.891 14.2324C100.816 14.002 100.678 13.4785 100.475 12.6621H100.428C100.271 13.3457 100.135 13.873 100.018 14.2441L98.8047 18H97.6797L95.9277 11.5781H96.9473C97.3613 13.1914 97.6758 14.4199 97.8906 15.2637C98.1094 16.1074 98.2344 16.6758 98.2656 16.9688H98.3125C98.3555 16.7461 98.4238 16.459 98.5176 16.1074C98.6152 15.752 98.6992 15.4707 98.7695 15.2637L99.9473 11.5781H101.002L102.15 15.2637C102.369 15.9355 102.518 16.5 102.596 16.957H102.643C102.658 16.8164 102.699 16.5996 102.766 16.3066C102.836 16.0137 103.244 14.4375 103.99 11.5781H104.998L103.223 18H102.068ZM113.23 18L113.037 17.0859H112.99C112.67 17.4883 112.35 17.7617 112.029 17.9062C111.713 18.0469 111.316 18.1172 110.84 18.1172C110.203 18.1172 109.703 17.9531 109.34 17.625C108.98 17.2969 108.801 16.8301 108.801 16.2246C108.801 14.9277 109.838 14.248 111.912 14.1855L113.002 14.1504V13.752C113.002 13.248 112.893 12.877 112.674 12.6387C112.459 12.3965 112.113 12.2754 111.637 12.2754C111.102 12.2754 110.496 12.4395 109.82 12.7676L109.521 12.0234C109.838 11.8516 110.184 11.7168 110.559 11.6191C110.938 11.5215 111.316 11.4727 111.695 11.4727C112.461 11.4727 113.027 11.6426 113.395 11.9824C113.766 12.3223 113.951 12.8672 113.951 13.6172V18H113.23ZM111.033 17.3145C111.639 17.3145 112.113 17.1484 112.457 16.8164C112.805 16.4844 112.979 16.0195 112.979 15.4219V14.8418L112.006 14.8828C111.232 14.9102 110.674 15.0312 110.33 15.2461C109.99 15.457 109.82 15.7871 109.82 16.2363C109.82 16.5879 109.926 16.8555 110.137 17.0391C110.352 17.2227 110.65 17.3145 111.033 17.3145ZM116.934 18H115.961V8.88281H116.934V18ZM119.969 18H118.996V8.88281H119.969V18Z" fill="#828282"/>
<rect x="62.5" y="7.5" width="12" height="12" rx="2.5" fill="#F7F7F8" stroke="#767B7F"/>
<path d="M65 14L67.5 16.5L72 10.5" stroke="#0078BF"/>
</svg>
