<svg width="246" height="221" viewBox="0 0 246 221" fill="none" xmlns="http://www.w3.org/2000/svg">
<circle cx="176.5" cy="14.5" r="13.5" fill="white" stroke="#E0E0E0" stroke-width="2"/>
<path d="M177.783 20H175.671V14.2168L175.691 13.2666L175.726 12.2275C175.375 12.5785 175.131 12.8086 174.994 12.918L173.846 13.8408L172.827 12.5693L176.047 10.0059H177.783V20Z" fill="#767B7F"/>
<circle cx="14.5" cy="77.5" r="13.5" fill="white" stroke="#E0E0E0" stroke-width="2"/>
<path d="M17.5469 83H10.5605V81.5303L13.0693 78.9941C13.8122 78.2331 14.2975 77.7067 14.5254 77.415C14.7533 77.1188 14.9173 76.8454 15.0176 76.5947C15.1178 76.3441 15.168 76.0843 15.168 75.8154C15.168 75.4144 15.0563 75.1159 14.833 74.9199C14.6143 74.724 14.3203 74.626 13.9512 74.626C13.5638 74.626 13.1878 74.7148 12.8232 74.8926C12.4587 75.0703 12.0781 75.3232 11.6816 75.6514L10.5332 74.291C11.0254 73.8717 11.4333 73.5755 11.7568 73.4023C12.0804 73.2292 12.4336 73.097 12.8164 73.0059C13.1992 72.9102 13.6276 72.8623 14.1016 72.8623C14.7259 72.8623 15.2773 72.9762 15.7559 73.2041C16.2344 73.432 16.6058 73.751 16.8701 74.1611C17.1344 74.5713 17.2666 75.0407 17.2666 75.5693C17.2666 76.0296 17.1846 76.4626 17.0205 76.8682C16.861 77.2692 16.6104 77.6816 16.2686 78.1055C15.9313 78.5293 15.3343 79.1331 14.4775 79.917L13.1924 81.127V81.2227H17.5469V83Z" fill="#767B7F"/>
<rect x="37" y="64" width="208" height="28" fill="white" stroke="#12A7FF" stroke-width="2"/>
<rect x="37" y="128" width="208" height="28" fill="white" stroke="#12A7FF" stroke-width="2"/>
<rect x="36" y="95" width="210" height="30" fill="white"/>
<path d="M61.0381 75.501C60.2536 75.501 59.6335 75.763 59.1777 76.2871C58.7253 76.8079 58.499 77.5225 58.499 78.4307C58.499 79.3649 58.7171 80.0876 59.1533 80.5986C59.5928 81.1064 60.2178 81.3604 61.0283 81.3604C61.5264 81.3604 62.0944 81.2708 62.7324 81.0918V81.8193C62.2376 82.0049 61.6273 82.0977 60.9014 82.0977C59.8499 82.0977 59.0378 81.7786 58.4648 81.1406C57.8952 80.5026 57.6104 79.596 57.6104 78.4209C57.6104 77.6852 57.7471 77.0407 58.0205 76.4873C58.2972 75.9339 58.6943 75.5075 59.2119 75.208C59.7327 74.9085 60.3447 74.7588 61.0479 74.7588C61.7965 74.7588 62.4508 74.8955 63.0107 75.1689L62.6592 75.8818C62.1188 75.6279 61.5785 75.501 61.0381 75.501ZM67.459 82L67.2979 81.2383H67.2588C66.9919 81.5736 66.7249 81.8014 66.458 81.9219C66.1943 82.0391 65.8639 82.0977 65.4668 82.0977C64.9362 82.0977 64.5195 81.9609 64.2168 81.6875C63.9173 81.4141 63.7676 81.0251 63.7676 80.5205C63.7676 79.4398 64.6318 78.8734 66.3604 78.8213L67.2686 78.792V78.46C67.2686 78.04 67.1774 77.7308 66.9951 77.5322C66.8161 77.3304 66.528 77.2295 66.1309 77.2295C65.6849 77.2295 65.1803 77.3662 64.6172 77.6396L64.3682 77.0195C64.6318 76.8763 64.9199 76.764 65.2324 76.6826C65.5482 76.6012 65.8639 76.5605 66.1797 76.5605C66.8177 76.5605 67.2897 76.7021 67.5957 76.9854C67.9049 77.2686 68.0596 77.7227 68.0596 78.3477V82H67.459ZM65.6279 81.4287C66.1325 81.4287 66.528 81.2904 66.8145 81.0137C67.1042 80.737 67.249 80.3496 67.249 79.8516V79.3682L66.4385 79.4023C65.7939 79.4251 65.3285 79.526 65.042 79.7051C64.7588 79.8809 64.6172 80.1559 64.6172 80.5303C64.6172 80.8232 64.7051 81.0462 64.8809 81.1992C65.0599 81.3522 65.3089 81.4287 65.6279 81.4287ZM71.4629 81.4287C71.6061 81.4287 71.7445 81.4189 71.8779 81.3994C72.0114 81.3766 72.1172 81.3538 72.1953 81.3311V81.9512C72.1074 81.9935 71.9772 82.0277 71.8047 82.0537C71.6354 82.083 71.4824 82.0977 71.3457 82.0977C70.3105 82.0977 69.793 81.5524 69.793 80.4619V77.2783H69.0264V76.8877L69.793 76.5508L70.1348 75.4082H70.6035V76.6484H72.1562V77.2783H70.6035V80.4277C70.6035 80.75 70.68 80.9974 70.833 81.1699C70.986 81.3424 71.196 81.4287 71.4629 81.4287ZM76.5605 82L76.3994 81.2383H76.3604C76.0934 81.5736 75.8265 81.8014 75.5596 81.9219C75.2959 82.0391 74.9655 82.0977 74.5684 82.0977C74.0378 82.0977 73.6211 81.9609 73.3184 81.6875C73.0189 81.4141 72.8691 81.0251 72.8691 80.5205C72.8691 79.4398 73.7334 78.8734 75.4619 78.8213L76.3701 78.792V78.46C76.3701 78.04 76.279 77.7308 76.0967 77.5322C75.9176 77.3304 75.6296 77.2295 75.2324 77.2295C74.7865 77.2295 74.2819 77.3662 73.7188 77.6396L73.4697 77.0195C73.7334 76.8763 74.0215 76.764 74.334 76.6826C74.6497 76.6012 74.9655 76.5605 75.2812 76.5605C75.9193 76.5605 76.3913 76.7021 76.6973 76.9854C77.0065 77.2686 77.1611 77.7227 77.1611 78.3477V82H76.5605ZM74.7295 81.4287C75.234 81.4287 75.6296 81.2904 75.916 81.0137C76.2057 80.737 76.3506 80.3496 76.3506 79.8516V79.3682L75.54 79.4023C74.8955 79.4251 74.43 79.526 74.1436 79.7051C73.8604 79.8809 73.7188 80.1559 73.7188 80.5303C73.7188 80.8232 73.8066 81.0462 73.9824 81.1992C74.1615 81.3522 74.4105 81.4287 74.7295 81.4287ZM79.6465 82H78.8359V74.4023H79.6465V82ZM85.9844 79.3193C85.9844 80.1917 85.7646 80.8737 85.3252 81.3652C84.8857 81.8535 84.2786 82.0977 83.5039 82.0977C83.0254 82.0977 82.6006 81.9854 82.2295 81.7607C81.8584 81.5361 81.5719 81.2139 81.3701 80.7939C81.1683 80.374 81.0674 79.8825 81.0674 79.3193C81.0674 78.4469 81.2855 77.7682 81.7217 77.2832C82.1579 76.7949 82.7633 76.5508 83.5381 76.5508C84.2868 76.5508 84.8809 76.7998 85.3203 77.2979C85.763 77.7959 85.9844 78.4697 85.9844 79.3193ZM81.9072 79.3193C81.9072 80.0029 82.0439 80.5238 82.3174 80.8818C82.5908 81.2399 82.9928 81.4189 83.5234 81.4189C84.054 81.4189 84.4561 81.2415 84.7295 80.8867C85.0062 80.5286 85.1445 80.0062 85.1445 79.3193C85.1445 78.639 85.0062 78.123 84.7295 77.7715C84.4561 77.4167 84.0508 77.2393 83.5137 77.2393C82.9831 77.2393 82.5827 77.4134 82.3125 77.7617C82.0423 78.11 81.9072 78.6292 81.9072 79.3193ZM91.79 76.6484V77.1611L90.7988 77.2783C90.89 77.3923 90.9714 77.542 91.043 77.7275C91.1146 77.9098 91.1504 78.1165 91.1504 78.3477C91.1504 78.8717 90.9714 79.29 90.6133 79.6025C90.2552 79.915 89.7637 80.0713 89.1387 80.0713C88.9792 80.0713 88.8294 80.0583 88.6895 80.0322C88.3444 80.2145 88.1719 80.444 88.1719 80.7207C88.1719 80.8672 88.2321 80.9762 88.3525 81.0479C88.473 81.1162 88.6797 81.1504 88.9727 81.1504H89.9199C90.4993 81.1504 90.9437 81.2725 91.2529 81.5166C91.5654 81.7607 91.7217 82.1156 91.7217 82.5811C91.7217 83.1735 91.484 83.6243 91.0088 83.9336C90.5335 84.2461 89.8402 84.4023 88.9287 84.4023C88.2288 84.4023 87.6885 84.2721 87.3076 84.0117C86.93 83.7513 86.7412 83.3835 86.7412 82.9082C86.7412 82.5827 86.8454 82.3011 87.0537 82.0635C87.262 81.8258 87.555 81.6647 87.9326 81.5801C87.7959 81.5182 87.6803 81.4222 87.5859 81.292C87.4948 81.1618 87.4492 81.0104 87.4492 80.8379C87.4492 80.6426 87.5013 80.4717 87.6055 80.3252C87.7096 80.1787 87.874 80.0371 88.0986 79.9004C87.8219 79.7865 87.5957 79.5928 87.4199 79.3193C87.2474 79.0459 87.1611 78.7334 87.1611 78.3818C87.1611 77.7959 87.3369 77.3451 87.6885 77.0293C88.04 76.7103 88.5381 76.5508 89.1826 76.5508C89.4626 76.5508 89.7148 76.5833 89.9395 76.6484H91.79ZM87.5225 82.8984C87.5225 83.1882 87.6445 83.4079 87.8887 83.5576C88.1328 83.7074 88.4827 83.7822 88.9385 83.7822C89.6188 83.7822 90.1217 83.6797 90.4473 83.4746C90.776 83.2728 90.9404 82.9977 90.9404 82.6494C90.9404 82.3597 90.8509 82.1579 90.6719 82.0439C90.4928 81.9333 90.1559 81.8779 89.6611 81.8779H88.6895C88.3216 81.8779 88.0352 81.9658 87.8301 82.1416C87.625 82.3174 87.5225 82.5697 87.5225 82.8984ZM87.9619 78.3623C87.9619 78.7367 88.0677 79.0199 88.2793 79.2119C88.4909 79.404 88.7855 79.5 89.1631 79.5C89.9541 79.5 90.3496 79.1159 90.3496 78.3477C90.3496 77.5436 89.9492 77.1416 89.1484 77.1416C88.7676 77.1416 88.4746 77.2441 88.2695 77.4492C88.0645 77.6543 87.9619 77.9587 87.9619 78.3623ZM100.096 82L99.207 79.7295H96.3457L95.4668 82H94.627L97.4492 74.832H98.1475L100.955 82H100.096ZM98.9482 78.9824L98.1182 76.7705C98.0107 76.4906 97.9001 76.1471 97.7861 75.7402C97.7145 76.0527 97.612 76.3962 97.4785 76.7705L96.6387 78.9824H98.9482ZM106.463 76.9414C106.463 77.6641 106.215 78.2207 105.721 78.6113C105.229 78.9987 104.524 79.1924 103.606 79.1924H102.767V82H101.937V74.8613H103.787C105.571 74.8613 106.463 75.5547 106.463 76.9414ZM102.767 78.4795H103.514C104.249 78.4795 104.782 78.3607 105.11 78.123C105.439 77.8854 105.604 77.5046 105.604 76.9805C105.604 76.5085 105.449 76.1569 105.14 75.9258C104.83 75.6947 104.349 75.5791 103.694 75.5791H102.767V78.4795ZM107.962 82V74.8613H108.792V82H107.962Z" fill="#333333"/>
<rect x="46" y="75" width="6" height="6" fill="#BDBDBD"/>
<rect x="36" y="159" width="210" height="30" fill="white"/>
<path d="M62.0098 176.101C62.0098 176.729 61.7819 177.219 61.3262 177.57C60.8704 177.922 60.252 178.098 59.4707 178.098C58.6243 178.098 57.9733 177.989 57.5176 177.771V176.97C57.8105 177.093 58.1296 177.191 58.4746 177.263C58.8197 177.334 59.1615 177.37 59.5 177.37C60.0534 177.37 60.4701 177.266 60.75 177.058C61.0299 176.846 61.1699 176.553 61.1699 176.179C61.1699 175.931 61.1195 175.729 61.0186 175.573C60.9209 175.414 60.7549 175.267 60.5205 175.134C60.2894 175 59.9362 174.849 59.4609 174.68C58.7969 174.442 58.3216 174.16 58.0352 173.835C57.752 173.509 57.6104 173.085 57.6104 172.561C57.6104 172.01 57.8171 171.573 58.2305 171.247C58.6439 170.922 59.1908 170.759 59.8711 170.759C60.5807 170.759 61.2334 170.889 61.8291 171.149L61.5703 171.872C60.9811 171.625 60.4082 171.501 59.8516 171.501C59.4121 171.501 59.0687 171.595 58.8213 171.784C58.5739 171.973 58.4502 172.235 58.4502 172.57C58.4502 172.818 58.4958 173.021 58.5869 173.181C58.6781 173.337 58.8311 173.482 59.0459 173.615C59.264 173.745 59.596 173.89 60.042 174.05C60.7907 174.317 61.305 174.603 61.585 174.909C61.8682 175.215 62.0098 175.612 62.0098 176.101ZM65.6084 178.098C64.8174 178.098 64.1924 177.857 63.7334 177.375C63.2777 176.893 63.0498 176.224 63.0498 175.368C63.0498 174.506 63.2614 173.82 63.6846 173.312C64.111 172.805 64.6823 172.551 65.3984 172.551C66.069 172.551 66.5996 172.772 66.9902 173.215C67.3809 173.654 67.5762 174.235 67.5762 174.958V175.471H63.8896C63.9059 176.099 64.0638 176.576 64.3633 176.901C64.666 177.227 65.0908 177.39 65.6377 177.39C66.2139 177.39 66.7835 177.269 67.3467 177.028V177.751C67.0602 177.875 66.7884 177.963 66.5312 178.015C66.2773 178.07 65.9697 178.098 65.6084 178.098ZM65.3887 173.229C64.959 173.229 64.6156 173.369 64.3584 173.649C64.1045 173.929 63.9548 174.317 63.9092 174.812H66.707C66.707 174.3 66.5931 173.91 66.3652 173.64C66.1374 173.366 65.8118 173.229 65.3887 173.229ZM72.415 176.54C72.415 177.038 72.2295 177.422 71.8584 177.692C71.4873 177.963 70.9665 178.098 70.2959 178.098C69.5863 178.098 69.0329 177.985 68.6357 177.761V177.009C68.8929 177.139 69.168 177.242 69.4609 177.316C69.7572 177.391 70.042 177.429 70.3154 177.429C70.7386 177.429 71.0641 177.362 71.292 177.229C71.5199 177.092 71.6338 176.885 71.6338 176.608C71.6338 176.4 71.5426 176.223 71.3604 176.076C71.1813 175.926 70.8298 175.751 70.3057 175.549C69.8076 175.363 69.4528 175.202 69.2412 175.065C69.0329 174.925 68.8766 174.768 68.7725 174.592C68.6715 174.416 68.6211 174.206 68.6211 173.962C68.6211 173.526 68.7985 173.182 69.1533 172.932C69.5081 172.678 69.9948 172.551 70.6133 172.551C71.1895 172.551 71.7526 172.668 72.3027 172.902L72.0146 173.562C71.4775 173.34 70.9909 173.229 70.5547 173.229C70.1706 173.229 69.8809 173.29 69.6855 173.41C69.4902 173.531 69.3926 173.697 69.3926 173.908C69.3926 174.051 69.4284 174.174 69.5 174.274C69.5749 174.375 69.6937 174.471 69.8564 174.562C70.0192 174.654 70.3317 174.785 70.7939 174.958C71.4287 175.189 71.8568 175.422 72.0781 175.656C72.3027 175.891 72.415 176.185 72.415 176.54ZM77.1904 176.54C77.1904 177.038 77.0049 177.422 76.6338 177.692C76.2627 177.963 75.7419 178.098 75.0713 178.098C74.3617 178.098 73.8083 177.985 73.4111 177.761V177.009C73.6683 177.139 73.9434 177.242 74.2363 177.316C74.5326 177.391 74.8174 177.429 75.0908 177.429C75.514 177.429 75.8395 177.362 76.0674 177.229C76.2952 177.092 76.4092 176.885 76.4092 176.608C76.4092 176.4 76.318 176.223 76.1357 176.076C75.9567 175.926 75.6051 175.751 75.0811 175.549C74.583 175.363 74.2282 175.202 74.0166 175.065C73.8083 174.925 73.652 174.768 73.5479 174.592C73.4469 174.416 73.3965 174.206 73.3965 173.962C73.3965 173.526 73.5739 173.182 73.9287 172.932C74.2835 172.678 74.7702 172.551 75.3887 172.551C75.9648 172.551 76.528 172.668 77.0781 172.902L76.79 173.562C76.2529 173.34 75.7663 173.229 75.3301 173.229C74.946 173.229 74.6562 173.29 74.4609 173.41C74.2656 173.531 74.168 173.697 74.168 173.908C74.168 174.051 74.2038 174.174 74.2754 174.274C74.3503 174.375 74.4691 174.471 74.6318 174.562C74.7946 174.654 75.1071 174.785 75.5693 174.958C76.2041 175.189 76.6322 175.422 76.8535 175.656C77.0781 175.891 77.1904 176.185 77.1904 176.54ZM79.3242 178H78.5137V172.648H79.3242V178ZM78.4453 171.198C78.4453 171.013 78.4909 170.878 78.582 170.793C78.6732 170.705 78.7871 170.661 78.9238 170.661C79.054 170.661 79.1663 170.705 79.2607 170.793C79.3551 170.881 79.4023 171.016 79.4023 171.198C79.4023 171.381 79.3551 171.517 79.2607 171.608C79.1663 171.696 79.054 171.74 78.9238 171.74C78.7871 171.74 78.6732 171.696 78.582 171.608C78.4909 171.517 78.4453 171.381 78.4453 171.198ZM85.6621 175.319C85.6621 176.192 85.4424 176.874 85.0029 177.365C84.5635 177.854 83.9564 178.098 83.1816 178.098C82.7031 178.098 82.2783 177.985 81.9072 177.761C81.5361 177.536 81.2497 177.214 81.0479 176.794C80.846 176.374 80.7451 175.882 80.7451 175.319C80.7451 174.447 80.9632 173.768 81.3994 173.283C81.8356 172.795 82.4411 172.551 83.2158 172.551C83.9645 172.551 84.5586 172.8 84.998 173.298C85.4408 173.796 85.6621 174.47 85.6621 175.319ZM81.585 175.319C81.585 176.003 81.7217 176.524 81.9951 176.882C82.2686 177.24 82.6706 177.419 83.2012 177.419C83.7318 177.419 84.1338 177.242 84.4072 176.887C84.6839 176.529 84.8223 176.006 84.8223 175.319C84.8223 174.639 84.6839 174.123 84.4072 173.771C84.1338 173.417 83.7285 173.239 83.1914 173.239C82.6608 173.239 82.2604 173.413 81.9902 173.762C81.7201 174.11 81.585 174.629 81.585 175.319ZM90.75 178V174.538C90.75 174.102 90.6507 173.776 90.4521 173.562C90.2536 173.347 89.9427 173.239 89.5195 173.239C88.9596 173.239 88.5495 173.391 88.2891 173.693C88.0286 173.996 87.8984 174.496 87.8984 175.192V178H87.0879V172.648H87.7471L87.8789 173.381H87.918C88.084 173.117 88.3167 172.914 88.6162 172.771C88.9157 172.624 89.2493 172.551 89.6172 172.551C90.2617 172.551 90.7467 172.707 91.0723 173.02C91.3978 173.329 91.5605 173.825 91.5605 174.509V178H90.75ZM99.1094 178L96.6875 171.672H96.6484C96.694 172.173 96.7168 172.769 96.7168 173.459V178H95.9502V170.861H97.2002L99.4609 176.75H99.5L101.78 170.861H103.021V178H102.19V173.4C102.19 172.873 102.213 172.3 102.259 171.682H102.22L99.7783 178H99.1094ZM108.152 178L107.991 177.238H107.952C107.685 177.574 107.418 177.801 107.151 177.922C106.888 178.039 106.557 178.098 106.16 178.098C105.63 178.098 105.213 177.961 104.91 177.688C104.611 177.414 104.461 177.025 104.461 176.521C104.461 175.44 105.325 174.873 107.054 174.821L107.962 174.792V174.46C107.962 174.04 107.871 173.731 107.688 173.532C107.509 173.33 107.221 173.229 106.824 173.229C106.378 173.229 105.874 173.366 105.311 173.64L105.062 173.02C105.325 172.876 105.613 172.764 105.926 172.683C106.242 172.601 106.557 172.561 106.873 172.561C107.511 172.561 107.983 172.702 108.289 172.985C108.598 173.269 108.753 173.723 108.753 174.348V178H108.152ZM106.321 177.429C106.826 177.429 107.221 177.29 107.508 177.014C107.798 176.737 107.942 176.35 107.942 175.852V175.368L107.132 175.402C106.487 175.425 106.022 175.526 105.735 175.705C105.452 175.881 105.311 176.156 105.311 176.53C105.311 176.823 105.398 177.046 105.574 177.199C105.753 177.352 106.002 177.429 106.321 177.429ZM114.09 178V174.538C114.09 174.102 113.991 173.776 113.792 173.562C113.593 173.347 113.283 173.239 112.859 173.239C112.299 173.239 111.889 173.391 111.629 173.693C111.368 173.996 111.238 174.496 111.238 175.192V178H110.428V172.648H111.087L111.219 173.381H111.258C111.424 173.117 111.657 172.914 111.956 172.771C112.256 172.624 112.589 172.551 112.957 172.551C113.602 172.551 114.087 172.707 114.412 173.02C114.738 173.329 114.9 173.825 114.9 174.509V178H114.09ZM119.861 178L119.7 177.238H119.661C119.394 177.574 119.127 177.801 118.86 177.922C118.597 178.039 118.266 178.098 117.869 178.098C117.339 178.098 116.922 177.961 116.619 177.688C116.32 177.414 116.17 177.025 116.17 176.521C116.17 175.44 117.034 174.873 118.763 174.821L119.671 174.792V174.46C119.671 174.04 119.58 173.731 119.397 173.532C119.218 173.33 118.93 173.229 118.533 173.229C118.087 173.229 117.583 173.366 117.02 173.64L116.771 173.02C117.034 172.876 117.322 172.764 117.635 172.683C117.951 172.601 118.266 172.561 118.582 172.561C119.22 172.561 119.692 172.702 119.998 172.985C120.307 173.269 120.462 173.723 120.462 174.348V178H119.861ZM118.03 177.429C118.535 177.429 118.93 177.29 119.217 177.014C119.507 176.737 119.651 176.35 119.651 175.852V175.368L118.841 175.402C118.196 175.425 117.731 175.526 117.444 175.705C117.161 175.881 117.02 176.156 117.02 176.53C117.02 176.823 117.107 177.046 117.283 177.199C117.462 177.352 117.711 177.429 118.03 177.429ZM126.517 172.648V173.161L125.525 173.278C125.617 173.392 125.698 173.542 125.77 173.728C125.841 173.91 125.877 174.117 125.877 174.348C125.877 174.872 125.698 175.29 125.34 175.603C124.982 175.915 124.49 176.071 123.865 176.071C123.706 176.071 123.556 176.058 123.416 176.032C123.071 176.215 122.898 176.444 122.898 176.721C122.898 176.867 122.959 176.976 123.079 177.048C123.2 177.116 123.406 177.15 123.699 177.15H124.646C125.226 177.15 125.67 177.272 125.979 177.517C126.292 177.761 126.448 178.116 126.448 178.581C126.448 179.174 126.211 179.624 125.735 179.934C125.26 180.246 124.567 180.402 123.655 180.402C122.955 180.402 122.415 180.272 122.034 180.012C121.657 179.751 121.468 179.383 121.468 178.908C121.468 178.583 121.572 178.301 121.78 178.063C121.989 177.826 122.282 177.665 122.659 177.58C122.522 177.518 122.407 177.422 122.312 177.292C122.221 177.162 122.176 177.01 122.176 176.838C122.176 176.643 122.228 176.472 122.332 176.325C122.436 176.179 122.601 176.037 122.825 175.9C122.549 175.786 122.322 175.593 122.146 175.319C121.974 175.046 121.888 174.733 121.888 174.382C121.888 173.796 122.063 173.345 122.415 173.029C122.767 172.71 123.265 172.551 123.909 172.551C124.189 172.551 124.441 172.583 124.666 172.648H126.517ZM122.249 178.898C122.249 179.188 122.371 179.408 122.615 179.558C122.859 179.707 123.209 179.782 123.665 179.782C124.345 179.782 124.848 179.68 125.174 179.475C125.503 179.273 125.667 178.998 125.667 178.649C125.667 178.36 125.577 178.158 125.398 178.044C125.219 177.933 124.882 177.878 124.388 177.878H123.416C123.048 177.878 122.762 177.966 122.557 178.142C122.352 178.317 122.249 178.57 122.249 178.898ZM122.688 174.362C122.688 174.737 122.794 175.02 123.006 175.212C123.217 175.404 123.512 175.5 123.89 175.5C124.681 175.5 125.076 175.116 125.076 174.348C125.076 173.544 124.676 173.142 123.875 173.142C123.494 173.142 123.201 173.244 122.996 173.449C122.791 173.654 122.688 173.959 122.688 174.362ZM129.876 178.098C129.085 178.098 128.46 177.857 128.001 177.375C127.545 176.893 127.317 176.224 127.317 175.368C127.317 174.506 127.529 173.82 127.952 173.312C128.379 172.805 128.95 172.551 129.666 172.551C130.337 172.551 130.867 172.772 131.258 173.215C131.648 173.654 131.844 174.235 131.844 174.958V175.471H128.157C128.174 176.099 128.331 176.576 128.631 176.901C128.934 177.227 129.358 177.39 129.905 177.39C130.481 177.39 131.051 177.269 131.614 177.028V177.751C131.328 177.875 131.056 177.963 130.799 178.015C130.545 178.07 130.237 178.098 129.876 178.098ZM129.656 173.229C129.227 173.229 128.883 173.369 128.626 173.649C128.372 173.929 128.222 174.317 128.177 174.812H130.975C130.975 174.3 130.861 173.91 130.633 173.64C130.405 173.366 130.079 173.229 129.656 173.229ZM135.672 172.551C135.91 172.551 136.123 172.57 136.312 172.609L136.199 173.361C135.978 173.312 135.783 173.288 135.613 173.288C135.18 173.288 134.809 173.464 134.5 173.815C134.194 174.167 134.041 174.605 134.041 175.129V178H133.23V172.648H133.899L133.992 173.64H134.031C134.23 173.291 134.469 173.023 134.749 172.834C135.029 172.645 135.337 172.551 135.672 172.551ZM144.52 178L143.631 175.729H140.77L139.891 178H139.051L141.873 170.832H142.571L145.379 178H144.52ZM143.372 174.982L142.542 172.771C142.435 172.491 142.324 172.147 142.21 171.74C142.138 172.053 142.036 172.396 141.902 172.771L141.062 174.982H143.372ZM150.887 172.941C150.887 173.664 150.639 174.221 150.145 174.611C149.653 174.999 148.948 175.192 148.03 175.192H147.19V178H146.36V170.861H148.211C149.995 170.861 150.887 171.555 150.887 172.941ZM147.19 174.479H147.938C148.673 174.479 149.205 174.361 149.534 174.123C149.863 173.885 150.027 173.505 150.027 172.98C150.027 172.508 149.873 172.157 149.563 171.926C149.254 171.695 148.772 171.579 148.118 171.579H147.19V174.479ZM152.386 178V170.861H153.216V178H152.386Z" fill="#333333"/>
<rect x="46" y="171" width="6" height="6" fill="#BDBDBD"/>
<rect x="36" y="191" width="210" height="30" fill="white"/>
<path d="M62.0098 208.101C62.0098 208.729 61.7819 209.219 61.3262 209.57C60.8704 209.922 60.252 210.098 59.4707 210.098C58.6243 210.098 57.9733 209.989 57.5176 209.771V208.97C57.8105 209.093 58.1296 209.191 58.4746 209.263C58.8197 209.334 59.1615 209.37 59.5 209.37C60.0534 209.37 60.4701 209.266 60.75 209.058C61.0299 208.846 61.1699 208.553 61.1699 208.179C61.1699 207.931 61.1195 207.729 61.0186 207.573C60.9209 207.414 60.7549 207.267 60.5205 207.134C60.2894 207 59.9362 206.849 59.4609 206.68C58.7969 206.442 58.3216 206.16 58.0352 205.835C57.752 205.509 57.6104 205.085 57.6104 204.561C57.6104 204.01 57.8171 203.573 58.2305 203.247C58.6439 202.922 59.1908 202.759 59.8711 202.759C60.5807 202.759 61.2334 202.889 61.8291 203.149L61.5703 203.872C60.9811 203.625 60.4082 203.501 59.8516 203.501C59.4121 203.501 59.0687 203.595 58.8213 203.784C58.5739 203.973 58.4502 204.235 58.4502 204.57C58.4502 204.818 58.4958 205.021 58.5869 205.181C58.6781 205.337 58.8311 205.482 59.0459 205.615C59.264 205.745 59.596 205.89 60.042 206.05C60.7907 206.317 61.305 206.603 61.585 206.909C61.8682 207.215 62.0098 207.612 62.0098 208.101ZM64.1094 204.648V208.12C64.1094 208.556 64.2087 208.882 64.4072 209.097C64.6058 209.312 64.9167 209.419 65.3398 209.419C65.8997 209.419 66.3083 209.266 66.5654 208.96C66.8258 208.654 66.9561 208.154 66.9561 207.461V204.648H67.7666V210H67.0977L66.9805 209.282H66.9365C66.7705 209.546 66.5394 209.748 66.2432 209.888C65.9502 210.028 65.6149 210.098 65.2373 210.098C64.5863 210.098 64.098 209.943 63.7725 209.634C63.4502 209.325 63.2891 208.83 63.2891 208.149V204.648H64.1094ZM71.9805 204.561C72.6836 204.561 73.2288 204.801 73.6162 205.283C74.0068 205.762 74.2021 206.44 74.2021 207.319C74.2021 208.198 74.0052 208.882 73.6113 209.37C73.2207 209.855 72.6771 210.098 71.9805 210.098C71.6322 210.098 71.3132 210.034 71.0234 209.907C70.737 209.777 70.4961 209.578 70.3008 209.312H70.2422L70.0713 210H69.4902V202.402H70.3008V204.248C70.3008 204.661 70.2878 205.033 70.2617 205.361H70.3008C70.6784 204.827 71.2383 204.561 71.9805 204.561ZM71.8633 205.239C71.3099 205.239 70.9111 205.399 70.667 205.718C70.4229 206.034 70.3008 206.567 70.3008 207.319C70.3008 208.071 70.4261 208.61 70.6768 208.936C70.9274 209.258 71.3294 209.419 71.8828 209.419C72.3809 209.419 72.752 209.238 72.9961 208.877C73.2402 208.512 73.3623 207.99 73.3623 207.31C73.3623 206.613 73.2402 206.094 72.9961 205.752C72.752 205.41 72.3743 205.239 71.8633 205.239ZM79.0752 208.54C79.0752 209.038 78.8896 209.422 78.5186 209.692C78.1475 209.963 77.6266 210.098 76.9561 210.098C76.2464 210.098 75.693 209.985 75.2959 209.761V209.009C75.5531 209.139 75.8281 209.242 76.1211 209.316C76.4173 209.391 76.7021 209.429 76.9756 209.429C77.3988 209.429 77.7243 209.362 77.9521 209.229C78.18 209.092 78.2939 208.885 78.2939 208.608C78.2939 208.4 78.2028 208.223 78.0205 208.076C77.8415 207.926 77.4899 207.751 76.9658 207.549C76.4678 207.363 76.113 207.202 75.9014 207.065C75.693 206.925 75.5368 206.768 75.4326 206.592C75.3317 206.416 75.2812 206.206 75.2812 205.962C75.2812 205.526 75.4587 205.182 75.8135 204.932C76.1683 204.678 76.6549 204.551 77.2734 204.551C77.8496 204.551 78.4128 204.668 78.9629 204.902L78.6748 205.562C78.1377 205.34 77.651 205.229 77.2148 205.229C76.8307 205.229 76.541 205.29 76.3457 205.41C76.1504 205.531 76.0527 205.697 76.0527 205.908C76.0527 206.051 76.0885 206.174 76.1602 206.274C76.235 206.375 76.3538 206.471 76.5166 206.562C76.6794 206.654 76.9919 206.785 77.4541 206.958C78.0889 207.189 78.5169 207.422 78.7383 207.656C78.9629 207.891 79.0752 208.185 79.0752 208.54ZM82.5371 210.098C81.7624 210.098 81.1618 209.86 80.7354 209.385C80.3122 208.906 80.1006 208.231 80.1006 207.358C80.1006 206.463 80.3154 205.771 80.7451 205.283C81.1781 204.795 81.7933 204.551 82.5908 204.551C82.848 204.551 83.1051 204.578 83.3623 204.634C83.6195 204.689 83.8213 204.754 83.9678 204.829L83.7188 205.518C83.5397 205.446 83.3444 205.387 83.1328 205.342C82.9212 205.293 82.734 205.269 82.5713 205.269C81.484 205.269 80.9404 205.962 80.9404 207.349C80.9404 208.006 81.0723 208.511 81.3359 208.862C81.6029 209.214 81.9967 209.39 82.5176 209.39C82.9635 209.39 83.4209 209.294 83.8896 209.102V209.819C83.5316 210.005 83.0807 210.098 82.5371 210.098ZM87.6055 204.551C87.8431 204.551 88.0563 204.57 88.2451 204.609L88.1328 205.361C87.9115 205.312 87.7161 205.288 87.5469 205.288C87.1139 205.288 86.7428 205.464 86.4336 205.815C86.1276 206.167 85.9746 206.605 85.9746 207.129V210H85.1641V204.648H85.833L85.9258 205.64H85.9648C86.1634 205.291 86.4027 205.023 86.6826 204.834C86.9626 204.645 87.2702 204.551 87.6055 204.551ZM90.0566 210H89.2461V204.648H90.0566V210ZM89.1777 203.198C89.1777 203.013 89.2233 202.878 89.3145 202.793C89.4056 202.705 89.5195 202.661 89.6562 202.661C89.7865 202.661 89.8988 202.705 89.9932 202.793C90.0876 202.881 90.1348 203.016 90.1348 203.198C90.1348 203.381 90.0876 203.517 89.9932 203.608C89.8988 203.696 89.7865 203.74 89.6562 203.74C89.5195 203.74 89.4056 203.696 89.3145 203.608C89.2233 203.517 89.1777 203.381 89.1777 203.198ZM94.2656 210.098C93.9173 210.098 93.5983 210.034 93.3086 209.907C93.0221 209.777 92.7812 209.578 92.5859 209.312H92.5273C92.5664 209.624 92.5859 209.92 92.5859 210.2V212.402H91.7754V204.648H92.4346L92.5469 205.381H92.5859C92.7943 205.088 93.0368 204.876 93.3135 204.746C93.5902 204.616 93.9076 204.551 94.2656 204.551C94.9753 204.551 95.5221 204.793 95.9062 205.278C96.2936 205.763 96.4873 206.444 96.4873 207.319C96.4873 208.198 96.2904 208.882 95.8965 209.37C95.5059 209.855 94.9622 210.098 94.2656 210.098ZM94.1484 205.239C93.6016 205.239 93.2061 205.391 92.9619 205.693C92.7178 205.996 92.5924 206.478 92.5859 207.139V207.319C92.5859 208.071 92.7113 208.61 92.9619 208.936C93.2126 209.258 93.6146 209.419 94.168 209.419C94.6302 209.419 94.9915 209.232 95.252 208.857C95.5156 208.483 95.6475 207.967 95.6475 207.31C95.6475 206.642 95.5156 206.131 95.252 205.776C94.9915 205.418 94.6237 205.239 94.1484 205.239ZM99.6367 209.429C99.7799 209.429 99.9183 209.419 100.052 209.399C100.185 209.377 100.291 209.354 100.369 209.331V209.951C100.281 209.993 100.151 210.028 99.9785 210.054C99.8092 210.083 99.6562 210.098 99.5195 210.098C98.4844 210.098 97.9668 209.552 97.9668 208.462V205.278H97.2002V204.888L97.9668 204.551L98.3086 203.408H98.7773V204.648H100.33V205.278H98.7773V208.428C98.7773 208.75 98.8538 208.997 99.0068 209.17C99.1598 209.342 99.3698 209.429 99.6367 209.429ZM102.254 210H101.443V204.648H102.254V210ZM101.375 203.198C101.375 203.013 101.421 202.878 101.512 202.793C101.603 202.705 101.717 202.661 101.854 202.661C101.984 202.661 102.096 202.705 102.19 202.793C102.285 202.881 102.332 203.016 102.332 203.198C102.332 203.381 102.285 203.517 102.19 203.608C102.096 203.696 101.984 203.74 101.854 203.74C101.717 203.74 101.603 203.696 101.512 203.608C101.421 203.517 101.375 203.381 101.375 203.198ZM108.592 207.319C108.592 208.192 108.372 208.874 107.933 209.365C107.493 209.854 106.886 210.098 106.111 210.098C105.633 210.098 105.208 209.985 104.837 209.761C104.466 209.536 104.179 209.214 103.978 208.794C103.776 208.374 103.675 207.882 103.675 207.319C103.675 206.447 103.893 205.768 104.329 205.283C104.765 204.795 105.371 204.551 106.146 204.551C106.894 204.551 107.488 204.8 107.928 205.298C108.37 205.796 108.592 206.47 108.592 207.319ZM104.515 207.319C104.515 208.003 104.651 208.524 104.925 208.882C105.198 209.24 105.6 209.419 106.131 209.419C106.661 209.419 107.063 209.242 107.337 208.887C107.614 208.529 107.752 208.006 107.752 207.319C107.752 206.639 107.614 206.123 107.337 205.771C107.063 205.417 106.658 205.239 106.121 205.239C105.59 205.239 105.19 205.413 104.92 205.762C104.65 206.11 104.515 206.629 104.515 207.319ZM113.68 210V206.538C113.68 206.102 113.58 205.776 113.382 205.562C113.183 205.347 112.872 205.239 112.449 205.239C111.889 205.239 111.479 205.391 111.219 205.693C110.958 205.996 110.828 206.496 110.828 207.192V210H110.018V204.648H110.677L110.809 205.381H110.848C111.014 205.117 111.246 204.914 111.546 204.771C111.845 204.624 112.179 204.551 112.547 204.551C113.191 204.551 113.676 204.707 114.002 205.02C114.327 205.329 114.49 205.825 114.49 206.509V210H113.68ZM119.612 208.54C119.612 209.038 119.427 209.422 119.056 209.692C118.685 209.963 118.164 210.098 117.493 210.098C116.784 210.098 116.23 209.985 115.833 209.761V209.009C116.09 209.139 116.365 209.242 116.658 209.316C116.954 209.391 117.239 209.429 117.513 209.429C117.936 209.429 118.261 209.362 118.489 209.229C118.717 209.092 118.831 208.885 118.831 208.608C118.831 208.4 118.74 208.223 118.558 208.076C118.379 207.926 118.027 207.751 117.503 207.549C117.005 207.363 116.65 207.202 116.438 207.065C116.23 206.925 116.074 206.768 115.97 206.592C115.869 206.416 115.818 206.206 115.818 205.962C115.818 205.526 115.996 205.182 116.351 204.932C116.705 204.678 117.192 204.551 117.811 204.551C118.387 204.551 118.95 204.668 119.5 204.902L119.212 205.562C118.675 205.34 118.188 205.229 117.752 205.229C117.368 205.229 117.078 205.29 116.883 205.41C116.688 205.531 116.59 205.697 116.59 205.908C116.59 206.051 116.626 206.174 116.697 206.274C116.772 206.375 116.891 206.471 117.054 206.562C117.216 206.654 117.529 206.785 117.991 206.958C118.626 207.189 119.054 207.422 119.275 207.656C119.5 207.891 119.612 208.185 119.612 208.54ZM128.143 210L127.254 207.729H124.393L123.514 210H122.674L125.496 202.832H126.194L129.002 210H128.143ZM126.995 206.982L126.165 204.771C126.058 204.491 125.947 204.147 125.833 203.74C125.761 204.053 125.659 204.396 125.525 204.771L124.686 206.982H126.995ZM134.51 204.941C134.51 205.664 134.262 206.221 133.768 206.611C133.276 206.999 132.571 207.192 131.653 207.192H130.813V210H129.983V202.861H131.834C133.618 202.861 134.51 203.555 134.51 204.941ZM130.813 206.479H131.561C132.296 206.479 132.828 206.361 133.157 206.123C133.486 205.885 133.65 205.505 133.65 204.98C133.65 204.508 133.496 204.157 133.187 203.926C132.877 203.695 132.396 203.579 131.741 203.579H130.813V206.479ZM136.009 210V202.861H136.839V210H136.009Z" fill="#333333"/>
<rect x="46" y="203" width="6" height="6" fill="#BDBDBD"/>
<path d="M62.5078 140.941C62.5078 141.664 62.2604 142.221 61.7656 142.611C61.2741 142.999 60.5693 143.192 59.6514 143.192H58.8115V146H57.9814V138.861H59.832C61.6159 138.861 62.5078 139.555 62.5078 140.941ZM58.8115 142.479H59.5586C60.2943 142.479 60.8265 142.361 61.1553 142.123C61.484 141.885 61.6484 141.505 61.6484 140.98C61.6484 140.508 61.4938 140.157 61.1846 139.926C60.8753 139.695 60.3936 139.579 59.7393 139.579H58.8115V142.479ZM66.3262 140.551C66.5638 140.551 66.777 140.57 66.9658 140.609L66.8535 141.361C66.6322 141.312 66.4368 141.288 66.2676 141.288C65.8346 141.288 65.4635 141.464 65.1543 141.815C64.8483 142.167 64.6953 142.605 64.6953 143.129V146H63.8848V140.648H64.5537L64.6465 141.64H64.6855C64.8841 141.291 65.1234 141.023 65.4033 140.834C65.6833 140.645 65.9909 140.551 66.3262 140.551ZM68.7773 146H67.9668V140.648H68.7773V146ZM67.8984 139.198C67.8984 139.013 67.944 138.878 68.0352 138.793C68.1263 138.705 68.2402 138.661 68.377 138.661C68.5072 138.661 68.6195 138.705 68.7139 138.793C68.8083 138.881 68.8555 139.016 68.8555 139.198C68.8555 139.381 68.8083 139.517 68.7139 139.608C68.6195 139.696 68.5072 139.74 68.377 139.74C68.2402 139.74 68.1263 139.696 68.0352 139.608C67.944 139.517 67.8984 139.381 67.8984 139.198ZM72.6348 146.098C71.86 146.098 71.2594 145.86 70.833 145.385C70.4098 144.906 70.1982 144.231 70.1982 143.358C70.1982 142.463 70.4131 141.771 70.8428 141.283C71.2757 140.795 71.891 140.551 72.6885 140.551C72.9456 140.551 73.2028 140.578 73.46 140.634C73.7171 140.689 73.9189 140.754 74.0654 140.829L73.8164 141.518C73.6374 141.446 73.4421 141.387 73.2305 141.342C73.0189 141.293 72.8317 141.269 72.6689 141.269C71.5817 141.269 71.0381 141.962 71.0381 143.349C71.0381 144.006 71.1699 144.511 71.4336 144.862C71.7005 145.214 72.0944 145.39 72.6152 145.39C73.0612 145.39 73.5186 145.294 73.9873 145.102V145.819C73.6292 146.005 73.1784 146.098 72.6348 146.098ZM76.0723 146H75.2617V140.648H76.0723V146ZM75.1934 139.198C75.1934 139.013 75.2389 138.878 75.3301 138.793C75.4212 138.705 75.5352 138.661 75.6719 138.661C75.8021 138.661 75.9144 138.705 76.0088 138.793C76.1032 138.881 76.1504 139.016 76.1504 139.198C76.1504 139.381 76.1032 139.517 76.0088 139.608C75.9144 139.696 75.8021 139.74 75.6719 139.74C75.5352 139.74 75.4212 139.696 75.3301 139.608C75.2389 139.517 75.1934 139.381 75.1934 139.198ZM81.4531 146V142.538C81.4531 142.102 81.3538 141.776 81.1553 141.562C80.9567 141.347 80.6458 141.239 80.2227 141.239C79.6628 141.239 79.2526 141.391 78.9922 141.693C78.7318 141.996 78.6016 142.496 78.6016 143.192V146H77.791V140.648H78.4502L78.582 141.381H78.6211C78.7871 141.117 79.0199 140.914 79.3193 140.771C79.6188 140.624 79.9525 140.551 80.3203 140.551C80.9648 140.551 81.4499 140.707 81.7754 141.02C82.1009 141.329 82.2637 141.825 82.2637 142.509V146H81.4531ZM88.3135 140.648V141.161L87.3223 141.278C87.4134 141.392 87.4948 141.542 87.5664 141.728C87.638 141.91 87.6738 142.117 87.6738 142.348C87.6738 142.872 87.4948 143.29 87.1367 143.603C86.7786 143.915 86.2871 144.071 85.6621 144.071C85.5026 144.071 85.3529 144.058 85.2129 144.032C84.8678 144.215 84.6953 144.444 84.6953 144.721C84.6953 144.867 84.7555 144.976 84.876 145.048C84.9964 145.116 85.2031 145.15 85.4961 145.15H86.4434C87.0228 145.15 87.4671 145.272 87.7764 145.517C88.0889 145.761 88.2451 146.116 88.2451 146.581C88.2451 147.174 88.0075 147.624 87.5322 147.934C87.057 148.246 86.3636 148.402 85.4521 148.402C84.7523 148.402 84.2119 148.272 83.8311 148.012C83.4535 147.751 83.2646 147.383 83.2646 146.908C83.2646 146.583 83.3688 146.301 83.5771 146.063C83.7855 145.826 84.0785 145.665 84.4561 145.58C84.3193 145.518 84.2038 145.422 84.1094 145.292C84.0182 145.162 83.9727 145.01 83.9727 144.838C83.9727 144.643 84.0247 144.472 84.1289 144.325C84.2331 144.179 84.3975 144.037 84.6221 143.9C84.3454 143.786 84.1191 143.593 83.9434 143.319C83.7708 143.046 83.6846 142.733 83.6846 142.382C83.6846 141.796 83.8604 141.345 84.2119 141.029C84.5635 140.71 85.0615 140.551 85.7061 140.551C85.986 140.551 86.2383 140.583 86.4629 140.648H88.3135ZM84.0459 146.898C84.0459 147.188 84.168 147.408 84.4121 147.558C84.6562 147.707 85.0062 147.782 85.4619 147.782C86.1423 147.782 86.6452 147.68 86.9707 147.475C87.2995 147.273 87.4639 146.998 87.4639 146.649C87.4639 146.36 87.3743 146.158 87.1953 146.044C87.0163 145.933 86.6794 145.878 86.1846 145.878H85.2129C84.8451 145.878 84.5586 145.966 84.3535 146.142C84.1484 146.317 84.0459 146.57 84.0459 146.898ZM84.4854 142.362C84.4854 142.737 84.5911 143.02 84.8027 143.212C85.0143 143.404 85.3089 143.5 85.6865 143.5C86.4775 143.5 86.873 143.116 86.873 142.348C86.873 141.544 86.4727 141.142 85.6719 141.142C85.291 141.142 84.998 141.244 84.793 141.449C84.5879 141.654 84.4854 141.959 84.4854 142.362ZM96.6191 146L95.7305 143.729H92.8691L91.9902 146H91.1504L93.9727 138.832H94.6709L97.4785 146H96.6191ZM95.4717 142.982L94.6416 140.771C94.5342 140.491 94.4235 140.147 94.3096 139.74C94.238 140.053 94.1354 140.396 94.002 140.771L93.1621 142.982H95.4717ZM102.986 140.941C102.986 141.664 102.739 142.221 102.244 142.611C101.753 142.999 101.048 143.192 100.13 143.192H99.29V146H98.46V138.861H100.311C102.094 138.861 102.986 139.555 102.986 140.941ZM99.29 142.479H100.037C100.773 142.479 101.305 142.361 101.634 142.123C101.963 141.885 102.127 141.505 102.127 140.98C102.127 140.508 101.972 140.157 101.663 139.926C101.354 139.695 100.872 139.579 100.218 139.579H99.29V142.479ZM104.485 146V138.861H105.315V146H104.485Z" fill="#333333"/>
<rect x="46" y="139" width="6" height="6" fill="#BDBDBD"/>
<path d="M61.1406 114L58.7188 107.672H58.6797C58.7253 108.173 58.748 108.769 58.748 109.459V114H57.9814V106.861H59.2314L61.4922 112.75H61.5312L63.8115 106.861H65.0518V114H64.2217V109.4C64.2217 108.873 64.2445 108.3 64.29 107.682H64.251L61.8096 114H61.1406ZM70.1836 114L70.0225 113.238H69.9834C69.7165 113.574 69.4495 113.801 69.1826 113.922C68.9189 114.039 68.5885 114.098 68.1914 114.098C67.6608 114.098 67.2441 113.961 66.9414 113.688C66.6419 113.414 66.4922 113.025 66.4922 112.521C66.4922 111.44 67.3564 110.873 69.085 110.821L69.9932 110.792V110.46C69.9932 110.04 69.902 109.731 69.7197 109.532C69.5407 109.33 69.2526 109.229 68.8555 109.229C68.4095 109.229 67.9049 109.366 67.3418 109.64L67.0928 109.02C67.3564 108.876 67.6445 108.764 67.957 108.683C68.2728 108.601 68.5885 108.561 68.9043 108.561C69.5423 108.561 70.0143 108.702 70.3203 108.985C70.6296 109.269 70.7842 109.723 70.7842 110.348V114H70.1836ZM68.3525 113.429C68.8571 113.429 69.2526 113.29 69.5391 113.014C69.8288 112.737 69.9736 112.35 69.9736 111.852V111.368L69.1631 111.402C68.5186 111.425 68.0531 111.526 67.7666 111.705C67.4834 111.881 67.3418 112.156 67.3418 112.53C67.3418 112.823 67.4297 113.046 67.6055 113.199C67.7845 113.352 68.0335 113.429 68.3525 113.429ZM75.9111 112.54C75.9111 113.038 75.7256 113.422 75.3545 113.692C74.9834 113.963 74.4626 114.098 73.792 114.098C73.0824 114.098 72.529 113.985 72.1318 113.761V113.009C72.389 113.139 72.6641 113.242 72.957 113.316C73.2533 113.391 73.5381 113.429 73.8115 113.429C74.2347 113.429 74.5602 113.362 74.7881 113.229C75.016 113.092 75.1299 112.885 75.1299 112.608C75.1299 112.4 75.0387 112.223 74.8564 112.076C74.6774 111.926 74.3258 111.751 73.8018 111.549C73.3037 111.363 72.9489 111.202 72.7373 111.065C72.529 110.925 72.3727 110.768 72.2686 110.592C72.1676 110.416 72.1172 110.206 72.1172 109.962C72.1172 109.526 72.2946 109.182 72.6494 108.932C73.0042 108.678 73.4909 108.551 74.1094 108.551C74.6855 108.551 75.2487 108.668 75.7988 108.902L75.5107 109.562C74.9736 109.34 74.487 109.229 74.0508 109.229C73.6667 109.229 73.377 109.29 73.1816 109.41C72.9863 109.531 72.8887 109.697 72.8887 109.908C72.8887 110.051 72.9245 110.174 72.9961 110.274C73.071 110.375 73.1898 110.471 73.3525 110.562C73.5153 110.654 73.8278 110.785 74.29 110.958C74.9248 111.189 75.3529 111.422 75.5742 111.656C75.7988 111.891 75.9111 112.185 75.9111 112.54ZM78.9629 113.429C79.1061 113.429 79.2445 113.419 79.3779 113.399C79.5114 113.377 79.6172 113.354 79.6953 113.331V113.951C79.6074 113.993 79.4772 114.028 79.3047 114.054C79.1354 114.083 78.9824 114.098 78.8457 114.098C77.8105 114.098 77.293 113.552 77.293 112.462V109.278H76.5264V108.888L77.293 108.551L77.6348 107.408H78.1035V108.648H79.6562V109.278H78.1035V112.428C78.1035 112.75 78.18 112.997 78.333 113.17C78.486 113.342 78.696 113.429 78.9629 113.429ZM83.0303 114.098C82.2393 114.098 81.6143 113.857 81.1553 113.375C80.6995 112.893 80.4717 112.224 80.4717 111.368C80.4717 110.506 80.6833 109.82 81.1064 109.312C81.5329 108.805 82.1042 108.551 82.8203 108.551C83.4909 108.551 84.0215 108.772 84.4121 109.215C84.8027 109.654 84.998 110.235 84.998 110.958V111.471H81.3115C81.3278 112.099 81.4857 112.576 81.7852 112.901C82.0879 113.227 82.5127 113.39 83.0596 113.39C83.6357 113.39 84.2054 113.269 84.7686 113.028V113.751C84.4821 113.875 84.2103 113.963 83.9531 114.015C83.6992 114.07 83.3916 114.098 83.0303 114.098ZM82.8105 109.229C82.3809 109.229 82.0374 109.369 81.7803 109.649C81.5264 109.929 81.3766 110.317 81.3311 110.812H84.1289C84.1289 110.3 84.015 109.91 83.7871 109.64C83.5592 109.366 83.2337 109.229 82.8105 109.229ZM88.8262 108.551C89.0638 108.551 89.277 108.57 89.4658 108.609L89.3535 109.361C89.1322 109.312 88.9368 109.288 88.7676 109.288C88.3346 109.288 87.9635 109.464 87.6543 109.815C87.3483 110.167 87.1953 110.605 87.1953 111.129V114H86.3848V108.648H87.0537L87.1465 109.64H87.1855C87.3841 109.291 87.6234 109.023 87.9033 108.834C88.1833 108.645 88.4909 108.551 88.8262 108.551ZM98.8848 110.362C98.8848 111.541 98.5641 112.442 97.9229 113.067C97.2848 113.689 96.3652 114 95.1641 114H93.1865V106.861H95.374C96.484 106.861 97.3467 107.169 97.9619 107.784C98.5771 108.399 98.8848 109.259 98.8848 110.362ZM98.0059 110.392C98.0059 109.461 97.7715 108.759 97.3027 108.287C96.8372 107.815 96.1439 107.579 95.2227 107.579H94.0166V113.282H95.0273C96.0169 113.282 96.7607 113.04 97.2588 112.555C97.7568 112.066 98.0059 111.345 98.0059 110.392ZM103.65 114L103.489 113.238H103.45C103.183 113.574 102.916 113.801 102.649 113.922C102.386 114.039 102.055 114.098 101.658 114.098C101.128 114.098 100.711 113.961 100.408 113.688C100.109 113.414 99.959 113.025 99.959 112.521C99.959 111.44 100.823 110.873 102.552 110.821L103.46 110.792V110.46C103.46 110.04 103.369 109.731 103.187 109.532C103.007 109.33 102.719 109.229 102.322 109.229C101.876 109.229 101.372 109.366 100.809 109.64L100.56 109.02C100.823 108.876 101.111 108.764 101.424 108.683C101.74 108.601 102.055 108.561 102.371 108.561C103.009 108.561 103.481 108.702 103.787 108.985C104.096 109.269 104.251 109.723 104.251 110.348V114H103.65ZM101.819 113.429C102.324 113.429 102.719 113.29 103.006 113.014C103.296 112.737 103.44 112.35 103.44 111.852V111.368L102.63 111.402C101.985 111.425 101.52 111.526 101.233 111.705C100.95 111.881 100.809 112.156 100.809 112.53C100.809 112.823 100.896 113.046 101.072 113.199C101.251 113.352 101.5 113.429 101.819 113.429ZM107.654 113.429C107.798 113.429 107.936 113.419 108.069 113.399C108.203 113.377 108.309 113.354 108.387 113.331V113.951C108.299 113.993 108.169 114.028 107.996 114.054C107.827 114.083 107.674 114.098 107.537 114.098C106.502 114.098 105.984 113.552 105.984 112.462V109.278H105.218V108.888L105.984 108.551L106.326 107.408H106.795V108.648H108.348V109.278H106.795V112.428C106.795 112.75 106.871 112.997 107.024 113.17C107.177 113.342 107.387 113.429 107.654 113.429ZM112.752 114L112.591 113.238H112.552C112.285 113.574 112.018 113.801 111.751 113.922C111.487 114.039 111.157 114.098 110.76 114.098C110.229 114.098 109.812 113.961 109.51 113.688C109.21 113.414 109.061 113.025 109.061 112.521C109.061 111.44 109.925 110.873 111.653 110.821L112.562 110.792V110.46C112.562 110.04 112.47 109.731 112.288 109.532C112.109 109.33 111.821 109.229 111.424 109.229C110.978 109.229 110.473 109.366 109.91 109.64L109.661 109.02C109.925 108.876 110.213 108.764 110.525 108.683C110.841 108.601 111.157 108.561 111.473 108.561C112.111 108.561 112.583 108.702 112.889 108.985C113.198 109.269 113.353 109.723 113.353 110.348V114H112.752ZM110.921 113.429C111.425 113.429 111.821 113.29 112.107 113.014C112.397 112.737 112.542 112.35 112.542 111.852V111.368L111.731 111.402C111.087 111.425 110.621 111.526 110.335 111.705C110.052 111.881 109.91 112.156 109.91 112.53C109.91 112.823 109.998 113.046 110.174 113.199C110.353 113.352 110.602 113.429 110.921 113.429ZM122.234 114L121.346 111.729H118.484L117.605 114H116.766L119.588 106.832H120.286L123.094 114H122.234ZM121.087 110.982L120.257 108.771C120.149 108.491 120.039 108.147 119.925 107.74C119.853 108.053 119.751 108.396 119.617 108.771L118.777 110.982H121.087ZM128.602 108.941C128.602 109.664 128.354 110.221 127.859 110.611C127.368 110.999 126.663 111.192 125.745 111.192H124.905V114H124.075V106.861H125.926C127.71 106.861 128.602 107.555 128.602 108.941ZM124.905 110.479H125.652C126.388 110.479 126.92 110.361 127.249 110.123C127.578 109.885 127.742 109.505 127.742 108.98C127.742 108.508 127.588 108.157 127.278 107.926C126.969 107.695 126.487 107.579 125.833 107.579H124.905V110.479ZM130.101 114V106.861H130.931V114H130.101Z" fill="#333333"/>
<rect x="46" y="107" width="6" height="6" fill="#BDBDBD"/>
<path d="M43.3516 43H41.6914V30.1973H37.1699V28.7227H47.873V30.1973H43.3516V43ZM59.0254 37.6387C59.0254 39.3835 58.5859 40.7474 57.707 41.7305C56.8281 42.707 55.6139 43.1953 54.0645 43.1953C53.1074 43.1953 52.2578 42.9707 51.5156 42.5215C50.7734 42.0723 50.2005 41.4277 49.7969 40.5879C49.3932 39.748 49.1914 38.765 49.1914 37.6387C49.1914 35.8939 49.6276 34.5365 50.5 33.5664C51.3724 32.5898 52.5833 32.1016 54.1328 32.1016C55.6302 32.1016 56.8184 32.5996 57.6973 33.5957C58.5827 34.5918 59.0254 35.9395 59.0254 37.6387ZM50.8711 37.6387C50.8711 39.0059 51.1445 40.0475 51.6914 40.7637C52.2383 41.4798 53.0423 41.8379 54.1035 41.8379C55.1647 41.8379 55.9688 41.4831 56.5156 40.7734C57.069 40.0573 57.3457 39.0124 57.3457 37.6387C57.3457 36.278 57.069 35.2461 56.5156 34.543C55.9688 33.8333 55.1582 33.4785 54.084 33.4785C53.0228 33.4785 52.222 33.8268 51.6816 34.5234C51.1413 35.2201 50.8711 36.2585 50.8711 37.6387ZM63.4004 32.2969V39.2402C63.4004 40.1126 63.599 40.7637 63.9961 41.1934C64.3932 41.623 65.015 41.8379 65.8613 41.8379C66.9811 41.8379 67.7982 41.5319 68.3125 40.9199C68.8333 40.3079 69.0938 39.3086 69.0938 37.9219V32.2969H70.7148V43H69.377L69.1426 41.5645H69.0547C68.7227 42.0918 68.2604 42.4954 67.668 42.7754C67.082 43.0553 66.4115 43.1953 65.6562 43.1953C64.3542 43.1953 63.3776 42.8861 62.7266 42.2676C62.082 41.6491 61.7598 40.6595 61.7598 39.2988V32.2969H63.4004ZM78.4395 43.1953C76.89 43.1953 75.6888 42.7201 74.8359 41.7695C73.9896 40.8125 73.5664 39.4616 73.5664 37.7168C73.5664 35.9264 73.9961 34.543 74.8555 33.5664C75.7214 32.5898 76.9518 32.1016 78.5469 32.1016C79.0612 32.1016 79.5755 32.1569 80.0898 32.2676C80.6042 32.3783 81.0078 32.5085 81.3008 32.6582L80.8027 34.0352C80.4447 33.8919 80.054 33.7747 79.6309 33.6836C79.2077 33.5859 78.8333 33.5371 78.5078 33.5371C76.3333 33.5371 75.2461 34.9238 75.2461 37.6973C75.2461 39.0124 75.5098 40.0215 76.0371 40.7246C76.571 41.4277 77.3587 41.7793 78.4004 41.7793C79.2923 41.7793 80.207 41.5872 81.1445 41.2031V42.6387C80.4284 43.0098 79.5267 43.1953 78.4395 43.1953ZM91.0176 43V36.0762C91.0176 35.2038 90.819 34.5527 90.4219 34.123C90.0247 33.6934 89.403 33.4785 88.5566 33.4785C87.4303 33.4785 86.6068 33.7845 86.0859 34.3965C85.5716 35.0085 85.3145 36.0111 85.3145 37.4043V43H83.6934V27.8047H85.3145V32.4043C85.3145 32.9577 85.2884 33.4167 85.2363 33.7812H85.334C85.653 33.2669 86.1055 32.8633 86.6914 32.5703C87.2839 32.2708 87.9577 32.1211 88.7129 32.1211C90.0215 32.1211 91.0013 32.4336 91.6523 33.0586C92.3099 33.6771 92.6387 34.6634 92.6387 36.0176V43H91.0176ZM100.959 43.1953C100.262 43.1953 99.6243 43.0684 99.0449 42.8145C98.472 42.554 97.9902 42.1569 97.5996 41.623H97.4824C97.5605 42.248 97.5996 42.8405 97.5996 43.4004V47.8047H95.9785V32.2969H97.2969L97.5215 33.7617H97.5996C98.0163 33.1758 98.5013 32.7526 99.0547 32.4922C99.6081 32.2318 100.243 32.1016 100.959 32.1016C102.378 32.1016 103.472 32.5866 104.24 33.5566C105.015 34.5267 105.402 35.8874 105.402 37.6387C105.402 39.3965 105.008 40.7637 104.221 41.7402C103.439 42.7103 102.352 43.1953 100.959 43.1953ZM100.725 33.4785C99.6309 33.4785 98.8398 33.7812 98.3516 34.3867C97.8633 34.9922 97.6126 35.9557 97.5996 37.2773V37.6387C97.5996 39.1426 97.8503 40.2201 98.3516 40.8711C98.8529 41.5156 99.6569 41.8379 100.764 41.8379C101.688 41.8379 102.411 41.4635 102.932 40.7148C103.459 39.9661 103.723 38.9342 103.723 37.6191C103.723 36.2845 103.459 35.2624 102.932 34.5527C102.411 33.8366 101.675 33.4785 100.725 33.4785ZM117.482 37.6387C117.482 39.3835 117.043 40.7474 116.164 41.7305C115.285 42.707 114.071 43.1953 112.521 43.1953C111.564 43.1953 110.715 42.9707 109.973 42.5215C109.23 42.0723 108.658 41.4277 108.254 40.5879C107.85 39.748 107.648 38.765 107.648 37.6387C107.648 35.8939 108.085 34.5365 108.957 33.5664C109.829 32.5898 111.04 32.1016 112.59 32.1016C114.087 32.1016 115.275 32.5996 116.154 33.5957C117.04 34.5918 117.482 35.9395 117.482 37.6387ZM109.328 37.6387C109.328 39.0059 109.602 40.0475 110.148 40.7637C110.695 41.4798 111.499 41.8379 112.561 41.8379C113.622 41.8379 114.426 41.4831 114.973 40.7734C115.526 40.0573 115.803 39.0124 115.803 37.6387C115.803 36.278 115.526 35.2461 114.973 34.543C114.426 33.8333 113.615 33.4785 112.541 33.4785C111.48 33.4785 110.679 33.8268 110.139 34.5234C109.598 35.2201 109.328 36.2585 109.328 37.6387ZM121.955 43H120.334V32.2969H121.955V43ZM120.197 29.3965C120.197 29.0254 120.288 28.7552 120.471 28.5859C120.653 28.4102 120.881 28.3223 121.154 28.3223C121.415 28.3223 121.639 28.4102 121.828 28.5859C122.017 28.7617 122.111 29.0319 122.111 29.3965C122.111 29.7611 122.017 30.0345 121.828 30.2168C121.639 30.3926 121.415 30.4805 121.154 30.4805C120.881 30.4805 120.653 30.3926 120.471 30.2168C120.288 30.0345 120.197 29.7611 120.197 29.3965ZM132.717 43V36.0762C132.717 35.2038 132.518 34.5527 132.121 34.123C131.724 33.6934 131.102 33.4785 130.256 33.4785C129.136 33.4785 128.316 33.7812 127.795 34.3867C127.274 34.9922 127.014 35.9915 127.014 37.3848V43H125.393V32.2969H126.711L126.975 33.7617H127.053C127.385 33.2344 127.85 32.8275 128.449 32.541C129.048 32.248 129.715 32.1016 130.451 32.1016C131.74 32.1016 132.71 32.4141 133.361 33.0391C134.012 33.6576 134.338 34.6504 134.338 36.0176V43H132.717ZM141.135 41.8574C141.421 41.8574 141.698 41.8379 141.965 41.7988C142.232 41.7533 142.443 41.7077 142.6 41.6621V42.9023C142.424 42.987 142.163 43.0553 141.818 43.1074C141.48 43.166 141.174 43.1953 140.9 43.1953C138.83 43.1953 137.795 42.1048 137.795 39.9238V33.5566H136.262V32.7754L137.795 32.1016L138.479 29.8164H139.416V32.2969H142.521V33.5566H139.416V39.8555C139.416 40.5 139.569 40.9948 139.875 41.3398C140.181 41.6849 140.601 41.8574 141.135 41.8574ZM151.652 40.0801C151.652 41.0762 151.281 41.8444 150.539 42.3848C149.797 42.9251 148.755 43.1953 147.414 43.1953C145.995 43.1953 144.888 42.9707 144.094 42.5215V41.0176C144.608 41.278 145.158 41.4831 145.744 41.6328C146.337 41.7826 146.906 41.8574 147.453 41.8574C148.299 41.8574 148.951 41.724 149.406 41.457C149.862 41.1836 150.09 40.7702 150.09 40.2168C150.09 39.8001 149.908 39.4453 149.543 39.1523C149.185 38.8529 148.482 38.5013 147.434 38.0977C146.438 37.7266 145.728 37.4043 145.305 37.1309C144.888 36.8509 144.576 36.5352 144.367 36.1836C144.165 35.832 144.064 35.4121 144.064 34.9238C144.064 34.0514 144.419 33.3646 145.129 32.8633C145.839 32.3555 146.812 32.1016 148.049 32.1016C149.201 32.1016 150.327 32.3359 151.428 32.8047L150.852 34.123C149.777 33.6803 148.804 33.459 147.932 33.459C147.163 33.459 146.584 33.5794 146.193 33.8203C145.803 34.0612 145.607 34.3932 145.607 34.8164C145.607 35.1029 145.679 35.347 145.822 35.5488C145.972 35.7507 146.21 35.9427 146.535 36.125C146.861 36.3073 147.486 36.571 148.41 36.916C149.68 37.3783 150.536 37.8438 150.979 38.3125C151.428 38.7812 151.652 39.3704 151.652 40.0801Z" fill="#333333"/>
<path d="M207.445 41.6621L205.008 35.2402H206.051L207.434 39.0488C207.746 39.9395 207.93 40.5176 207.984 40.7832H208.031C208.074 40.5762 208.209 40.1484 208.436 39.5C208.666 38.8477 209.18 37.4277 209.977 35.2402H211.02L208.582 41.6621H207.445ZM213.023 41.6621H212.051V35.2402H213.023V41.6621ZM211.969 33.5C211.969 33.2773 212.023 33.1152 212.133 33.0137C212.242 32.9082 212.379 32.8555 212.543 32.8555C212.699 32.8555 212.834 32.9082 212.947 33.0137C213.061 33.1191 213.117 33.2812 213.117 33.5C213.117 33.7188 213.061 33.8828 212.947 33.9922C212.834 34.0977 212.699 34.1504 212.543 34.1504C212.379 34.1504 212.242 34.0977 212.133 33.9922C212.023 33.8828 211.969 33.7188 211.969 33.5ZM217.799 41.7793C216.85 41.7793 216.1 41.4902 215.549 40.9121C215.002 40.334 214.729 39.5312 214.729 38.5039C214.729 37.4688 214.982 36.6465 215.49 36.0371C216.002 35.4277 216.688 35.123 217.547 35.123C218.352 35.123 218.988 35.3887 219.457 35.9199C219.926 36.4473 220.16 37.1445 220.16 38.0117V38.627H215.736C215.756 39.3809 215.945 39.9531 216.305 40.3438C216.668 40.7344 217.178 40.9297 217.834 40.9297C218.525 40.9297 219.209 40.7852 219.885 40.4961V41.3633C219.541 41.5117 219.215 41.6172 218.906 41.6797C218.602 41.7461 218.232 41.7793 217.799 41.7793ZM217.535 35.9375C217.02 35.9375 216.607 36.1055 216.299 36.4414C215.994 36.7773 215.814 37.2422 215.76 37.8359H219.117C219.117 37.2227 218.98 36.7539 218.707 36.4297C218.434 36.1016 218.043 35.9375 217.535 35.9375ZM227.068 41.6621L225.891 37.8945C225.816 37.6641 225.678 37.1406 225.475 36.3242H225.428C225.271 37.0078 225.135 37.5352 225.018 37.9062L223.805 41.6621H222.68L220.928 35.2402H221.947C222.361 36.8535 222.676 38.082 222.891 38.9258C223.109 39.7695 223.234 40.3379 223.266 40.6309H223.312C223.355 40.4082 223.424 40.1211 223.518 39.7695C223.615 39.4141 223.699 39.1328 223.77 38.9258L224.947 35.2402H226.002L227.15 38.9258C227.369 39.5977 227.518 40.1621 227.596 40.6191H227.643C227.658 40.4785 227.699 40.2617 227.766 39.9688C227.836 39.6758 228.244 38.0996 228.99 35.2402H229.998L228.223 41.6621H227.068ZM238.23 41.6621L238.037 40.748H237.99C237.67 41.1504 237.35 41.4238 237.029 41.5684C236.713 41.709 236.316 41.7793 235.84 41.7793C235.203 41.7793 234.703 41.6152 234.34 41.2871C233.98 40.959 233.801 40.4922 233.801 39.8867C233.801 38.5898 234.838 37.9102 236.912 37.8477L238.002 37.8125V37.4141C238.002 36.9102 237.893 36.5391 237.674 36.3008C237.459 36.0586 237.113 35.9375 236.637 35.9375C236.102 35.9375 235.496 36.1016 234.82 36.4297L234.521 35.6855C234.838 35.5137 235.184 35.3789 235.559 35.2812C235.938 35.1836 236.316 35.1348 236.695 35.1348C237.461 35.1348 238.027 35.3047 238.395 35.6445C238.766 35.9844 238.951 36.5293 238.951 37.2793V41.6621H238.23ZM236.033 40.9766C236.639 40.9766 237.113 40.8105 237.457 40.4785C237.805 40.1465 237.979 39.6816 237.979 39.084V38.5039L237.006 38.5449C236.232 38.5723 235.674 38.6934 235.33 38.9082C234.99 39.1191 234.82 39.4492 234.82 39.8984C234.82 40.25 234.926 40.5176 235.137 40.7012C235.352 40.8848 235.65 40.9766 236.033 40.9766ZM241.934 41.6621H240.961V32.5449H241.934V41.6621ZM244.969 41.6621H243.996V32.5449H244.969V41.6621Z" fill="#828282"/>
<rect x="187.5" y="31.1621" width="12" height="12" rx="2.5" fill="#F7F7F8" stroke="#767B7F"/>
<path d="M190 37.6621L192.5 40.1621L197 34.1621" stroke="#0078BF"/>
</svg>
