<svg width="28" height="28" viewBox="0 0 28 28" fill="none" xmlns="http://www.w3.org/2000/svg">
<path d="M14 10.3889C13.5918 10.3889 13.2778 10.688 13.2778 11.077V14.7564C13.2778 15.1452 13.5917 15.4444 14 15.4444C14.4081 15.4444 14.7222 15.1453 14.7222 14.7564V11.077C14.7222 10.718 14.4081 10.3889 14 10.3889Z" fill="#1CBC8B" stroke="#1CBC8B" stroke-width="0.3"/>
<path d="M14 16.1667C13.5918 16.1667 13.2778 16.4366 13.2778 16.7877V16.9901C13.2778 17.3411 13.5917 17.6111 14 17.6111C14.4081 17.6111 14.7222 17.3412 14.7222 16.9901V16.7877C14.7222 16.4367 14.4081 16.1667 14 16.1667Z" fill="#1CBC8B" stroke="#1CBC8B" stroke-width="0.3"/>
<path d="M26.6606 11.8194C26.4355 11.5643 26.0982 11.4378 25.7608 11.4817L24.8084 11.6052H24.8082C24.5312 10.3429 24.0324 9.13982 23.3347 8.05177L24.097 7.46468C24.3667 7.25701 24.5157 6.9291 24.4944 6.58934C24.4807 6.25921 24.3406 5.94704 24.1029 5.71731L22.2839 3.89828C22.0544 3.66059 21.742 3.52054 21.4119 3.50682C21.0721 3.48552 20.744 3.63428 20.5365 3.9042L19.9494 4.66653C18.8612 3.96828 17.6574 3.46921 16.3945 3.19205L16.5186 2.23926C16.5623 1.9019 16.4356 1.56471 16.1807 1.33944C15.9371 1.11546 15.6168 0.993931 15.2861 1.00023H12.714C12.3833 0.993935 12.063 1.11547 11.8194 1.33944C11.5645 1.56471 11.4378 1.90187 11.4815 2.23926L11.6056 3.19205C10.3431 3.4692 9.13982 3.96809 8.05177 4.66559L7.46468 3.90288V3.90306C7.25719 3.63314 6.92909 3.48438 6.58933 3.50568C6.2592 3.51939 5.94704 3.65945 5.7173 3.89713L3.89827 5.71617C3.66058 5.9457 3.52053 6.25806 3.50682 6.58819C3.48551 6.92777 3.63446 7.25586 3.9042 7.46354L4.66691 8.05063H4.66672C3.96866 9.13882 3.46921 10.3426 3.19205 11.6056L2.23926 11.4816C1.9019 11.4377 1.56452 11.5642 1.33944 11.8193C1.11546 12.063 0.993931 12.3833 1.00023 12.7139V15.2861C0.993935 15.6168 1.11546 15.9371 1.33944 16.1807C1.56453 16.4358 1.90168 16.5623 2.23926 16.5186L3.19205 16.3945C3.46883 17.657 3.96771 18.8602 4.66539 19.9483L3.90307 20.5354C3.63333 20.7431 3.48438 21.071 3.50569 21.4107C3.51939 21.7409 3.65945 22.053 3.89714 22.2828L5.71617 24.1018C5.94589 24.3393 6.25806 24.4793 6.5882 24.4932C6.92778 24.5144 7.25586 24.3654 7.46354 24.0959L8.05063 23.3335C9.13864 24.0312 10.3419 24.5299 11.6045 24.8069L11.4805 25.7597C11.4366 26.0976 11.5637 26.4353 11.8194 26.6606C12.063 26.8844 12.3833 27.0059 12.714 26.9998H15.2861C15.6166 27.0059 15.9371 26.8846 16.1807 26.6609C16.4358 26.4357 16.5623 26.0983 16.5186 25.7608L16.3945 24.808C17.657 24.531 18.8603 24.0322 19.9483 23.3347L20.5354 24.097C20.7431 24.3665 21.0712 24.5155 21.4107 24.4944C21.7409 24.4805 22.053 24.3404 22.2828 24.1029L24.1018 22.2839C24.3395 22.0543 24.4795 21.742 24.4933 21.4119C24.5146 21.0723 24.3656 20.7442 24.0959 20.5365L23.3335 19.9494C24.0312 18.8614 24.53 17.6582 24.8069 16.3956L25.7597 16.5195C26.0976 16.5634 26.4355 16.4365 26.6606 16.1807C26.8844 15.9371 27.0059 15.6167 26.9998 15.2861V12.714C27.0061 12.3833 26.8846 12.063 26.6606 11.8194ZM26.0893 15.2862C26.0945 15.3867 26.0602 15.4853 25.9937 15.5609C25.9361 15.623 25.9025 15.6185 25.8783 15.6168L24.5037 15.4383C24.2628 15.4069 24.04 15.57 23.997 15.809C23.7413 17.2397 23.1781 18.598 22.3461 19.7898C22.2075 19.9893 22.2498 20.2624 22.4422 20.4106L23.5416 21.2569C23.5612 21.2719 23.5877 21.2925 23.5846 21.3773C23.5783 21.4777 23.5329 21.5717 23.458 21.6389L21.6388 23.4581C21.5716 23.533 21.4774 23.5784 21.3769 23.5847C21.2929 23.588 21.2726 23.5622 21.2566 23.5417L20.4105 22.4429C20.2623 22.2504 19.9893 22.2082 19.7897 22.3468C18.5976 23.1788 17.2391 23.7421 15.808 23.9976C15.569 24.0406 15.4058 24.2637 15.4371 24.5045L15.6157 25.8789C15.6188 25.9032 15.6233 25.9367 15.5597 25.9943C15.4843 26.061 15.3858 26.0953 15.2852 26.0899H12.7139C12.6135 26.0953 12.515 26.0609 12.4394 25.9943C12.377 25.9367 12.3816 25.9032 12.3834 25.8789L12.562 24.5043H12.5622C12.5935 24.2635 12.4303 24.0406 12.1915 23.9976C10.7606 23.7418 9.40228 23.1784 8.21031 22.3462C8.01079 22.2075 7.73753 22.2497 7.58951 22.4424L6.74342 23.5417C6.72749 23.5625 6.70767 23.5884 6.62319 23.5847C6.52259 23.5784 6.42848 23.533 6.36123 23.4582L4.54201 21.639C4.46717 21.5717 4.42177 21.4776 4.41548 21.377C4.41233 21.2931 4.439 21.272 4.45846 21.2568L5.55723 20.4107C5.74971 20.2625 5.79195 19.9894 5.65337 19.7899C4.82119 18.5979 4.258 17.2392 4.00251 15.8081C3.95953 15.5693 3.73685 15.4061 3.49619 15.4372L2.12178 15.6158C2.09751 15.619 2.06398 15.6234 2.00636 15.5599C1.93986 15.4843 1.90558 15.3857 1.91077 15.2851V12.7141C1.9054 12.6135 1.93986 12.5149 2.00636 12.4394C2.06398 12.3773 2.09751 12.3817 2.12178 12.3834L3.49638 12.562C3.73722 12.5933 3.96008 12.4303 4.00308 12.1913C4.25874 10.7605 4.82213 9.4022 5.65394 8.21043C5.79252 8.0109 5.75028 7.73802 5.55798 7.58962L4.45845 6.74353C4.43807 6.7276 4.41232 6.70796 4.41547 6.6233C4.42177 6.5227 4.46716 6.42859 4.542 6.36134L6.36123 4.54212C6.42848 4.46728 6.52259 4.42189 6.62318 4.41559C6.7071 4.41244 6.72822 4.43911 6.74342 4.45857L7.5895 5.55734C7.73789 5.74945 8.01078 5.79188 8.21031 5.65349C9.40246 4.8213 10.7611 4.25792 12.1923 4.00229C12.4309 3.9595 12.5939 3.737 12.563 3.49654L12.3844 2.12194C12.3812 2.09767 12.3768 2.06413 12.4403 2.00652C12.5159 1.94002 12.6145 1.90556 12.7151 1.91093H15.2872C15.3876 1.90556 15.4862 1.93983 15.5617 2.00652C15.6242 2.06413 15.6195 2.09767 15.6177 2.12194L15.4371 3.49654C15.4058 3.73738 15.5688 3.96024 15.8078 4.00324C17.2389 4.25871 18.5976 4.82191 19.7897 5.6541C19.9892 5.79268 20.2623 5.75043 20.4105 5.55796L21.2568 4.45861C21.2718 4.43898 21.2924 4.41211 21.3772 4.41563C21.4776 4.42193 21.5716 4.46732 21.6388 4.54217L23.458 6.36139C23.5329 6.42864 23.5783 6.52275 23.5846 6.62335C23.5877 6.70727 23.561 6.72838 23.5416 6.74358L22.4428 7.58966C22.2503 7.73787 22.2081 8.01094 22.3467 8.21047C23.1789 9.40244 23.7422 10.7611 23.9975 12.1922C24.0405 12.4314 24.2636 12.5946 24.5044 12.5631L25.879 12.3845C25.9033 12.3814 25.9366 12.3773 25.9942 12.4405C26.0608 12.5161 26.0952 12.6146 26.0898 12.7152L26.0893 15.2862ZM13.9998 6.55119C12.0243 6.55119 10.1298 7.33595 8.73269 8.73279C7.33584 10.1298 6.55108 12.0243 6.55108 14C6.55108 15.9756 7.33584 17.87 8.73269 19.2671C10.1297 20.664 12.0242 21.4487 13.9998 21.4487C15.9755 21.4487 17.8699 20.664 19.267 19.2671C20.6639 17.8701 21.4486 15.9756 21.4486 14C21.4464 12.0251 20.6609 10.1318 19.2646 8.73517C17.8681 7.33889 15.9748 6.55337 13.9998 6.55114L13.9998 6.55119ZM13.9998 20.5381C12.2658 20.5381 10.6028 19.8494 9.37674 18.6231C8.15053 17.397 7.46171 15.734 7.46171 14C7.46171 12.266 8.15048 10.6029 9.37674 9.37689C10.6028 8.15068 12.2658 7.46187 13.9998 7.46187C15.7338 7.46187 17.3969 8.15064 18.623 9.37689C19.8492 10.603 20.538 12.266 20.538 14C20.5361 15.7335 19.8466 17.3954 18.6209 18.6211C17.3952 19.8468 15.7333 20.5363 13.9998 20.5382L13.9998 20.5381Z" fill="#1CBC8B" stroke="#1CBC8B" stroke-width="0.3"/>
</svg>
