<svg width="25" height="22" viewBox="0 0 25 22" fill="none" xmlns="http://www.w3.org/2000/svg">
<path d="M23.8502 16.5198L15.2709 1.80015C14.6209 0.661853 13.477 0 12.2032 0C10.9293 0 9.75938 0.661853 9.13557 1.80015L0.55628 16.5198C-0.171845 17.6581 -0.171845 19.0348 0.478119 20.1732C1.12807 21.3115 2.27202 22 3.59781 22H20.7304C22.0562 22 23.2001 21.3117 23.8501 20.1732C24.5261 19.0348 24.5261 17.6581 23.8503 16.5198H23.8502ZM21.7962 19.0084C21.6662 19.2202 21.4063 19.6172 20.7564 19.6172H3.59784C2.9479 19.6172 2.68783 19.1672 2.55802 19.0084C2.428 18.7966 2.2461 18.3201 2.55802 17.7905L11.1373 3.07086C11.4492 2.54142 11.9693 2.462 12.1771 2.462C12.3851 2.462 12.9051 2.515 13.217 3.07086L21.7962 17.7905C22.1343 18.3199 21.8742 18.7965 21.7962 19.0084Z" fill="#4F4F4F"/>
<path d="M12.1771 5.82422C11.5012 5.82422 10.9811 6.35365 10.9811 7.04212V13.5548C10.9811 14.243 11.5011 14.7727 12.1771 14.7727C12.853 14.7727 13.3731 14.2432 13.3731 13.5548V7.04212C13.3731 6.4067 12.853 5.82422 12.1771 5.82422Z" fill="#4F4F4F"/>
<path d="M12.1771 15.4343C11.5012 15.4343 10.9811 15.9638 10.9811 16.6522V17.0493C10.9811 17.7375 11.5011 18.2672 12.1771 18.2672C12.853 18.2672 13.3731 17.7377 13.3731 17.0493V16.6522C13.3731 15.9638 12.853 15.4343 12.1771 15.4343Z" fill="#4F4F4F"/>
</svg>
