<svg width="10" height="10" viewBox="0 0 10 10" fill="none" xmlns="http://www.w3.org/2000/svg">
<path d="M5 0C2.24308 0 0 2.24308 0 5C0 7.75692 2.24308 10 5 10C7.75692 10 10 7.75692 10 5C10 2.24308 7.75692 0 5 0ZM5 9.23077C2.66725 9.23077 0.769231 7.33286 0.769231 5C0.769231 2.66714 2.66714 0.769231 5 0.769231C7.33286 0.769231 9.23077 2.66714 9.23077 5C9.23077 7.33286 7.33286 9.23077 5 9.23077Z" fill="black"/>
<path d="M5.3845 4.79429V2.94864C5.3845 2.73633 5.21219 2.56403 4.99988 2.56403C4.78757 2.56403 4.61526 2.73633 4.61526 2.94864V4.99989C4.61526 5.12859 4.6794 5.2486 4.78654 5.31987L6.325 6.34554C6.39068 6.38916 6.46451 6.41019 6.53783 6.41019C6.66197 6.41019 6.78396 6.35018 6.85831 6.23891C6.97576 6.06197 6.92854 5.82357 6.75168 5.7056L5.3845 4.79429Z" fill="black"/>
</svg>
