<svg width="23" height="19" viewBox="0 0 23 19" fill="none" xmlns="http://www.w3.org/2000/svg">
<path fill-rule="evenodd" clip-rule="evenodd" d="M15.2673 3.47052C16.1467 3.14055 16.5864 4.46046 15.707 4.79044C14.8276 5.01042 14.3879 3.8005 15.2673 3.47052ZM6.58349 12.4899C6.36364 12.5999 6.03387 13.0399 5.81403 13.2599C5.1545 13.9198 0.208008 18.7595 0.208008 18.9795C0.757618 18.9795 1.30723 18.9795 1.74692 18.9795C2.1866 18.9795 2.07668 18.9795 2.29653 18.7595L7.35294 13.6998C7.46286 13.6998 7.46286 13.8098 7.57278 13.9198C9.22161 15.8997 11.7498 16.8896 14.3879 16.7796C15.9269 16.6696 16.9162 16.2297 18.2352 15.4597C18.4551 15.3497 19.0047 14.9098 19.2245 14.6898C19.3344 14.5798 19.5543 14.4698 19.6642 14.2498L20.1039 13.8098C20.3237 13.5899 20.6535 13.1499 20.7634 12.8199C21.2031 12.05 21.5329 11.39 21.7527 10.4001C21.9726 9.74011 22.1924 7.87023 21.9726 7.32027C21.9726 5.89036 20.9833 3.58052 19.994 2.59058C19.7741 2.3706 19.6642 2.26061 19.4444 2.04062C18.2352 1.16068 16.5864 0.610715 15.1574 1.27067C14.3879 1.60065 13.7284 2.15061 13.3987 2.92056C13.2887 3.25054 13.1788 3.69051 13.0689 3.69051C12.5193 3.69051 11.4201 3.47052 11.6399 4.24047C11.6399 4.35047 11.8597 4.57045 11.9697 4.57045C12.1895 4.79044 13.0689 5.78037 13.2887 5.78037V5.89036L9.22161 9.96009L9.11169 10.0701L8.01247 11.17C7.79263 11.39 7.57278 11.61 7.46286 11.72C7.24302 11.94 7.02317 12.1599 6.91325 12.2699L6.58349 12.4899Z" fill="#F2C94C"/>
</svg>
