<svg width="23" height="19" viewBox="0 0 23 19" fill="none" xmlns="http://www.w3.org/2000/svg">
<path fill-rule="evenodd" clip-rule="evenodd" d="M15.9167 3.47052C16.7961 3.14055 17.2358 4.46046 16.3564 4.79044C15.4771 5.01042 15.0374 3.8005 15.9167 3.47052ZM7.2329 12.4899C7.01306 12.5999 6.68329 13.0399 6.46344 13.2599C5.80391 13.9198 0.857422 18.7595 0.857422 18.9795C1.40703 18.9795 1.95664 18.9795 2.39633 18.9795C2.83602 18.9795 2.7261 18.9795 2.94594 18.7595L8.00235 13.6998C8.11228 13.6998 8.11228 13.8098 8.2222 13.9198C9.87103 15.8997 12.3992 16.8896 15.0374 16.7796C16.5763 16.6696 17.5656 16.2297 18.8846 15.4597C19.1045 15.3497 19.6541 14.9098 19.8739 14.6898C19.9839 14.5798 20.2037 14.4698 20.3136 14.2498L20.7533 13.8098C20.9732 13.5899 21.3029 13.1499 21.4128 12.8199C21.8525 12.05 22.1823 11.39 22.4021 10.4001C22.622 9.74011 22.8418 7.87023 22.622 7.32027C22.622 5.89036 21.6327 3.58052 20.6434 2.59058C20.4235 2.3706 20.3136 2.26061 20.0938 2.04062C18.8846 1.16068 17.2358 0.610715 15.8068 1.27067C15.0374 1.60065 14.3778 2.15061 14.0481 2.92056C13.9381 3.25054 13.8282 3.69051 13.7183 3.69051C13.1687 3.69051 12.0695 3.47052 12.2893 4.24047C12.2893 4.35047 12.5092 4.57045 12.6191 4.57045C12.8389 4.79044 13.7183 5.78037 13.9381 5.78037V5.89036L9.87103 9.96009L9.76111 10.0701L8.66189 11.17C8.44204 11.39 8.2222 11.61 8.11228 11.72C7.89243 11.94 7.67259 12.1599 7.56267 12.2699L7.2329 12.4899Z" fill="#BDBDBD"/>
</svg>
