<svg width="16" height="13" viewBox="0 0 16 13" fill="none" xmlns="http://www.w3.org/2000/svg">
<path fill-rule="evenodd" clip-rule="evenodd" d="M11.0246 1.79908C11.6684 1.56076 11.9902 2.51403 11.3465 2.75235C10.7027 2.91123 10.3808 2.0374 11.0246 1.79908ZM4.66734 8.31309C4.5064 8.39253 4.26498 8.71029 4.10404 8.86916C3.62121 9.3458 0 12.8411 0 13C0.402357 13 0.804714 13 1.1266 13C1.44849 13 1.36801 13 1.52896 12.8411L5.23064 9.18692C5.31111 9.18692 5.31111 9.26636 5.39158 9.3458C6.59865 10.7757 8.4495 11.4907 10.3808 11.4112C11.5074 11.3318 12.2317 11.014 13.1973 10.4579C13.3583 10.3785 13.7606 10.0608 13.9216 9.90187C14.002 9.82243 14.163 9.74299 14.2434 9.58412L14.5653 9.26636C14.7263 9.10748 14.9677 8.78972 15.0482 8.55141C15.37 7.99533 15.6114 7.5187 15.7724 6.80375C15.9333 6.32711 16.0943 4.97665 15.9333 4.57945C15.9333 3.54674 15.2091 1.87852 14.4848 1.16357C14.3239 1.00469 14.2434 0.925248 14.0825 0.76637C13.1973 0.130857 11.9902 -0.266339 10.9441 0.210296C10.3808 0.448613 9.89798 0.845809 9.65657 1.40188C9.5761 1.6402 9.49562 1.95796 9.41515 1.95796C9.0128 1.95796 8.20808 1.79908 8.36902 2.35515C8.36902 2.43459 8.52997 2.59347 8.61044 2.59347C8.77138 2.75235 9.41515 3.4673 9.5761 3.4673V3.54674L6.59865 6.48599L6.51818 6.56543L5.71347 7.35982C5.55253 7.5187 5.39158 7.67758 5.31111 7.75702C5.15017 7.91589 4.98923 8.07477 4.90875 8.15421L4.66734 8.31309Z" fill="#333333"/>
</svg>
