<svg width="42" height="42" viewBox="0 0 42 42" fill="none" xmlns="http://www.w3.org/2000/svg">
<circle cx="21" cy="21" r="21" fill="#ECEEEE"/>
<path fill-rule="evenodd" clip-rule="evenodd" d="M3 21C3 11.0506 11.0513 3 21 3C30.9494 3 39 11.0513 39 21C39 30.9494 30.9487 39 21 39C11.0506 39 3 30.9487 3 21ZM5.8125 21C5.8125 29.3948 12.6058 36.1875 21 36.1875C29.3948 36.1875 36.1875 29.3943 36.1875 21C36.1875 12.6052 29.3942 5.8125 21 5.8125C12.6052 5.8125 5.8125 12.6057 5.8125 21ZM22.9907 20.9997L27.1604 25.1694C27.7096 25.7185 27.7096 26.6089 27.1604 27.1581C26.6112 27.7073 25.7207 27.7073 25.1717 27.1581L21.002 22.9884L16.8322 27.1581C16.2832 27.7072 15.3929 27.7074 14.8435 27.1581C14.2943 26.609 14.2944 25.7186 14.8436 25.1694L19.0133 20.9997L14.8436 16.83C14.2944 16.2809 14.2944 15.3905 14.8435 14.8413C15.3927 14.2921 16.2832 14.2921 16.8322 14.8413L21.002 19.011L25.1717 14.8413C25.7208 14.2922 26.6112 14.2921 27.1604 14.8413C27.7096 15.3905 27.7095 16.2809 27.1604 16.83L22.9907 20.9997Z" fill="#333333"/>
</svg>
