<svg width="17" height="17" viewBox="0 0 17 17" fill="none" xmlns="http://www.w3.org/2000/svg">
<path fill-rule="evenodd" clip-rule="evenodd" d="M8.5 17C6.24563 17 4.08367 16.1045 2.48963 14.5104C0.895529 12.9164 0 10.7543 0 8.5C0 6.24569 0.895529 4.08367 2.48963 2.48963C4.08361 0.895529 6.24569 0 8.5 0C10.7543 0 12.9163 0.895529 14.5104 2.48963C16.1045 4.08361 17 6.24569 17 8.5C17 10.7543 16.1045 12.9163 14.5104 14.5104C12.9164 16.1045 10.7543 17 8.5 17ZM8.5 1.41688C6.62142 1.41688 4.81983 2.16311 3.49141 3.49147C2.16305 4.81983 1.41682 6.62157 1.41682 8.50006C1.41682 10.3785 2.16305 12.1802 3.49141 13.5086C4.81977 14.837 6.62151 15.5832 8.5 15.5832C10.3785 15.5832 12.1802 14.837 13.5086 13.5086C14.8369 12.1803 15.5832 10.3785 15.5832 8.50006C15.5832 7.25673 15.2559 6.03523 14.6343 4.95832C14.0126 3.88159 13.1183 2.98736 12.0416 2.36565C10.9648 1.74404 9.74327 1.41676 8.49988 1.41676L8.5 1.41688ZM10.0796 11.1211L8.00421 9.03926C7.85788 8.89542 7.78045 8.69574 7.79171 8.49095V4.95862C7.79171 4.70557 7.92666 4.47173 8.14579 4.3452C8.36493 4.21867 8.63506 4.21867 8.8542 4.3452C9.07335 4.47173 9.20829 4.70557 9.20829 4.95862V8.16796L11.1208 10.0804V10.0806C11.3067 10.2665 11.3792 10.5376 11.3111 10.7915C11.2429 11.0455 11.0444 11.2438 10.7904 11.3118C10.5364 11.3798 10.2655 11.3071 10.0796 11.121L10.0796 11.1211Z" fill="#BDBDBD"/>
</svg>
