<svg width="18" height="17" viewBox="0 0 18 17" fill="none" xmlns="http://www.w3.org/2000/svg">
<path fill-rule="evenodd" clip-rule="evenodd" d="M9.18457 17C6.9302 17 4.76824 16.1045 3.1742 14.5104C1.5801 12.9164 0.68457 10.7543 0.68457 8.5C0.68457 6.24569 1.5801 4.08367 3.1742 2.48963C4.76818 0.895529 6.93026 0 9.18457 0C11.4389 0 13.6009 0.895529 15.1949 2.48963C16.789 4.08361 17.6846 6.24569 17.6846 8.5C17.6846 10.7543 16.789 12.9163 15.1949 14.5104C13.601 16.1045 11.4389 17 9.18457 17ZM9.18457 1.41688C7.30599 1.41688 5.5044 2.16311 4.17598 3.49147C2.84762 4.81983 2.10139 6.62157 2.10139 8.50006C2.10139 10.3785 2.84762 12.1802 4.17598 13.5086C5.50434 14.837 7.30608 15.5832 9.18457 15.5832C11.0631 15.5832 12.8647 14.837 14.1932 13.5086C15.5215 12.1803 16.2678 10.3785 16.2678 8.50006C16.2678 7.25673 15.9405 6.03523 15.3189 4.95832C14.6971 3.88159 13.8029 2.98736 12.7262 2.36565C11.6493 1.74404 10.4278 1.41676 9.18445 1.41676L9.18457 1.41688ZM10.7642 11.1211L8.68878 9.03926C8.54245 8.89542 8.46502 8.69574 8.47628 8.49095V4.95862C8.47628 4.70557 8.61123 4.47173 8.83037 4.3452C9.0495 4.21867 9.31963 4.21867 9.53877 4.3452C9.75792 4.47173 9.89286 4.70557 9.89286 4.95862V8.16796L11.8053 10.0804V10.0806C11.9913 10.2665 12.0637 10.5376 11.9957 10.7915C11.9275 11.0455 11.729 11.2438 11.475 11.3118C11.221 11.3798 10.95 11.3071 10.7642 11.121L10.7642 11.1211Z" fill="#0078BF"/>
</svg>
