<?xml version="1.0" encoding="utf-8"?>
<!-- Svg Vector Icons : http://www.onlinewebfonts.com/icon -->
<!DOCTYPE svg PUBLIC "-//W3C//DTD SVG 1.1//EN" "http://www.w3.org/Graphics/SVG/1.1/DTD/svg11.dtd">
<svg version="1.1" xmlns="http://www.w3.org/2000/svg" xmlns:xlink="http://www.w3.org/1999/xlink" x="0px" y="0px" viewBox="0 0 1000 1000" enable-background="new 0 0 1000 1000" xml:space="preserve">
<metadata> Svg Vector Icons : http://www.onlinewebfonts.com/icon </metadata>
<g><path id="path1" fill="#0079be" stroke="#0079be" d="M504.1,6.2h-4.1C232,6.2,12.2,228,10,495.9c-1.1,131,48.8,256.3,140.6,349.5c91.8,93.4,214.4,148.3,345.3,148.3h4.2C767.9,993.8,987.8,772,990,504C992.3,233.9,774.2,21.9,504.1,6.2z M500.1,962.5h-3.8c-122.6-1.1-237.3-49.7-323.3-137C87.1,738,40.4,618.7,41.4,496.2C43.5,245.4,249.3,37.6,500,37.6h3.8c252.9,15.6,457,213.3,454.8,466.2C956.6,754.6,750.7,962.5,500.1,962.5z M515.8,497.4l2.9-349c0.1-8.7-6.9-16.8-15.5-16.8H503c-8.7,0-15.6,7.9-15.7,16.5l-2.9,354.9c0,4.1,1.6,8.4,4.5,11.4L682,711.2c3.2,3.2,7.2,4.6,11.3,4.6c3.9,0,8-1.4,10.9-4.4c6.3-6.1,6.4-16,0.2-22.1L515.8,497.4z"/></g>
</svg>