<svg width="30" height="30" viewBox="0 0 30 30" fill="none" xmlns="http://www.w3.org/2000/svg">
<path fill-rule="evenodd" clip-rule="evenodd" d="M0 15C0 6.70881 6.70945 0 15 0C23.2912 0 30 6.70939 30 15C30 23.2912 23.2905 30 15 30C6.70881 30 0 23.2906 0 15ZM2.34375 15C2.34375 21.9957 8.00484 27.6562 15 27.6562C21.9957 27.6562 27.6562 21.9952 27.6562 15C27.6562 8.00432 21.9952 2.34375 15 2.34375C8.00432 2.34375 2.34375 8.00478 2.34375 15ZM16.6579 15L20.1327 18.4747C20.5903 18.9323 20.5904 19.6743 20.1327 20.132C19.675 20.5896 18.933 20.5896 18.4755 20.132L15.0007 16.6572L11.5259 20.132C11.0684 20.5895 10.3264 20.5897 9.86862 20.132C9.41094 19.6744 9.411 18.9324 9.86868 18.4747L13.3434 15L9.86868 11.5253C9.411 11.0676 9.411 10.3257 9.86862 9.86799C10.3262 9.41031 11.0683 9.41031 11.5259 9.86799L15.0007 13.3427L18.4755 9.86799C18.933 9.41037 19.675 9.41031 20.1327 9.86799C20.5903 10.3257 20.5903 11.0676 20.1327 11.5253L16.6579 15Z" fill="#333333"/>
</svg>
