<svg width="18" height="13" viewBox="0 0 18 13" fill="none" xmlns="http://www.w3.org/2000/svg">
<path fill-rule="evenodd" clip-rule="evenodd" d="M6.26658 1L0.851074 12H11.5842L16.9997 1H6.26658Z" fill="white"/>
<path d="M6.26658 1V0.75H6.11101L6.04229 0.889577L6.26658 1ZM0.851074 12L0.626783 11.8896L0.44934 12.25H0.851074V12ZM11.5842 12V12.25H11.7398L11.8085 12.1104L11.5842 12ZM16.9997 1L17.224 1.11042L17.4014 0.75H16.9997V1ZM6.04229 0.889577L0.626783 11.8896L1.07537 12.1104L6.49087 1.11042L6.04229 0.889577ZM0.851074 12.25H11.5842V11.75H0.851074V12.25ZM11.8085 12.1104L17.224 1.11042L16.7754 0.889577L11.3599 11.8896L11.8085 12.1104ZM16.9997 0.75H6.26658V1.25H16.9997V0.75Z" fill="#BDBDBD"/>
</svg>
