<svg width="19" height="17" viewBox="0 0 19 17" fill="none" xmlns="http://www.w3.org/2000/svg">
<path d="M18.0314 12.3718V16.1419C18.0314 16.217 18.02 16.2867 18.0031 16.351C17.9237 16.7211 17.578 17 17.1701 17L0.887298 16.9998C0.45086 16.9998 0.0882603 16.6834 0.0428798 16.2811C0.0314941 16.2328 0.0314941 16.19 0.0314941 16.1363V12.3662C0.0314941 11.9211 0.416864 11.5618 0.88162 11.5618C1.11392 11.5618 1.32931 11.6529 1.48238 11.7978C1.63544 11.9426 1.73175 12.1464 1.73175 12.3662V15.3854H16.3369V12.3662C16.3369 11.9211 16.7223 11.5618 17.1871 11.5618C17.4194 11.5618 17.6347 11.6529 17.7878 11.7978C17.9352 11.9482 18.0315 12.152 18.0315 12.3717L18.0314 12.3718Z" fill="#BDBDBD"/>
<path d="M13.9338 8.59642L9.75686 12.5488C9.75117 12.5595 9.73978 12.5649 9.73425 12.5702C9.58118 12.715 9.38287 12.8061 9.18458 12.8329C9.1675 12.8329 9.15058 12.8383 9.1335 12.8383C9.0995 12.8437 9.0655 12.8437 9.03151 12.8437L8.93521 12.8383C8.91813 12.8383 8.90121 12.8329 8.88413 12.8329C8.68013 12.8061 8.48737 12.715 8.33446 12.5702C8.32877 12.5648 8.31738 12.554 8.31185 12.5488L4.13489 8.59642C3.94213 8.41402 3.84583 8.1728 3.84583 7.93147C3.84583 7.69012 3.94213 7.44875 4.13489 7.26653C4.52026 6.90188 5.14934 6.90188 5.54039 7.26653L8.0511 9.64223L8.05094 0.938482C8.05094 0.423619 8.49864 0 9.04276 0C9.31475 0 9.56413 0.107286 9.74549 0.273523C9.92687 0.445151 10.0346 0.67573 10.0346 0.938466V9.64221L12.5453 7.26651C12.9306 6.90187 13.5597 6.90187 13.9508 7.26651C14.3192 7.63655 14.3192 8.23177 13.9338 8.59644L13.9338 8.59642Z" fill="#BDBDBD"/>
</svg>
