<svg width="18" height="17" viewBox="0 0 18 17" fill="none" xmlns="http://www.w3.org/2000/svg">
<path d="M17.9999 12.3718V16.1419C17.9999 16.217 17.9885 16.2867 17.9716 16.351C17.8922 16.7211 17.5465 17 17.1386 17L0.855804 16.9998C0.419365 16.9998 0.0567662 16.6834 0.0113856 16.2811C0 16.2328 0 16.19 0 16.1363V12.3662C0 11.9211 0.38537 11.5618 0.850126 11.5618C1.08243 11.5618 1.29782 11.6529 1.45088 11.7978C1.60395 11.9426 1.70026 12.1464 1.70026 12.3662V15.3854H16.3054V12.3662C16.3054 11.9211 16.6908 11.5618 17.1556 11.5618C17.3879 11.5618 17.6033 11.6529 17.7563 11.7978C17.9037 11.9482 18 12.152 18 12.3717L17.9999 12.3718Z" fill="#0078BF"/>
<path d="M13.9023 8.59642L9.72537 12.5488C9.71967 12.5595 9.70829 12.5649 9.70275 12.5702C9.54968 12.715 9.35138 12.8061 9.15309 12.8329C9.13601 12.8329 9.11909 12.8383 9.10201 12.8383C9.06801 12.8437 9.03401 12.8437 9.00001 12.8437L8.90371 12.8383C8.88663 12.8383 8.86971 12.8329 8.85263 12.8329C8.64864 12.8061 8.45588 12.715 8.30297 12.5702C8.29727 12.5648 8.28589 12.554 8.28035 12.5488L4.1034 8.59642C3.91063 8.41402 3.81433 8.1728 3.81433 7.93147C3.81433 7.69012 3.91063 7.44875 4.1034 7.26653C4.48877 6.90188 5.11784 6.90188 5.5089 7.26653L8.01961 9.64223L8.01945 0.938482C8.01945 0.423619 8.46714 0 9.01126 0C9.28326 0 9.53263 0.107286 9.71399 0.273523C9.89537 0.445151 10.0031 0.67573 10.0031 0.938466V9.64221L12.5138 7.26651C12.8991 6.90187 13.5282 6.90187 13.9193 7.26651C14.2877 7.63655 14.2877 8.23177 13.9024 8.59644L13.9023 8.59642Z" fill="#0078BF"/>
</svg>
