<svg width="12" height="12" viewBox="0 0 12 12" fill="none" xmlns="http://www.w3.org/2000/svg">
<path fill-rule="evenodd" clip-rule="evenodd" d="M6.06522 8.57912V0.46153C6.06522 0.206765 5.85615 0 5.59855 0C5.34095 0 5.13189 0.206765 5.13189 0.46153V8.57742L2.66228 6.13578C2.48028 5.95578 2.18442 5.95578 2.00242 6.13578C1.82042 6.31578 1.82042 6.60839 2.00242 6.78838L5.26909 10.0191C5.36055 10.1086 5.48002 10.1539 5.59949 10.1539C5.71895 10.1539 5.83842 10.1086 5.92895 10.0191L9.19562 6.78838C9.37762 6.60839 9.37762 6.31578 9.19562 6.13578C9.01362 5.95578 8.71775 5.95578 8.53575 6.13578L6.06522 8.57912ZM10.7333 12H0.466667C0.209067 12 0 11.7933 0 11.5385C0 11.2838 0.209067 11.077 0.466667 11.077H10.7333C10.9909 11.077 11.2 11.2838 11.2 11.5385C11.2 11.7933 10.9909 12 10.7333 12Z" fill="#767B7F"/>
</svg>
