<svg width="13" height="19" viewBox="0 0 13 19" fill="none" xmlns="http://www.w3.org/2000/svg">
<path d="M8.38257 12.041C8.36698 12.3362 8.26451 12.6203 8.08801 12.8574C7.91152 13.0946 7.66887 13.2743 7.39056 13.374C7.54519 12.4454 7.46223 11.4927 7.14941 10.6048C6.8366 9.71689 6.30411 8.92265 5.60156 8.29602C5.50698 8.92336 5.34264 9.53818 5.11157 10.129C4.83003 10.8658 4.43565 11.5543 3.94257 12.17C3.26748 12.9733 2.8212 13.9436 2.65057 14.979C2.528 15.6629 2.65997 16.3679 3.02161 16.9611C3.38325 17.5543 3.94952 17.9947 4.61356 18.199C4.81356 18.271 5.02057 18.322 5.22357 18.399C4.96557 18.361 4.70556 18.333 4.45056 18.282C3.45004 18.0715 2.52608 17.5915 1.77856 16.894C0.883824 16.1246 0.28311 15.0691 0.0785518 13.907C-0.0651559 13.0062 -0.0112235 12.0849 0.236572 11.207C0.603556 9.81015 1.24203 8.49917 2.11557 7.349C3.49607 5.47544 4.4922 3.34721 5.04657 1.08698C5.14657 0.715975 5.23155 0.343 5.31555 0C5.45455 0.122 5.61555 0.240019 5.74655 0.382019C6.6755 1.33791 7.45737 2.42643 8.06656 3.612C8.59415 4.62397 8.88353 5.74316 8.91257 6.88403C8.93539 7.66416 8.76897 8.43819 8.42755 9.14001C8.41955 9.15601 8.41256 9.17402 8.40256 9.19702C8.83746 9.07806 9.2346 8.84957 9.55603 8.53339C9.87746 8.21721 10.1124 7.82387 10.2386 7.39099C10.256 7.39966 10.2722 7.41079 10.2866 7.42401C11.1104 8.44128 11.6883 9.63488 11.9756 10.912C12.2249 12.1434 12.0768 13.4222 11.5526 14.564C11.2135 15.346 10.7472 16.0664 10.1726 16.696C9.8885 16.98 9.57315 17.231 9.23257 17.444C8.42628 17.9893 7.50567 18.3423 6.54156 18.476C6.49993 18.4785 6.4582 18.4785 6.41656 18.476C6.59856 18.423 6.75255 18.386 6.90155 18.333C7.05886 18.2781 7.21309 18.2146 7.36356 18.143C7.76441 17.9488 8.12088 17.674 8.41064 17.3357C8.70041 16.9974 8.91725 16.6029 9.04758 16.177C9.28692 15.4916 9.35474 14.758 9.24509 14.0403C9.13544 13.3226 8.85164 12.6427 8.41855 12.06C8.41555 12.056 8.40357 12.052 8.38257 12.041Z" fill="#FF4C4C"/>
</svg>
