<svg width="9" height="13" viewBox="0 0 9 13" fill="none" xmlns="http://www.w3.org/2000/svg">
<path d="M6.23829 8.4714C6.22669 8.6791 6.15043 8.87892 6.01908 9.04578C5.88774 9.21263 5.70716 9.33908 5.50004 9.40923C5.61511 8.75591 5.55337 8.08564 5.32058 7.46095C5.08778 6.83627 4.6915 6.27749 4.16867 5.83663C4.09829 6.27799 3.97598 6.71054 3.80402 7.12623C3.5945 7.6446 3.301 8.129 2.93405 8.56213C2.43165 9.12731 2.09953 9.80998 1.97255 10.5384C1.88133 11.0195 1.97954 11.5156 2.24867 11.9329C2.5178 12.3503 2.93923 12.6601 3.4334 12.8038C3.58224 12.8545 3.7363 12.8903 3.88737 12.9445C3.69537 12.9178 3.50187 12.8981 3.3121 12.8622C2.56751 12.7141 1.8799 12.3764 1.3236 11.8857C0.65774 11.3444 0.21069 10.6018 0.0584581 9.78419C-0.0484889 9.15043 -0.00835248 8.5023 0.176056 7.88465C0.449165 6.90188 0.924319 5.97955 1.5744 5.17035C2.60177 3.85222 3.34309 2.35492 3.75565 0.764736C3.83007 0.503721 3.89331 0.241316 3.95582 0C4.05927 0.0858325 4.17908 0.168864 4.27657 0.268768C4.9679 0.941281 5.54976 1.7071 6.00312 2.5412C6.39575 3.25317 6.6111 4.04057 6.63271 4.84323C6.6497 5.39208 6.52585 5.93665 6.27177 6.43041C6.26581 6.44167 6.26061 6.45434 6.25317 6.47052C6.57682 6.38683 6.87237 6.22607 7.11158 6.00362C7.35079 5.78118 7.52566 5.50445 7.61951 5.1999C7.63252 5.206 7.64455 5.21383 7.65524 5.22313C8.2683 5.93883 8.69844 6.77858 8.91218 7.67708C9.09777 8.54343 8.98753 9.44314 8.59738 10.2465C8.34505 10.7966 7.99804 11.3035 7.57041 11.7464C7.359 11.9462 7.12432 12.1228 6.87086 12.2727C6.27082 12.6563 5.58571 12.9046 4.86822 12.9987C4.83724 13.0004 4.80618 13.0004 4.77519 12.9987C4.91064 12.9614 5.02523 12.9354 5.13612 12.8981C5.25319 12.8594 5.36797 12.8148 5.47994 12.7644C5.77826 12.6278 6.04354 12.4344 6.25918 12.1964C6.47482 11.9584 6.6362 11.6809 6.73319 11.3813C6.91131 10.899 6.96177 10.3829 6.88017 9.87797C6.79857 9.37305 6.58737 8.8947 6.26507 8.48475C6.26283 8.48194 6.25392 8.47914 6.23829 8.4714Z" fill="#333333"/>
</svg>
