<svg width="12" height="12" viewBox="0 0 12 12" fill="none" xmlns="http://www.w3.org/2000/svg">
<path d="M6 12C2.69153 12 0 9.30847 0 6C0 2.69153 2.69153 0 6 0C9.30847 0 12 2.69153 12 6C12 9.30847 9.30847 12 6 12ZM6 0.571221C3.00675 0.571221 0.571221 3.00653 0.571221 6C0.571221 8.99347 3.00653 11.4288 6 11.4288C8.99347 11.4288 11.4288 8.99347 11.4288 6C11.4288 3.00653 8.99347 0.571221 6 0.571221Z" fill="black"/>
<path d="M5.99999 12C4.55796 12 3.42862 9.36442 3.42862 6C3.42862 2.63559 4.55807 0 5.99999 0C7.44191 0 8.57135 2.63559 8.57135 6C8.57135 9.36442 7.44191 12 5.99999 12ZM5.99999 0.571221C5.05388 0.571221 3.99995 2.80059 3.99995 6C3.99995 9.1994 5.05388 11.4288 5.99999 11.4288C6.94609 11.4288 8.00002 9.1994 8.00002 6C8.00002 2.80059 6.94609 0.571221 5.99999 0.571221Z" fill="black"/>
<path d="M11.3864 4.38084H0.613112C0.455371 4.38084 0.327393 4.25286 0.327393 4.09512C0.327393 3.93738 0.455371 3.8094 0.613112 3.8094H11.3864C11.5442 3.8094 11.6721 3.93738 11.6721 4.09512C11.6721 4.25286 11.5442 4.38084 11.3864 4.38084Z" fill="black"/>
<path d="M11.5088 7.80948H0.491438C0.333697 7.80948 0.205719 7.6815 0.205719 7.52376C0.205719 7.36602 0.333697 7.23804 0.491438 7.23804H11.5088C11.6665 7.23804 11.7945 7.36602 11.7945 7.52376C11.7945 7.6815 11.6665 7.80948 11.5088 7.80948Z" fill="black"/>
</svg>
