<svg width="16" height="22" viewBox="0 0 16 22" fill="none" xmlns="http://www.w3.org/2000/svg">
<path d="M13.1323 9.21248C10.9405 6.55764 8.86012 4.76477 8.67444 1.24798C8.67444 1.14454 8.63729 1.07559 8.56299 1.00663C8.52584 0.834237 8.34009 0.730802 8.15435 0.834237C7.93145 0.834237 7.74577 0.972151 7.74577 1.2135C3.06498 5.90256 -4.84778 17.7976 5.10818 21.2109C9.60323 22.7625 14.6927 20.6593 15.5842 16.1081C16.0671 13.6602 14.6925 11.0744 13.1323 9.21248ZM5.14527 19.0043C4.06795 18.4182 3.39926 17.246 3.06492 16.2116C2.91632 15.6944 2.84202 15.1773 2.87917 14.6601C3.10207 13.7637 3.39926 12.9017 3.7336 12.0398C3.91935 12.7982 4.29084 13.5568 4.81093 14.1084C5.9997 15.3153 8.41439 16.0392 9.08308 17.5563C9.49172 18.4872 7.89431 19.2802 7.22562 19.487C6.51979 19.6939 5.7396 19.3492 5.14527 19.0043Z" fill="#333333"/>
</svg>
