<svg width="9" height="13" viewBox="0 0 9 13" fill="none" xmlns="http://www.w3.org/2000/svg">
<path d="M7.50636 5.23097C6.22264 3.58155 5.00412 2.46765 4.89537 0.282693C4.89537 0.21843 4.87361 0.175588 4.83009 0.132745C4.80833 0.0256398 4.69954 -0.0386236 4.59075 0.0256398C4.4602 0.0256398 4.35144 0.111324 4.35144 0.261272C1.60986 3.17454 -3.02471 10.5648 2.80658 12.6855C5.43937 13.6495 8.42029 12.3428 8.94249 9.51516C9.22532 7.9943 8.42022 6.38775 7.50636 5.23097ZM2.82831 11.3146C2.19731 10.9504 1.80565 10.2221 1.60983 9.57946C1.52279 9.25814 1.47927 8.93686 1.50103 8.61554C1.63158 8.0586 1.80565 7.52303 2.00148 6.98754C2.11027 7.45877 2.32786 7.93007 2.63248 8.27277C3.32875 9.02258 4.74306 9.47239 5.13471 10.4149C5.37405 10.9933 4.43844 11.486 4.04678 11.6145C3.63337 11.743 3.17641 11.5288 2.82831 11.3146Z" fill="#333333"/>
</svg>
