<svg width="25" height="25" viewBox="0 0 25 25" fill="none" xmlns="http://www.w3.org/2000/svg">
<circle cx="12.5" cy="12.5" r="12.5" fill="#E0E0E0"/>
<path fill-rule="evenodd" clip-rule="evenodd" d="M17.8009 10.8696H19.0217C19.5611 10.8696 20 11.3085 20 11.8478V13.1522C20 13.6915 19.5611 14.1304 19.0217 14.1304H17.8012C17.6985 14.4647 17.5648 14.7878 17.4021 15.095L18.2646 15.9578C18.4491 16.1424 18.5509 16.3879 18.5509 16.6498C18.5509 16.9113 18.4491 17.1572 18.2646 17.3417L17.3417 18.2646C16.9733 18.6334 16.3276 18.634 15.9578 18.2646L15.0953 17.4017C14.7882 17.5645 14.465 17.6982 14.1308 17.8009V19.0217C14.1308 19.5611 13.6918 20 13.1525 20H11.8482C11.3088 20 10.8699 19.5611 10.8699 19.0217V17.8015C10.5357 17.6988 10.2125 17.5651 9.90533 17.4024L9.0425 18.2649C8.66098 18.6461 8.04011 18.6461 7.65859 18.2649L6.73576 17.3417C6.35424 16.9602 6.35424 16.3393 6.73576 15.9578L7.59826 15.095C7.43554 14.7875 7.30185 14.4647 7.19913 14.1304H5.97826C5.43891 14.1304 5 13.6915 5 13.1525V11.8482C5 11.3088 5.43891 10.8699 5.97826 10.8699H7.19848C7.3012 10.5357 7.43489 10.2125 7.59761 9.90533L6.73511 9.0425C6.35391 8.66098 6.35391 8.04011 6.73511 7.65859L7.65826 6.73576C8.03978 6.35424 8.66065 6.35424 9.04217 6.73576L9.905 7.59826C10.2125 7.43554 10.5353 7.30185 10.8696 7.19913V5.97826C10.8696 5.43891 11.3085 5 11.8478 5H13.1522C13.6915 5 14.1304 5.43891 14.1304 5.97826V7.1988C14.4647 7.30152 14.7878 7.43522 15.095 7.59793L15.9575 6.73543C16.327 6.36565 16.9726 6.36663 17.3414 6.73543L18.2642 7.65826C18.4488 7.84283 18.5505 8.0887 18.5505 8.35022C18.5505 8.61207 18.4488 8.85793 18.2642 9.0425L17.4017 9.905C17.5645 10.2125 17.6985 10.5353 17.8009 10.8696ZM19.0217 13.4783C19.2017 13.4783 19.3478 13.3318 19.3478 13.1522V11.8478C19.3478 11.6682 19.2017 11.5217 19.0217 11.5217H17.5543C17.4057 11.5217 17.2759 11.421 17.239 11.2772C17.1236 10.8317 16.9478 10.4072 16.716 10.0146C16.6403 9.88674 16.6612 9.7237 16.7662 9.61837L17.8032 8.58141C17.8645 8.52011 17.8984 8.43793 17.8984 8.35054C17.8984 8.26315 17.8645 8.18098 17.8032 8.11967L16.8803 7.19685C16.7577 7.07391 16.5415 7.07359 16.4186 7.19685L15.3816 8.2338C15.2766 8.33946 15.1136 8.35967 14.9851 8.28402C14.5932 8.0525 14.1683 7.87641 13.7228 7.7613C13.579 7.72413 13.4783 7.59435 13.4783 7.44565V5.97826C13.4783 5.79859 13.3322 5.65217 13.1522 5.65217H11.8478C11.6682 5.65217 11.5217 5.79859 11.5217 5.97826V7.44565C11.5217 7.59435 11.421 7.72413 11.2772 7.7613C10.8317 7.87641 10.4072 8.0525 10.0146 8.28402C9.88641 8.36 9.7237 8.33913 9.61837 8.2338L8.58141 7.19685C8.45391 7.06967 8.24717 7.06935 8.11967 7.19685L7.19685 8.11967C7.06967 8.24717 7.06967 8.45424 7.19685 8.58141L8.2338 9.61837C8.33913 9.72337 8.35967 9.88641 8.28402 10.0146C8.05217 10.4072 7.87641 10.8321 7.7613 11.2772C7.72413 11.421 7.59435 11.5217 7.44565 11.5217H5.97826C5.79859 11.5217 5.65217 11.6682 5.65217 11.8478V13.1522C5.65217 13.3318 5.79859 13.4783 5.97826 13.4783H7.44565C7.59435 13.4783 7.72413 13.579 7.76098 13.7228C7.87609 14.1683 8.05217 14.5928 8.2837 14.9854C8.35935 15.1133 8.3388 15.2763 8.23348 15.3816L7.19652 16.4186C7.06902 16.5458 7.06902 16.7528 7.19652 16.8803L8.11935 17.8032C8.24685 17.9303 8.45359 17.9303 8.58109 17.8032L9.61804 16.7662C9.68098 16.7033 9.76446 16.6707 9.84891 16.6707C9.90598 16.6707 9.96304 16.6853 10.0146 16.716C10.4072 16.9478 10.8321 17.1236 11.2772 17.2387C11.421 17.2759 11.5217 17.4057 11.5217 17.5543V19.0217C11.5217 19.2014 11.6682 19.3478 11.8478 19.3478H13.1522C13.3322 19.3478 13.4783 19.2014 13.4783 19.0217V17.5543C13.4783 17.4057 13.579 17.2759 13.7225 17.239C14.1679 17.1239 14.5928 16.9478 14.9848 16.7163C15.1133 16.641 15.2763 16.6612 15.3813 16.7665L16.4183 17.8035C16.5412 17.9261 16.7574 17.9261 16.88 17.8035L17.8028 16.8807C17.8641 16.8193 17.898 16.7375 17.898 16.6498C17.898 16.5621 17.8641 16.4802 17.8028 16.4189L16.7659 15.3816C16.6609 15.2766 16.6403 15.1136 16.7157 14.9854C16.9475 14.5928 17.1233 14.1679 17.2387 13.7228C17.2759 13.579 17.4057 13.4783 17.5543 13.4783H19.0217ZM9.56592 12.5C9.56592 10.8819 10.8827 9.56519 12.5007 9.56519C14.1191 9.56519 15.4355 10.8819 15.4355 12.5C15.4355 14.118 14.1191 15.4348 12.5007 15.4348C10.8827 15.4348 9.56592 14.118 9.56592 12.5ZM10.2181 12.5C10.2181 13.7587 11.242 14.7826 12.5007 14.7826C13.7591 14.7826 14.7833 13.7587 14.7833 12.5C14.7833 11.2413 13.7591 10.2174 12.5007 10.2174C11.242 10.2174 10.2181 11.2413 10.2181 12.5Z" fill="#333333"/>
<path d="M17.8009 10.8696L17.5618 10.9428L17.616 11.1196H17.8009V10.8696ZM17.8012 14.1304V13.8804H17.6165L17.5622 14.057L17.8012 14.1304ZM17.4021 15.095L17.1811 14.978L17.0947 15.1411L17.2253 15.2717L17.4021 15.095ZM18.2646 15.9578L18.0878 16.1346L18.0878 16.1346L18.2646 15.9578ZM18.2646 17.3417L18.4413 17.5185V17.5185L18.2646 17.3417ZM17.3417 18.2646L17.165 18.0878L17.1649 18.0879L17.3417 18.2646ZM15.9578 18.2646L15.781 18.4413L15.7811 18.4414L15.9578 18.2646ZM15.0953 17.4017L15.2721 17.225L15.1415 17.0943L14.9783 17.1808L15.0953 17.4017ZM14.1308 17.8009L14.0573 17.5619L13.8808 17.6162V17.8009H14.1308ZM10.8699 17.8015H11.1199V17.6168L10.9433 17.5626L10.8699 17.8015ZM9.90533 17.4024L10.0224 17.1815L9.85918 17.095L9.72858 17.2256L9.90533 17.4024ZM9.0425 18.2649L9.2192 18.4417L9.21924 18.4417L9.0425 18.2649ZM7.65859 18.2649L7.48178 18.4416L7.48189 18.4417L7.65859 18.2649ZM6.73576 17.3417L6.91257 17.165L6.91254 17.165L6.73576 17.3417ZM6.73576 15.9578L6.91254 16.1346L6.91257 16.1346L6.73576 15.9578ZM7.59826 15.095L7.77507 15.2717L7.90556 15.1412L7.81923 14.9781L7.59826 15.095ZM7.19913 14.1304L7.4381 14.057L7.38384 13.8804H7.19913V14.1304ZM7.19848 10.8699V11.1199H7.38319L7.43745 10.9433L7.19848 10.8699ZM7.59761 9.90533L7.81853 10.0224L7.90496 9.85918L7.77442 9.72858L7.59761 9.90533ZM6.73511 9.0425L6.55826 9.2192L6.5583 9.21924L6.73511 9.0425ZM6.73511 7.65859L6.55836 7.48178L6.55826 7.48189L6.73511 7.65859ZM7.65826 6.73576L7.83501 6.91257L7.83504 6.91254L7.65826 6.73576ZM9.04217 6.73576L8.8654 6.91254L8.86543 6.91257L9.04217 6.73576ZM9.905 7.59826L9.72826 7.77507L9.85879 7.90556L10.0219 7.81923L9.905 7.59826ZM10.8696 7.19913L10.943 7.4381L11.1196 7.38384V7.19913H10.8696ZM14.1304 7.1988H13.8804V7.38351L14.057 7.43777L14.1304 7.1988ZM15.095 7.59793L14.978 7.81885L15.1412 7.90531L15.2718 7.77471L15.095 7.59793ZM15.9575 6.73543L16.1343 6.91221L16.1344 6.91213L15.9575 6.73543ZM17.3414 6.73543L17.1646 6.91221V6.91221L17.3414 6.73543ZM18.2642 7.65826L18.441 7.48148V7.48148L18.2642 7.65826ZM18.2642 9.0425L18.441 9.21928L18.2642 9.0425ZM17.4017 9.905L17.225 9.72822L17.0944 9.85876L17.1808 10.0219L17.4017 9.905ZM17.239 11.2772L17.4812 11.2151L17.481 11.2145L17.239 11.2772ZM16.716 10.0146L16.9312 9.88744L16.9311 9.88724L16.716 10.0146ZM16.7662 9.61837L16.5894 9.44159L16.5891 9.44187L16.7662 9.61837ZM17.8032 8.58141L17.9799 8.75819V8.75819L17.8032 8.58141ZM17.8032 8.11967L17.9799 7.9429V7.9429L17.8032 8.11967ZM16.8803 7.19685L16.7033 7.37339L16.7035 7.37362L16.8803 7.19685ZM16.4186 7.19685L16.5954 7.37362L16.5956 7.37339L16.4186 7.19685ZM15.3816 8.2338L15.2049 8.05703L15.2043 8.05758L15.3816 8.2338ZM14.9851 8.28402L14.858 8.49927L14.8583 8.49945L14.9851 8.28402ZM13.7228 7.7613L13.6603 8.00335L13.6603 8.00335L13.7228 7.7613ZM11.2772 7.7613L11.3397 8.00335L11.3397 8.00335L11.2772 7.7613ZM10.0146 8.28402L9.88758 8.06868L9.88707 8.06898L10.0146 8.28402ZM9.61837 8.2338L9.44159 8.41058L9.44159 8.41058L9.61837 8.2338ZM8.58141 7.19685L8.75819 7.02007L8.75796 7.01985L8.58141 7.19685ZM7.19685 8.11967L7.02007 7.9429L7.01985 7.94312L7.19685 8.11967ZM8.2338 9.61837L8.05703 9.79515L8.0573 9.79542L8.2338 9.61837ZM8.28402 10.0146L8.49929 10.1417L8.49931 10.1417L8.28402 10.0146ZM7.7613 11.2772L7.51927 11.2146L7.51926 11.2146L7.7613 11.2772ZM7.76098 13.7228L7.5188 13.7849L7.51893 13.7854L7.76098 13.7228ZM8.2837 14.9854L8.06835 15.1124L8.06855 15.1128L8.2837 14.9854ZM8.23348 15.3816L8.41026 15.5584L8.41026 15.5584L8.23348 15.3816ZM7.19652 16.4186L7.37307 16.5956L7.3733 16.5954L7.19652 16.4186ZM7.19652 16.8803L7.01974 17.0571L7.01975 17.0571L7.19652 16.8803ZM8.11935 17.8032L7.94257 17.9799L7.9428 17.9802L8.11935 17.8032ZM8.58109 17.8032L8.75764 17.9802L8.75786 17.9799L8.58109 17.8032ZM9.61804 16.7662L9.44127 16.5894L9.61804 16.7662ZM10.0146 16.716L9.88674 16.9308L9.88744 16.9312L10.0146 16.716ZM11.2772 17.2387L11.2146 17.4807L11.2146 17.4807L11.2772 17.2387ZM13.7225 17.239L13.7847 17.4812L13.7851 17.4811L13.7225 17.239ZM14.9848 16.7163L14.8583 16.5006L14.8576 16.5011L14.9848 16.7163ZM15.3813 16.7665L15.2043 16.943L15.2045 16.9433L15.3813 16.7665ZM16.4183 17.8035L16.2415 17.9803L16.2417 17.9805L16.4183 17.8035ZM16.88 17.8035L16.7032 17.6267L16.7032 17.6267L16.88 17.8035ZM17.8028 16.8807L17.9796 17.0574L17.9796 17.0574L17.8028 16.8807ZM17.8028 16.4189L17.626 16.5957L17.626 16.5957L17.8028 16.4189ZM16.7659 15.3816L16.9427 15.2049L16.9426 15.2049L16.7659 15.3816ZM16.7157 14.9854L16.5004 14.8583L16.5001 14.8588L16.7157 14.9854ZM17.2387 13.7228L17.4807 13.7856L17.4807 13.7854L17.2387 13.7228ZM19.0217 10.6196H17.8009V11.1196H19.0217V10.6196ZM20.25 11.8478C20.25 11.1704 19.6992 10.6196 19.0217 10.6196V11.1196C19.423 11.1196 19.75 11.4465 19.75 11.8478H20.25ZM20.25 13.1522V11.8478H19.75V13.1522H20.25ZM19.0217 14.3804C19.6992 14.3804 20.25 13.8296 20.25 13.1522H19.75C19.75 13.5535 19.423 13.8804 19.0217 13.8804V14.3804ZM17.8012 14.3804H19.0217V13.8804H17.8012V14.3804ZM17.623 15.212C17.7931 14.8908 17.9329 14.5531 18.0402 14.2039L17.5622 14.057C17.4641 14.3763 17.3364 14.6848 17.1811 14.978L17.623 15.212ZM18.4414 15.7811L17.5789 14.9183L17.2253 15.2717L18.0878 16.1346L18.4414 15.7811ZM18.8009 16.6498C18.8009 16.3217 18.6729 16.0126 18.4413 15.7811L18.0878 16.1346C18.2254 16.2722 18.3009 16.4541 18.3009 16.6498H18.8009ZM18.4413 17.5185C18.6729 17.287 18.8009 16.9775 18.8009 16.6498H18.3009C18.3009 16.8451 18.2254 17.0274 18.0878 17.165L18.4413 17.5185ZM17.5185 18.4413L18.4413 17.5185L18.0878 17.165L17.165 18.0878L17.5185 18.4413ZM15.7811 18.4414C16.2485 18.9084 17.0525 18.9078 17.5186 18.4413L17.1649 18.0879C16.894 18.359 16.4067 18.3596 16.1345 18.0877L15.7811 18.4414ZM14.9185 17.5785L15.781 18.4413L16.1346 18.0878L15.2721 17.225L14.9185 17.5785ZM14.2042 18.0398C14.5534 17.9325 14.8912 17.7928 15.2124 17.6227L14.9783 17.1808C14.6852 17.3361 14.3766 17.4638 14.0573 17.5619L14.2042 18.0398ZM14.3808 19.0217V17.8009H13.8808V19.0217H14.3808ZM13.1525 20.25C13.8299 20.25 14.3808 19.6992 14.3808 19.0217H13.8808C13.8808 19.423 13.5538 19.75 13.1525 19.75V20.25ZM11.8482 20.25H13.1525V19.75H11.8482V20.25ZM10.6199 19.0217C10.6199 19.6992 11.1707 20.25 11.8482 20.25V19.75C11.4469 19.75 11.1199 19.423 11.1199 19.0217H10.6199ZM10.6199 17.8015V19.0217H11.1199V17.8015H10.6199ZM9.7883 17.6233C10.1095 17.7935 10.4473 17.9332 10.7965 18.0405L10.9433 17.5626C10.6241 17.4644 10.3155 17.3368 10.0224 17.1815L9.7883 17.6233ZM9.21924 18.4417L10.0821 17.5792L9.72858 17.2256L8.86576 18.0881L9.21924 18.4417ZM7.48189 18.4417C7.96102 18.9205 8.74007 18.9205 9.2192 18.4417L8.8658 18.088C8.58189 18.3717 8.1192 18.3717 7.83529 18.088L7.48189 18.4417ZM6.55895 17.5185L7.48178 18.4416L7.83539 18.0881L6.91257 17.165L6.55895 17.5185ZM6.55898 15.781C6.07983 16.2602 6.07983 17.0394 6.55898 17.5185L6.91254 17.165C6.62865 16.8811 6.62865 16.4185 6.91254 16.1346L6.55898 15.781ZM7.42145 14.9183L6.55895 15.7811L6.91257 16.1346L7.77507 15.2717L7.42145 14.9183ZM6.96016 14.2039C7.0675 14.5531 7.20722 14.8905 7.37729 15.2119L7.81923 14.9781C7.66387 14.6845 7.5362 14.3762 7.4381 14.057L6.96016 14.2039ZM5.97826 14.3804H7.19913V13.8804H5.97826V14.3804ZM4.75 13.1525C4.75 13.8296 5.3009 14.3804 5.97826 14.3804V13.8804C5.57693 13.8804 5.25 13.5534 5.25 13.1525H4.75ZM4.75 11.8482V13.1525H5.25V11.8482H4.75ZM5.97826 10.6199C5.30084 10.6199 4.75 11.1707 4.75 11.8482H5.25C5.25 11.4469 5.57698 11.1199 5.97826 11.1199V10.6199ZM7.19848 10.6199H5.97826V11.1199H7.19848V10.6199ZM7.37669 9.7883C7.20654 10.1095 7.06682 10.4473 6.95951 10.7965L7.43745 10.9433C7.53557 10.6241 7.66324 10.3155 7.81853 10.0224L7.37669 9.7883ZM6.5583 9.21924L7.4208 10.0821L7.77442 9.72858L6.91192 8.86576L6.5583 9.21924ZM6.55826 7.48189C6.07953 7.96102 6.07953 8.74007 6.55826 9.2192L6.91196 8.8658C6.6283 8.58189 6.6283 8.1192 6.91196 7.83529L6.55826 7.48189ZM7.48152 6.55895L6.55836 7.48178L6.91185 7.83539L7.83501 6.91257L7.48152 6.55895ZM9.21895 6.55898C8.7398 6.07983 7.96064 6.07983 7.48148 6.55898L7.83504 6.91254C8.11893 6.62865 8.58151 6.62865 8.8654 6.91254L9.21895 6.55898ZM10.0817 7.42145L9.21892 6.55895L8.86543 6.91257L9.72826 7.77507L10.0817 7.42145ZM10.7961 6.96016C10.4469 7.0675 10.1095 7.20722 9.78807 7.37729L10.0219 7.81923C10.3155 7.66387 10.6238 7.5362 10.943 7.4381L10.7961 6.96016ZM10.6196 5.97826V7.19913H11.1196V5.97826H10.6196ZM11.8478 4.75C11.1704 4.75 10.6196 5.30084 10.6196 5.97826H11.1196C11.1196 5.57698 11.4465 5.25 11.8478 5.25V4.75ZM13.1522 4.75H11.8478V5.25H13.1522V4.75ZM14.3804 5.97826C14.3804 5.30084 13.8296 4.75 13.1522 4.75V5.25C13.5535 5.25 13.8804 5.57698 13.8804 5.97826H14.3804ZM14.3804 7.1988V5.97826H13.8804V7.1988H14.3804ZM15.212 7.37702C14.8908 7.20687 14.5531 7.06715 14.2039 6.95983L14.057 7.43777C14.3763 7.53589 14.6848 7.66356 14.978 7.81885L15.212 7.37702ZM15.7807 6.55866L14.9182 7.42116L15.2718 7.77471L16.1343 6.91221L15.7807 6.55866ZM17.5182 6.55866C17.052 6.09243 16.248 6.09101 15.7806 6.55874L16.1344 6.91213C16.406 6.64029 16.8933 6.64083 17.1646 6.91221L17.5182 6.55866ZM18.441 7.48148L17.5182 6.55866L17.1646 6.91221L18.0875 7.83504L18.441 7.48148ZM18.8005 8.35022C18.8005 8.02253 18.6726 7.71303 18.441 7.48148L18.0875 7.83504C18.225 7.97262 18.3005 8.15486 18.3005 8.35022H18.8005ZM18.441 9.21928C18.6726 8.9877 18.8005 8.67819 18.8005 8.35022H18.3005C18.3005 8.54594 18.225 8.72817 18.0875 8.86572L18.441 9.21928ZM17.5785 10.0818L18.441 9.21928L18.0875 8.86572L17.225 9.72822L17.5785 10.0818ZM18.0399 10.7963C17.9328 10.4468 17.7927 10.1093 17.6227 9.78807L17.1808 10.0219C17.3362 10.3157 17.4641 10.6239 17.5618 10.9428L18.0399 10.7963ZM19.0978 13.1522C19.0978 13.1939 19.0635 13.2283 19.0217 13.2283V13.7283C19.34 13.7283 19.5978 13.4698 19.5978 13.1522H19.0978ZM19.0978 11.8478V13.1522H19.5978V11.8478H19.0978ZM19.0217 11.7717C19.0635 11.7717 19.0978 11.8061 19.0978 11.8478H19.5978C19.5978 11.5302 19.34 11.2717 19.0217 11.2717V11.7717ZM17.5543 11.7717H19.0217V11.2717H17.5543V11.7717ZM16.9968 11.3392C17.062 11.5937 17.2915 11.7717 17.5543 11.7717V11.2717C17.5198 11.2717 17.4897 11.2483 17.4812 11.2151L16.9968 11.3392ZM16.5007 10.1417C16.7205 10.5139 16.8874 10.9168 16.997 11.3399L17.481 11.2145C17.3598 10.7467 17.1751 10.3004 16.9312 9.88744L16.5007 10.1417ZM16.5891 9.44187C16.4042 9.62743 16.3667 9.91533 16.5008 10.1419L16.9311 9.88724C16.9139 9.85814 16.9182 9.81997 16.9432 9.79487L16.5891 9.44187ZM17.6264 8.40464L16.5894 9.44159L16.943 9.79515L17.9799 8.75819L17.6264 8.40464ZM17.6484 8.35054C17.6484 8.37216 17.6404 8.39059 17.6264 8.40464L17.9799 8.75819C18.0885 8.64963 18.1484 8.50371 18.1484 8.35054H17.6484ZM17.6264 8.29645C17.6404 8.3105 17.6484 8.32893 17.6484 8.35054H18.1484C18.1484 8.19738 18.0885 8.05146 17.9799 7.9429L17.6264 8.29645ZM16.7035 7.37362L17.6264 8.29645L17.9799 7.9429L17.0571 7.02007L16.7035 7.37362ZM16.5956 7.37339C16.6048 7.36417 16.6232 7.35451 16.6495 7.35452C16.6758 7.35454 16.6942 7.36426 16.7033 7.37339L17.0573 7.02031C16.8372 6.79959 16.4624 6.79894 16.2416 7.02031L16.5956 7.37339ZM15.5584 8.41058L16.5954 7.37362L16.2418 7.02007L15.2049 8.05703L15.5584 8.41058ZM14.8583 8.49945C15.0841 8.63243 15.3726 8.59759 15.559 8.41003L15.2043 8.05758C15.1807 8.08132 15.1431 8.08692 15.112 8.06859L14.8583 8.49945ZM13.6603 8.00335C14.0832 8.11265 14.4863 8.27976 14.858 8.49927L15.1123 8.06877C14.7 7.82524 14.2533 7.64018 13.7854 7.51926L13.6603 8.00335ZM13.2283 7.44565C13.2283 7.70855 13.4063 7.93771 13.6603 8.00335L13.7854 7.51926C13.7517 7.51055 13.7283 7.48014 13.7283 7.44565H13.2283ZM13.2283 5.97826V7.44565H13.7283V5.97826H13.2283ZM13.1522 5.90217C13.1939 5.90217 13.2283 5.9365 13.2283 5.97826H13.7283C13.7283 5.66068 13.4704 5.40217 13.1522 5.40217V5.90217ZM11.8478 5.90217H13.1522V5.40217H11.8478V5.90217ZM11.7717 5.97826C11.7717 5.93666 11.8062 5.90217 11.8478 5.90217V5.40217C11.5301 5.40217 11.2717 5.66052 11.2717 5.97826H11.7717ZM11.7717 7.44565V5.97826H11.2717V7.44565H11.7717ZM11.3397 8.00335C11.5937 7.93771 11.7717 7.70855 11.7717 7.44565H11.2717C11.2717 7.48014 11.2483 7.51055 11.2146 7.51926L11.3397 8.00335ZM10.1416 8.49937C10.514 8.27974 10.9169 8.11263 11.3397 8.00335L11.2146 7.51926C10.7466 7.6402 10.3004 7.82526 9.88758 8.06868L10.1416 8.49937ZM9.44159 8.41058C9.62727 8.59626 9.91515 8.6336 10.1421 8.49907L9.88707 8.06898C9.85768 8.0864 9.82012 8.082 9.79515 8.05703L9.44159 8.41058ZM8.40464 7.37362L9.44159 8.41058L9.79515 8.05703L8.75819 7.02007L8.40464 7.37362ZM8.29645 7.37362C8.32603 7.34404 8.37465 7.34372 8.40486 7.37385L8.75796 7.01985C8.53317 6.79563 8.16832 6.79465 7.9429 7.02007L8.29645 7.37362ZM7.37362 8.29645L8.29645 7.37362L7.9429 7.02007L7.02007 7.9429L7.37362 8.29645ZM7.37362 8.40464C7.34421 8.37522 7.34388 8.32627 7.37385 8.29622L7.01985 7.94312C6.79547 8.16808 6.79514 8.53326 7.02007 8.75819L7.37362 8.40464ZM8.41058 9.44159L7.37362 8.40464L7.02007 8.75819L8.05703 9.79515L8.41058 9.44159ZM8.49931 10.1417C8.6328 9.91552 8.5968 9.62723 8.41031 9.44132L8.0573 9.79542C8.08146 9.81951 8.08654 9.85731 8.06874 9.88748L8.49931 10.1417ZM8.00334 11.3398C8.11266 10.9171 8.27948 10.5139 8.49929 10.1417L8.06875 9.88744C7.82487 10.3004 7.64017 10.7471 7.51927 11.2146L8.00334 11.3398ZM7.44565 11.7717C7.70855 11.7717 7.93771 11.5937 8.00335 11.3397L7.51926 11.2146C7.51055 11.2483 7.48014 11.2717 7.44565 11.2717V11.7717ZM5.97826 11.7717H7.44565V11.2717H5.97826V11.7717ZM5.90217 11.8478C5.90217 11.8062 5.93666 11.7717 5.97826 11.7717V11.2717C5.66052 11.2717 5.40217 11.5301 5.40217 11.8478H5.90217ZM5.90217 13.1522V11.8478H5.40217V13.1522H5.90217ZM5.97826 13.2283C5.93666 13.2283 5.90217 13.1938 5.90217 13.1522H5.40217C5.40217 13.4699 5.66052 13.7283 5.97826 13.7283V13.2283ZM7.44565 13.2283H5.97826V13.7283H7.44565V13.2283ZM8.00315 13.6608C7.93795 13.4063 7.70845 13.2283 7.44565 13.2283V13.7283C7.48024 13.7283 7.51031 13.7517 7.5188 13.7849L8.00315 13.6608ZM8.49904 14.8584C8.27942 14.486 8.1123 14.0831 8.00303 13.6603L7.51893 13.7854C7.63987 14.2534 7.82493 14.6996 8.06835 15.1124L8.49904 14.8584ZM8.41026 15.5584C8.59619 15.3725 8.63271 15.0843 8.49884 14.8581L8.06855 15.1128C8.08598 15.1422 8.08142 15.1801 8.0567 15.2049L8.41026 15.5584ZM7.3733 16.5954L8.41026 15.5584L8.0567 15.2049L7.01975 16.2418L7.3733 16.5954ZM7.3733 16.7036C7.3433 16.6736 7.34363 16.625 7.37307 16.5956L7.01997 16.2416C6.79441 16.4666 6.79474 16.8321 7.01974 17.0571L7.3733 16.7036ZM8.29612 17.6264L7.3733 16.7035L7.01975 17.0571L7.94257 17.9799L8.29612 17.6264ZM8.40454 17.6262C8.37462 17.656 8.32582 17.656 8.2959 17.6262L7.9428 17.9802C8.16788 18.2047 8.53256 18.2047 8.75764 17.9802L8.40454 17.6262ZM9.44127 16.5894L8.40431 17.6264L8.75786 17.9799L9.79482 16.943L9.44127 16.5894ZM9.84891 16.4207C9.70019 16.4207 9.5525 16.4782 9.44127 16.5894L9.79482 16.943C9.80945 16.9283 9.82873 16.9207 9.84891 16.9207V16.4207ZM10.1424 16.5011C10.0507 16.4466 9.94916 16.4207 9.84891 16.4207V16.9207C9.8628 16.9207 9.87542 16.9241 9.88674 16.9308L10.1424 16.5011ZM11.3398 16.9967C10.9171 16.8873 10.5139 16.7205 10.1417 16.5007L9.88744 16.9312C10.3004 17.1751 10.7471 17.3598 11.2146 17.4807L11.3398 16.9967ZM11.7717 17.5543C11.7717 17.2914 11.5937 17.0623 11.3397 16.9967L11.2146 17.4807C11.2483 17.4894 11.2717 17.5199 11.2717 17.5543H11.7717ZM11.7717 19.0217V17.5543H11.2717V19.0217H11.7717ZM11.8478 19.0978C11.8062 19.0978 11.7717 19.0633 11.7717 19.0217H11.2717C11.2717 19.3395 11.5301 19.5978 11.8478 19.5978V19.0978ZM13.1522 19.0978H11.8478V19.5978H13.1522V19.0978ZM13.2283 19.0217C13.2283 19.0635 13.1939 19.0978 13.1522 19.0978V19.5978C13.4704 19.5978 13.7283 19.3393 13.7283 19.0217H13.2283ZM13.2283 17.5543V19.0217H13.7283V17.5543H13.2283ZM13.6603 16.9969C13.4062 17.0622 13.2283 17.2917 13.2283 17.5543H13.7283C13.7283 17.5196 13.7519 17.4896 13.7847 17.4812L13.6603 16.9969ZM14.8576 16.5011C14.486 16.7206 14.0829 16.8877 13.66 16.997L13.7851 17.4811C14.253 17.3601 14.6996 17.1751 15.1119 16.9316L14.8576 16.5011ZM15.5584 16.59C15.372 16.4031 15.084 16.3684 14.8583 16.5006L15.1112 16.932C15.1426 16.9136 15.1806 16.9193 15.2043 16.943L15.5584 16.59ZM16.595 17.6267L15.5581 16.5897L15.2045 16.9433L16.2415 17.9803L16.595 17.6267ZM16.7032 17.6267C16.6943 17.6357 16.6758 17.6454 16.6493 17.6454C16.6227 17.6454 16.604 17.6357 16.5948 17.6265L16.2417 17.9805C16.4621 18.2003 16.8364 18.2006 17.0568 17.9803L16.7032 17.6267ZM17.626 16.7039L16.7032 17.6267L17.0568 17.9803L17.9796 17.0574L17.626 16.7039ZM17.648 16.6498C17.648 16.6716 17.6402 16.6897 17.626 16.7039L17.9796 17.0574C18.0881 16.949 18.148 16.8034 18.148 16.6498H17.648ZM17.626 16.5957C17.6402 16.6098 17.648 16.628 17.648 16.6498H18.148C18.148 16.4962 18.0881 16.3506 17.9796 16.2421L17.626 16.5957ZM16.5891 15.5584L17.626 16.5957L17.9796 16.2422L16.9427 15.2049L16.5891 15.5584ZM16.5001 14.8588C16.3673 15.0847 16.4032 15.3725 16.5891 15.5584L16.9426 15.2049C16.9185 15.1807 16.9133 15.1425 16.9312 15.1121L16.5001 14.8588ZM16.9967 13.6601C16.887 14.0829 16.7202 14.4861 16.5004 14.8583L16.9309 15.1126C17.1748 14.6996 17.3595 14.253 17.4807 13.7856L16.9967 13.6601ZM17.5543 13.2283C17.2914 13.2283 17.0623 13.4063 16.9967 13.6603L17.4807 13.7854C17.4894 13.7517 17.5199 13.7283 17.5543 13.7283V13.2283ZM19.0217 13.2283H17.5543V13.7283H19.0217V13.2283ZM12.5007 9.31519C10.7446 9.31519 9.31592 10.7439 9.31592 12.5H9.81592C9.81592 11.02 11.0207 9.81519 12.5007 9.81519V9.31519ZM15.6855 12.5C15.6855 10.7439 14.2572 9.31519 12.5007 9.31519V9.81519C13.981 9.81519 15.1855 11.02 15.1855 12.5H15.6855ZM12.5007 15.6848C14.2572 15.6848 15.6855 14.2561 15.6855 12.5H15.1855C15.1855 13.98 13.981 15.1848 12.5007 15.1848V15.6848ZM9.31592 12.5C9.31592 14.2561 10.7446 15.6848 12.5007 15.6848V15.1848C11.0207 15.1848 9.81592 13.9799 9.81592 12.5H9.31592ZM12.5007 14.5326C11.3801 14.5326 10.4681 13.6206 10.4681 12.5H9.96809C9.96809 13.8967 11.1039 15.0326 12.5007 15.0326V14.5326ZM14.5333 12.5C14.5333 13.6206 13.621 14.5326 12.5007 14.5326V15.0326C13.8971 15.0326 15.0333 13.8968 15.0333 12.5H14.5333ZM12.5007 10.4674C13.621 10.4674 14.5333 11.3794 14.5333 12.5H15.0333C15.0333 11.1032 13.8971 9.96736 12.5007 9.96736V10.4674ZM10.4681 12.5C10.4681 11.3793 11.3801 10.4674 12.5007 10.4674V9.96736C11.1039 9.96736 9.96809 11.1032 9.96809 12.5H10.4681Z" fill="black"/>
</svg>
