<svg width="31" height="31" viewBox="0 0 31 31" fill="none" xmlns="http://www.w3.org/2000/svg">
<circle cx="15.3149" cy="15.1758" r="14.5" fill="#FC0000" stroke="white"/>
<path fill-rule="evenodd" clip-rule="evenodd" d="M15.4598 22.6955C15.3808 22.6955 15.3037 22.6704 15.2398 22.6238C10.6645 19.2865 8.23045 16.1382 8.00519 13.2674C7.93929 12.7002 7.98846 12.1255 8.14975 11.5776C8.31105 11.0298 8.58116 10.5202 8.94393 10.0791C9.31249 9.58835 9.79031 9.19017 10.3395 8.91615C10.8887 8.64214 11.4942 8.49982 12.1079 8.50049C13.3413 8.54872 14.5223 9.01175 15.4598 9.81465C16.3973 9.01175 17.5784 8.54872 18.8117 8.50049C19.4254 8.49979 20.0308 8.6421 20.5799 8.91612C21.1289 9.19014 21.6066 9.58834 21.975 10.0791C22.338 10.5201 22.6082 11.0297 22.7696 11.5775C22.9309 12.1254 22.9801 12.7001 22.9141 13.2674C22.8895 13.549 22.8451 13.8284 22.7815 14.1038H24.4939C24.582 13.8546 24.7554 13.6445 24.9834 13.5107C25.2114 13.377 25.4794 13.3281 25.74 13.3728C26.0005 13.4175 26.2369 13.5529 26.4073 13.755C26.5777 13.9572 26.6711 14.213 26.6711 14.4774C26.6711 14.7417 26.5777 14.9976 26.4073 15.1997C26.2369 15.4018 26.0005 15.5372 25.74 15.5819C25.4794 15.6266 25.2114 15.5777 24.9834 15.444C24.7554 15.3102 24.582 15.1002 24.4939 14.8509H22.5738C21.7356 17.2828 19.4281 19.8898 15.6799 22.6238C15.616 22.6704 15.5389 22.6955 15.4598 22.6955ZM25.7533 14.1668C25.6919 14.1257 25.6197 14.1038 25.5458 14.1038C25.4467 14.1038 25.3517 14.1432 25.2817 14.2132C25.2116 14.2833 25.1723 14.3783 25.1723 14.4774C25.1723 14.5512 25.1942 14.6235 25.2352 14.6849C25.2763 14.7463 25.3346 14.7942 25.4029 14.8225C25.4711 14.8508 25.5462 14.8582 25.6187 14.8437C25.6912 14.8293 25.7577 14.7937 25.81 14.7415C25.8622 14.6893 25.8978 14.6227 25.9122 14.5502C25.9266 14.4778 25.9192 14.4027 25.8909 14.3344C25.8627 14.2661 25.8148 14.2078 25.7533 14.1668ZM9.5461 10.5218C9.53252 10.5423 9.51687 10.5613 9.49941 10.5786C9.19975 10.9471 8.97884 11.3732 8.85034 11.8304C8.72184 12.2877 8.68847 12.7665 8.7523 13.2372C8.90359 15.0257 10.1961 17.9645 15.4598 21.8584C19.3616 18.972 21.0815 16.6111 21.7729 14.8509H18.8218C18.7557 14.8506 18.6908 14.8327 18.6339 14.7991C18.5769 14.7655 18.5299 14.7174 18.4976 14.6597L17.387 12.7172L15.4333 17.6021C15.4056 17.6715 15.3577 17.731 15.2959 17.7729C15.234 17.8148 15.161 17.8371 15.0863 17.8371H15.0699C14.9929 17.8341 14.9187 17.8073 14.8575 17.7605C14.7963 17.7137 14.7511 17.6491 14.7281 17.5756L13.48 13.5203L12.7915 14.6697C12.7583 14.725 12.7114 14.7707 12.6553 14.8025C12.5992 14.8342 12.5359 14.8509 12.4714 14.8509H9.85653V14.1038H12.2596L13.2716 12.4172C13.3087 12.3553 13.363 12.3056 13.4279 12.2739C13.4927 12.2422 13.5653 12.23 13.637 12.2388C13.7086 12.2475 13.7762 12.2768 13.8315 12.3231C13.8869 12.3694 13.9276 12.4308 13.9488 12.4998L15.1322 16.3451L16.9795 11.7224C17.0054 11.6568 17.0493 11.6 17.1062 11.5583C17.1631 11.5167 17.2306 11.492 17.3009 11.4872C17.3713 11.4823 17.4415 11.4974 17.5036 11.5307C17.5657 11.5641 17.6171 11.6144 17.6519 11.6757L19.0385 14.1038H22.0165C22.0935 13.81 22.1448 13.51 22.1696 13.2073C22.229 12.7412 22.1931 12.268 22.0644 11.8161C21.9356 11.3643 21.7164 10.9433 21.4203 10.5786C21.4028 10.5613 21.3872 10.5423 21.3736 10.5218C21.0754 10.1245 20.6884 9.80241 20.2436 9.58118C19.7988 9.35996 19.3085 9.24572 18.8117 9.2476C17.0714 9.2476 15.7378 10.5651 15.7243 10.5789C15.6896 10.6137 15.6484 10.6412 15.6031 10.66C15.5577 10.6788 15.5091 10.6885 15.46 10.6885C15.4109 10.6885 15.3623 10.6788 15.317 10.66C15.2716 10.6412 15.2304 10.6137 15.1957 10.5789L15.1954 10.5787C15.1692 10.5531 13.8306 9.2476 12.1079 9.2476C11.6115 9.24761 11.1218 9.36267 10.6773 9.58375C10.2328 9.80482 9.84564 10.1259 9.5461 10.5218ZM3.95752 14.1042H6.94595V14.8513H3.95752V14.1042Z" fill="#F7F7F8"/>
<path d="M15.2398 22.6238L15.0925 22.8258L15.0926 22.8259L15.2398 22.6238ZM8.00519 13.2674L8.2546 13.2478L8.25352 13.2386L8.00519 13.2674ZM8.14975 11.5776L7.90993 11.507L7.90993 11.507L8.14975 11.5776ZM8.94393 10.0791L9.1372 10.2381L9.14384 10.2293L8.94393 10.0791ZM12.1079 8.50049L12.1177 8.2505L12.1082 8.25049L12.1079 8.50049ZM15.4598 9.81465L15.2972 10.0045L15.4598 10.1438L15.6225 10.0045L15.4598 9.81465ZM18.8117 8.50049L18.8115 8.25031L18.802 8.25068L18.8117 8.50049ZM20.5799 8.91612L20.4682 9.13981L20.4682 9.13981L20.5799 8.91612ZM21.975 10.0791L21.7749 10.2294L21.782 10.238L21.975 10.0791ZM22.9141 13.2674L22.6657 13.2385L22.6651 13.2456L22.9141 13.2674ZM22.7815 14.1038L22.5379 14.0475L22.4671 14.3538H22.7815V14.1038ZM24.4939 14.1038V14.3538H24.6707L24.7296 14.1871L24.4939 14.1038ZM24.9834 13.5107L25.1099 13.7264L25.1099 13.7264L24.9834 13.5107ZM25.74 13.3728L25.7822 13.1264L25.7822 13.1264L25.74 13.3728ZM26.4073 13.755L26.2161 13.9162L26.2161 13.9162L26.4073 13.755ZM26.4073 15.1997L26.2161 15.0385L26.2161 15.0385L26.4073 15.1997ZM25.74 15.5819L25.6977 15.3355L25.6977 15.3355L25.74 15.5819ZM24.9834 15.444L24.8569 15.6596L24.8569 15.6596L24.9834 15.444ZM24.4939 14.8509L24.7296 14.7676L24.6707 14.6009H24.4939V14.8509ZM22.5738 14.8509V14.6009H22.3956L22.3375 14.7694L22.5738 14.8509ZM15.6799 22.6238L15.8271 22.8259L15.8272 22.8258L15.6799 22.6238ZM25.7533 14.1668L25.6145 14.3746L25.6145 14.3746L25.7533 14.1668ZM25.2352 14.6849L25.0273 14.8238L25.0273 14.8238L25.2352 14.6849ZM25.4029 14.8225L25.4985 14.5915L25.4985 14.5915L25.4029 14.8225ZM25.6187 14.8437L25.5699 14.5985L25.5699 14.5985L25.6187 14.8437ZM25.81 14.7415L25.6332 14.5647L25.6332 14.5647L25.81 14.7415ZM25.9122 14.5502L25.667 14.5015L25.667 14.5015L25.9122 14.5502ZM25.8909 14.3344L25.66 14.4301L25.66 14.4301L25.8909 14.3344ZM9.49941 10.5786L9.32355 10.4009L9.31396 10.4104L9.30544 10.4209L9.49941 10.5786ZM9.5461 10.5218L9.34674 10.3709L9.34207 10.3771L9.3378 10.3836L9.5461 10.5218ZM8.7523 13.2372L9.00173 13.2161L9.00003 13.2036L8.7523 13.2372ZM15.4598 21.8584L15.3112 22.0594L15.4598 22.1694L15.6085 22.0594L15.4598 21.8584ZM21.7729 14.8509L22.0056 14.9423L22.1397 14.6009H21.7729V14.8509ZM18.8218 14.8509L18.8206 15.1009H18.8218V14.8509ZM18.6339 14.7991L18.5068 15.0144L18.5068 15.0144L18.6339 14.7991ZM18.4976 14.6597L18.7158 14.5377L18.7146 14.5356L18.4976 14.6597ZM17.387 12.7172L17.604 12.5931L17.3471 12.1437L17.1549 12.6243L17.387 12.7172ZM15.4333 17.6021L15.2012 17.5093L15.2012 17.5094L15.4333 17.6021ZM15.2959 17.7729L15.1557 17.5659L15.1557 17.5659L15.2959 17.7729ZM15.0863 17.8371L15.0864 17.5871H15.0863V17.8371ZM15.0699 17.8371L15.06 18.0871H15.0699V17.8371ZM14.7281 17.5756L14.4891 17.6492L14.4895 17.6504L14.7281 17.5756ZM13.48 13.5203L13.7189 13.4468L13.5539 12.9104L13.2655 13.3919L13.48 13.5203ZM12.7915 14.6697L13.0058 14.7985L13.006 14.7982L12.7915 14.6697ZM12.6553 14.8025L12.7785 15.02L12.7785 15.02L12.6553 14.8025ZM12.4714 14.8509L12.4714 15.1009L12.4715 15.1009L12.4714 14.8509ZM9.85653 14.8509H9.60653V15.1009H9.85653V14.8509ZM9.85653 14.1038V13.8538H9.60653V14.1038H9.85653ZM12.2596 14.1038V14.3538H12.4012L12.474 14.2324L12.2596 14.1038ZM13.2716 12.4172L13.0573 12.2885L13.0572 12.2886L13.2716 12.4172ZM13.4279 12.2739L13.5376 12.4986L13.5376 12.4986L13.4279 12.2739ZM13.637 12.2388L13.6672 11.9906L13.6672 11.9906L13.637 12.2388ZM13.9488 12.4998L13.7099 12.5733L13.7099 12.5733L13.9488 12.4998ZM15.1322 16.3451L14.8933 16.4187L15.1016 17.0955L15.3644 16.4379L15.1322 16.3451ZM16.9795 11.7224L17.2116 11.8152L17.2119 11.8144L16.9795 11.7224ZM17.1062 11.5583L16.9586 11.3566L16.9586 11.3566L17.1062 11.5583ZM17.6519 11.6757L17.4343 11.7989L17.4348 11.7997L17.6519 11.6757ZM19.0385 14.1038L18.8214 14.2278L18.8934 14.3538H19.0385V14.1038ZM22.0165 14.1038V14.3538H22.2094L22.2583 14.1672L22.0165 14.1038ZM22.1696 13.2073L21.9214 13.1757L21.9205 13.1868L22.1696 13.2073ZM21.4203 10.5786L21.6143 10.421L21.6058 10.4104L21.5961 10.4009L21.4203 10.5786ZM21.3736 10.5218L21.5819 10.3836L21.5779 10.3775L21.5735 10.3717L21.3736 10.5218ZM20.2436 9.58118L20.1323 9.80502L20.1323 9.80502L20.2436 9.58118ZM18.8117 9.2476L18.8117 9.4976L18.8127 9.4976L18.8117 9.2476ZM15.7243 10.5789L15.9012 10.7556L15.9035 10.7533L15.7243 10.5789ZM15.6031 10.66L15.6988 10.891L15.6988 10.891L15.6031 10.66ZM15.317 10.66L15.4127 10.4291L15.4127 10.4291L15.317 10.66ZM15.1957 10.5789L15.3726 10.4023L15.3704 10.4L15.1957 10.5789ZM15.1954 10.5787L15.3701 10.3998L15.37 10.3997L15.1954 10.5787ZM12.1079 9.2476L12.1079 8.9976L12.1079 8.9976L12.1079 9.2476ZM10.6773 9.58375L10.566 9.3599L10.566 9.3599L10.6773 9.58375ZM6.94595 14.1042H7.19595V13.8542H6.94595V14.1042ZM3.95752 14.1042V13.8542H3.70752V14.1042H3.95752ZM6.94595 14.8513V15.1013H7.19595V14.8513H6.94595ZM3.95752 14.8513H3.70752V15.1013H3.95752V14.8513ZM15.0926 22.8259C15.1992 22.9036 15.3278 22.9455 15.4598 22.9455V22.4455C15.4337 22.4455 15.4082 22.4372 15.3871 22.4218L15.0926 22.8259ZM7.75596 13.287C7.99049 16.2759 10.5093 19.4827 15.0925 22.8258L15.3871 22.4219C10.8198 19.0903 8.47041 16.0004 8.25443 13.2479L7.75596 13.287ZM7.90993 11.507C7.73914 12.0871 7.68708 12.6956 7.75686 13.2963L8.25352 13.2386C8.1915 12.7047 8.23777 12.1638 8.38957 11.6483L7.90993 11.507ZM8.75086 9.92032C8.36673 10.3873 8.08072 10.927 7.90993 11.507L8.38957 11.6483C8.54138 11.1327 8.79559 10.653 9.13701 10.2379L8.75086 9.92032ZM10.2279 8.69245C9.64395 8.9838 9.1359 9.40718 8.74403 9.92901L9.14384 10.2293C9.48908 9.76952 9.93667 9.39653 10.4511 9.13986L10.2279 8.69245ZM12.1082 8.25049C11.4556 8.24978 10.8118 8.4011 10.2279 8.69245L10.4511 9.13986C10.9656 8.88318 11.5327 8.74987 12.1077 8.75049L12.1082 8.25049ZM15.6225 9.62477C14.6422 8.78526 13.4073 8.30111 12.1177 8.25068L12.0982 8.7503C13.2753 8.79633 14.4025 9.23825 15.2972 10.0045L15.6225 9.62477ZM18.802 8.25068C17.5124 8.30111 16.2775 8.78526 15.2972 9.62477L15.6225 10.0045C16.5172 9.23825 17.6444 8.79633 18.8215 8.7503L18.802 8.25068ZM20.6915 8.69243C20.1077 8.40107 19.464 8.24975 18.8115 8.25049L18.812 8.75049C19.3868 8.74984 19.9539 8.88314 20.4682 9.13981L20.6915 8.69243ZM22.1749 9.92906C21.7833 9.4072 21.2753 8.9838 20.6915 8.69243L20.4682 9.13981C20.9826 9.39649 21.43 9.76948 21.7751 10.2292L22.1749 9.92906ZM23.0094 11.5069C22.8385 10.9268 22.5524 10.3872 22.168 9.92025L21.782 10.238C22.1236 10.653 22.3779 11.1326 22.5298 11.6482L23.0094 11.5069ZM23.1624 13.2963C23.2323 12.6956 23.1803 12.087 23.0094 11.5069L22.5298 11.6482C22.6816 12.1638 22.7279 12.7047 22.6658 13.2385L23.1624 13.2963ZM23.0251 14.1601C23.0913 13.8734 23.1375 13.5824 23.1632 13.2892L22.6651 13.2456C22.6414 13.5155 22.5989 13.7835 22.5379 14.0475L23.0251 14.1601ZM24.4939 13.8538H22.7815V14.3538H24.4939V13.8538ZM24.8569 13.2951C24.578 13.4587 24.366 13.7156 24.2582 14.0205L24.7296 14.1871C24.798 13.9935 24.9328 13.8303 25.1099 13.7264L24.8569 13.2951ZM25.7822 13.1264C25.4636 13.0718 25.1358 13.1315 24.8569 13.2951L25.1099 13.7264C25.2871 13.6225 25.4953 13.5845 25.6977 13.6192L25.7822 13.1264ZM26.5984 13.5939C26.39 13.3467 26.1009 13.1811 25.7822 13.1264L25.6977 13.6192C25.9001 13.654 26.0837 13.7591 26.2161 13.9162L26.5984 13.5939ZM26.9211 14.4774C26.9211 14.154 26.8068 13.8411 26.5984 13.5939L26.2161 13.9162C26.3485 14.0732 26.4211 14.272 26.4211 14.4774H26.9211ZM26.5984 15.3608C26.8068 15.1136 26.9211 14.8007 26.9211 14.4774H26.4211C26.4211 14.6827 26.3485 14.8815 26.2161 15.0385L26.5984 15.3608ZM25.7822 15.8283C26.1009 15.7736 26.39 15.608 26.5984 15.3608L26.2161 15.0385C26.0837 15.1956 25.9001 15.3008 25.6977 15.3355L25.7822 15.8283ZM24.8569 15.6596C25.1358 15.8232 25.4636 15.883 25.7822 15.8283L25.6977 15.3355C25.4953 15.3702 25.2871 15.3323 25.1099 15.2283L24.8569 15.6596ZM24.2582 14.9342C24.366 15.2391 24.578 15.496 24.8569 15.6596L25.1099 15.2283C24.9328 15.1244 24.798 14.9612 24.7296 14.7676L24.2582 14.9342ZM22.5738 15.1009H24.4939V14.6009H22.5738V15.1009ZM15.8272 22.8258C19.5881 20.0825 21.9466 17.4377 22.8102 14.9324L22.3375 14.7694C21.5245 17.1278 19.2681 19.697 15.5325 22.4219L15.8272 22.8258ZM15.4598 22.9455C15.5918 22.9455 15.7204 22.9036 15.8271 22.8259L15.5326 22.4218C15.5115 22.4372 15.486 22.4455 15.4598 22.4455V22.9455ZM25.5458 14.3538C25.5702 14.3538 25.5941 14.3611 25.6145 14.3746L25.8922 13.9589C25.7897 13.8904 25.6691 13.8538 25.5458 13.8538V14.3538ZM25.4584 14.39C25.4816 14.3668 25.513 14.3538 25.5458 14.3538V13.8538C25.3804 13.8538 25.2218 13.9195 25.1049 14.0364L25.4584 14.39ZM25.4223 14.4774C25.4223 14.4446 25.4353 14.4132 25.4584 14.39L25.1049 14.0364C24.988 14.1534 24.9223 14.312 24.9223 14.4774H25.4223ZM25.4431 14.546C25.4295 14.5257 25.4223 14.5018 25.4223 14.4774H24.9223C24.9223 14.6007 24.9588 14.7212 25.0273 14.8238L25.4431 14.546ZM25.4985 14.5915C25.476 14.5822 25.4567 14.5663 25.4431 14.546L25.0273 14.8238C25.0959 14.9263 25.1932 15.0063 25.3072 15.0534L25.4985 14.5915ZM25.5699 14.5985C25.5459 14.6033 25.5211 14.6009 25.4985 14.5915L25.3072 15.0534C25.4211 15.1006 25.5465 15.113 25.6675 15.0889L25.5699 14.5985ZM25.6332 14.5647C25.6159 14.582 25.5939 14.5938 25.5699 14.5985L25.6675 15.0889C25.7884 15.0649 25.8995 15.0055 25.9867 14.9183L25.6332 14.5647ZM25.667 14.5015C25.6622 14.5254 25.6505 14.5474 25.6332 14.5647L25.9867 14.9183C26.0739 14.8311 26.1333 14.72 26.1574 14.599L25.667 14.5015ZM25.66 14.4301C25.6693 14.4527 25.6718 14.4775 25.667 14.5015L26.1574 14.599C26.1814 14.478 26.1691 14.3527 26.1219 14.2387L25.66 14.4301ZM25.6145 14.3746C25.6348 14.3882 25.6506 14.4075 25.66 14.4301L26.1219 14.2387C26.0747 14.1248 25.9948 14.0274 25.8922 13.9589L25.6145 14.3746ZM9.67527 10.7563C9.70487 10.727 9.73139 10.6947 9.75441 10.66L9.3378 10.3836C9.33365 10.3898 9.32888 10.3956 9.32355 10.4009L9.67527 10.7563ZM9.09102 11.8981C9.21027 11.4737 9.41528 11.0783 9.69338 10.7363L9.30544 10.4209C8.98422 10.8159 8.74741 11.2726 8.60966 11.7628L9.09102 11.8981ZM9.00003 13.2036C8.9408 12.7668 8.97176 12.3224 9.09102 11.8981L8.60966 11.7628C8.47191 12.253 8.43615 12.7662 8.50457 13.2708L9.00003 13.2036ZM15.6085 21.6574C10.3713 17.7831 9.144 14.9017 9.00141 13.2161L8.50319 13.2582C8.66319 15.1497 10.0209 18.1459 15.3112 22.0594L15.6085 21.6574ZM21.5402 14.7595C20.8722 16.46 19.1919 18.7865 15.3112 21.6574L15.6085 22.0594C19.5313 19.1574 21.2907 16.7622 22.0056 14.9423L21.5402 14.7595ZM18.8218 15.1009H21.7729V14.6009H18.8218V15.1009ZM18.5068 15.0144C18.6019 15.0705 18.7102 15.1004 18.8206 15.1009L18.823 14.6009C18.8012 14.6008 18.7797 14.5949 18.7609 14.5838L18.5068 15.0144ZM18.2794 14.7817C18.3333 14.878 18.4117 14.9584 18.5068 15.0144L18.7609 14.5838C18.742 14.5727 18.7265 14.5568 18.7158 14.5377L18.2794 14.7817ZM17.17 12.8413L18.2806 14.7837L18.7146 14.5356L17.604 12.5931L17.17 12.8413ZM15.6654 17.695L17.6191 12.81L17.1549 12.6243L15.2012 17.5093L15.6654 17.695ZM15.436 17.9799C15.5393 17.91 15.6192 17.8107 15.6655 17.6949L15.2012 17.5094C15.192 17.5323 15.1762 17.552 15.1557 17.5659L15.436 17.9799ZM15.0862 18.0871C15.2109 18.0872 15.3328 18.0498 15.436 17.9799L15.1557 17.5659C15.1352 17.5797 15.1111 17.5871 15.0864 17.5871L15.0862 18.0871ZM15.0699 18.0871H15.0863V17.5871H15.0699V18.0871ZM14.7056 17.9591C14.8078 18.0372 14.9316 18.0819 15.0601 18.0869L15.0796 17.5873C15.0542 17.5863 15.0297 17.5775 15.0094 17.562L14.7056 17.9591ZM14.4895 17.6504C14.528 17.7731 14.6035 17.8809 14.7056 17.9591L15.0094 17.562C14.9892 17.5465 14.9742 17.5251 14.9666 17.5008L14.4895 17.6504ZM13.2411 13.5938L14.4891 17.6492L14.967 17.5021L13.7189 13.4468L13.2411 13.5938ZM13.006 14.7982L13.6945 13.6488L13.2655 13.3919L12.5771 14.5413L13.006 14.7982ZM12.7785 15.02C12.8721 14.967 12.9504 14.8907 13.0058 14.7985L12.5772 14.541C12.5663 14.5593 12.5507 14.5744 12.5322 14.5849L12.7785 15.02ZM12.4715 15.1009C12.5791 15.1009 12.6848 15.073 12.7785 15.02L12.5322 14.5849C12.5136 14.5954 12.4927 14.6009 12.4714 14.6009L12.4715 15.1009ZM9.85653 15.1009H12.4714V14.6009H9.85653V15.1009ZM9.60653 14.1038V14.8509H10.1065V14.1038H9.60653ZM12.2596 13.8538H9.85653V14.3538H12.2596V13.8538ZM13.0572 12.2886L12.0452 13.9752L12.474 14.2324L13.4859 12.5458L13.0572 12.2886ZM13.3182 12.0493C13.2099 12.1021 13.1193 12.1852 13.0573 12.2885L13.4859 12.546C13.4982 12.5255 13.5161 12.509 13.5376 12.4986L13.3182 12.0493ZM13.6672 11.9906C13.5476 11.976 13.4264 11.9964 13.3182 12.0493L13.5376 12.4986C13.559 12.4881 13.583 12.4841 13.6067 12.4869L13.6672 11.9906ZM13.992 12.1314C13.8996 12.0541 13.7868 12.0052 13.6672 11.9906L13.6067 12.4869C13.6304 12.4898 13.6528 12.4995 13.6711 12.5148L13.992 12.1314ZM14.1878 12.4263C14.1524 12.3111 14.0843 12.2087 13.992 12.1314L13.6711 12.5148C13.6894 12.5302 13.7028 12.5504 13.7099 12.5733L14.1878 12.4263ZM15.3712 16.2716L14.1878 12.4262L13.7099 12.5733L14.8933 16.4187L15.3712 16.2716ZM16.7473 11.6296L14.9001 16.2524L15.3644 16.4379L17.2116 11.8152L16.7473 11.6296ZM16.9586 11.3566C16.8636 11.4261 16.7903 11.521 16.747 11.6304L17.2119 11.8144C17.2205 11.7927 17.235 11.7739 17.2539 11.7601L16.9586 11.3566ZM17.2836 11.2378C17.1662 11.2459 17.0536 11.2871 16.9586 11.3566L17.2539 11.7601C17.2727 11.7463 17.295 11.7382 17.3183 11.7366L17.2836 11.2378ZM17.622 11.3105C17.5183 11.2548 17.401 11.2296 17.2836 11.2378L17.3183 11.7366C17.3415 11.7349 17.3648 11.7399 17.3853 11.751L17.622 11.3105ZM17.8694 11.5525C17.8114 11.4501 17.7256 11.3662 17.622 11.3105L17.3853 11.751C17.4058 11.762 17.4228 11.7786 17.4343 11.7989L17.8694 11.5525ZM19.2556 13.9798L17.869 11.5517L17.4348 11.7997L18.8214 14.2278L19.2556 13.9798ZM22.0165 13.8538H19.0385V14.3538H22.0165V13.8538ZM21.9205 13.1868C21.8968 13.475 21.848 13.7606 21.7746 14.0404L22.2583 14.1672C22.339 13.8593 22.3928 13.545 22.4188 13.2277L21.9205 13.1868ZM21.8239 11.8847C21.9435 12.304 21.9767 12.7432 21.9216 13.1757L22.4176 13.2388C22.4812 12.7392 22.4428 12.2319 22.3048 11.7476L21.8239 11.8847ZM21.2262 10.7362C21.5011 11.0746 21.7044 11.4654 21.8239 11.8847L22.3048 11.7476C22.1667 11.2633 21.9318 10.8119 21.6143 10.421L21.2262 10.7362ZM21.1653 10.66C21.1883 10.6947 21.2148 10.727 21.2444 10.7563L21.5961 10.4009C21.5908 10.3956 21.586 10.3898 21.5819 10.3836L21.1653 10.66ZM20.1323 9.80502C20.5422 10.0089 20.8988 10.3057 21.1736 10.6719L21.5735 10.3717C21.2519 9.94327 20.8346 9.59591 20.355 9.35734L20.1323 9.80502ZM18.8127 9.4976C19.2705 9.49587 19.7224 9.60114 20.1323 9.80502L20.355 9.35734C19.8753 9.11877 19.3465 8.99558 18.8108 8.9976L18.8127 9.4976ZM15.9035 10.7533C15.8986 10.7584 16.2186 10.4403 16.7489 10.1225C17.2799 9.80441 18.0033 9.4976 18.8117 9.4976V8.9976C17.8798 8.9976 17.0662 9.34955 16.4919 9.69364C15.917 10.0381 15.5635 10.3857 15.5451 10.4046L15.9035 10.7533ZM15.6988 10.891C15.7745 10.8596 15.8433 10.8136 15.9012 10.7556L15.5474 10.4023C15.536 10.4138 15.5223 10.4229 15.5073 10.4291L15.6988 10.891ZM15.46 10.9385C15.542 10.9385 15.6231 10.9224 15.6988 10.891L15.5073 10.4291C15.4923 10.4353 15.4763 10.4385 15.46 10.4385V10.9385ZM15.2212 10.891C15.2969 10.9224 15.3781 10.9385 15.46 10.9385V10.4385C15.4438 10.4385 15.4277 10.4353 15.4127 10.4291L15.2212 10.891ZM15.0189 10.7556C15.0768 10.8136 15.1455 10.8596 15.2212 10.891L15.4127 10.4291C15.3977 10.4229 15.3841 10.4138 15.3726 10.4023L15.0189 10.7556ZM15.0208 10.7576L15.0211 10.7578L15.3704 10.4L15.3701 10.3998L15.0208 10.7576ZM12.1079 9.4976C12.9076 9.4976 13.628 9.80146 14.1599 10.1183C14.6901 10.4341 15.0155 10.7524 15.0209 10.7576L15.37 10.3997C15.3492 10.3794 14.9922 10.0321 14.4158 9.68876C13.8412 9.34648 13.0309 8.9976 12.1079 8.9976V9.4976ZM10.7887 9.80759C11.1986 9.60371 11.6501 9.49761 12.1079 9.4976L12.1079 8.9976C11.5729 8.99761 11.0451 9.12162 10.566 9.3599L10.7887 9.80759ZM9.74547 10.6726C10.0217 10.3076 10.3788 10.0115 10.7887 9.80759L10.566 9.3599C10.0869 9.59819 9.66958 9.94426 9.34674 10.3709L9.74547 10.6726ZM6.94595 13.8542H3.95752V14.3542H6.94595V13.8542ZM7.19595 14.8513V14.1042H6.69595V14.8513H7.19595ZM3.95752 15.1013H6.94595V14.6013H3.95752V15.1013ZM3.70752 14.1042V14.8513H4.20752V14.1042H3.70752Z" fill="#F7F7F8"/>
</svg>
