<svg width="31" height="31" viewBox="0 0 31 31" fill="none" xmlns="http://www.w3.org/2000/svg">
<circle cx="15.7388" cy="15.3447" r="14.5" fill="#DEA700" stroke="white"/>
<path fill-rule="evenodd" clip-rule="evenodd" d="M15.8843 22.8645C15.8052 22.8645 15.7282 22.8394 15.6643 22.7928C11.089 19.4554 8.65489 16.3071 8.42964 13.4364C8.36374 12.8691 8.4129 12.2944 8.5742 11.7466C8.7355 11.1988 9.00561 10.6891 9.36838 10.2481C9.73694 9.75729 10.2148 9.35911 10.764 9.0851C11.3131 8.81108 11.9186 8.66877 12.5324 8.66944C13.7658 8.71766 14.9468 9.1807 15.8843 9.9836C16.8218 9.1807 18.0028 8.71766 19.2362 8.66944C19.8499 8.66874 20.4552 8.81105 21.0043 9.08507C21.5534 9.35909 22.0311 9.75729 22.3995 10.2481C22.7624 10.689 23.0326 11.1987 23.194 11.7465C23.3554 12.2943 23.4045 12.8691 23.3386 13.4364C23.3139 13.7179 23.2696 13.9974 23.206 14.2728H24.9183C25.0064 14.0235 25.1798 13.8134 25.4079 13.6797C25.6359 13.5459 25.9039 13.4971 26.1644 13.5418C26.425 13.5865 26.6613 13.7219 26.8317 13.924C27.0021 14.1261 27.0956 14.3819 27.0956 14.6463C27.0956 14.9107 27.0021 15.1665 26.8317 15.3686C26.6613 15.5708 26.425 15.7061 26.1644 15.7508C25.9039 15.7955 25.6359 15.7467 25.4079 15.6129C25.1798 15.4792 25.0064 15.2691 24.9183 15.0199H22.9983C22.16 17.4517 19.8526 20.0587 16.1043 22.7928C16.0404 22.8394 15.9634 22.8645 15.8843 22.8645ZM26.1778 14.3357C26.1164 14.2947 26.0441 14.2728 25.9703 14.2728C25.8712 14.2728 25.7762 14.3121 25.7061 14.3822C25.6361 14.4522 25.5967 14.5472 25.5967 14.6463C25.5967 14.7202 25.6186 14.7924 25.6597 14.8538C25.7007 14.9153 25.759 14.9632 25.8273 14.9914C25.8956 15.0197 25.9707 15.0271 26.0431 15.0127C26.1156 14.9983 26.1822 14.9627 26.2344 14.9104C26.2866 14.8582 26.3222 14.7916 26.3366 14.7192C26.351 14.6467 26.3436 14.5716 26.3154 14.5034C26.2871 14.4351 26.2392 14.3768 26.1778 14.3357ZM9.97055 10.6907C9.95697 10.7112 9.94132 10.7302 9.92386 10.7475C9.62419 11.116 9.40329 11.5421 9.27479 11.9994C9.14628 12.4567 9.11292 12.9354 9.17675 13.4061C9.32804 15.1947 10.6205 18.1334 15.8843 22.0274C19.7861 19.1409 21.5059 16.78 22.1974 15.0199H19.2463C19.1801 15.0195 19.1153 15.0017 19.0583 14.9681C19.0013 14.9345 18.9543 14.8863 18.922 14.8286L17.8115 12.8861L15.8578 17.7711C15.8301 17.8405 15.7822 17.8999 15.7203 17.9418C15.6584 17.9837 15.5854 18.0061 15.5107 18.0061H15.4943C15.4173 18.003 15.3431 17.9763 15.282 17.9295C15.2208 17.8827 15.1756 17.8181 15.1525 17.7446L13.9045 13.6893L13.216 14.8387C13.1828 14.8939 13.1359 14.9397 13.0798 14.9714C13.0237 15.0032 12.9603 15.0198 12.8959 15.0199H10.281V14.2728H12.684L13.696 12.5862C13.7332 12.5243 13.7875 12.4745 13.8523 12.4429C13.9172 12.4112 13.9898 12.399 14.0614 12.4077C14.1331 12.4165 14.2006 12.4457 14.256 12.4921C14.3113 12.5384 14.352 12.5997 14.3733 12.6687L15.5567 16.5141L17.4039 11.8913C17.4298 11.8258 17.4738 11.7689 17.5307 11.7273C17.5876 11.6857 17.6551 11.661 17.7254 11.6561C17.7957 11.6512 17.866 11.6663 17.9281 11.6997C17.9902 11.7331 18.0416 11.7833 18.0763 11.8446L19.4629 14.2728H22.4409C22.518 13.9789 22.5692 13.679 22.5941 13.3762C22.6534 12.9102 22.6176 12.4369 22.4888 11.9851C22.36 11.5332 22.1409 11.1122 21.8447 10.7475C21.8273 10.7302 21.8116 10.7112 21.798 10.6907C21.4998 10.2935 21.1129 9.97135 20.6681 9.75013C20.2233 9.5289 19.733 9.41467 19.2362 9.41654C17.4958 9.41654 16.1622 10.7341 16.1488 10.7479C16.1141 10.7826 16.0729 10.8102 16.0275 10.829C15.9822 10.8478 15.9336 10.8575 15.8845 10.8575C15.8354 10.8575 15.7868 10.8478 15.7414 10.829C15.6961 10.8102 15.6549 10.7826 15.6202 10.7479L15.6199 10.7476C15.5937 10.722 14.255 9.41654 12.5324 9.41654C12.036 9.41655 11.5463 9.53161 11.1018 9.75269C10.6573 9.97377 10.2701 10.2949 9.97055 10.6907ZM4.38184 14.273H7.37027V15.0201H4.38184V14.273Z" fill="#F7F7F8"/>
<path d="M15.6643 22.7928L15.5169 22.9948L15.517 22.9948L15.6643 22.7928ZM8.42964 13.4364L8.67905 13.4168L8.67797 13.4075L8.42964 13.4364ZM8.5742 11.7466L8.33438 11.676L8.33438 11.676L8.5742 11.7466ZM9.36838 10.2481L9.56164 10.407L9.56829 10.3982L9.36838 10.2481ZM10.764 9.0851L10.6523 8.8614L10.764 9.0851ZM12.5324 8.66944L12.5422 8.41945L12.5327 8.41944L12.5324 8.66944ZM15.8843 9.9836L15.7217 10.1735L15.8843 10.3128L16.0469 10.1735L15.8843 9.9836ZM19.2362 8.66944L19.2359 8.41926L19.2264 8.41963L19.2362 8.66944ZM21.0043 9.08507L20.8927 9.30876L20.8927 9.30876L21.0043 9.08507ZM22.3995 10.2481L22.1993 10.3983L22.2064 10.407L22.3995 10.2481ZM23.3386 13.4364L23.0901 13.4075L23.0895 13.4145L23.3386 13.4364ZM23.206 14.2728L22.9624 14.2165L22.8916 14.5228H23.206V14.2728ZM24.9183 14.2728V14.5228H25.0951L25.154 14.3561L24.9183 14.2728ZM25.4079 13.6797L25.2814 13.464L25.2814 13.464L25.4079 13.6797ZM26.1644 13.5418L26.1221 13.7882L26.1221 13.7882L26.1644 13.5418ZM26.8317 13.924L26.6406 14.0851L26.6406 14.0851L26.8317 13.924ZM26.8317 15.3686L26.6406 15.2075L26.6406 15.2075L26.8317 15.3686ZM26.1644 15.7508L26.2067 15.9972L26.2067 15.9972L26.1644 15.7508ZM24.9183 15.0199L25.154 14.9365L25.0951 14.7699H24.9183V15.0199ZM22.9983 15.0199V14.7699H22.82L22.7619 14.9384L22.9983 15.0199ZM16.1043 22.7928L16.2516 22.9948L16.2516 22.9948L16.1043 22.7928ZM26.1778 14.3357L26.0389 14.5436L26.0389 14.5436L26.1778 14.3357ZM25.6597 14.8538L25.4518 14.9927L25.4518 14.9927L25.6597 14.8538ZM25.8273 14.9914L25.923 14.7605L25.923 14.7605L25.8273 14.9914ZM26.0431 15.0127L25.9944 14.7675L25.9944 14.7675L26.0431 15.0127ZM26.2344 14.9104L26.0576 14.7337L26.0576 14.7337L26.2344 14.9104ZM26.3366 14.7192L26.0914 14.6704L26.0914 14.6704L26.3366 14.7192ZM26.3154 14.5034L26.0844 14.599L26.0844 14.599L26.3154 14.5034ZM9.92386 10.7475L9.748 10.5698L9.73841 10.5793L9.72989 10.5898L9.92386 10.7475ZM9.97055 10.6907L9.77119 10.5399L9.76652 10.5461L9.76224 10.5525L9.97055 10.6907ZM9.17675 13.4061L9.42617 13.385L9.42448 13.3725L9.17675 13.4061ZM15.8843 22.0274L15.7356 22.2283L15.8843 22.3383L16.033 22.2283L15.8843 22.0274ZM22.1974 15.0199L22.43 15.1113L22.5642 14.7699H22.1974V15.0199ZM19.2463 15.0199L19.2451 15.2699H19.2463V15.0199ZM19.0583 14.9681L18.9313 15.1834L18.9313 15.1834L19.0583 14.9681ZM18.922 14.8286L19.1403 14.7066L19.1391 14.7045L18.922 14.8286ZM17.8115 12.8861L18.0285 12.762L17.7716 12.3126L17.5793 12.7933L17.8115 12.8861ZM15.8578 17.7711L15.6256 17.6783L15.6256 17.6783L15.8578 17.7711ZM15.7203 17.9418L15.5801 17.7348L15.5801 17.7348L15.7203 17.9418ZM15.5107 18.0061L15.5108 17.7561H15.5107V18.0061ZM15.4943 18.0061L15.4845 18.2561H15.4943V18.0061ZM15.1525 17.7446L14.9136 17.8181L14.914 17.8194L15.1525 17.7446ZM13.9045 13.6893L14.1434 13.6157L13.9783 13.0794L13.69 13.5608L13.9045 13.6893ZM13.216 14.8387L13.4303 14.9674L13.4305 14.9671L13.216 14.8387ZM13.0798 14.9714L13.2029 15.189L13.2029 15.189L13.0798 14.9714ZM12.8959 15.0199L12.8959 15.2699L12.8959 15.2699L12.8959 15.0199ZM10.281 15.0199H10.031V15.2699H10.281V15.0199ZM10.281 14.2728V14.0228H10.031V14.2728H10.281ZM12.684 14.2728V14.5228H12.8256L12.8984 14.4014L12.684 14.2728ZM13.696 12.5862L13.4817 12.4574L13.4816 12.4575L13.696 12.5862ZM13.8523 12.4429L13.962 12.6675L13.962 12.6675L13.8523 12.4429ZM14.0614 12.4077L14.0312 12.6559L14.0312 12.6559L14.0614 12.4077ZM14.3733 12.6687L14.1343 12.7422L14.1343 12.7422L14.3733 12.6687ZM15.5567 16.5141L15.3177 16.5876L15.526 17.2645L15.7888 16.6068L15.5567 16.5141ZM17.4039 11.8913L17.6361 11.9841L17.6364 11.9833L17.4039 11.8913ZM17.5307 11.7273L17.383 11.5255L17.383 11.5255L17.5307 11.7273ZM18.0763 11.8446L17.8588 11.9679L17.8592 11.9686L18.0763 11.8446ZM19.4629 14.2728L19.2458 14.3967L19.3178 14.5228H19.4629V14.2728ZM22.4409 14.2728V14.5228H22.6338L22.6827 14.3362L22.4409 14.2728ZM22.5941 13.3762L22.3458 13.3446L22.3449 13.3558L22.5941 13.3762ZM21.8447 10.7475L22.0388 10.5899L22.0302 10.5794L22.0206 10.5698L21.8447 10.7475ZM21.798 10.6907L22.0063 10.5525L22.0023 10.5465L21.998 10.5407L21.798 10.6907ZM20.6681 9.75013L20.5567 9.97397L20.5567 9.97397L20.6681 9.75013ZM19.2362 9.41654L19.2362 9.66655L19.2371 9.66654L19.2362 9.41654ZM16.1488 10.7479L16.3257 10.9246L16.3279 10.9222L16.1488 10.7479ZM16.0275 10.829L16.1233 11.0599L16.1233 11.0599L16.0275 10.829ZM15.7414 10.829L15.8372 10.598L15.8372 10.598L15.7414 10.829ZM15.6202 10.7479L15.7971 10.5712L15.7948 10.569L15.6202 10.7479ZM15.6199 10.7476L15.7945 10.5687L15.7944 10.5686L15.6199 10.7476ZM12.5324 9.41654L12.5324 9.16654L12.5324 9.16654L12.5324 9.41654ZM11.1018 9.75269L10.9904 9.52885L10.9904 9.52885L11.1018 9.75269ZM7.37027 14.273H7.62027V14.023H7.37027V14.273ZM4.38184 14.273V14.023H4.13184V14.273H4.38184ZM7.37027 15.0201V15.2701H7.62027V15.0201H7.37027ZM4.38184 15.0201H4.13184V15.2701H4.38184V15.0201ZM15.517 22.9948C15.6237 23.0726 15.7523 23.1145 15.8843 23.1145V22.6145C15.8581 22.6145 15.8327 22.6061 15.8115 22.5907L15.517 22.9948ZM8.1804 13.4559C8.41493 16.4449 10.9337 19.6516 15.5169 22.9948L15.8116 22.5908C11.2442 19.2592 8.89485 16.1694 8.67887 13.4168L8.1804 13.4559ZM8.33438 11.676C8.16359 12.256 8.11153 12.8646 8.18131 13.4652L8.67797 13.4075C8.61595 12.8737 8.66222 12.3328 8.81402 11.8172L8.33438 11.676ZM9.17531 10.0893C8.79118 10.5563 8.50517 11.0959 8.33438 11.676L8.81402 11.8172C8.96582 11.3016 9.22003 10.822 9.56146 10.4069L9.17531 10.0893ZM10.6523 8.8614C10.0684 9.15275 9.56035 9.57612 9.16847 10.098L9.56829 10.3982C9.91353 9.93847 10.3611 9.56548 10.8756 9.3088L10.6523 8.8614ZM12.5327 8.41944C11.8801 8.41873 11.2363 8.57005 10.6523 8.8614L10.8756 9.3088C11.39 9.05212 11.9572 8.91881 12.5321 8.91944L12.5327 8.41944ZM16.0469 9.79372C15.0667 8.9542 13.8318 8.47005 12.5422 8.41963L12.5226 8.91925C13.6998 8.96527 14.8269 9.40719 15.7217 10.1735L16.0469 9.79372ZM19.2264 8.41963C17.9368 8.47005 16.7019 8.9542 15.7217 9.79372L16.0469 10.1735C16.9417 9.40719 18.0688 8.96527 19.246 8.91925L19.2264 8.41963ZM21.1159 8.86138C20.5321 8.57001 19.8884 8.4187 19.2359 8.41944L19.2365 8.91944C19.8113 8.91878 20.3784 9.05208 20.8927 9.30876L21.1159 8.86138ZM22.5994 10.098C22.2077 9.57615 21.6998 9.15274 21.1159 8.86138L20.8927 9.30876C21.407 9.56544 21.8544 9.93843 22.1995 10.3982L22.5994 10.098ZM23.4338 11.6759C23.263 11.0958 22.9768 10.5561 22.5925 10.0892L22.2064 10.407C22.548 10.8219 22.8023 11.3016 22.9542 11.8171L23.4338 11.6759ZM23.5869 13.4652C23.6568 12.8646 23.6047 12.2559 23.4338 11.6759L22.9542 11.8171C23.1061 12.3327 23.1523 12.8736 23.0902 13.4075L23.5869 13.4652ZM23.4495 14.329C23.5158 14.0423 23.5619 13.7513 23.5876 13.4582L23.0895 13.4145C23.0659 13.6845 23.0234 13.9524 22.9624 14.2165L23.4495 14.329ZM24.9183 14.0228H23.206V14.5228H24.9183V14.0228ZM25.2814 13.464C25.0025 13.6276 24.7904 13.8846 24.6826 14.1894L25.154 14.3561C25.2225 14.1624 25.3572 13.9992 25.5344 13.8953L25.2814 13.464ZM26.2067 13.2954C25.888 13.2407 25.5603 13.3004 25.2814 13.464L25.5344 13.8953C25.7115 13.7914 25.9197 13.7534 26.1221 13.7882L26.2067 13.2954ZM27.0229 13.7628C26.8144 13.5156 26.5254 13.3501 26.2067 13.2954L26.1221 13.7882C26.3246 13.8229 26.5082 13.9281 26.6406 14.0851L27.0229 13.7628ZM27.3456 14.6463C27.3456 14.323 27.2313 14.01 27.0229 13.7628L26.6406 14.0851C26.773 14.2421 26.8456 14.4409 26.8456 14.6463H27.3456ZM27.0229 15.5298C27.2313 15.2826 27.3456 14.9696 27.3456 14.6463H26.8456C26.8456 14.8517 26.773 15.0505 26.6406 15.2075L27.0229 15.5298ZM26.2067 15.9972C26.5254 15.9426 26.8144 15.777 27.0229 15.5298L26.6406 15.2075C26.5082 15.3645 26.3246 15.4697 26.1221 15.5044L26.2067 15.9972ZM25.2814 15.8286C25.5603 15.9922 25.888 16.0519 26.2067 15.9972L26.1221 15.5044C25.9197 15.5392 25.7115 15.5012 25.5344 15.3973L25.2814 15.8286ZM24.6826 15.1032C24.7904 15.408 25.0025 15.665 25.2814 15.8286L25.5344 15.3973C25.3572 15.2934 25.2225 15.1302 25.154 14.9365L24.6826 15.1032ZM22.9983 15.2699H24.9183V14.7699H22.9983V15.2699ZM16.2516 22.9948C20.0125 20.2515 22.371 17.6067 23.2346 15.1013L22.7619 14.9384C21.949 17.2967 19.6926 19.866 15.957 22.5908L16.2516 22.9948ZM15.8843 23.1145C16.0163 23.1145 16.1449 23.0726 16.2516 22.9948L15.9571 22.5907C15.9359 22.6062 15.9104 22.6145 15.8843 22.6145V23.1145ZM25.9703 14.5228C25.9947 14.5228 26.0186 14.53 26.0389 14.5436L26.3167 14.1278C26.2141 14.0593 26.0936 14.0228 25.9703 14.0228V14.5228ZM25.8829 14.5589C25.9061 14.5358 25.9375 14.5228 25.9703 14.5228V14.0228C25.8049 14.0228 25.6463 14.0884 25.5293 14.2054L25.8829 14.5589ZM25.8467 14.6463C25.8467 14.6135 25.8597 14.5821 25.8829 14.5589L25.5293 14.2054C25.4124 14.3223 25.3467 14.4809 25.3467 14.6463H25.8467ZM25.8675 14.7149C25.8539 14.6946 25.8467 14.6707 25.8467 14.6463H25.3467C25.3467 14.7696 25.3833 14.8902 25.4518 14.9927L25.8675 14.7149ZM25.923 14.7605C25.9004 14.7511 25.8811 14.7353 25.8675 14.7149L25.4518 14.9927C25.5203 15.0953 25.6177 15.1752 25.7316 15.2224L25.923 14.7605ZM25.9944 14.7675C25.9704 14.7723 25.9456 14.7698 25.923 14.7605L25.7316 15.2224C25.8456 15.2696 25.9709 15.2819 26.0919 15.2579L25.9944 14.7675ZM26.0576 14.7337C26.0403 14.751 26.0183 14.7627 25.9944 14.7675L26.0919 15.2579C26.2129 15.2338 26.324 15.1744 26.4112 15.0872L26.0576 14.7337ZM26.0914 14.6704C26.0867 14.6944 26.0749 14.7164 26.0576 14.7337L26.4112 15.0872C26.4984 15 26.5578 14.8889 26.5818 14.768L26.0914 14.6704ZM26.0844 14.599C26.0938 14.6216 26.0962 14.6464 26.0914 14.6704L26.5818 14.768C26.6059 14.647 26.5935 14.5216 26.5463 14.4077L26.0844 14.599ZM26.0389 14.5436C26.0592 14.5571 26.0751 14.5764 26.0844 14.599L26.5463 14.4077C26.4992 14.2937 26.4192 14.1964 26.3167 14.1278L26.0389 14.5436ZM10.0997 10.9252C10.1293 10.8959 10.1558 10.8637 10.1789 10.829L9.76224 10.5525C9.7581 10.5588 9.75333 10.5646 9.748 10.5698L10.0997 10.9252ZM9.51546 12.067C9.63472 11.6427 9.83973 11.2473 10.1178 10.9052L9.72989 10.5898C9.40866 10.9848 9.17186 11.4416 9.03411 11.9318L9.51546 12.067ZM9.42448 13.3725C9.36524 12.9357 9.39621 12.4914 9.51546 12.067L9.03411 11.9318C8.89636 12.4219 8.86059 12.9352 8.92901 13.4397L9.42448 13.3725ZM16.033 21.8264C10.7957 17.9521 9.56844 15.0707 9.42586 13.385L8.92764 13.4272C9.08763 15.3187 10.4453 18.3148 15.7356 22.2283L16.033 21.8264ZM21.9647 14.9285C21.2967 16.629 19.6163 18.9555 15.7356 21.8264L16.033 22.2283C19.9558 19.3263 21.7152 16.9311 22.43 15.1113L21.9647 14.9285ZM19.2463 15.2699H22.1974V14.7699H19.2463V15.2699ZM18.9313 15.1834C19.0264 15.2395 19.1347 15.2693 19.2451 15.2699L19.2475 14.7699C19.2256 14.7698 19.2042 14.7638 19.1853 14.7527L18.9313 15.1834ZM18.7038 14.9506C18.7577 15.047 18.8362 15.1273 18.9313 15.1834L19.1853 14.7527C19.1665 14.7416 19.1509 14.7257 19.1402 14.7066L18.7038 14.9506ZM17.5944 13.0102L18.705 14.9527L19.1391 14.7045L18.0285 12.762L17.5944 13.0102ZM16.0899 17.8639L18.0436 12.979L17.5793 12.7933L15.6256 17.6783L16.0899 17.8639ZM15.8605 18.1488C15.9637 18.0789 16.0437 17.9796 16.0899 17.8638L15.6256 17.6783C15.6164 17.7013 15.6006 17.721 15.5801 17.7348L15.8605 18.1488ZM15.5106 18.2561C15.6353 18.2561 15.7572 18.2188 15.8605 18.1488L15.5801 17.7348C15.5597 17.7487 15.5355 17.7561 15.5108 17.7561L15.5106 18.2561ZM15.4943 18.2561H15.5107V17.7561H15.4943V18.2561ZM15.1301 18.128C15.2322 18.2062 15.356 18.2508 15.4845 18.2559L15.5041 17.7562C15.4786 17.7552 15.4541 17.7464 15.4339 17.7309L15.1301 18.128ZM14.914 17.8194C14.9524 17.9421 15.0279 18.0499 15.1301 18.128L15.4339 17.7309C15.4136 17.7154 15.3987 17.6941 15.391 17.6698L14.914 17.8194ZM13.6655 13.7628L14.9136 17.8181L15.3914 17.671L14.1434 13.6157L13.6655 13.7628ZM13.4305 14.9671L14.1189 13.8177L13.69 13.5608L13.0015 14.7102L13.4305 14.9671ZM13.2029 15.189C13.2965 15.136 13.3749 15.0597 13.4303 14.9674L13.0017 14.7099C12.9907 14.7282 12.9752 14.7433 12.9566 14.7538L13.2029 15.189ZM12.8959 15.2699C13.0035 15.2698 13.1093 15.242 13.2029 15.189L12.9566 14.7538C12.9381 14.7643 12.9171 14.7699 12.8958 14.7699L12.8959 15.2699ZM10.281 15.2699H12.8959V14.7699H10.281V15.2699ZM10.031 14.2728V15.0199H10.531V14.2728H10.031ZM12.684 14.0228H10.281V14.5228H12.684V14.0228ZM13.4816 12.4575L12.4697 14.1441L12.8984 14.4014L13.9104 12.7148L13.4816 12.4575ZM13.7426 12.2182C13.6344 12.2711 13.5437 12.3541 13.4817 12.4574L13.9103 12.7149C13.9226 12.6944 13.9406 12.678 13.962 12.6675L13.7426 12.2182ZM14.0917 12.1596C13.9721 12.145 13.8509 12.1654 13.7426 12.2182L13.962 12.6675C13.9834 12.657 14.0075 12.653 14.0312 12.6559L14.0917 12.1596ZM14.4164 12.3003C14.324 12.223 14.2112 12.1741 14.0917 12.1596L14.0312 12.6559C14.0549 12.6588 14.0772 12.6685 14.0955 12.6838L14.4164 12.3003ZM14.6122 12.5952C14.5768 12.4801 14.5088 12.3777 14.4164 12.3003L14.0955 12.6838C14.1138 12.6991 14.1273 12.7194 14.1343 12.7422L14.6122 12.5952ZM15.7956 16.4405L14.6122 12.5952L14.1343 12.7422L15.3177 16.5876L15.7956 16.4405ZM17.1718 11.7986L15.3245 16.4213L15.7888 16.6068L17.6361 11.9841L17.1718 11.7986ZM17.383 11.5255C17.2881 11.595 17.2147 11.69 17.1714 11.7994L17.6364 11.9833C17.645 11.9616 17.6595 11.9428 17.6783 11.929L17.383 11.5255ZM17.7081 11.4067C17.5907 11.4148 17.478 11.456 17.383 11.5255L17.6783 11.929C17.6971 11.9153 17.7195 11.9071 17.7427 11.9055L17.7081 11.4067ZM18.0464 11.4795C17.9428 11.4238 17.8255 11.3985 17.7081 11.4067L17.7427 11.9055C17.766 11.9039 17.7892 11.9089 17.8098 11.9199L18.0464 11.4795ZM18.2938 11.7214C18.2358 11.619 18.1501 11.5352 18.0464 11.4795L17.8098 11.9199C17.8303 11.931 17.8473 11.9476 17.8588 11.9679L18.2938 11.7214ZM19.68 14.1488L18.2934 11.7207L17.8592 11.9686L19.2458 14.3967L19.68 14.1488ZM22.4409 14.0228H19.4629V14.5228H22.4409V14.0228ZM22.3449 13.3558C22.3213 13.644 22.2725 13.9296 22.1991 14.2093L22.6827 14.3362C22.7635 14.0283 22.8172 13.7139 22.8432 13.3967L22.3449 13.3558ZM22.2484 12.0536C22.3679 12.4729 22.4011 12.9121 22.3461 13.3446L22.8421 13.4078C22.9057 12.9082 22.8673 12.4009 22.7292 11.9165L22.2484 12.0536ZM21.6506 10.9051C21.9255 11.2436 22.1288 11.6343 22.2484 12.0536L22.7292 11.9165C22.5912 11.4322 22.3563 10.9809 22.0388 10.5899L21.6506 10.9051ZM21.5897 10.829C21.6127 10.8637 21.6393 10.8959 21.6689 10.9252L22.0206 10.5698C22.0153 10.5646 22.0105 10.5587 22.0063 10.5525L21.5897 10.829ZM20.5567 9.97397C20.9666 10.1778 21.3232 10.4747 21.5981 10.8408L21.998 10.5407C21.6763 10.1122 21.2591 9.76486 20.7794 9.52629L20.5567 9.97397ZM19.2371 9.66654C19.6949 9.66482 20.1468 9.77009 20.5567 9.97397L20.7794 9.52629C20.2997 9.28771 19.771 9.16453 19.2352 9.16655L19.2371 9.66654ZM16.3279 10.9222C16.323 10.9273 16.6431 10.6092 17.1734 10.2915C17.7043 9.97335 18.4278 9.66654 19.2362 9.66654V9.16654C18.3042 9.16654 17.4907 9.5185 16.9164 9.86258C16.3414 10.2071 15.988 10.5546 15.9696 10.5735L16.3279 10.9222ZM16.1233 11.0599C16.199 11.0285 16.2677 10.9825 16.3256 10.9246L15.9719 10.5712C15.9604 10.5827 15.9468 10.5918 15.9318 10.598L16.1233 11.0599ZM15.8845 11.1075C15.9664 11.1075 16.0476 11.0913 16.1233 11.0599L15.9318 10.598C15.9168 10.6043 15.9007 10.6075 15.8845 10.6075V11.1075ZM15.6457 11.0599C15.7214 11.0913 15.8025 11.1075 15.8845 11.1075V10.6075C15.8682 10.6075 15.8522 10.6043 15.8372 10.598L15.6457 11.0599ZM15.4433 10.9246C15.5012 10.9825 15.57 11.0285 15.6457 11.0599L15.8372 10.598C15.8222 10.5918 15.8085 10.5827 15.7971 10.5712L15.4433 10.9246ZM15.4453 10.9265L15.4456 10.9268L15.7948 10.569L15.7945 10.5687L15.4453 10.9265ZM12.5324 9.66654C13.332 9.66654 14.0524 9.97041 14.5844 10.2873C15.1145 10.6031 15.44 10.9213 15.4454 10.9266L15.7944 10.5686C15.7736 10.5483 15.4166 10.201 14.8402 9.8577C14.2656 9.51543 13.4554 9.16654 12.5324 9.16654V9.66654ZM11.2131 9.97653C11.623 9.77266 12.0746 9.66655 12.5324 9.66654L12.5324 9.16654C11.9973 9.16655 11.4695 9.29057 10.9904 9.52885L11.2131 9.97653ZM10.1699 10.8416C10.4461 10.4765 10.8032 10.1804 11.2131 9.97653L10.9904 9.52885C10.5114 9.76713 10.094 10.1132 9.77119 10.5399L10.1699 10.8416ZM7.37027 14.023H4.38184V14.523H7.37027V14.023ZM7.62027 15.0201V14.273H7.12027V15.0201H7.62027ZM4.38184 15.2701H7.37027V14.7701H4.38184V15.2701ZM4.13184 14.273V15.0201H4.63184V14.273H4.13184Z" fill="#F7F7F8"/>
</svg>
