<svg width="31" height="31" viewBox="0 0 31 31" fill="none" xmlns="http://www.w3.org/2000/svg">
<circle cx="15.7524" cy="15.6689" r="14.5" fill="#0D7C3C" stroke="white"/>
<path fill-rule="evenodd" clip-rule="evenodd" d="M15.898 23.1882C15.8189 23.1882 15.7418 23.1631 15.6779 23.1165C11.1026 19.7792 8.66856 16.6309 8.44331 13.7601C8.37741 13.1928 8.42658 12.6181 8.58787 12.0703C8.74917 11.5225 9.01928 11.0128 9.38205 10.5718C9.75061 10.081 10.2284 9.68284 10.7776 9.40883C11.3268 9.13481 11.9323 8.9925 12.5461 8.99317C13.7794 9.04139 14.9605 9.50443 15.898 10.3073C16.8355 9.50443 18.0165 9.04139 19.2499 8.99317C19.8635 8.99247 20.4689 9.13478 21.018 9.4088C21.5671 9.68282 22.0447 10.081 22.4131 10.5718C22.7761 11.0127 23.0463 11.5224 23.2077 12.0702C23.3691 12.6181 23.4182 13.1928 23.3522 13.7601C23.3276 14.0416 23.2833 14.3211 23.2196 14.5965H24.932C25.0201 14.3472 25.1935 14.1372 25.4215 14.0034C25.6496 13.8697 25.9175 13.8208 26.1781 13.8655C26.4386 13.9102 26.675 14.0456 26.8454 14.2477C27.0158 14.4498 27.1092 14.7057 27.1092 14.97C27.1092 15.2344 27.0158 15.4902 26.8454 15.6924C26.675 15.8945 26.4386 16.0299 26.1781 16.0746C25.9175 16.1193 25.6496 16.0704 25.4215 15.9367C25.1935 15.8029 25.0201 15.5928 24.932 15.3436H23.0119C22.1737 17.7754 19.8662 20.3825 16.118 23.1165C16.0541 23.1631 15.977 23.1882 15.898 23.1882ZM26.1915 14.6594C26.13 14.6184 26.0578 14.5965 25.9839 14.5965C25.8849 14.5965 25.7898 14.6358 25.7198 14.7059C25.6497 14.7759 25.6104 14.871 25.6104 14.97C25.6104 15.0439 25.6323 15.1161 25.6733 15.1776C25.7144 15.239 25.7727 15.2869 25.841 15.3152C25.9092 15.3434 25.9843 15.3508 26.0568 15.3364C26.1293 15.322 26.1958 15.2864 26.2481 15.2342C26.3003 15.1819 26.3359 15.1154 26.3503 15.0429C26.3647 14.9704 26.3573 14.8953 26.329 14.8271C26.3008 14.7588 26.2529 14.7005 26.1915 14.6594ZM9.98422 11.0145C9.97064 11.0349 9.95499 11.054 9.93753 11.0712C9.63787 11.4398 9.41696 11.8658 9.28846 12.3231C9.15996 12.7804 9.12659 13.2592 9.19042 13.7298C9.34171 15.5184 10.6342 18.4572 15.898 22.3511C19.7997 19.4646 21.5196 17.1038 22.211 15.3436H19.26C19.1938 15.3433 19.1289 15.3254 19.072 15.2918C19.015 15.2582 18.968 15.2101 18.9357 15.1523L17.8251 13.2098L15.8714 18.0948C15.8437 18.1642 15.7958 18.2237 15.734 18.2656C15.6721 18.3074 15.5991 18.3298 15.5244 18.3298H15.508C15.431 18.3268 15.3568 18.3 15.2956 18.2532C15.2344 18.2064 15.1892 18.1418 15.1662 18.0683L13.9181 14.013L13.2297 15.1624C13.1965 15.2177 13.1495 15.2634 13.0934 15.2951C13.0373 15.3269 12.974 15.3436 12.9095 15.3436H10.2946V14.5965H12.6977L13.7097 12.9099C13.7468 12.848 13.8011 12.7983 13.866 12.7666C13.9308 12.7349 14.0035 12.7227 14.0751 12.7315C14.1467 12.7402 14.2143 12.7695 14.2696 12.8158C14.325 12.8621 14.3657 12.9235 14.3869 12.9924L15.5704 16.8378L17.4176 12.2151C17.4435 12.1495 17.4875 12.0926 17.5443 12.051C17.6012 12.0094 17.6687 11.9847 17.7391 11.9798C17.8094 11.9749 17.8797 11.9901 17.9418 12.0234C18.0038 12.0568 18.0552 12.107 18.09 12.1684L19.4766 14.5965H22.4546C22.5317 14.3027 22.5829 14.0027 22.6077 13.7C22.6671 13.2339 22.6313 12.7606 22.5025 12.3088C22.3737 11.857 22.1546 11.436 21.8584 11.0712C21.8409 11.054 21.8253 11.0349 21.8117 11.0145C21.5135 10.6172 21.1265 10.2951 20.6817 10.0739C20.237 9.85263 19.7466 9.7384 19.2499 9.74028C17.5095 9.74028 16.1759 11.0578 16.1624 11.0716C16.1277 11.1064 16.0865 11.1339 16.0412 11.1527C15.9958 11.1715 15.9472 11.1812 15.8981 11.1812C15.8491 11.1812 15.8004 11.1715 15.7551 11.1527C15.7098 11.1339 15.6686 11.1064 15.6339 11.0716L15.6336 11.0713C15.6073 11.0458 14.2687 9.74028 12.5461 9.74028C12.0496 9.74028 11.5599 9.85534 11.1155 10.0764C10.671 10.2975 10.2838 10.6186 9.98422 11.0145ZM4.39551 14.5967H7.38394V15.3438H4.39551V14.5967Z" fill="#F7F7F8"/>
<path d="M15.6779 23.1165L15.5306 23.3185L15.5307 23.3185L15.6779 23.1165ZM8.44331 13.7601L8.69272 13.7405L8.69164 13.7312L8.44331 13.7601ZM8.58787 12.0703L8.34805 11.9997L8.34805 11.9997L8.58787 12.0703ZM9.38205 10.5718L9.57532 10.7308L9.58196 10.7219L9.38205 10.5718ZM10.7776 9.40883L10.8892 9.63253L10.7776 9.40883ZM12.5461 8.99317L12.5558 8.74318L12.5463 8.74317L12.5461 8.99317ZM15.898 10.3073L15.7353 10.4972L15.898 10.6365L16.0606 10.4972L15.898 10.3073ZM19.2499 8.99317L19.2496 8.74299L19.2401 8.74336L19.2499 8.99317ZM21.018 9.4088L20.9064 9.63249L20.9064 9.63249L21.018 9.4088ZM22.4131 10.5718L22.213 10.722L22.2201 10.7307L22.4131 10.5718ZM23.3522 13.7601L23.1038 13.7312L23.1032 13.7383L23.3522 13.7601ZM23.2196 14.5965L22.976 14.5402L22.9053 14.8465H23.2196V14.5965ZM24.932 14.5965V14.8465H25.1088L25.1677 14.6798L24.932 14.5965ZM25.4215 14.0034L25.548 14.2191L25.548 14.2191L25.4215 14.0034ZM26.1781 13.8655L26.2204 13.6191L26.2204 13.6191L26.1781 13.8655ZM26.8454 14.2477L26.6542 14.4088L26.6542 14.4088L26.8454 14.2477ZM26.8454 15.6924L26.6542 15.5312L26.6542 15.5312L26.8454 15.6924ZM26.1781 16.0746L26.1358 15.8282L26.1358 15.8282L26.1781 16.0746ZM25.4215 15.9367L25.548 15.721L25.548 15.721L25.4215 15.9367ZM24.932 15.3436L25.1677 15.2603L25.1088 15.0936H24.932V15.3436ZM23.0119 15.3436V15.0936H22.8337L22.7756 15.2621L23.0119 15.3436ZM16.118 23.1165L16.2652 23.3185L16.2653 23.3185L16.118 23.1165ZM26.1915 14.6594L26.0526 14.8673L26.0526 14.8673L26.1915 14.6594ZM25.6733 15.1776L25.4655 15.3165L25.4655 15.3165L25.6733 15.1776ZM25.841 15.3152L25.9367 15.0842L25.9366 15.0842L25.841 15.3152ZM26.0568 15.3364L26.008 15.0912L26.008 15.0912L26.0568 15.3364ZM26.2481 15.2342L26.0713 15.0574L26.0713 15.0574L26.2481 15.2342ZM26.3503 15.0429L26.1051 14.9941L26.1051 14.9941L26.3503 15.0429ZM26.329 14.8271L26.0981 14.9228L26.0981 14.9228L26.329 14.8271ZM9.93753 11.0712L9.76167 10.8936L9.75208 10.9031L9.74356 10.9135L9.93753 11.0712ZM9.98422 11.0145L9.78486 10.8636L9.78019 10.8698L9.77591 10.8762L9.98422 11.0145ZM9.19042 13.7298L9.43985 13.7087L9.43815 13.6962L9.19042 13.7298ZM15.898 22.3511L15.7493 22.5521L15.898 22.6621L16.0466 22.5521L15.898 22.3511ZM22.211 15.3436L22.4437 15.435L22.5778 15.0936H22.211V15.3436ZM19.26 15.3436L19.2587 15.5936H19.26V15.3436ZM19.072 15.2918L18.945 15.5071L18.945 15.5071L19.072 15.2918ZM18.9357 15.1523L19.1539 15.0303L19.1527 15.0282L18.9357 15.1523ZM17.8251 13.2098L18.0422 13.0858L17.7852 12.6364L17.593 13.117L17.8251 13.2098ZM15.8714 18.0948L15.6393 18.002L15.6393 18.0021L15.8714 18.0948ZM15.734 18.2656L15.8741 18.4726L15.8741 18.4726L15.734 18.2656ZM15.5244 18.3298L15.5245 18.0798H15.5244V18.3298ZM15.508 18.3298L15.4982 18.5798H15.508V18.3298ZM15.2956 18.2532L15.4475 18.0546L15.4475 18.0546L15.2956 18.2532ZM15.1662 18.0683L14.9272 18.1418L14.9276 18.1431L15.1662 18.0683ZM13.9181 14.013L14.1571 13.9395L13.992 13.4031L13.7037 13.8845L13.9181 14.013ZM13.2297 15.1624L13.444 15.2912L13.4441 15.2909L13.2297 15.1624ZM13.0934 15.2951L13.2166 15.5127L13.2166 15.5127L13.0934 15.2951ZM12.9095 15.3436L12.9095 15.5936L12.9096 15.5936L12.9095 15.3436ZM10.2946 15.3436H10.0446V15.5936H10.2946V15.3436ZM10.2946 14.5965V14.3465H10.0446V14.5965H10.2946ZM12.6977 14.5965V14.8465H12.8393L12.9121 14.7251L12.6977 14.5965ZM13.7097 12.9099L13.4954 12.7811L13.4953 12.7813L13.7097 12.9099ZM13.866 12.7666L13.9757 12.9912L13.9757 12.9912L13.866 12.7666ZM14.0751 12.7315L14.0448 12.9796L14.0448 12.9796L14.0751 12.7315ZM14.3869 12.9924L14.148 13.0659L14.148 13.066L14.3869 12.9924ZM15.5704 16.8378L15.3314 16.9113L15.5397 17.5882L15.8025 16.9306L15.5704 16.8378ZM17.4176 12.2151L17.6497 12.3078L17.6501 12.307L17.4176 12.2151ZM17.5443 12.051L17.3967 11.8493L17.3967 11.8493L17.5443 12.051ZM18.09 12.1684L17.8724 12.2916L17.8729 12.2924L18.09 12.1684ZM19.4766 14.5965L19.2595 14.7205L19.3315 14.8465H19.4766V14.5965ZM22.4546 14.5965V14.8465H22.6475L22.6964 14.6599L22.4546 14.5965ZM22.6077 13.7L22.3595 13.6683L22.3586 13.6795L22.6077 13.7ZM22.5025 12.3088L22.7429 12.2403L22.7429 12.2403L22.5025 12.3088ZM21.8584 11.0712L22.0525 10.9137L22.0439 10.9031L22.0343 10.8936L21.8584 11.0712ZM21.8117 11.0145L22.02 10.8762L22.016 10.8702L22.0116 10.8644L21.8117 11.0145ZM20.6817 10.0739L20.5704 10.2977L20.5704 10.2977L20.6817 10.0739ZM19.2499 9.74028L19.2499 9.99028L19.2508 9.99027L19.2499 9.74028ZM16.1624 11.0716L16.3393 11.2483L16.3416 11.246L16.1624 11.0716ZM16.0412 11.1527L16.1369 11.3836L16.1369 11.3836L16.0412 11.1527ZM15.7551 11.1527L15.8508 10.9218L15.8508 10.9218L15.7551 11.1527ZM15.6339 11.0716L15.8107 10.8949L15.8085 10.8927L15.6339 11.0716ZM15.6336 11.0713L15.8082 10.8924L15.8081 10.8924L15.6336 11.0713ZM12.5461 9.74028L12.5461 9.49028L12.5461 9.49028L12.5461 9.74028ZM11.1155 10.0764L11.0041 9.85258L11.0041 9.85258L11.1155 10.0764ZM7.38394 14.5967H7.63394V14.3467H7.38394V14.5967ZM4.39551 14.5967V14.3467H4.14551V14.5967H4.39551ZM7.38394 15.3438V15.5938H7.63394V15.3438H7.38394ZM4.39551 15.3438H4.14551V15.5938H4.39551V15.3438ZM15.5307 23.3185C15.6374 23.3963 15.766 23.4382 15.898 23.4382V22.9382C15.8718 22.9382 15.8463 22.9299 15.8252 22.9145L15.5307 23.3185ZM8.19408 13.7796C8.4286 16.7686 10.9474 19.9754 15.5306 23.3185L15.8253 22.9145C11.2579 19.583 8.90852 16.4931 8.69254 13.7405L8.19408 13.7796ZM8.34805 11.9997C8.17726 12.5798 8.1252 13.1883 8.19498 13.7889L8.69164 13.7312C8.62962 13.1974 8.67589 12.6565 8.82769 12.1409L8.34805 11.9997ZM9.18898 10.413C8.80485 10.88 8.51884 11.4196 8.34805 11.9997L8.82769 12.1409C8.97949 11.6254 9.23371 11.1457 9.57513 10.7306L9.18898 10.413ZM10.666 9.18513C10.0821 9.47648 9.57402 9.89985 9.18214 10.4217L9.58196 10.7219C9.9272 10.2622 10.3748 9.88921 10.8892 9.63253L10.666 9.18513ZM12.5463 8.74317C11.8937 8.74246 11.25 8.89378 10.666 9.18513L10.8892 9.63253C11.4037 9.37585 11.9709 9.24254 12.5458 9.24317L12.5463 8.74317ZM16.0606 10.1174C15.0803 9.27793 13.8455 8.79378 12.5558 8.74336L12.5363 9.24298C13.7134 9.289 14.8406 9.73092 15.7353 10.4972L16.0606 10.1174ZM19.2401 8.74336C17.9505 8.79378 16.7156 9.27793 15.7353 10.1174L16.0606 10.4972C16.9553 9.73092 18.0825 9.289 19.2596 9.24298L19.2401 8.74336ZM21.1296 9.18511C20.5458 8.89374 19.9021 8.74243 19.2496 8.74317L19.2501 9.24317C19.825 9.24251 20.392 9.37581 20.9064 9.63249L21.1296 9.18511ZM22.6131 10.4217C22.2214 9.89988 21.7135 9.47647 21.1296 9.18511L20.9064 9.63249C21.4207 9.88917 21.8681 10.2622 22.2132 10.7219L22.6131 10.4217ZM23.4475 11.9996C23.2766 11.4195 22.9905 10.8798 22.6061 10.4129L22.2201 10.7307C22.5617 11.1457 22.816 11.6253 22.9679 12.1409L23.4475 11.9996ZM23.6006 13.789C23.6704 13.1883 23.6184 12.5797 23.4475 11.9996L22.9679 12.1409C23.1197 12.6564 23.166 13.1973 23.1039 13.7312L23.6006 13.789ZM23.4632 14.6528C23.5295 14.3661 23.5756 14.0751 23.6013 13.7819L23.1032 13.7383C23.0795 14.0082 23.0371 14.2762 22.976 14.5402L23.4632 14.6528ZM24.932 14.3465H23.2196V14.8465H24.932V14.3465ZM25.295 13.7878C25.0162 13.9514 24.8041 14.2083 24.6963 14.5131L25.1677 14.6798C25.2362 14.4862 25.3709 14.323 25.548 14.2191L25.295 13.7878ZM26.2204 13.6191C25.9017 13.5644 25.5739 13.6242 25.295 13.7878L25.548 14.2191C25.7252 14.1151 25.9334 14.0772 26.1358 14.1119L26.2204 13.6191ZM27.0365 14.0866C26.8281 13.8394 26.539 13.6738 26.2204 13.6191L26.1358 14.1119C26.3382 14.1466 26.5219 14.2518 26.6542 14.4088L27.0365 14.0866ZM27.3592 14.97C27.3592 14.6467 27.2449 14.3338 27.0365 14.0866L26.6542 14.4088C26.7866 14.5659 26.8592 14.7646 26.8592 14.97H27.3592ZM27.0365 15.8535C27.2449 15.6063 27.3592 15.2934 27.3592 14.97H26.8592C26.8592 15.1754 26.7866 15.3742 26.6542 15.5312L27.0365 15.8535ZM26.2204 16.321C26.539 16.2663 26.8281 16.1007 27.0365 15.8535L26.6542 15.5312C26.5219 15.6883 26.3382 15.7934 26.1358 15.8282L26.2204 16.321ZM25.295 16.1523C25.5739 16.3159 25.9017 16.3756 26.2204 16.321L26.1358 15.8282C25.9334 15.8629 25.7252 15.8249 25.548 15.721L25.295 16.1523ZM24.6963 15.4269C24.8041 15.7318 25.0162 15.9887 25.295 16.1523L25.548 15.721C25.3709 15.6171 25.2362 15.4539 25.1677 15.2603L24.6963 15.4269ZM23.0119 15.5936H24.932V15.0936H23.0119V15.5936ZM16.2653 23.3185C20.0262 20.5752 22.3847 17.9304 23.2483 15.4251L22.7756 15.2621C21.9627 17.6204 19.7063 20.1897 15.9707 22.9145L16.2653 23.3185ZM15.898 23.4382C16.03 23.4382 16.1586 23.3963 16.2652 23.3185L15.9707 22.9145C15.9496 22.9299 15.9241 22.9382 15.898 22.9382V23.4382ZM25.9839 14.8465C26.0084 14.8465 26.0323 14.8537 26.0526 14.8673L26.3304 14.4516C26.2278 14.3831 26.1073 14.3465 25.9839 14.3465V14.8465ZM25.8966 14.8827C25.9197 14.8595 25.9512 14.8465 25.9839 14.8465V14.3465C25.8186 14.3465 25.6599 14.4122 25.543 14.5291L25.8966 14.8827ZM25.8604 14.97C25.8604 14.9373 25.8734 14.9058 25.8966 14.8827L25.543 14.5291C25.4261 14.6461 25.3604 14.8047 25.3604 14.97H25.8604ZM25.8812 15.0387C25.8676 15.0184 25.8604 14.9945 25.8604 14.97H25.3604C25.3604 15.0934 25.3969 15.2139 25.4655 15.3165L25.8812 15.0387ZM25.9366 15.0842C25.9141 15.0748 25.8948 15.059 25.8812 15.0387L25.4655 15.3165C25.534 15.419 25.6314 15.4989 25.7453 15.5461L25.9366 15.0842ZM26.008 15.0912C25.9841 15.096 25.9592 15.0935 25.9367 15.0842L25.7453 15.5461C25.8592 15.5933 25.9846 15.6057 26.1056 15.5816L26.008 15.0912ZM26.0713 15.0574C26.054 15.0747 26.032 15.0864 26.008 15.0912L26.1056 15.5816C26.2265 15.5575 26.3376 15.4982 26.4248 15.411L26.0713 15.0574ZM26.1051 14.9941C26.1003 15.0181 26.0886 15.0401 26.0713 15.0574L26.4248 15.411C26.5121 15.3237 26.5714 15.2126 26.5955 15.0917L26.1051 14.9941ZM26.0981 14.9228C26.1074 14.9453 26.1099 14.9702 26.1051 14.9941L26.5955 15.0917C26.6196 14.9707 26.6072 14.8453 26.56 14.7314L26.0981 14.9228ZM26.0526 14.8673C26.0729 14.8809 26.0887 14.9002 26.0981 14.9228L26.56 14.7314C26.5128 14.6175 26.4329 14.5201 26.3304 14.4516L26.0526 14.8673ZM10.1134 11.2489C10.143 11.2196 10.1695 11.1874 10.1925 11.1527L9.77591 10.8762C9.77177 10.8825 9.767 10.8883 9.76167 10.8936L10.1134 11.2489ZM9.52913 12.3908C9.64839 11.9664 9.8534 11.571 10.1315 11.229L9.74356 10.9135C9.42233 11.3086 9.18553 11.7653 9.04778 12.2555L9.52913 12.3908ZM9.43815 13.6962C9.37891 13.2594 9.40988 12.8151 9.52913 12.3908L9.04778 12.2555C8.91003 12.7457 8.87426 13.2589 8.94269 13.7634L9.43815 13.6962ZM16.0466 22.1501C10.8094 18.2758 9.58211 15.3944 9.43953 13.7088L8.94131 13.7509C9.1013 15.6424 10.459 18.6385 15.7493 22.5521L16.0466 22.1501ZM21.9783 15.2522C21.3103 16.9527 19.63 19.2792 15.7493 22.1501L16.0466 22.5521C19.9695 19.6501 21.7288 17.2548 22.4437 15.435L21.9783 15.2522ZM19.26 15.5936H22.211V15.0936H19.26V15.5936ZM18.945 15.5071C19.0401 15.5632 19.1483 15.5931 19.2587 15.5936L19.2612 15.0936C19.2393 15.0935 19.2178 15.0876 19.199 15.0765L18.945 15.5071ZM18.7175 15.2743C18.7714 15.3707 18.8499 15.451 18.945 15.5071L19.199 15.0765C19.1801 15.0653 19.1646 15.0494 19.1539 15.0303L18.7175 15.2743ZM17.6081 13.3339L18.7187 15.2764L19.1527 15.0282L18.0422 13.0858L17.6081 13.3339ZM16.1036 18.1877L18.0573 13.3027L17.593 13.117L15.6393 18.002L16.1036 18.1877ZM15.8741 18.4726C15.9774 18.4026 16.0573 18.3034 16.1036 18.1876L15.6393 18.0021C15.6301 18.025 15.6143 18.0447 15.5938 18.0585L15.8741 18.4726ZM15.5243 18.5798C15.649 18.5798 15.7709 18.5425 15.8741 18.4726L15.5938 18.0585C15.5734 18.0724 15.5492 18.0798 15.5245 18.0798L15.5243 18.5798ZM15.508 18.5798H15.5244V18.0798H15.508V18.5798ZM15.1437 18.4518C15.2459 18.5299 15.3697 18.5746 15.4982 18.5796L15.5178 18.08C15.4923 18.079 15.4678 18.0701 15.4475 18.0546L15.1437 18.4518ZM14.9276 18.1431C14.9661 18.2658 15.0416 18.3736 15.1437 18.4518L15.4475 18.0546C15.4273 18.0392 15.4123 18.0178 15.4047 17.9935L14.9276 18.1431ZM13.6792 14.0865L14.9272 18.1418L15.4051 17.9948L14.1571 13.9395L13.6792 14.0865ZM13.4441 15.2909L14.1326 14.1414L13.7037 13.8845L13.0152 15.034L13.4441 15.2909ZM13.2166 15.5127C13.3102 15.4597 13.3885 15.3834 13.444 15.2912L13.0154 15.0337C13.0044 15.0519 12.9889 15.0671 12.9703 15.0776L13.2166 15.5127ZM12.9096 15.5936C13.0172 15.5936 13.1229 15.5657 13.2166 15.5127L12.9703 15.0776C12.9518 15.0881 12.9308 15.0936 12.9095 15.0936L12.9096 15.5936ZM10.2946 15.5936H12.9095V15.0936H10.2946V15.5936ZM10.0446 14.5965V15.3436H10.5446V14.5965H10.0446ZM12.6977 14.3465H10.2946V14.8465H12.6977V14.3465ZM13.4953 12.7813L12.4833 14.4679L12.9121 14.7251L13.9241 13.0385L13.4953 12.7813ZM13.7563 12.5419C13.648 12.5948 13.5574 12.6779 13.4954 12.7811L13.924 13.0386C13.9363 13.0182 13.9542 13.0017 13.9757 12.9912L13.7563 12.5419ZM14.1053 12.4833C13.9858 12.4687 13.8645 12.4891 13.7563 12.5419L13.9757 12.9912C13.9971 12.9808 14.0211 12.9767 14.0448 12.9796L14.1053 12.4833ZM14.4301 12.6241C14.3377 12.5468 14.2249 12.4979 14.1053 12.4833L14.0448 12.9796C14.0685 12.9825 14.0909 12.9922 14.1092 13.0075L14.4301 12.6241ZM14.6259 12.9189C14.5905 12.8038 14.5225 12.7014 14.4301 12.6241L14.1092 13.0075C14.1275 13.0228 14.141 13.0431 14.148 13.0659L14.6259 12.9189ZM15.8093 16.7643L14.6259 12.9189L14.148 13.066L15.3314 16.9113L15.8093 16.7643ZM17.1854 12.1223L15.3382 16.745L15.8025 16.9306L17.6497 12.3078L17.1854 12.1223ZM17.3967 11.8493C17.3018 11.9188 17.2284 12.0137 17.1851 12.1231L17.6501 12.307C17.6586 12.2854 17.6732 12.2665 17.692 12.2528L17.3967 11.8493ZM17.7217 11.7304C17.6044 11.7386 17.4917 11.7798 17.3967 11.8493L17.692 12.2528C17.7108 12.239 17.7331 12.2308 17.7564 12.2292L17.7217 11.7304ZM18.0601 11.8032C17.9564 11.7475 17.8391 11.7223 17.7217 11.7304L17.7564 12.2292C17.7796 12.2276 17.8029 12.2326 17.8234 12.2436L18.0601 11.8032ZM18.3075 12.0452C18.2495 11.9428 18.1637 11.8589 18.0601 11.8032L17.8234 12.2436C17.844 12.2547 17.861 12.2713 17.8725 12.2916L18.3075 12.0452ZM19.6937 14.4725L18.3071 12.0444L17.8729 12.2924L19.2595 14.7205L19.6937 14.4725ZM22.4546 14.3465H19.4766V14.8465H22.4546V14.3465ZM22.3586 13.6795C22.3349 13.9677 22.2861 14.2533 22.2128 14.5331L22.6964 14.6599C22.7772 14.352 22.8309 14.0376 22.8569 13.7204L22.3586 13.6795ZM22.262 12.3773C22.3816 12.7967 22.4148 13.2359 22.3597 13.6684L22.8557 13.7315C22.9194 13.2319 22.881 12.7246 22.7429 12.2403L22.262 12.3773ZM21.6643 11.2288C21.9392 11.5673 22.1425 11.958 22.262 12.3773L22.7429 12.2403C22.6048 11.7559 22.3699 11.3046 22.0525 10.9137L21.6643 11.2288ZM21.6034 11.1527C21.6264 11.1874 21.6529 11.2197 21.6825 11.2489L22.0343 10.8936C22.0289 10.8883 22.0241 10.8825 22.02 10.8762L21.6034 11.1527ZM20.5704 10.2977C20.9803 10.5016 21.3369 10.7984 21.6118 11.1646L22.0116 10.8644C21.69 10.4359 21.2727 10.0886 20.7931 9.85002L20.5704 10.2977ZM19.2508 9.99027C19.7086 9.98855 20.1605 10.0938 20.5704 10.2977L20.7931 9.85002C20.3134 9.61144 19.7846 9.48826 19.2489 9.49028L19.2508 9.99027ZM16.3416 11.246C16.3367 11.251 16.6568 10.9329 17.187 10.6152C17.718 10.2971 18.4415 9.99028 19.2499 9.99028V9.49028C18.3179 9.49028 17.5043 9.84223 16.9301 10.1863C16.3551 10.5308 16.0017 10.8784 15.9833 10.8973L16.3416 11.246ZM16.1369 11.3836C16.2126 11.3523 16.2814 11.3063 16.3393 11.2483L15.9856 10.8949C15.9741 10.9064 15.9605 10.9155 15.9455 10.9218L16.1369 11.3836ZM15.8981 11.4312C15.9801 11.4312 16.0612 11.415 16.1369 11.3836L15.9455 10.9218C15.9305 10.928 15.9144 10.9312 15.8981 10.9312V11.4312ZM15.6594 11.3836C15.7351 11.415 15.8162 11.4312 15.8981 11.4312V10.9312C15.8819 10.9312 15.8658 10.928 15.8508 10.9218L15.6594 11.3836ZM15.457 11.2483C15.5149 11.3063 15.5837 11.3523 15.6594 11.3836L15.8508 10.9218C15.8358 10.9155 15.8222 10.9064 15.8107 10.8949L15.457 11.2483ZM15.4589 11.2502L15.4592 11.2505L15.8085 10.8927L15.8082 10.8924L15.4589 11.2502ZM12.5461 9.99028C13.3457 9.99028 14.0661 10.2941 14.598 10.611C15.1282 10.9268 15.4536 11.2451 15.459 11.2503L15.8081 10.8924C15.7873 10.872 15.4303 10.5248 14.8539 10.1814C14.2793 9.83916 13.4691 9.49028 12.5461 9.49028V9.99028ZM11.2268 10.3003C11.6367 10.0964 12.0883 9.99028 12.5461 9.99028L12.5461 9.49028C12.011 9.49028 11.4832 9.6143 11.0041 9.85258L11.2268 10.3003ZM10.1836 11.1653C10.4598 10.8002 10.8169 10.5041 11.2268 10.3003L11.0041 9.85258C10.525 10.0909 10.1077 10.4369 9.78486 10.8636L10.1836 11.1653ZM7.38394 14.3467H4.39551V14.8467H7.38394V14.3467ZM7.63394 15.3438V14.5967H7.13394V15.3438H7.63394ZM4.39551 15.5938H7.38394V15.0938H4.39551V15.5938ZM4.14551 14.5967V15.3438H4.64551V14.5967H4.14551Z" fill="#F7F7F8"/>
</svg>
