<svg width="37" height="19" viewBox="0 0 37 19" fill="none" xmlns="http://www.w3.org/2000/svg">
<rect x="0.141602" y="1.57141" width="36.5714" height="16" rx="8" fill="#828282"/>
<circle cx="9.28446" cy="9.57145" r="8.64286" fill="#27AE60" stroke="white"/>
<path d="M8.40283 9.35327C8.40283 9.94409 8.25635 10.3982 7.96338 10.7156C7.67041 11.033 7.25049 11.1917 6.70361 11.1917C6.15674 11.1917 5.73682 11.033 5.44385 10.7156C5.15088 10.3982 5.00439 9.94246 5.00439 9.34839C5.00439 8.75431 5.15088 8.30103 5.44385 7.98853C5.73844 7.6744 6.15999 7.51733 6.7085 7.51733C7.257 7.51733 7.67611 7.67521 7.96582 7.99097C8.25716 8.30672 8.40283 8.76082 8.40283 9.35327ZM5.79785 9.35327C5.79785 9.75203 5.87354 10.0523 6.0249 10.2542C6.17627 10.456 6.40251 10.5569 6.70361 10.5569C7.30745 10.5569 7.60938 10.1557 7.60938 9.35327C7.60938 8.54924 7.30908 8.14722 6.7085 8.14722C6.40739 8.14722 6.18034 8.24894 6.02734 8.45239C5.87435 8.65422 5.79785 8.95451 5.79785 9.35327ZM12.3091 11.1428H11.3472L9.79443 8.44263H9.77246C9.80339 8.91951 9.81885 9.25968 9.81885 9.46313V11.1428H9.14258V7.57349H10.0972L11.6475 10.2468H11.6646C11.6401 9.78296 11.6279 9.455 11.6279 9.26294V7.57349H12.3091V11.1428Z" fill="white"/>
<path d="M24.4028 9.35327C24.4028 9.94409 24.2563 10.3982 23.9634 10.7156C23.6704 11.033 23.2505 11.1917 22.7036 11.1917C22.1567 11.1917 21.7368 11.033 21.4438 10.7156C21.1509 10.3982 21.0044 9.94246 21.0044 9.34839C21.0044 8.75431 21.1509 8.30103 21.4438 7.98853C21.7384 7.6744 22.16 7.51733 22.7085 7.51733C23.257 7.51733 23.6761 7.67521 23.9658 7.99097C24.2572 8.30672 24.4028 8.76082 24.4028 9.35327ZM21.7979 9.35327C21.7979 9.75203 21.8735 10.0523 22.0249 10.2542C22.1763 10.456 22.4025 10.5569 22.7036 10.5569C23.3075 10.5569 23.6094 10.1557 23.6094 9.35327C23.6094 8.54924 23.3091 8.14722 22.7085 8.14722C22.4074 8.14722 22.1803 8.24894 22.0273 8.45239C21.8743 8.65422 21.7979 8.95451 21.7979 9.35327ZM25.8872 11.1428H25.1426V7.57349H27.1885V8.1936H25.8872V9.11401H27.0981V9.73169H25.8872V11.1428ZM28.6313 11.1428H27.8867V7.57349H29.9326V8.1936H28.6313V9.11401H29.8423V9.73169H28.6313V11.1428Z" fill="#BDBDBD"/>
</svg>
