<svg width="38" height="19" viewBox="0 0 38 19" fill="none" xmlns="http://www.w3.org/2000/svg">
<rect x="0.141602" y="1.14282" width="36.5714" height="16" rx="8" fill="#828282"/>
<circle cx="28.1429" cy="9.14286" r="8.64286" fill="#FF4C4C" stroke="white"/>
<path d="M9.68896 8.92468C9.68896 9.5155 9.54248 9.9696 9.24951 10.287C8.95654 10.6044 8.53662 10.7631 7.98975 10.7631C7.44287 10.7631 7.02295 10.6044 6.72998 10.287C6.43701 9.9696 6.29053 9.51388 6.29053 8.9198C6.29053 8.32572 6.43701 7.87244 6.72998 7.55994C7.02458 7.24581 7.44613 7.08875 7.99463 7.08875C8.54313 7.08875 8.96224 7.24662 9.25195 7.56238C9.54329 7.87813 9.68896 8.33223 9.68896 8.92468ZM7.08398 8.92468C7.08398 9.32345 7.15967 9.62374 7.31104 9.82556C7.4624 10.0274 7.68864 10.1283 7.98975 10.1283C8.59359 10.1283 8.89551 9.72709 8.89551 8.92468C8.89551 8.12065 8.59521 7.71863 7.99463 7.71863C7.69352 7.71863 7.46647 7.82035 7.31348 8.0238C7.16048 8.22563 7.08398 8.52592 7.08398 8.92468ZM13.5952 10.7142H12.6333L11.0806 8.01404H11.0586C11.0895 8.49093 11.105 8.8311 11.105 9.03455V10.7142H10.4287V7.1449H11.3833L12.9336 9.81824H12.9507C12.9263 9.35437 12.9141 9.02641 12.9141 8.83435V7.1449H13.5952V10.7142Z" fill="#BDBDBD"/>
<path d="M26.689 9.21045C26.689 9.80127 26.5425 10.2554 26.2495 10.5728C25.9565 10.8901 25.5366 11.0488 24.9897 11.0488C24.4429 11.0488 24.0229 10.8901 23.73 10.5728C23.437 10.2554 23.2905 9.79964 23.2905 9.20557C23.2905 8.61149 23.437 8.1582 23.73 7.8457C24.0246 7.53158 24.4461 7.37451 24.9946 7.37451C25.5431 7.37451 25.9622 7.53239 26.252 7.84814C26.5433 8.1639 26.689 8.618 26.689 9.21045ZM24.084 9.21045C24.084 9.60921 24.1597 9.90951 24.311 10.1113C24.4624 10.3132 24.6886 10.4141 24.9897 10.4141C25.5936 10.4141 25.8955 10.0129 25.8955 9.21045C25.8955 8.40641 25.5952 8.00439 24.9946 8.00439C24.6935 8.00439 24.4665 8.10612 24.3135 8.30957C24.1605 8.51139 24.084 8.81169 24.084 9.21045ZM28.1733 11H27.4287V7.43066H29.4746V8.05078H28.1733V8.97119H29.3843V9.58887H28.1733V11ZM30.9175 11H30.1729V7.43066H32.2188V8.05078H30.9175V8.97119H32.1284V9.58887H30.9175V11Z" fill="white"/>
</svg>
