<svg width="30" height="30" viewBox="0 0 30 30" fill="none" xmlns="http://www.w3.org/2000/svg">
<circle cx="15" cy="15" r="15" fill="#F7F7F8"/>
<path d="M20.6472 9.14287H17.4707V8.14784C17.4703 7.84351 17.3506 7.55185 17.138 7.33661C16.9253 7.12149 16.637 7.00037 16.3363 7H13.6637C13.3631 7.00036 13.0747 7.12149 12.862 7.33661C12.6494 7.55186 12.5297 7.84352 12.5294 8.14784V9.14287H9.35286C9.158 9.14287 9 9.30275 9 9.50005C9 9.69724 9.158 9.85711 9.35286 9.85711H10.0588V19.9457C10.0593 20.4903 10.2734 21.0125 10.6541 21.3977C11.0346 21.7828 11.5507 21.9994 12.089 22H17.911C18.4493 21.9994 18.9654 21.7828 19.3459 21.3977C19.7266 21.0125 19.9407 20.4903 19.9412 19.9457V9.85711H20.6471C20.842 9.85711 21 9.69723 21 9.50005C21 9.30275 20.842 9.14287 20.6471 9.14287H20.6472ZM13.2353 8.14784C13.2353 7.90844 13.4271 7.71425 13.6637 7.71425H16.3363C16.4499 7.71425 16.5589 7.75993 16.6392 7.84124C16.7196 7.92255 16.7647 8.03293 16.7647 8.14785V9.14288H13.2352L13.2353 8.14784ZM19.2353 19.9458C19.2347 20.301 19.095 20.6416 18.8469 20.8927C18.5986 21.1439 18.2622 21.2853 17.911 21.2859H12.089C11.7379 21.2853 11.4014 21.1439 11.1531 20.8927C10.905 20.6416 10.7653 20.301 10.7647 19.9458V9.85724H19.2354L19.2353 19.9458Z" fill="#333333"/>
<path d="M15 11.2856C14.8051 11.2856 14.647 11.4455 14.647 11.6428V19.4998C14.647 19.6971 14.8051 19.857 15 19.857C15.1948 19.857 15.3529 19.6971 15.3529 19.4998V11.6428C15.3529 11.5481 15.3157 11.4572 15.2495 11.3903C15.1834 11.3233 15.0936 11.2856 15 11.2856Z" fill="#333333"/>
<path d="M16.7646 12.3572V18.7858C16.7646 18.983 16.9228 19.143 17.1176 19.143C17.3125 19.143 17.4706 18.983 17.4706 18.7858V12.3572C17.4706 12.16 17.3125 12 17.1176 12C16.9228 12 16.7646 12.16 16.7646 12.3572Z" fill="#333333"/>
<path d="M12.8823 12C12.6874 12 12.5293 12.16 12.5293 12.3572V18.7858C12.5293 18.983 12.6874 19.143 12.8823 19.143C13.0772 19.143 13.2353 18.983 13.2353 18.7858V12.3572C13.2353 12.2625 13.198 12.1716 13.1319 12.1046C13.0657 12.0377 12.9759 12 12.8823 12V12Z" fill="#333333"/>
</svg>
