<svg width="30" height="30" viewBox="0 0 30 30" fill="none" xmlns="http://www.w3.org/2000/svg">
<circle cx="15" cy="15" r="15" fill="#F7F7F8"/>
<path d="M15.0336 10C11.6567 10 8.49501 11.659 6.10757 14.6729C6.04291 14.7663 6 14.8831 6 15C6 15.1169 6.04306 15.2337 6.12903 15.3271C8.51646 18.341 11.6782 20 15.0335 20C18.3243 20 21.4645 18.341 23.895 15.3037C24.0456 15.1168 24.024 14.8598 23.895 14.6963C21.4645 11.6589 18.3028 10 15.0335 10L15.0336 10ZM15.0336 19.0654C12.0225 19.0654 9.18328 17.6169 7.01093 15C9.18324 12.3832 12.0224 10.9345 15.0336 10.9345C17.9587 10.9345 20.7548 12.3831 22.9917 15C20.7547 17.6168 17.9587 19.0654 15.0336 19.0654V19.0654Z" fill="#FF4C4C"/>
<path d="M14.9905 11.4956C13.2053 11.4956 11.7642 13.061 11.7642 15.0003C11.7642 16.9395 13.2053 18.505 14.9905 18.505C16.7757 18.505 18.2167 16.9395 18.2167 15.0003C18.2167 13.061 16.7757 11.4956 14.9905 11.4956ZM14.9905 17.5704C13.6785 17.5704 12.6245 16.4255 12.6245 15.0002C12.6245 13.5749 13.6784 12.43 14.9905 12.43C16.3025 12.43 17.3565 13.5749 17.3565 15.0002C17.3565 16.4255 16.3025 17.5704 14.9905 17.5704Z" fill="#FF4C4C"/>
<rect x="21" y="7.50503" width="1.7" height="18.7" transform="rotate(45 21 7.50503)" fill="#FF4C4C" stroke="#F7F7F8" stroke-width="0.7"/>
</svg>
