<svg width="30" height="30" viewBox="0 0 30 30" fill="none" xmlns="http://www.w3.org/2000/svg">
<circle cx="15" cy="15" r="15" fill="#F7F7F8"/>
<path d="M18.5722 10.3968C18.5722 9.73752 18.0368 9.20312 17.3763 9.20312H16.6789L9.17826 9.20323C8.52754 9.20323 8 9.72979 8 10.3792V20.824C8 21.4735 8.52757 22 9.17826 22H17.3938C18.0445 22 18.5721 21.4735 18.5721 20.824L18.5722 11.0602L18.5722 10.3968ZM17.6857 11.5024V20.4372C17.6857 20.8113 17.3816 21.1148 17.0068 21.1148H9.56539C9.19055 21.1148 8.88651 20.8113 8.88651 20.4372L8.88662 10.7651C8.88662 10.391 9.19066 10.0875 9.5655 10.0875H16.9918C17.3613 10.0875 17.6628 10.3824 17.6704 10.7512L17.6857 11.5024Z" fill="#333333"/>
<path d="M19.804 7.00016H11.6061C10.9553 7.00016 10.4278 7.52672 10.4278 8.17617V8.6522H11.3144L11.3143 8.56248C11.3143 8.18836 11.6183 7.8849 11.9931 7.8849H19.4195C19.7889 7.8849 20.0905 8.17975 20.098 8.54854L20.1134 9.29948V18.2343C20.1134 18.6085 19.8093 18.9119 19.4345 18.9119H19.1239V19.7968H19.8215C20.4723 19.7968 20.9998 19.2702 20.9998 18.6208L20.9999 8.85696V8.19354C20.9999 7.53439 20.4645 7 19.804 7L19.804 7.00016Z" fill="#333333"/>
</svg>
