<svg width="17" height="17" viewBox="0 0 17 17" fill="none" xmlns="http://www.w3.org/2000/svg">
<path d="M8.5 0C6.24556 0 4.08352 0.895693 2.48971 2.48971C0.895693 4.08372 0 6.24576 0 8.5C0 10.7542 0.895693 12.9165 2.48971 14.5103C4.08372 16.1043 6.24576 17 8.5 17C10.7542 17 12.9165 16.1043 14.5103 14.5103C16.1043 12.9163 17 10.7542 17 8.5C17 6.24576 16.1043 4.08352 14.5103 2.48971C12.9163 0.895693 10.7542 0 8.5 0ZM8.5 15.355C6.68203 15.355 4.93848 14.6328 3.65279 13.3473C2.3673 12.0616 1.64508 10.3181 1.64508 8.5001C1.64508 6.68212 2.3673 4.93858 3.65279 3.65289C4.93848 2.36739 6.68203 1.64518 8.5 1.64518C10.318 1.64518 12.0615 2.36739 13.3472 3.65289C14.6327 4.93858 15.3549 6.68212 15.3549 8.5001C15.3549 10.3181 14.6327 12.0616 13.3472 13.3473C12.0615 14.6328 10.318 15.355 8.5 15.355Z" fill="#BDBDBD"/>
<path d="M7.67737 8.22592H9.32265V12.6132H7.67737V8.22592Z" fill="#BDBDBD"/>
<path d="M9.32258 5.20976C9.32258 5.66401 8.95421 6.03239 8.49995 6.03239C8.04568 6.03239 7.67731 5.66402 7.67731 5.20976C7.67731 4.7555 8.04568 4.38712 8.49995 4.38712C8.95421 4.38712 9.32258 4.75549 9.32258 5.20976Z" fill="#BDBDBD"/>
</svg>
