<svg width="10" height="10" viewBox="0 0 10 10" fill="none" xmlns="http://www.w3.org/2000/svg">
<path d="M8.53555 1.46445C7.59115 0.520098 6.33555 0 5 0C3.66445 0 2.40885 0.520098 1.46445 1.46445C0.520098 2.40885 0 3.66445 0 5C0 6.33555 0.520098 7.59115 1.46445 8.53555C2.40885 9.4799 3.66445 10 5 10C6.33555 10 7.59115 9.4799 8.53555 8.53555C9.4799 7.59115 10 6.33555 10 5C10 3.66445 9.4799 2.40885 8.53555 1.46445ZM5 1.36719C5.59232 1.36719 6.07422 1.84908 6.07422 2.44141C6.07422 3.03373 5.59232 3.51562 5 3.51562C4.40768 3.51562 3.92578 3.03373 3.92578 2.44141C3.92578 1.84908 4.40768 1.36719 5 1.36719ZM6.36719 8.20312H3.63281V7.61719H4.21875V4.6875H3.63281V4.10156H5.78125V7.61719H6.36719V8.20312Z" fill="#333333"/>
</svg>
