<svg width="18" height="17" viewBox="0 0 18 17" fill="none" xmlns="http://www.w3.org/2000/svg">
<path d="M9.46875 0C7.21431 0 5.05227 0.895693 3.45846 2.48971C1.86444 4.08372 0.96875 6.24576 0.96875 8.5C0.96875 10.7542 1.86444 12.9165 3.45846 14.5103C5.05247 16.1043 7.21451 17 9.46875 17C11.723 17 13.8852 16.1043 15.479 14.5103C17.0731 12.9163 17.9688 10.7542 17.9688 8.5C17.9688 6.24576 17.0731 4.08352 15.479 2.48971C13.885 0.895693 11.723 0 9.46875 0ZM9.46875 15.355C7.65078 15.355 5.90723 14.6328 4.62154 13.3473C3.33605 12.0616 2.61383 10.3181 2.61383 8.5001C2.61383 6.68212 3.33605 4.93858 4.62154 3.65289C5.90723 2.36739 7.65078 1.64518 9.46875 1.64518C11.2867 1.64518 13.0303 2.36739 14.316 3.65289C15.6015 4.93858 16.3237 6.68212 16.3237 8.5001C16.3237 10.3181 15.6015 12.0616 14.316 13.3473C13.0303 14.6328 11.2867 15.355 9.46875 15.355Z" fill="#0078BF"/>
<path d="M8.646 8.22592H10.2913V12.6132H8.646V8.22592Z" fill="#0078BF"/>
<path d="M10.2913 5.20976C10.2913 5.66401 9.9229 6.03239 9.46863 6.03239C9.01437 6.03239 8.646 5.66402 8.646 5.20976C8.646 4.7555 9.01437 4.38712 9.46863 4.38712C9.9229 4.38712 10.2913 4.75549 10.2913 5.20976Z" fill="#0078BF"/>
</svg>
