<svg width="17" height="12" viewBox="0 0 17 12" fill="none" xmlns="http://www.w3.org/2000/svg">
<path d="M7.45158 3.33979C7.45159 3.4829 7.40134 3.62137 7.30976 3.73054C7.21818 3.8397 7.09123 3.91247 6.95152 3.93588C6.8118 3.95929 6.6684 3.93182 6.54686 3.85837C6.42531 3.78492 6.33352 3.67025 6.28783 3.53479L5.72376 1.85179C5.71548 1.82805 5.7014 1.8068 5.68283 1.79001C5.66426 1.77323 5.6418 1.76145 5.61753 1.75577C5.59326 1.75008 5.56796 1.75068 5.54398 1.7575C5.51999 1.76432 5.4981 1.77715 5.48033 1.79479L3.49126 5.49979H0.991577C2.34533 3.74779 4.11173 1.41679 5.0647 0.32479C5.63173 -0.32921 6.44814 0.0967899 6.66783 0.78679L7.42189 3.15679C7.44041 3.21604 7.45041 3.27767 7.45158 3.33979Z" fill="#BBBBBB"/>
<path d="M15.0397 5.49979H12.54L10.551 1.79479C10.5332 1.77715 10.5113 1.76432 10.4873 1.7575C10.4633 1.75068 10.438 1.75008 10.4138 1.75577C10.3895 1.76145 10.367 1.77323 10.3485 1.79001C10.3299 1.8068 10.3158 1.82805 10.3075 1.85179L9.74346 3.53479C9.69777 3.67025 9.60597 3.78492 9.48443 3.85837C9.36289 3.93182 9.21949 3.95929 9.07977 3.93588C8.94006 3.91247 8.81311 3.8397 8.72153 3.73054C8.62995 3.62137 8.57969 3.4829 8.57971 3.33979C8.58088 3.27767 8.59088 3.21604 8.6094 3.15679L9.36346 0.78679C9.58315 0.0967899 10.3996 -0.32921 10.9666 0.32479C11.9196 1.41679 13.686 3.74779 15.0397 5.49979Z" fill="#BBBBBB"/>
<path d="M15.7344 6.09979H0.296877C0.218213 6.10003 0.142838 6.13171 0.087214 6.18792C0.03159 6.24413 0.000236715 6.3203 1.77922e-06 6.39979V10.7738C-0.000133556 10.8132 0.00745296 10.8523 0.0223244 10.8888C0.0371958 10.9252 0.0590583 10.9583 0.0866527 10.9862C0.114247 11.0141 0.147028 11.0362 0.183108 11.0512C0.219187 11.0663 0.257853 11.0739 0.296877 11.0738H1.08656C1.13329 11.0743 1.17927 11.0857 1.22097 11.107C1.26266 11.1283 1.29895 11.159 1.32703 11.1968L1.61797 11.6018C1.6456 11.64 1.68179 11.6711 1.72359 11.6925C1.76538 11.7138 1.81159 11.7249 1.85844 11.7248H5.91672C5.9618 11.7249 6.00631 11.7147 6.04693 11.695C6.08755 11.6753 6.12322 11.6465 6.15125 11.6108L7.38328 10.0388C7.41072 10.0032 7.44585 9.97442 7.48598 9.95466C7.52612 9.9349 7.5702 9.92468 7.61485 9.92479H8.41641C8.46105 9.92468 8.50513 9.9349 8.54527 9.95466C8.58541 9.97442 8.62054 10.0032 8.64797 10.0388L9.88 11.6108C9.90803 11.6465 9.9437 11.6753 9.98432 11.695C10.0249 11.7147 10.0695 11.7249 10.1145 11.7248H14.1728C14.2197 11.7249 14.2659 11.7138 14.3077 11.6925C14.3495 11.6711 14.3857 11.64 14.4133 11.6018L14.7042 11.1968C14.7323 11.159 14.7686 11.1283 14.8103 11.107C14.852 11.0857 14.898 11.0743 14.9447 11.0738H15.7344C15.7734 11.0739 15.8121 11.0663 15.8481 11.0512C15.8842 11.0362 15.917 11.0141 15.9446 10.9862C15.9722 10.9583 15.9941 10.9252 16.0089 10.8888C16.0238 10.8523 16.0314 10.8132 16.0313 10.7738V6.39979C16.031 6.3203 15.9997 6.24413 15.944 6.18792C15.8884 6.13171 15.813 6.10003 15.7344 6.09979ZM7.34055 8.45089C7.34045 8.58778 7.29412 8.72054 7.20922 8.82721L5.96548 10.3905C5.90999 10.4606 5.83957 10.5172 5.75946 10.556C5.67935 10.5948 5.59161 10.6148 5.50277 10.6146H1.7424C1.58498 10.6145 1.43405 10.5512 1.32273 10.4387C1.21142 10.3262 1.14881 10.1737 1.14865 10.0146V7.41098C1.14881 7.2519 1.21142 7.09938 1.32273 6.9869C1.43405 6.87441 1.58498 6.81114 1.7424 6.81098H6.7468C6.90423 6.81114 7.05516 6.87441 7.16647 6.9869C7.27779 7.09938 7.3404 7.2519 7.34055 7.41098V8.45089ZM14.8826 10.0146C14.8824 10.1737 14.8198 10.3262 14.7085 10.4387C14.5972 10.5512 14.4463 10.6145 14.2889 10.6146H10.5285C10.4396 10.6148 10.3519 10.5948 10.2717 10.556C10.1916 10.5172 10.1212 10.4606 10.0656 10.3905L8.82174 8.82677C8.73699 8.7202 8.69076 8.58761 8.6907 8.45089V7.41098C8.69086 7.2519 8.75346 7.09938 8.86478 6.9869C8.97609 6.87441 9.12703 6.81114 9.28445 6.81098H14.2889C14.4463 6.81114 14.5972 6.87441 14.7085 6.9869C14.8198 7.09938 14.8824 7.2519 14.8826 7.41098V10.0146Z" fill="#BBBBBB"/>
<path d="M1.74231 10.0145H5.50282L6.74673 8.45089V7.41109H1.74231V10.0145Z" fill="#BBBBBB"/>
<path d="M9.28442 8.45089L10.5283 10.0145H14.2888V7.41049L9.28442 7.41109V8.45089Z" fill="#BBBBBB"/>
</svg>
