<svg width="22" height="16" viewBox="0 0 22 16" fill="none" xmlns="http://www.w3.org/2000/svg">
<path d="M10.1689 4.55758C10.1689 4.75287 10.1003 4.94183 9.97537 5.0908C9.8504 5.23977 9.67716 5.33907 9.4865 5.37102C9.29585 5.40297 9.10016 5.36548 8.9343 5.26525C8.76843 5.16501 8.64317 5.00853 8.58081 4.82368L7.81108 2.52701C7.79977 2.49461 7.78056 2.46561 7.75522 2.44271C7.72988 2.4198 7.69923 2.40373 7.6661 2.39597C7.63298 2.38822 7.59846 2.38903 7.56573 2.39834C7.53301 2.40765 7.50313 2.42515 7.47888 2.44922L4.76454 7.50518H1.35339C3.20076 5.11435 5.61125 1.93339 6.9117 0.443218C7.68549 -0.44925 8.79958 0.132082 9.09937 1.07368L10.1284 4.30785C10.1537 4.3887 10.1673 4.4728 10.1689 4.55758Z" fill="#2F80ED"/>
<path d="M20.5233 7.50518H17.1121L14.3978 2.44922C14.3735 2.42515 14.3437 2.40765 14.3109 2.39834C14.2782 2.38903 14.2437 2.38822 14.2106 2.39597C14.1774 2.40373 14.1468 2.4198 14.1214 2.44271C14.0961 2.46561 14.0769 2.49461 14.0656 2.52701L13.2959 4.82368C13.2335 5.00853 13.1082 5.16501 12.9424 5.26525C12.7765 5.36548 12.5808 5.40297 12.3902 5.37102C12.1995 5.33907 12.0263 5.23977 11.9013 5.0908C11.7763 4.94183 11.7077 4.75287 11.7078 4.55758C11.7094 4.4728 11.723 4.3887 11.7483 4.30785L12.7773 1.07368C13.0771 0.132082 14.1912 -0.44925 14.965 0.443218C16.2654 1.93339 18.6759 5.11435 20.5233 7.50518Z" fill="#2F80ED"/>
<path d="M21.4716 8.32409H0.405127C0.29778 8.32441 0.194921 8.36765 0.119015 8.44435C0.0431086 8.52106 0.000323029 8.625 2.42798e-06 8.73348V14.7024C-0.000182254 14.7562 0.0101705 14.8095 0.0304645 14.8593C0.0507585 14.909 0.0805928 14.9542 0.118249 14.9923C0.155905 15.0303 0.200639 15.0605 0.249874 15.081C0.29911 15.1015 0.351873 15.1119 0.405127 15.1118H1.48276C1.54652 15.1125 1.60927 15.128 1.66617 15.1571C1.72306 15.1862 1.77258 15.2281 1.81091 15.2796L2.20793 15.8323C2.24564 15.8844 2.29503 15.9269 2.35206 15.956C2.4091 15.9852 2.47216 16.0003 2.53608 16.0001H8.07413C8.13564 16.0003 8.1964 15.9864 8.25183 15.9595C8.30726 15.9325 8.35593 15.8932 8.39418 15.8446L10.0754 13.6994C10.1129 13.6508 10.1608 13.6115 10.2156 13.5846C10.2704 13.5576 10.3305 13.5436 10.3914 13.5438H11.4853C11.5462 13.5436 11.6064 13.5576 11.6611 13.5846C11.7159 13.6115 11.7638 13.6508 11.8013 13.6994L13.4825 15.8446C13.5208 15.8932 13.5695 15.9325 13.6249 15.9595C13.6803 15.9864 13.7411 16.0003 13.8026 16.0001H19.3406C19.4046 16.0003 19.4676 15.9852 19.5247 15.956C19.5817 15.9269 19.6311 15.8844 19.6688 15.8323L20.0658 15.2796C20.1041 15.2281 20.1537 15.1862 20.2106 15.1571C20.2675 15.128 20.3302 15.1125 20.394 15.1118H21.4716C21.5249 15.1119 21.5776 15.1015 21.6269 15.081C21.6761 15.0605 21.7208 15.0303 21.7585 14.9923C21.7961 14.9542 21.826 14.909 21.8463 14.8593C21.8666 14.8095 21.8769 14.7562 21.8767 14.7024V8.73348C21.8764 8.625 21.8336 8.52106 21.7577 8.44435C21.6818 8.36765 21.5789 8.32441 21.4716 8.32409ZM10.0171 11.5325C10.017 11.7193 9.95377 11.9004 9.83792 12.046L8.14067 14.1793C8.06495 14.275 7.96886 14.3522 7.85953 14.4051C7.75021 14.4581 7.63048 14.4854 7.50924 14.4851H2.37773C2.16291 14.4849 1.95694 14.3986 1.80504 14.2451C1.65313 14.0916 1.5677 13.8835 1.56749 13.6664V10.1134C1.5677 9.89629 1.65313 9.68816 1.80504 9.53466C1.95694 9.38115 2.16291 9.29482 2.37773 9.2946H9.20689C9.42172 9.29482 9.62768 9.38115 9.77958 9.53466C9.93149 9.68816 10.0169 9.89629 10.0171 10.1134V11.5325ZM20.3092 13.6664C20.309 13.8835 20.2236 14.0916 20.0717 14.2451C19.9198 14.3986 19.7138 14.4849 19.499 14.4851H14.3675C14.2462 14.4854 14.1265 14.458 14.0171 14.4051C13.9078 14.3521 13.8116 14.275 13.7359 14.1793L12.0384 12.0454C11.9228 11.9 11.8597 11.719 11.8596 11.5325V10.1134C11.8598 9.89629 11.9452 9.68816 12.0971 9.53466C12.249 9.38115 12.455 9.29482 12.6698 9.2946H19.499C19.7138 9.29482 19.9198 9.38115 20.0717 9.53466C20.2236 9.68816 20.309 9.89629 20.3092 10.1134V13.6664Z" fill="#2F80ED"/>
<path d="M2.37732 13.6661H7.50903L9.2065 11.5324V10.1134H2.37732V13.6661Z" fill="#2F80ED"/>
<path d="M12.67 11.5322L14.3675 13.6659H19.4992V10.1124L12.67 10.1132V11.5322Z" fill="#2F80ED"/>
</svg>
