<svg width="12" height="12" viewBox="0 0 12 12" fill="none" xmlns="http://www.w3.org/2000/svg">
<path fill-rule="evenodd" clip-rule="evenodd" d="M10.7738 3.24949C10.8824 3.17899 11.0276 3.20995 11.098 3.31854C11.7883 4.38244 12.0988 5.66726 11.9724 6.93638C11.8442 8.22338 11.2691 9.43672 10.3529 10.3529C9.29057 11.4152 7.87817 12.0002 6.37584 12.0002C4.87352 12.0002 3.46112 11.4152 2.39882 10.3529C1.33652 9.2906 0.751483 7.87821 0.751483 6.37588C0.751483 5.65268 0.887423 4.95046 1.14655 4.29797L0.0686414 3.22006C0.000811915 3.1522 -0.0188291 3.04985 0.0190701 2.9617C0.300818 2.30672 0.701232 1.7171 1.20916 1.20917C1.7171 0.701224 2.30673 0.30081 2.96171 0.0190858C3.04983 -0.0188368 3.15216 0.000804226 3.22004 0.0686571L4.29755 1.14619C4.75216 0.966191 5.23261 0.845485 5.73168 0.788273C6.96643 0.646684 8.22857 0.921213 9.28571 1.56123C9.39646 1.62827 9.43187 1.77239 9.36484 1.88313C9.29781 1.99383 9.15374 2.02929 9.04297 1.96223C7.68675 1.1412 6.08053 1.00843 4.66162 1.51023L8.80852 5.65714L8.81096 5.65988C8.84194 5.69131 8.86446 5.7316 8.87377 5.77775L9.17047 7.24857L9.17082 7.25033L9.58635 9.31022C9.60189 9.38717 9.57784 9.46679 9.52234 9.52231C9.47795 9.5667 9.41814 9.59096 9.35661 9.59096C9.34119 9.59096 9.32568 9.58944 9.31025 9.58635L7.25102 9.17095L7.24933 9.17063L5.77775 8.87378C5.73161 8.86448 5.6897 8.84158 5.65714 8.80853L1.51078 4.66219C1.31985 5.20549 1.22022 5.783 1.22022 6.37586C1.22022 7.75298 1.7565 9.04767 2.73028 10.0214C3.70403 10.9952 4.99872 11.5315 6.37584 11.5315C7.75297 11.5315 9.04766 10.9952 10.0214 10.0214C11.7317 8.31116 12.0191 5.59948 10.7048 3.57369C10.6343 3.4651 10.6652 3.31995 10.7738 3.24949ZM7.64126 8.7715L9.05708 9.05709L8.77149 7.64128C8.53652 7.77197 8.32077 7.93481 8.12781 8.1278C7.9348 8.32081 7.77195 8.53654 7.64126 8.7715ZM7.79633 7.79634C8.05571 7.53698 8.35066 7.32444 8.6749 7.16244L8.47277 6.16042C7.97694 6.40759 7.52585 6.73242 7.12916 7.12913C6.73243 7.52584 6.40763 7.97693 6.16043 8.47278L7.1624 8.67491C7.3244 8.35067 7.53696 8.05573 7.79633 7.79634ZM6.79766 6.79767C7.22425 6.3711 7.70846 6.02038 8.24052 5.75208L4.19159 1.70315C3.66058 1.95237 3.16496 2.29562 2.73028 2.7303C2.29923 3.16134 1.95408 3.65539 1.70304 4.19154L5.75207 8.24056C6.02036 7.70845 6.37111 7.22424 6.79766 6.79767ZM1.54064 1.54061C1.11247 1.96877 0.767749 2.46001 0.514314 3.00279L1.35222 3.84067C1.6185 3.31437 1.96967 2.82799 2.39884 2.39881C2.82877 1.96889 3.31367 1.61781 3.84016 1.35167L3.00279 0.514307C2.46004 0.767718 1.9688 1.11244 1.54064 1.54061ZM10.3529 2.3988L10.3685 2.41444C10.4596 2.50641 10.4589 2.65479 10.3669 2.7459C10.3213 2.79118 10.2616 2.81377 10.202 2.81377C10.1416 2.81377 10.0813 2.79062 10.0355 2.74435L10.0214 2.73029C9.9299 2.63874 9.9299 2.49033 10.0214 2.3988C10.113 2.3073 10.2614 2.3073 10.3529 2.3988ZM4.55565 5.2766L3.09436 3.81531C3.00282 3.72379 2.85445 3.72379 2.76288 3.81531C2.67138 3.90686 2.67138 4.05527 2.7629 4.1468L4.22419 5.60808C4.26997 5.65386 4.32994 5.67673 4.38992 5.67673C4.4499 5.67673 4.50988 5.65386 4.55565 5.60808C4.64718 5.51656 4.64718 5.36815 4.55565 5.2766ZM5.19767 5.91864L5.19962 5.92059C5.29088 6.01237 5.29044 6.16078 5.19866 6.25205C5.15293 6.29749 5.09316 6.32021 5.03339 6.32021C4.97316 6.32021 4.91297 6.29714 4.86717 6.25106L4.86523 6.24912C4.77396 6.15733 4.77441 6.00893 4.86619 5.91766C4.95802 5.82641 5.10643 5.82686 5.19767 5.91864Z" fill="#333333"/>
</svg>
