<svg width="18" height="25" viewBox="0 0 18 25" fill="none" xmlns="http://www.w3.org/2000/svg">
<path fill-rule="evenodd" clip-rule="evenodd" d="M11.5357 1.59488L10.0708 0.385237C9.44903 -0.128412 8.55097 -0.128412 7.92898 0.385237L6.46415 1.59488C6.20541 1.80869 5.88861 1.94011 5.55467 1.97234L3.66508 2.15469C2.86279 2.23194 2.22786 2.86823 2.15056 3.6718L1.96874 5.56484C1.93656 5.89939 1.80539 6.21677 1.59196 6.47617L0.384533 7.9435C-0.128178 8.56663 -0.128178 9.46633 0.384533 10.0893L1.59196 11.5568C1.80539 11.816 1.93656 12.1334 1.96874 12.4679L2.15075 14.361C2.22786 15.1647 2.86299 15.8008 3.66527 15.8783L5.33563 16.0395L2.39179 23.0865C2.35352 23.1781 2.43786 23.2734 2.53306 23.2465L4.91422 22.5731C5.09452 22.5219 5.28624 22.6022 5.37648 22.7668L6.56887 24.9386C6.61666 25.0255 6.74346 25.0187 6.78172 24.9271L9.00026 19.6163L10.1475 22.3627L11.2188 24.9273C11.2575 25.0185 11.3841 25.0257 11.4319 24.9386L12.6241 22.7667C12.7145 22.602 12.9062 22.5221 13.0867 22.5731L15.4677 23.2465C15.5627 23.2734 15.6472 23.1783 15.6091 23.0865L12.7273 16.1878L12.6653 16.0394L14.3347 15.8783C15.137 15.8008 15.772 15.1647 15.8493 14.361L16.0313 12.4679C16.0634 12.1334 16.1946 11.816 16.408 11.5568L17.6155 10.0893C18.1282 9.46614 18.1282 8.56663 17.6155 7.9435L16.408 6.47598C16.1946 6.21677 16.0634 5.89939 16.0313 5.56484L15.8493 3.6718C15.772 2.86804 15.137 2.23194 14.3347 2.1545L12.4451 1.97234C12.1114 1.94011 11.7946 1.80869 11.5357 1.59488ZM9.00005 14.6024C12.0796 14.6024 14.5759 12.1015 14.5759 9.01638C14.5759 5.93143 12.0796 3.43051 9.00005 3.43051C5.92074 3.43051 3.42439 5.93143 3.42439 9.01638C3.42439 12.1015 5.92074 14.6024 9.00005 14.6024Z" fill="#0078BF"/>
<ellipse cx="9.00006" cy="8.95002" rx="3.60455" ry="3.61115" fill="#0078BF"/>
</svg>
