<svg width="12" height="13" viewBox="0 0 12 13" fill="none" xmlns="http://www.w3.org/2000/svg">
<path d="M5.39359 6.02716V1.59972C5.39359 1.11113 5.7934 0.714233 6.28558 0.714233C6.77775 0.714233 7.17756 1.11113 7.17756 1.59972V6.02716C7.17756 6.51575 6.77775 6.91265 6.28558 6.91265C5.7934 6.91265 5.39359 6.51575 5.39359 6.02716ZM9.8213 2.0126C9.53234 1.78547 9.11074 1.83532 8.88194 2.12264C8.65314 2.41044 8.70288 2.82802 8.99279 3.05563C10.0539 3.88656 10.6621 5.13085 10.6621 6.47014C10.6621 8.86561 8.69862 10.8148 6.28605 10.8148C3.873 10.8148 1.9095 8.86561 1.9095 6.47014C1.9095 5.13133 2.51726 3.8875 3.57741 3.05704C3.86732 2.8299 3.91706 2.41232 3.68826 2.12405C3.45946 1.83626 3.03928 1.78735 2.74843 2.01401C1.36474 3.09795 0.571289 4.7222 0.571289 6.47014C0.571289 9.59826 3.13497 12.1428 6.28558 12.1428C9.43618 12.1428 11.9999 9.59779 11.9999 6.47014C11.9999 4.72126 11.2055 3.09701 9.8213 2.0126Z" fill="#828282"/>
</svg>
