<svg width="28" height="18" viewBox="0 0 28 18" fill="none" xmlns="http://www.w3.org/2000/svg">
<path d="M23.7691 7.8181C24.5531 7.26715 25.0723 6.35067 25.0723 5.31764C25.0723 3.6277 23.7055 2.26092 22.0156 2.26092C20.3257 2.26092 18.9589 3.6277 18.9589 5.31764C18.9589 6.35067 19.4727 7.26715 20.2621 7.8181C19.5893 8.0512 18.9748 8.41143 18.4556 8.87762C17.7404 8.2684 16.8981 7.80221 15.9763 7.52673C17.0941 6.84864 17.8464 5.6143 17.8464 4.21044C17.8464 2.07021 16.1141 0.337891 13.9738 0.337891C11.8336 0.337891 10.1013 2.0755 10.1013 4.21044C10.1013 5.6143 10.8482 6.84864 11.9713 7.52673C11.0601 7.80221 10.2284 8.2631 9.51855 8.86173C8.99938 8.40614 8.39546 8.0512 7.73326 7.8234C8.5173 7.27245 9.03647 6.35597 9.03647 5.32293C9.03647 3.633 7.66969 2.26622 5.97975 2.26622C4.28982 2.26622 2.92304 3.633 2.92304 5.32293C2.92304 6.35597 3.4369 7.27245 4.22624 7.8234C2.1231 8.54917 0.613281 10.5464 0.613281 12.8932V13.2428C0.613281 13.2534 0.623876 13.264 0.634472 13.264H7.11344C7.07635 13.5554 7.05516 13.8574 7.05516 14.1593V14.5196C7.05516 16.0771 8.31599 17.3379 9.87349 17.3379H18.0848C19.6423 17.3379 20.9031 16.0771 20.9031 14.5196V14.1593C20.9031 13.8574 20.8819 13.5554 20.8448 13.264H27.3662C27.3768 13.264 27.3874 13.2534 27.3874 13.2428V12.8932C27.3768 10.5411 25.8722 8.54387 23.7691 7.8181ZM19.8065 5.31234C19.8065 4.09389 20.7971 3.10324 22.0156 3.10324C23.234 3.10324 24.2247 4.09389 24.2247 5.31234C24.2247 6.51489 23.2552 7.49495 22.058 7.52144C22.0421 7.52144 22.0315 7.52144 22.0156 7.52144C21.9997 7.52144 21.9891 7.52144 21.9732 7.52144C20.7707 7.50025 19.8065 6.52019 19.8065 5.31234ZM10.9383 4.21044C10.9383 2.54169 12.2945 1.18551 13.9632 1.18551C15.632 1.18551 16.9882 2.54169 16.9882 4.21044C16.9882 5.82091 15.722 7.14001 14.1381 7.23007C14.0798 7.23007 14.0215 7.23007 13.9632 7.23007C13.905 7.23007 13.8467 7.23007 13.7884 7.23007C12.2044 7.14001 10.9383 5.82091 10.9383 4.21044ZM3.75476 5.31234C3.75476 4.09389 4.74541 3.10324 5.96386 3.10324C7.18231 3.10324 8.17296 4.09389 8.17296 5.31234C8.17296 6.51489 7.2035 7.49495 6.00624 7.52144C5.99035 7.52144 5.97975 7.52144 5.96386 7.52144C5.94797 7.52144 5.93737 7.52144 5.92148 7.52144C4.72422 7.50025 3.75476 6.52019 3.75476 5.31234ZM7.26177 12.4111H1.47149C1.70988 10.1543 3.61702 8.38495 5.93207 8.36905C5.94267 8.36905 5.95326 8.36905 5.96386 8.36905C5.97445 8.36905 5.98505 8.36905 5.99564 8.36905C7.09754 8.37435 8.10409 8.78227 8.88284 9.44447C8.11998 10.2709 7.55314 11.288 7.26177 12.4111ZM20.0449 14.5196C20.0449 15.6056 19.1602 16.4903 18.0742 16.4903H9.86289C8.77688 16.4903 7.89218 15.6056 7.89218 14.5196V14.1593C7.89218 10.8695 10.5198 8.17834 13.7884 8.08298C13.8467 8.08828 13.9103 8.08828 13.9685 8.08828C14.0268 8.08828 14.0904 8.08828 14.1487 8.08298C17.4173 8.17834 20.0449 10.8695 20.0449 14.1593V14.5196ZM20.6753 12.4111C20.3839 11.2933 19.8277 10.2921 19.0701 9.46566C19.8542 8.78756 20.8713 8.37965 21.9838 8.36905C21.9944 8.36905 22.005 8.36905 22.0156 8.36905C22.0262 8.36905 22.0368 8.36905 22.0474 8.36905C24.3624 8.38495 26.2696 10.1543 26.508 12.4111H20.6753Z" fill="#828282"/>
</svg>
