<svg width="12" height="16" viewBox="0 0 12 16" fill="none" xmlns="http://www.w3.org/2000/svg">
<path d="M7.95782 6.53544C9.49832 5.454 9.87043 3.32848 8.78895 1.78803C7.70747 0.247572 5.58199 -0.12458 4.04153 0.956902C2.50108 2.03838 2.12893 4.16386 3.21041 5.70432C3.43721 6.02739 3.71846 6.30864 4.04153 6.53544C2.2218 6.84825 0.890848 8.42474 0.887695 10.2712V14.9971C0.887653 15.1853 1.04016 15.3378 1.22832 15.3379C1.22837 15.3379 1.22845 15.3379 1.22849 15.3379H10.7709C10.959 15.3379 11.1116 15.1854 11.1117 14.9973C11.1117 14.9972 11.1117 14.9971 11.1117 14.9971V10.2711C11.1085 8.42474 9.77756 6.84825 7.95782 6.53544ZM3.27329 3.75073C3.27329 2.24499 4.49394 1.02434 5.99968 1.02434C7.50541 1.02434 8.72607 2.24499 8.72607 3.75073C8.72607 5.25646 7.50541 6.47712 5.99968 6.47712C4.49467 6.47542 3.27499 5.25574 3.27329 3.75073ZM10.4301 14.6563H1.56929V10.2711C1.57121 8.55301 2.96359 7.16063 4.68177 7.15872H7.31763C9.03577 7.16063 10.4281 8.55301 10.4301 10.2711V14.6563Z" fill="#828282"/>
</svg>
