<svg width="15" height="15" viewBox="0 0 15 15" fill="none" xmlns="http://www.w3.org/2000/svg">
<path d="M7.37634 4.30515C7.53322 4.14824 7.78763 4.14824 7.94454 4.30515L9.1499 5.5105C9.30681 5.66742 9.30681 5.9218 9.1499 6.07871L7.94454 7.28407C7.78766 7.44095 7.53325 7.44098 7.37634 7.28407C7.21943 7.12715 7.21943 6.87277 7.37634 6.71586L8.29758 5.79462L7.37634 4.87338C7.21943 4.71647 7.21943 4.46206 7.37634 4.30515ZM2.15313 5.5105L3.35849 4.30515C3.51537 4.14824 3.76978 4.14824 3.92669 4.30515C4.0836 4.46206 4.0836 4.71644 3.92669 4.87335L3.00543 5.79462L3.92666 6.71586C4.08358 6.87277 4.08358 7.12715 3.92666 7.28407C3.76978 7.44095 3.51537 7.44098 3.35846 7.28407L2.1531 6.07871C1.99622 5.92183 1.99622 5.66742 2.15313 5.5105V5.5105ZM4.72086 3.00275C4.93142 2.93254 5.15891 3.04636 5.22909 3.25686L6.83623 8.07829C6.90641 8.2888 6.79263 8.51634 6.58212 8.58652C6.37158 8.6567 6.14406 8.54291 6.07389 8.3324L4.46675 3.51098C4.39659 3.30044 4.51038 3.0729 4.72086 3.00275V3.00275ZM5.6515 0.571411C8.53158 0.571411 10.8747 2.91454 10.8747 5.79462C10.8747 7.09035 10.4003 8.27725 9.61621 9.19113L10.1597 9.73461L10.4437 9.45057C10.6006 9.29366 10.855 9.29366 11.0119 9.45057L14.0249 12.4635C14.1818 12.6204 14.1818 12.8748 14.0249 13.0317L12.8886 14.168C12.7317 14.3249 12.4773 14.3249 12.3204 14.168L9.30745 11.1551C9.15054 10.9981 9.15054 10.7438 9.30745 10.5868L9.59149 10.3028L9.04801 9.75933C8.13413 10.5434 6.94723 11.0178 5.6515 11.0178C2.77142 11.0178 0.428294 8.6747 0.428294 5.79462C0.428294 2.91454 2.77142 0.571411 5.6515 0.571411V0.571411ZM12.6045 13.3157L13.1725 12.7476L10.7278 10.3029L10.1597 10.871L12.6045 13.3157ZM5.6515 10.2143C8.08849 10.2143 10.0711 8.23161 10.0711 5.79462C10.0711 3.35763 8.08852 1.37498 5.6515 1.37498C3.21449 1.37498 1.23186 3.35763 1.23186 5.79462C1.23186 8.23161 3.21451 10.2143 5.6515 10.2143Z" fill="#828282"/>
</svg>
