<svg width="20" height="20" viewBox="0 0 20 20" fill="none" xmlns="http://www.w3.org/2000/svg">
<path d="M14.8615 10.0181C14.8615 10.2585 14.6685 10.4536 14.4307 10.4536L6.03086 10.4536C5.79308 10.4536 5.6001 10.2585 5.6001 10.0181C5.6001 9.77763 5.79308 9.5825 6.03086 9.5825L14.4307 9.5825C14.6693 9.5825 14.8615 9.77763 14.8615 10.0181Z" fill="#0078BF"/>
<path d="M15.0769 10.017C15.0769 10.1285 15.0347 10.24 14.9511 10.3254L11.9358 13.3743C11.7678 13.5442 11.4947 13.5442 11.3267 13.3743C11.1587 13.2044 11.1587 12.9283 11.3267 12.7584L14.037 10.017L11.3267 7.27653C11.1587 7.10666 11.1587 6.83052 11.3267 6.66065C11.4947 6.49079 11.7678 6.49079 11.9358 6.66065L14.9511 9.70954C15.0347 9.79404 15.0769 9.90554 15.0769 10.017Z" fill="#0078BF"/>
<path fill-rule="evenodd" clip-rule="evenodd" d="M0 10C0 4.47254 4.47297 0 10 0C15.5275 0 20 4.47293 20 10C20 15.5275 15.527 20 10 20C4.47254 20 0 15.5271 0 10ZM0.933315 10C0.933315 4.98842 4.98881 0.933315 10 0.933315C15.0116 0.933315 19.0667 4.98878 19.0667 10C19.0667 15.0116 15.0112 19.0667 10 19.0667C4.98842 19.0667 0.933315 15.0112 0.933315 10Z" fill="#0078BF"/>
</svg>
