<svg width="12" height="12" viewBox="0 0 12 12" fill="none" xmlns="http://www.w3.org/2000/svg">
<path d="M11.8065 4.83871H10.8968C10.7732 4.31552 10.5659 3.81576 10.2826 3.35884L10.9262 2.71529C11.0017 2.63971 11.0017 2.51719 10.9262 2.44161L9.55839 1.07303C9.48281 0.997476 9.36029 0.997476 9.28471 1.07303L8.64097 1.71658C8.1841 1.43359 7.6844 1.22644 7.16129 1.10323V0.193548C7.16129 0.0866613 7.07463 0 6.96774 0H5.03226C4.92537 0 4.83871 0.0866613 4.83871 0.193548V1.10323C4.31555 1.22669 3.81585 1.43407 3.35903 1.71735L2.71529 1.07303C2.63971 0.997476 2.51719 0.997476 2.44161 1.07303L1.07303 2.44161C0.997476 2.51719 0.997476 2.63971 1.07303 2.71529L1.71658 3.35884C1.43364 3.81581 1.22652 4.31557 1.10323 4.83871H0.193548C0.0866613 4.83871 0 4.92537 0 5.03226V6.96774C0 7.07463 0.0866613 7.16129 0.193548 7.16129H1.10323C1.22676 7.68448 1.43415 8.18424 1.71735 8.64116L1.07303 9.28471C0.997476 9.36029 0.997476 9.48281 1.07303 9.55839L2.44161 10.927C2.5184 10.9996 2.6385 10.9996 2.71529 10.927L3.35884 10.2834C3.81581 10.5664 4.31557 10.7735 4.83871 10.8968V11.8065C4.83871 11.9133 4.92537 12 5.03226 12H6.96774C7.07463 12 7.16129 11.9133 7.16129 11.8065V10.8968C7.68448 10.7732 8.18424 10.5659 8.64116 10.2826L9.28471 10.9262C9.36029 11.0017 9.48281 11.0017 9.55839 10.9262L10.927 9.55761C11.0025 9.48203 11.0025 9.35952 10.927 9.28393L10.2834 8.64039C10.5663 8.18366 10.7734 7.68416 10.8968 7.16129H11.8065C11.9133 7.16129 12 7.07463 12 6.96774V5.03226C12 4.92537 11.9133 4.83871 11.8065 4.83871ZM11.6129 6.77419H10.7419C10.65 6.77417 10.5706 6.83891 10.5523 6.92903C10.434 7.51156 10.204 8.06567 9.87484 8.56065C9.82391 8.63739 9.8341 8.73939 9.89923 8.80452L10.5163 9.42135L9.42135 10.5163L8.80452 9.89923C8.73939 9.8341 8.63739 9.82391 8.56065 9.87484C8.06567 10.204 7.51156 10.434 6.92903 10.5523C6.83891 10.5706 6.77417 10.65 6.77419 10.7419V11.6129H5.22581V10.7419C5.22583 10.65 5.16109 10.5706 5.07097 10.5523C4.48844 10.434 3.93433 10.204 3.43935 9.87484C3.36261 9.82391 3.26061 9.8341 3.19548 9.89923L2.57864 10.5163L1.48355 9.42155L2.10058 8.80471C2.16571 8.73958 2.1759 8.63758 2.12497 8.56084C1.79581 8.06586 1.56578 7.51176 1.44755 6.92923C1.42923 6.83908 1.35005 6.77429 1.25806 6.77419H0.387097V5.22581H1.25806C1.35005 5.22583 1.42935 5.16109 1.44774 5.07097C1.56598 4.48844 1.79601 3.93433 2.12516 3.43935C2.17609 3.36261 2.16588 3.26061 2.10077 3.19548L1.48355 2.57845L2.57845 1.48355L3.19548 2.10058C3.26061 2.16571 3.36261 2.1759 3.43935 2.12497C3.93428 1.79589 4.48831 1.56583 5.07077 1.44755C5.16092 1.42923 5.22571 1.35005 5.22581 1.25806V0.387097H6.77419V1.25806C6.77417 1.35005 6.83891 1.42935 6.92903 1.44774C7.51149 1.56602 8.06552 1.79608 8.56045 2.12516C8.63719 2.17609 8.73919 2.1659 8.80432 2.10077L9.42135 1.48374L10.5163 2.57864L9.89923 3.19548C9.8341 3.26061 9.82391 3.36261 9.87484 3.43935C10.204 3.93433 10.434 4.48844 10.5523 5.07097C10.5706 5.16109 10.65 5.22583 10.7419 5.22581H11.6129V6.77419Z" fill="#0078BF"/>
<path d="M6.00013 3.87097C4.8243 3.87097 3.87109 4.82417 3.87109 6C3.87109 7.17583 4.8243 8.12904 6.00013 8.12904C7.17596 8.12904 8.12916 7.17583 8.12916 6C8.12778 4.82475 7.17538 3.87235 6.00013 3.87097ZM6.00013 7.74194C5.03809 7.74194 4.25819 6.96204 4.25819 6C4.25819 5.03795 5.03809 4.25807 6.00013 4.25807C6.96218 4.25807 7.74206 5.03795 7.74206 6C7.741 6.9616 6.96172 7.74088 6.00013 7.74194Z" fill="#0078BF"/>
</svg>
