<svg width="21" height="19" viewBox="0 0 21 19" fill="none" xmlns="http://www.w3.org/2000/svg">
<path fill-rule="evenodd" clip-rule="evenodd" d="M17.1429 5.16096C17.7214 6.3549 18.0493 7.69809 18.0493 9.11914C18.0493 14.0896 14.057 18.1191 9.13257 18.1191C4.20811 18.1191 0.21582 14.0896 0.21582 9.11914C0.21582 4.25901 4.0281 0.300828 8.79827 0.12563L9.13257 0.119141H20.2158L18.8079 3.25973H15.9085H8.70827C7.84681 3.44791 7.27464 3.78533 6.65748 4.09679C4.8317 5.0182 3.57808 6.91943 3.57808 9.11914C3.57808 12.2208 6.06603 14.732 9.139 14.732C12.212 14.732 14.6999 12.2208 14.6999 9.11914C14.6999 7.5748 14.0827 6.1797 13.0799 5.16096H17.1429Z" fill="url(#paint0_linear)"/>
<defs>
<linearGradient id="paint0_linear" x1="3.125" y1="5" x2="13.375" y2="16.375" gradientUnits="userSpaceOnUse">
<stop/>
<stop offset="1" stop-color="#F91B5E"/>
</linearGradient>
</defs>
</svg>
