<svg width="12" height="12" viewBox="0 0 12 12" fill="none" xmlns="http://www.w3.org/2000/svg">
<path fill-rule="evenodd" clip-rule="evenodd" d="M0 6C0 2.68633 2.68633 0 6 0C9.09922 0.000976562 11.6877 2.36221 11.9727 5.44834C12.2576 8.53447 10.1452 11.3297 7.09863 11.8982L7.03564 11.9094C6.87178 11.938 6.70664 11.9608 6.54004 11.9758C6.36084 11.9919 6.18076 12 6 12C2.68633 12 0 9.31367 0 6ZM5.50381 11.5788H5.51797C5.67764 11.5926 5.83896 11.5986 6.00098 11.5986C6.16299 11.5986 6.32305 11.5912 6.48301 11.5774H6.49717C6.65283 11.5636 6.80742 11.5428 6.96064 11.516C6.96412 11.5155 6.96759 11.515 6.97106 11.5145C6.97618 11.5137 6.98131 11.5129 6.98643 11.512C7.13623 11.4852 7.28438 11.4518 7.43115 11.413L7.46563 11.4044C7.60938 11.3654 7.75137 11.32 7.89141 11.2698C7.89803 11.2673 7.90498 11.2649 7.91207 11.2624C7.91846 11.2602 7.92496 11.258 7.93145 11.2556C8.06904 11.205 8.20439 11.1484 8.3376 11.087C8.35283 11.0806 8.36797 11.074 8.38301 11.067C8.51416 11.0058 8.64277 10.9378 8.76924 10.8658C8.77675 10.8615 8.78438 10.8572 8.79203 10.853C8.80018 10.8484 8.80834 10.8438 8.81641 10.8392C8.94121 10.7661 9.06309 10.6884 9.18203 10.6058C9.1889 10.601 9.19582 10.5963 9.20276 10.5916C9.21151 10.5857 9.22029 10.5797 9.229 10.5736C9.34688 10.4902 9.46162 10.402 9.57344 10.3086L9.6 10.2864V8.6C9.59854 7.38555 8.61445 6.40146 7.4 6.4H4.6C3.38555 6.40146 2.40146 7.38555 2.4 8.6V10.2862L2.43018 10.3126C2.53984 10.4036 2.65244 10.4906 2.76797 10.5726C2.77734 10.5791 2.78679 10.5856 2.79624 10.5921C2.80463 10.5978 2.81303 10.6035 2.82139 10.6094C2.93896 10.6904 3.05879 10.7672 3.18145 10.8388L3.23438 10.8686C3.35898 10.9396 3.48604 11.0072 3.61563 11.0672C3.62756 11.0729 3.63949 11.0781 3.65143 11.0834C3.6559 11.0854 3.66037 11.0874 3.66484 11.0894C3.79697 11.1502 3.93115 11.2064 4.06777 11.2566C4.07599 11.2597 4.08423 11.2625 4.09247 11.2653C4.09873 11.2674 4.10499 11.2695 4.11123 11.2718C4.25059 11.3218 4.39199 11.3668 4.53496 11.4056L4.57041 11.4146C4.71699 11.4534 4.86504 11.4866 5.01465 11.5134C5.01937 11.5143 5.02414 11.515 5.02894 11.5157C5.03289 11.5163 5.03686 11.5169 5.04082 11.5176C5.19385 11.5442 5.34824 11.565 5.50381 11.5788ZM10 8.6V9.91543C12.1541 7.71689 12.1301 4.19199 9.94629 2.02295C7.7625 -0.145996 4.2375 -0.145996 2.05371 2.02295C-0.130078 4.19199 -0.154102 7.71689 2 9.91543V8.6C2.00166 7.16475 3.16475 6.00166 4.6 6H7.4C8.83525 6.00166 9.99834 7.16475 10 8.6ZM4 3.6C4 2.49541 4.89541 1.6 6 1.6C7.1041 1.60117 7.99883 2.4959 8 3.6C8 4.70459 7.10459 5.6 6 5.6C4.89541 5.6 4 4.70459 4 3.6ZM4.4 3.6C4.4 4.48369 5.11631 5.2 6 5.2C6.8832 5.19902 7.59902 4.4832 7.6 3.6C7.6 2.71631 6.88369 2 6 2C5.11631 2 4.4 2.71631 4.4 3.6Z" fill="#0078BF"/>
</svg>
