<svg width="12" height="12" viewBox="0 0 12 12" fill="none" xmlns="http://www.w3.org/2000/svg">
<path fill-rule="evenodd" clip-rule="evenodd" d="M12 1.75781C12 1.95213 11.8428 2.10938 11.6484 2.10938H11.2969V9.89062H11.6484C11.8453 9.89062 12 10.0453 12 10.2422V11.6484C12 11.8453 11.8453 12 11.6484 12H10.2422C10.0453 12 9.89062 11.8453 9.89062 11.6484V11.2969H2.10938V11.6484C2.10938 11.8428 1.95213 12 1.75781 12H0.351562C0.157242 12 0 11.8428 0 11.6484V10.2422C0 10.0479 0.157242 9.89062 0.351562 9.89062H0.703125V2.10938H0.351562C0.154664 2.10938 0 1.95466 0 1.75781V0.351562C0 0.154664 0.154664 0 0.351562 0H1.75781C1.95471 0 2.10938 0.154664 2.10938 0.351562V0.703125H9.89062V0.351562C9.89062 0.157242 10.0479 0 10.2422 0H11.6484C11.8428 0 12 0.157242 12 0.351562V1.75781ZM10.2422 9.89062H10.5938V2.10938H10.2422C10.0479 2.10938 9.89062 1.95213 9.89062 1.75781V1.40625H2.10938V1.75781C2.10938 1.95466 1.95471 2.10938 1.75781 2.10938H1.40625V9.89062H1.75781C1.95213 9.89062 2.10938 10.0479 2.10938 10.2422V10.5938H9.89062V10.2422C9.89062 10.0453 10.0453 9.89062 10.2422 9.89062ZM3.53906 2.46094H8.46094C8.65526 2.46094 8.8125 2.61818 8.8125 2.8125V4.21875C8.8125 4.36088 8.727 4.48929 8.59552 4.54352C8.46504 4.59846 8.3133 4.56825 8.21236 4.4673L7.61224 3.86719H6.70312V8.00295L7.34721 8.99248C7.41895 9.10029 7.42584 9.23899 7.36472 9.35332C7.30359 9.46765 7.18446 9.53906 7.05469 9.53906H4.94531C4.81554 9.53906 4.69641 9.46767 4.6353 9.35334C4.5742 9.23902 4.58105 9.10031 4.65281 8.9925L5.29688 8.00295V3.86719H4.38776L3.78764 4.4673C3.68705 4.5679 3.53632 4.59811 3.40448 4.54352C3.27298 4.48929 3.1875 4.36088 3.1875 4.21875V2.8125C3.1875 2.61818 3.34474 2.46094 3.53906 2.46094Z" fill="#333333"/>
</svg>
