<svg width="15" height="15" viewBox="0 0 15 15" fill="none" xmlns="http://www.w3.org/2000/svg">
<path d="M1.50026 4.38448C1.50026 5.53076 1.94672 6.60838 2.75716 7.41893L1.99946 8.17673C0.986517 7.16378 0.428711 5.81699 0.428711 4.38448C0.428711 2.95198 0.986517 1.60529 1.99946 0.592342L2.75716 1.35004C1.94672 2.16058 1.50026 3.23821 1.50026 4.38448V4.38448ZM3.46483 2.07675C2.17361 3.36798 2.17361 5.46901 3.46483 6.76034L4.22263 6.00254C3.34919 5.12909 3.34919 3.70789 4.22263 2.83455L3.46483 2.07675ZM7.82273 8.75316V11.1631C8.44636 11.3843 8.89428 11.9799 8.89428 12.6783C8.89428 13.5646 8.17321 14.2857 7.2869 14.2857C6.40058 14.2857 5.67952 13.5646 5.67952 12.6783C5.67952 11.9799 6.12754 11.3843 6.75107 11.1631V8.75316C5.97736 8.52208 5.4116 7.80416 5.4116 6.95635V0.571411H6.48316V6.95635C6.48316 7.39946 6.84379 7.75999 7.2869 7.75999C7.73011 7.75999 8.09064 7.39946 8.09064 6.95635V0.571411H9.1622V6.95635C9.1622 7.80416 8.59644 8.52208 7.82273 8.75316V8.75316ZM7.82273 12.6783C7.82273 12.3829 7.58234 12.1426 7.2869 12.1426C6.99146 12.1426 6.75107 12.3829 6.75107 12.6783C6.75107 12.9738 6.99146 13.2141 7.2869 13.2141C7.58234 13.2141 7.82273 12.9738 7.82273 12.6783ZM12.5777 0.592342L11.82 1.35004C13.4931 3.02325 13.4931 5.74572 11.82 7.41893L12.5777 8.17662C14.6687 6.08563 14.6687 2.68333 12.5777 0.592342ZM11.1123 2.07675L10.3545 2.83455C10.7776 3.25767 11.0107 3.82019 11.0107 4.4186C11.0107 5.01691 10.7776 5.57942 10.3545 6.00254L11.1123 6.76034C11.7378 6.13482 12.0823 5.30313 12.0823 4.4186C12.0823 3.53396 11.7378 2.70227 11.1123 2.07675V2.07675Z" fill="#828282"/>
</svg>
