<svg width="8" height="10" viewBox="0 0 8 10" fill="none" xmlns="http://www.w3.org/2000/svg">
<path fill-rule="evenodd" clip-rule="evenodd" d="M4.437 8.44922L6.75336 6.04281C6.924 5.86554 7.20139 5.86554 7.37202 6.04281C7.54266 6.22008 7.54266 6.50825 7.37202 6.68552L4.30933 9.86728C4.22445 9.95546 4.11244 10 4.00044 10C3.88843 10 3.77642 9.95546 3.69067 9.86728L0.627977 6.68552C0.457341 6.50825 0.457341 6.22008 0.627977 6.04281C0.798612 5.86554 1.076 5.86554 1.24664 6.04281L3.56194 8.44735L3.56194 0.454536C3.56194 0.203632 3.75796 0 3.99947 0C4.24099 0 4.437 0.203632 4.437 0.454536L4.437 8.44922Z" fill="white"/>
</svg>
