<svg width="100" height="100" viewBox="0 0 51 19" fill="none" xmlns="http://www.w3.org/2000/svg">
<path d="M9.65161 5.00586V11.4727C9.65161 12.2109 9.49211 12.8581 9.1731 13.4141C8.85864 13.9655 8.40063 14.3916 7.79907 14.6924C7.20207 14.9886 6.48657 15.1367 5.65259 15.1367C4.413 15.1367 3.44914 14.8086 2.76099 14.1523C2.07284 13.4961 1.72876 12.5938 1.72876 11.4453V5.00586H3.36938V11.3291C3.36938 12.154 3.56079 12.7624 3.9436 13.1543C4.32642 13.5462 4.91431 13.7422 5.70728 13.7422C7.24764 13.7422 8.01782 12.9333 8.01782 11.3154V5.00586H9.65161ZM15.8723 15.1367C14.9153 15.1367 14.1724 14.7926 13.6438 14.1045H13.5481C13.6119 14.7425 13.6438 15.1299 13.6438 15.2666V18.3633H12.0374V7.43945H13.3362C13.3726 7.58073 13.4478 7.91797 13.5618 8.45117H13.6438C14.1451 7.68555 14.8971 7.30273 15.8997 7.30273C16.843 7.30273 17.5767 7.64453 18.1008 8.32812C18.6295 9.01172 18.8938 9.97103 18.8938 11.2061C18.8938 12.4411 18.6249 13.4049 18.0872 14.0977C17.554 14.7904 16.8157 15.1367 15.8723 15.1367ZM15.4827 8.61523C14.8446 8.61523 14.3775 8.80208 14.0813 9.17578C13.7896 9.54948 13.6438 10.1465 13.6438 10.9668V11.2061C13.6438 12.1266 13.7896 12.7943 14.0813 13.209C14.373 13.6191 14.8492 13.8242 15.51 13.8242C16.066 13.8242 16.4944 13.5964 16.7952 13.1406C17.0959 12.6849 17.2463 12.0355 17.2463 11.1924C17.2463 10.3447 17.0959 9.70443 16.7952 9.27148C16.4989 8.83398 16.0614 8.61523 15.4827 8.61523ZM23.3098 15.1367C22.3665 15.1367 21.6305 14.7949 21.1018 14.1113C20.5732 13.4277 20.3088 12.4684 20.3088 11.2334C20.3088 9.99382 20.5754 9.02995 21.1086 8.3418C21.6464 7.64909 22.3892 7.30273 23.3372 7.30273C24.3306 7.30273 25.0872 7.6696 25.6067 8.40332H25.6887C25.6112 7.861 25.5725 7.43262 25.5725 7.11816V4.36328H27.1858V15H25.928L25.6477 14.0088H25.5725C25.0575 14.7607 24.3033 15.1367 23.3098 15.1367ZM23.7405 13.8379C24.4013 13.8379 24.8821 13.6533 25.1829 13.2842C25.4836 12.9105 25.6386 12.3066 25.6477 11.4727V11.2471C25.6477 10.2946 25.4928 9.61784 25.1829 9.2168C24.873 8.81576 24.3876 8.61523 23.7268 8.61523C23.1617 8.61523 22.7265 8.84538 22.4211 9.30566C22.1158 9.76139 21.9631 10.4131 21.9631 11.2607C21.9631 12.0993 22.1112 12.7396 22.4075 13.1816C22.7037 13.6191 23.148 13.8379 23.7405 13.8379ZM34.2131 15L33.8918 13.9473H33.8372C33.4726 14.4076 33.1057 14.722 32.7366 14.8906C32.3674 15.0547 31.8935 15.1367 31.3147 15.1367C30.5719 15.1367 29.9908 14.9362 29.5715 14.5352C29.1568 14.1341 28.9495 13.5667 28.9495 12.833C28.9495 12.0537 29.2389 11.4658 29.8176 11.0693C30.3964 10.6729 31.2782 10.4564 32.4631 10.4199L33.7688 10.3789V9.97559C33.7688 9.49251 33.6549 9.13249 33.427 8.89551C33.2037 8.65397 32.8551 8.5332 32.3811 8.5332C31.9937 8.5332 31.6223 8.59017 31.2668 8.7041C30.9114 8.81803 30.5696 8.95247 30.2415 9.10742L29.7219 7.95898C30.1321 7.74479 30.581 7.58301 31.0686 7.47363C31.5562 7.3597 32.0165 7.30273 32.4495 7.30273C33.4111 7.30273 34.1357 7.51237 34.6233 7.93164C35.1155 8.35091 35.3616 9.00944 35.3616 9.90723V15H34.2131ZM31.8206 13.9062C32.4039 13.9062 32.871 13.7445 33.2219 13.4209C33.5774 13.0928 33.7551 12.6348 33.7551 12.0469V11.3906L32.7844 11.4316C32.0279 11.459 31.4765 11.5866 31.1301 11.8145C30.7883 12.0378 30.6174 12.3818 30.6174 12.8467C30.6174 13.1839 30.7177 13.446 30.9182 13.6328C31.1187 13.8151 31.4195 13.9062 31.8206 13.9062ZM40.4202 13.8379C40.8121 13.8379 41.204 13.7764 41.5959 13.6533V14.8633C41.4182 14.9408 41.1881 15.0046 40.9055 15.0547C40.6275 15.1094 40.3381 15.1367 40.0374 15.1367C38.5152 15.1367 37.7542 14.3346 37.7542 12.7305V8.65625H36.7219V7.94531L37.8293 7.35742L38.3762 5.75781H39.3674V7.43945H41.5208V8.65625H39.3674V12.7031C39.3674 13.0905 39.4631 13.3776 39.6545 13.5645C39.8505 13.7467 40.1057 13.8379 40.4202 13.8379ZM46.4153 15.1367C45.2395 15.1367 44.3189 14.7949 43.6536 14.1113C42.9928 13.4232 42.6624 12.4775 42.6624 11.2744C42.6624 10.0394 42.97 9.06868 43.5852 8.3623C44.2004 7.65592 45.0458 7.30273 46.1213 7.30273C47.1194 7.30273 47.9078 7.60579 48.4866 8.21191C49.0653 8.81803 49.3547 9.65202 49.3547 10.7139V11.582H44.3167C44.3394 12.3158 44.5377 12.8809 44.9114 13.2773C45.2851 13.6693 45.8114 13.8652 46.4905 13.8652C46.9371 13.8652 47.3518 13.8242 47.7346 13.7422C48.122 13.6556 48.5367 13.5143 48.9788 13.3184V14.624C48.5868 14.8109 48.1903 14.943 47.7893 15.0205C47.3883 15.098 46.9303 15.1367 46.4153 15.1367ZM46.1213 8.51953C45.6109 8.51953 45.2008 8.68132 44.8909 9.00488C44.5855 9.32845 44.4032 9.80013 44.344 10.4199H47.7756C47.7665 9.79557 47.6161 9.32389 47.3245 9.00488C47.0328 8.68132 46.6318 8.51953 46.1213 8.51953Z" fill="#0078BF"/>
</svg>
