<svg width="49" height="15" viewBox="0 0 49 15" fill="none" xmlns="http://www.w3.org/2000/svg">
<path d="M8.62012 1.00586V7.47266C8.62012 8.21094 8.46061 8.85807 8.1416 9.41406C7.82715 9.96549 7.36914 10.3916 6.76758 10.6924C6.17057 10.9886 5.45508 11.1367 4.62109 11.1367C3.38151 11.1367 2.41764 10.8086 1.72949 10.1523C1.04134 9.49609 0.697266 8.59375 0.697266 7.44531V1.00586H2.33789V7.3291C2.33789 8.15397 2.5293 8.76237 2.91211 9.1543C3.29492 9.54622 3.88281 9.74219 4.67578 9.74219C6.21615 9.74219 6.98633 8.93327 6.98633 7.31543V1.00586H8.62012ZM14.8408 11.1367C13.8838 11.1367 13.141 10.7926 12.6123 10.1045H12.5166C12.5804 10.7425 12.6123 11.1299 12.6123 11.2666V14.3633H11.0059V3.43945H12.3047C12.3411 3.58073 12.4163 3.91797 12.5303 4.45117H12.6123C13.1136 3.68555 13.8656 3.30273 14.8682 3.30273C15.8115 3.30273 16.5452 3.64453 17.0693 4.32812C17.598 5.01172 17.8623 5.97103 17.8623 7.20605C17.8623 8.44108 17.5934 9.40495 17.0557 10.0977C16.5225 10.7904 15.7842 11.1367 14.8408 11.1367ZM14.4512 4.61523C13.8132 4.61523 13.346 4.80208 13.0498 5.17578C12.7581 5.54948 12.6123 6.14648 12.6123 6.9668V7.20605C12.6123 8.12663 12.7581 8.79427 13.0498 9.20898C13.3415 9.61914 13.8177 9.82422 14.4785 9.82422C15.0345 9.82422 15.4629 9.59635 15.7637 9.14062C16.0645 8.6849 16.2148 8.03548 16.2148 7.19238C16.2148 6.34473 16.0645 5.70443 15.7637 5.27148C15.4674 4.83398 15.0299 4.61523 14.4512 4.61523ZM22.2783 11.1367C21.335 11.1367 20.599 10.7949 20.0703 10.1113C19.5417 9.42773 19.2773 8.46842 19.2773 7.2334C19.2773 5.99382 19.5439 5.02995 20.0771 4.3418C20.6149 3.64909 21.3577 3.30273 22.3057 3.30273C23.2992 3.30273 24.0557 3.6696 24.5752 4.40332H24.6572C24.5798 3.861 24.541 3.43262 24.541 3.11816V0.363281H26.1543V11H24.8965L24.6162 10.0088H24.541C24.026 10.7607 23.2718 11.1367 22.2783 11.1367ZM22.709 9.83789C23.3698 9.83789 23.8506 9.65332 24.1514 9.28418C24.4521 8.91048 24.6071 8.30664 24.6162 7.47266V7.24707C24.6162 6.2946 24.4613 5.61784 24.1514 5.2168C23.8415 4.81576 23.3561 4.61523 22.6953 4.61523C22.1302 4.61523 21.695 4.84538 21.3896 5.30566C21.0843 5.76139 20.9316 6.41309 20.9316 7.26074C20.9316 8.09928 21.0798 8.73958 21.376 9.18164C21.6722 9.61914 22.1165 9.83789 22.709 9.83789ZM33.1816 11L32.8604 9.94727H32.8057C32.4411 10.4076 32.0742 10.722 31.7051 10.8906C31.3359 11.0547 30.862 11.1367 30.2832 11.1367C29.5404 11.1367 28.9593 10.9362 28.54 10.5352C28.1253 10.1341 27.918 9.56673 27.918 8.83301C27.918 8.05371 28.2074 7.46582 28.7861 7.06934C29.3649 6.67285 30.2467 6.45638 31.4316 6.41992L32.7373 6.37891V5.97559C32.7373 5.49251 32.6234 5.13249 32.3955 4.89551C32.1722 4.65397 31.8236 4.5332 31.3496 4.5332C30.9622 4.5332 30.5908 4.59017 30.2354 4.7041C29.8799 4.81803 29.5381 4.95247 29.21 5.10742L28.6904 3.95898C29.1006 3.74479 29.5495 3.58301 30.0371 3.47363C30.5247 3.3597 30.985 3.30273 31.418 3.30273C32.3796 3.30273 33.1042 3.51237 33.5918 3.93164C34.084 4.35091 34.3301 5.00944 34.3301 5.90723V11H33.1816ZM30.7891 9.90625C31.3724 9.90625 31.8395 9.74447 32.1904 9.4209C32.5459 9.09277 32.7236 8.63477 32.7236 8.04688V7.39062L31.7529 7.43164C30.9964 7.45898 30.445 7.58659 30.0986 7.81445C29.7568 8.03776 29.5859 8.38184 29.5859 8.84668C29.5859 9.18392 29.6862 9.44596 29.8867 9.63281C30.0872 9.8151 30.388 9.90625 30.7891 9.90625ZM39.3887 9.83789C39.7806 9.83789 40.1725 9.77637 40.5645 9.65332V10.8633C40.3867 10.9408 40.1566 11.0046 39.874 11.0547C39.596 11.1094 39.3066 11.1367 39.0059 11.1367C37.4837 11.1367 36.7227 10.3346 36.7227 8.73047V4.65625H35.6904V3.94531L36.7979 3.35742L37.3447 1.75781H38.3359V3.43945H40.4893V4.65625H38.3359V8.70312C38.3359 9.09049 38.4316 9.3776 38.623 9.56445C38.819 9.74674 39.0742 9.83789 39.3887 9.83789ZM45.3838 11.1367C44.208 11.1367 43.2874 10.7949 42.6221 10.1113C41.9613 9.42318 41.6309 8.47754 41.6309 7.27441C41.6309 6.03939 41.9385 5.06868 42.5537 4.3623C43.1689 3.65592 44.0143 3.30273 45.0898 3.30273C46.0879 3.30273 46.8763 3.60579 47.4551 4.21191C48.0339 4.81803 48.3232 5.65202 48.3232 6.71387V7.58203H43.2852C43.3079 8.31576 43.5062 8.88086 43.8799 9.27734C44.2536 9.66927 44.7799 9.86523 45.459 9.86523C45.9056 9.86523 46.3203 9.82422 46.7031 9.74219C47.0905 9.6556 47.5052 9.51432 47.9473 9.31836V10.624C47.5553 10.8109 47.1589 10.943 46.7578 11.0205C46.3568 11.098 45.8988 11.1367 45.3838 11.1367ZM45.0898 4.51953C44.5794 4.51953 44.1693 4.68132 43.8594 5.00488C43.554 5.32845 43.3717 5.80013 43.3125 6.41992H46.7441C46.735 5.79557 46.5846 5.32389 46.293 5.00488C46.0013 4.68132 45.6003 4.51953 45.0898 4.51953Z" fill="#BDBDBD"/>
</svg>
