<svg width="15" height="7" viewBox="0 0 15 7" fill="none" xmlns="http://www.w3.org/2000/svg">
<path fill-rule="evenodd" clip-rule="evenodd" d="M5.625 0H4.37496C1.96255 0 0 1.57049 0 3.50005C0 5.42951 1.96255 7 4.37496 7H5.625C5.97004 7 6.24996 6.77652 6.24996 6.50003C6.24996 6.22354 5.97004 5.99997 5.625 5.99997H4.37496C2.65183 5.99997 1.25004 4.87855 1.25004 3.50005C1.25004 2.12154 2.65183 1.00003 4.37496 1.00003H5.625C5.97004 1.00003 6.24996 0.776547 6.24996 0.500059C6.24996 0.223571 5.97004 0 5.625 0ZM10.625 0H9.375C9.02996 0 8.75004 0.223571 8.75004 0.500059C8.75004 0.776547 9.02996 1.00003 9.375 1.00003H10.625C12.3482 1.00003 13.75 2.12154 13.75 3.50005C13.75 4.87855 12.3482 5.99997 10.625 5.99997H9.375C9.02996 5.99997 8.75004 6.22354 8.75004 6.50003C8.75004 6.77652 9.02996 7 9.375 7H10.625C13.0375 7 15 5.42951 15 3.50005C15 1.57049 13.0375 0 10.625 0ZM5.62496 3.00028H9.37496C9.72 3.00028 9.99992 3.22385 9.99992 3.50034C9.99992 3.77683 9.72 4.00031 9.37496 4.00031H5.62496C5.27992 4.00031 5 3.77683 5 3.50034C5 3.22385 5.27992 3.00028 5.62496 3.00028Z" fill="black"/>
</svg>
